<svg xmlns="http://www.w3.org/2000/svg" width="187" height="187" viewBox="0 0 187 187">
  <g id="Grupo_132747" data-name="Grupo 132747" transform="translate(10475 5747.231)">
    <g id="Grupo_131918" data-name="Grupo 131918" transform="translate(-10465.08 -5737.5)">
      <g id="Trazado_187974" data-name="Trazado 187974" transform="translate(0.08 0.269)" fill="#fff">
        <path d="M 83.5 172 C 77.49864959716797 172 71.49960327148438 171.3950958251953 65.66944885253906 170.2020721435547 C 59.98495101928711 169.0388488769531 54.39345169067383 167.3031463623047 49.05027389526367 165.0431823730469 C 43.80519866943359 162.82470703125 38.74672317504883 160.0791015625 34.01532363891602 156.8826293945312 C 29.33017539978027 153.7174072265625 24.92462539672852 150.08251953125 20.92104911804199 146.0789489746094 C 16.9174747467041 142.0753784179688 13.28260040283203 137.6698303222656 10.11737537384033 132.9846801757812 C 6.920899868011475 128.2532806396484 4.175300121307373 123.1948013305664 1.956825017929077 117.9497222900391 C -0.3031499981880188 112.6065521240234 -2.038850069046021 107.0150527954102 -3.202075004577637 101.3305511474609 C -4.395100116729736 95.50039672851562 -5 89.50135040283203 -5 83.5 C -5 77.49864959716797 -4.395100116729736 71.49960327148438 -3.202075004577637 65.66944885253906 C -2.038850069046021 59.98495101928711 -0.3031499981880188 54.39345169067383 1.956825017929077 49.05027389526367 C 4.175300121307373 43.80519866943359 6.920899868011475 38.74672317504883 10.11737537384033 34.01532363891602 C 13.28260040283203 29.33017539978027 16.9174747467041 24.92462539672852 20.92104911804199 20.92104911804199 C 24.92462539672852 16.9174747467041 29.33017539978027 13.28260040283203 34.01532363891602 10.11737537384033 C 38.74672317504883 6.920899868011475 43.80519866943359 4.175300121307373 49.05027389526367 1.956825017929077 C 54.39345169067383 -0.3031499981880188 59.98495101928711 -2.038850069046021 65.66944885253906 -3.202075004577637 C 71.49960327148438 -4.395100116729736 77.49864959716797 -5 83.5 -5 C 89.50135040283203 -5 95.50039672851562 -4.395100116729736 101.3305511474609 -3.202075004577637 C 107.0150527954102 -2.038850069046021 112.6065521240234 -0.3031499981880188 117.9497222900391 1.956825017929077 C 123.1948013305664 4.175300121307373 128.2532806396484 6.920899868011475 132.9846801757812 10.11737537384033 C 137.6698303222656 13.28260040283203 142.0753784179688 16.9174747467041 146.0789489746094 20.92104911804199 C 150.08251953125 24.92462539672852 153.7174072265625 29.33017539978027 156.8826293945312 34.01532363891602 C 160.0791015625 38.74672317504883 162.82470703125 43.80519866943359 165.0431823730469 49.05027389526367 C 167.3031463623047 54.39345169067383 169.0388488769531 59.98495101928711 170.2020721435547 65.66944885253906 C 171.3950958251953 71.49960327148438 172 77.49864959716797 172 83.5 C 172 89.50135040283203 171.3950958251953 95.50039672851562 170.2020721435547 101.3305511474609 C 169.0388488769531 107.0150527954102 167.3031463623047 112.6065521240234 165.0431823730469 117.9497222900391 C 162.82470703125 123.1948013305664 160.0791015625 128.2532806396484 156.8826293945312 132.9846801757812 C 153.7174072265625 137.6698303222656 150.08251953125 142.0753784179688 146.0789489746094 146.0789489746094 C 142.0753784179688 150.08251953125 137.6698303222656 153.7174072265625 132.9846801757812 156.8826293945312 C 128.2532806396484 160.0791015625 123.1948013305664 162.82470703125 117.9497222900391 165.0431823730469 C 112.6065521240234 167.3031463623047 107.0150527954102 169.0388488769531 101.3305511474609 170.2020721435547 C 95.50039672851562 171.3950958251953 89.50135040283203 172 83.5 172 Z" stroke="none"/>
        <path d="M 83.5 0 C 37.38421630859375 0 0 37.38421630859375 0 83.5 C 0 129.6157836914062 37.38421630859375 167 83.5 167 C 129.6157836914062 167 167 129.6157836914062 167 83.5 C 167 37.38421630859375 129.6157836914062 0 83.5 0 M 83.5 -10 C 135.0560607910156 -10 177 31.94393920898438 177 83.5 C 177 135.0560607910156 135.0560607910156 177 83.5 177 C 31.94393920898438 177 -10 135.0560607910156 -10 83.5 C -10 31.94393920898438 31.94393920898438 -10 83.5 -10 Z" stroke="none" fill="#ff9500"/>
      </g>
    </g>
    <g id="Grupo_131927" data-name="Grupo 131927" transform="translate(-17937.127 -6153.975)">
      <path id="Trazado_194601" data-name="Trazado 194601" d="M7522.984,446.835c.138.914.324,1.823.4,2.742.068.86.015,1.729.015,2.714.841,0,1.6-.008,2.354,0,1.5.019,2.171.662,2.212,2.164.029,1.073.006,2.147.006,3.347,1.494,0,2.883-.06,4.262.027a2.809,2.809,0,0,1,1.779.617,2.022,2.022,0,0,1,.336,1.773,2.077,2.077,0,0,1-1.488,1.029c-1.556.137-3.131.048-4.888.048,0,1.13,0,2.193,0,3.255,0,2.265-.52,2.793-2.744,2.795h-1.748v7.767c.735,0,1.489,0,2.243,0,1.559.011,2.21.648,2.247,2.22.024,1.081.023,2.163.037,3.244a1.481,1.481,0,0,0,.116.263c1.018,0,2.118-.008,3.218,0a11.332,11.332,0,0,1,1.667.082,1.609,1.609,0,0,1,1.511,1.79,1.627,1.627,0,0,1-1.7,1.614c-1.36.042-2.722.017-4.084.024-.2,0-.406.021-.76.041,0,1.146.008,2.248,0,3.35-.015,1.764-.654,2.408-2.392,2.421-.689.006-1.379,0-2.122,0v7.77c.73,0,1.481,0,2.231,0,1.63.01,2.258.63,2.28,2.28.017,1.178,0,2.357,0,3.665,1.491,0,2.879-.06,4.258.027a2.811,2.811,0,0,1,1.78.615,2.02,2.02,0,0,1,.341,1.772,2.078,2.078,0,0,1-1.489,1.032c-1.555.137-3.131.048-4.889.048,0,1.06,0,2.053,0,3.045-.008,1.936-.628,2.55-2.577,2.557-.623,0-1.245,0-1.93,0v7.76c.814,0,1.575-.011,2.335,0,1.5.027,2.132.656,2.168,2.182.031,1.255.03,2.511.046,3.767,0,.028.038.055.159.222,1.279,0,2.666-.059,4.044.027a2.833,2.833,0,0,1,1.784.609,2.027,2.027,0,0,1,.355,1.771,2.061,2.061,0,0,1-1.479,1.044c-1.584.137-3.187.049-4.906.049,0,1.088.011,2.055,0,3.022-.022,1.682-.666,2.321-2.357,2.352-.692.013-1.385,0-2.145,0v1.7h74.571c.35,0,.7,0,1.047,0,2,.009,2.491.485,2.494,2.452q.01,4.817,0,9.634c0,.733.021,1.467-.014,2.2a1.766,1.766,0,0,1-1.832,1.862c-.347.025-.7.008-1.046.008l-88.385.008a1.9,1.9,0,0,1-2.174-2.168q.007-51.208.028-102.417a13.578,13.578,0,0,1,.376-2.233ZM7511.76,449.8v97.458c2.549-2.751,4.954-5.373,7.395-7.962a2.474,2.474,0,0,0,.721-1.852q-.029-43.241-.017-86.482v-1.142h-2.329v1.2c0,2.862.017,5.724-.008,8.585a1.738,1.738,0,0,1-2.162,1.881c-.849-.18-1.353-.921-1.358-2.09-.013-2.827,0-5.654,0-8.481V449.8Zm2.314,100.229h83.92v-9.036h-49.059c-8.446,0-16.893.012-25.34-.018a2.348,2.348,0,0,0-1.975.88c-1.213,1.395-2.512,2.714-3.77,4.071C7516.627,547.248,7515.411,548.578,7514.075,550.03Zm10.315-86.25v-7.959l-.928.073v7.886Zm.03,14.858-.958.075v7.931l.958-.072Zm-.973,22.881v7.893h.957v-7.893Zm.018,22.778v7.987l.924-.078V524.3Z" transform="translate(0 0)"/>
      <path id="Trazado_194602" data-name="Trazado 194602" d="M7718.626,554.263a7.674,7.674,0,0,1,1.46,1.282q11.134,16.449,22.217,32.935c.35.52.7,1.042,1.056,1.557.976,1.4.733,2.425-.813,3.2q-5.678,2.837-11.371,5.644c-3.735,1.85-7.49,3.664-11.2,5.564a3.138,3.138,0,0,1-3.132-.019c-7.391-3.7-14.808-7.346-22.214-11.013-2.022-1-2.208-1.8-.95-3.662q11.49-17.03,22.959-34.074A2.637,2.637,0,0,1,7718.626,554.263Zm-1.934,28.2-18.02,8.944c6.542,3.249,12.879,6.407,19.235,9.522a1.593,1.593,0,0,0,1.209-.105c4.966-2.428,9.914-4.89,14.867-7.343l4.193-2.076L7720.2,582.5v1.173q0,3.455,0,6.909a5.5,5.5,0,0,1-.077,1.038,1.758,1.758,0,0,1-1.8,1.549,1.741,1.741,0,0,1-1.628-1.838C7716.679,588.439,7716.692,585.55,7716.692,582.464Zm-.062-20.476c-5.627,8.347-11.1,16.464-16.614,24.648.211,0,.285.022.335,0,5.271-2.606,10.545-5.207,15.8-7.85a1.27,1.27,0,0,0,.515-.964c.032-5.024.022-10.048.021-15.073C7716.686,562.591,7716.664,562.434,7716.631,561.989Zm3.67.129c-.058.4-.093.532-.093.662,0,5.02-.019,10.04.026,15.059a1.481,1.481,0,0,0,.7,1.071c4.937,2.492,9.9,4.937,14.854,7.389.233.116.486.192.73.286l.159-.162Z" transform="translate(-148.052 -86.085)"/>
      <path id="Trazado_194603" data-name="Trazado 194603" d="M7767.676,505.752c-1.115,0-2.23.026-3.345-.009a1.71,1.71,0,0,1-1.743-1.6,1.629,1.629,0,0,1,1.527-1.781c2.36-.083,4.729-.08,7.09.01a1.63,1.63,0,0,1,1.49,1.807,1.724,1.724,0,0,1-1.778,1.565C7769.838,505.778,7768.756,505.753,7767.676,505.752Z" transform="translate(-203.902 -44.449)"/>
      <path id="Trazado_194604" data-name="Trazado 194604" d="M7767.7,853.624c-1.115,0-2.23.024-3.345-.007a1.71,1.71,0,0,1-1.755-1.584,1.612,1.612,0,0,1,1.507-1.794c2.36-.091,4.729-.09,7.089,0a1.635,1.635,0,0,1,1.512,1.8,1.727,1.727,0,0,1-1.767,1.581C7769.865,853.648,7768.784,853.624,7767.7,853.624Z" transform="translate(-203.913 -323.203)"/>
      <path id="Trazado_194605" data-name="Trazado 194605" d="M7681.5,505.688c-1.045,0-2.09.023-3.134-.008a1.642,1.642,0,0,1-1.766-1.544,1.568,1.568,0,0,1,1.533-1.852c2.325-.09,4.658-.082,6.984.006a1.622,1.622,0,0,1,1.544,1.766,1.7,1.7,0,0,1-1.819,1.627C7683.73,505.712,7682.615,505.689,7681.5,505.688Z" transform="translate(-134.996 -44.381)"/>
      <path id="Trazado_194606" data-name="Trazado 194606" d="M7681.527,621.559c-1.045,0-2.091.023-3.134-.008a1.669,1.669,0,0,1-1.809-1.619,1.6,1.6,0,0,1,1.605-1.8c2.259-.087,4.524-.086,6.783-.013a1.67,1.67,0,0,1,1.68,1.767,1.728,1.728,0,0,1-1.888,1.671C7683.687,621.581,7682.606,621.56,7681.527,621.559Z" transform="translate(-134.987 -137.209)"/>
      <path id="Trazado_194607" data-name="Trazado 194607" d="M7681.618,853.556c-1.08,0-2.16.022-3.239-.007a1.646,1.646,0,0,1-1.774-1.535,1.561,1.561,0,0,1,1.52-1.863c2.326-.1,4.659-.089,6.984,0a1.625,1.625,0,0,1,1.556,1.76,1.7,1.7,0,0,1-1.808,1.638C7683.777,853.579,7682.7,853.556,7681.618,853.556Z" transform="translate(-134.998 -323.132)"/>
      <path id="Trazado_194608" data-name="Trazado 194608" d="M7853.773,505.688c-1.08,0-2.16.024-3.239-.006a1.734,1.734,0,0,1-1.825-1.632,1.649,1.649,0,0,1,1.563-1.76c2.326-.086,4.659-.1,6.984-.005a1.568,1.568,0,0,1,1.526,1.858,1.652,1.652,0,0,1-1.77,1.539C7855.934,505.711,7854.854,505.687,7853.773,505.688Z" transform="translate(-272.915 -44.381)"/>
      <path id="Trazado_194609" data-name="Trazado 194609" d="M7853.772,853.556c-1.08,0-2.16.022-3.239-.006a1.737,1.737,0,0,1-1.821-1.635,1.648,1.648,0,0,1,1.565-1.761c2.325-.09,4.658-.1,6.983,0a1.566,1.566,0,0,1,1.522,1.862,1.652,1.652,0,0,1-1.771,1.538C7855.933,853.577,7854.853,853.555,7853.772,853.556Z" transform="translate(-272.917 -323.132)"/>
      <path id="Trazado_194610" data-name="Trazado 194610" d="M7728.729,934.957h16.335a6.561,6.561,0,0,1,.94.018,1.615,1.615,0,0,1,1.521,1.589,1.542,1.542,0,0,1-1.18,1.738,4.974,4.974,0,0,1-1.338.164q-16.282.013-32.564,0a4.914,4.914,0,0,1-1.439-.18,1.557,1.557,0,0,1-1.136-1.776,1.643,1.643,0,0,1,1.48-1.53,6.268,6.268,0,0,1,.941-.023Z" transform="translate(-161.649 -391.138)"/>
      <path id="Trazado_194611" data-name="Trazado 194611" d="M7653.2,934.972c.384,0,.768-.019,1.149,0a1.662,1.662,0,0,1,1.686,1.529,1.516,1.516,0,0,1-1.3,1.822,11.773,11.773,0,0,1-3.1,0,1.508,1.508,0,0,1-1.286-1.837,1.614,1.614,0,0,1,1.6-1.5c.415-.04.837-.007,1.255-.007Z" transform="translate(-113.947 -391.149)"/>
      <path id="Trazado_194612" data-name="Trazado 194612" d="M7588.419,934.979a11.882,11.882,0,0,1,1.257.008,1.621,1.621,0,0,1,1.575,1.535,1.467,1.467,0,0,1-1.234,1.783,13.2,13.2,0,0,1-3.2.014,1.515,1.515,0,0,1-1.3-1.747,1.7,1.7,0,0,1,1.65-1.592c.417-.03.838-.005,1.256-.005Z" transform="translate(-62.011 -391.151)"/>
    </g>
  </g>
</svg>
