<svg xmlns="http://www.w3.org/2000/svg" width="187" height="187" viewBox="0 0 187 187">
  <g id="Grupo_132750" data-name="Grupo 132750" transform="translate(11527 5747.23)">
    <g id="Trazado_187974" data-name="Trazado 187974" transform="translate(-11517 -5737.23)" fill="#f3f9ff">
      <path d="M 83.5 172 C 77.49864959716797 172 71.49960327148438 171.3950958251953 65.66944885253906 170.2020721435547 C 59.98495101928711 169.0388488769531 54.39345169067383 167.3031463623047 49.05027389526367 165.0431823730469 C 43.80519866943359 162.82470703125 38.74672317504883 160.0791015625 34.01532363891602 156.8826293945312 C 29.33017539978027 153.7174072265625 24.92462539672852 150.08251953125 20.92104911804199 146.0789489746094 C 16.9174747467041 142.0753784179688 13.28260040283203 137.6698303222656 10.11737537384033 132.9846801757812 C 6.920899868011475 128.2532806396484 4.175300121307373 123.1948013305664 1.956825017929077 117.9497222900391 C -0.3031499981880188 112.6065521240234 -2.038850069046021 107.0150527954102 -3.202075004577637 101.3305511474609 C -4.395100116729736 95.50039672851562 -5 89.50135040283203 -5 83.5 C -5 77.49864959716797 -4.395100116729736 71.49960327148438 -3.202075004577637 65.66944885253906 C -2.038850069046021 59.98495101928711 -0.3031499981880188 54.39345169067383 1.956825017929077 49.05027389526367 C 4.175300121307373 43.80519866943359 6.920899868011475 38.74672317504883 10.11737537384033 34.01532363891602 C 13.28260040283203 29.33017539978027 16.9174747467041 24.92462539672852 20.92104911804199 20.92104911804199 C 24.92462539672852 16.9174747467041 29.33017539978027 13.28260040283203 34.01532363891602 10.11737537384033 C 38.74672317504883 6.920899868011475 43.80519866943359 4.175300121307373 49.05027389526367 1.956825017929077 C 54.39345169067383 -0.3031499981880188 59.98495101928711 -2.038850069046021 65.66944885253906 -3.202075004577637 C 71.49960327148438 -4.395100116729736 77.49864959716797 -5 83.5 -5 C 89.50135040283203 -5 95.50039672851562 -4.395100116729736 101.3305511474609 -3.202075004577637 C 107.0150527954102 -2.038850069046021 112.6065521240234 -0.3031499981880188 117.9497222900391 1.956825017929077 C 123.1948013305664 4.175300121307373 128.2532806396484 6.920899868011475 132.9846801757812 10.11737537384033 C 137.6698303222656 13.28260040283203 142.0753784179688 16.9174747467041 146.0789489746094 20.92104911804199 C 150.08251953125 24.92462539672852 153.7174072265625 29.33017539978027 156.8826293945312 34.01532363891602 C 160.0791015625 38.74672317504883 162.82470703125 43.80519866943359 165.0431823730469 49.05027389526367 C 167.3031463623047 54.39345169067383 169.0388488769531 59.98495101928711 170.2020721435547 65.66944885253906 C 171.3950958251953 71.49960327148438 172 77.49864959716797 172 83.5 C 172 89.50135040283203 171.3950958251953 95.50039672851562 170.2020721435547 101.3305511474609 C 169.0388488769531 107.0150527954102 167.3031463623047 112.6065521240234 165.0431823730469 117.9497222900391 C 162.82470703125 123.1948013305664 160.0791015625 128.2532806396484 156.8826293945312 132.9846801757812 C 153.7174072265625 137.6698303222656 150.08251953125 142.0753784179688 146.0789489746094 146.0789489746094 C 142.0753784179688 150.08251953125 137.6698303222656 153.7174072265625 132.9846801757812 156.8826293945312 C 128.2532806396484 160.0791015625 123.1948013305664 162.82470703125 117.9497222900391 165.0431823730469 C 112.6065521240234 167.3031463623047 107.0150527954102 169.0388488769531 101.3305511474609 170.2020721435547 C 95.50039672851562 171.3950958251953 89.50135040283203 172 83.5 172 Z" stroke="none"/>
      <path d="M 83.5 0 C 37.38421630859375 0 0 37.38421630859375 0 83.5 C 0 129.6157836914062 37.38421630859375 167 83.5 167 C 129.6157836914062 167 167 129.6157836914062 167 83.5 C 167 37.38421630859375 129.6157836914062 0 83.5 0 M 83.5 -10 C 135.0560607910156 -10 177 31.94393920898438 177 83.5 C 177 135.0560607910156 135.0560607910156 177 83.5 177 C 31.94393920898438 177 -10 135.0560607910156 -10 83.5 C -10 31.94393920898438 31.94393920898438 -10 83.5 -10 Z" stroke="none" fill="#ff9500"/>
    </g>
  </g>
</svg>
