<svg xmlns="http://www.w3.org/2000/svg" width="43.628" height="43.323" viewBox="0 0 43.628 43.323">
  <path id="Trazado_195100" data-name="Trazado 195100" d="M726,87.6l6.43-10.365-3.174-1.966a2.9,2.9,0,0,1-1.346-2.728,16.777,16.777,0,0,0,.058-1.823,2.9,2.9,0,0,1,1.513-2.632l3.29-1.764-5.766-10.753-3.29,1.765a2.9,2.9,0,0,1-3.029-.2,17.089,17.089,0,0,0-1.551-.961,2.9,2.9,0,0,1-1.528-2.63l.119-3.733-12.191-.378-.113,3.745a2.9,2.9,0,0,1-1.7,2.523q-.405.191-.8.4t-.78.444a2.892,2.892,0,0,1-3.028.022l-3.2-1.98-6.429,10.365,3.18,1.974a2.9,2.9,0,0,1,1.344,2.73,16.879,16.879,0,0,0-.06,1.815,2.9,2.9,0,0,1-1.513,2.629l-3.292,1.765,5.766,10.752,3.291-1.765a2.9,2.9,0,0,1,3.027.193,16.767,16.767,0,0,0,1.546.955,2.9,2.9,0,0,1,1.531,2.63l-.115,3.741,12.191.379.116-3.743a2.9,2.9,0,0,1,1.7-2.514q.405-.191.808-.407t.78-.444a2.9,2.9,0,0,1,3.043-.021Zm-10.322-7.7a9.991,9.991,0,1,1,4.09-13.525A9.983,9.983,0,0,1,715.682,79.9Z" transform="translate(-689.146 -49.433)" fill="#ebebeb"/>
</svg>
