<svg id="Grupo_132561" data-name="Grupo 132561" xmlns="http://www.w3.org/2000/svg" width="75.688" height="75.688" viewBox="0 0 75.688 75.688">
  <path id="Trazado_194865" data-name="Trazado 194865" d="M725.846,245.631V235.026l-6.818-.533a30.82,30.82,0,0,0-4.85-11.821l4.713-5.511-7.5-7.5-5.53,4.729a30.83,30.83,0,0,0-11.418-4.719l-.6-7.724h-10.6l-.6,7.724a30.805,30.805,0,0,0-11.091,4.508l-6.17-5.276-7.5,7.5,5.178,6.055a30.843,30.843,0,0,0-4.762,10.861l-8.13.635v10.6l7.793.609a30.8,30.8,0,0,0,4.254,11.3l-5.09,5.953,7.5,7.5,5.612-4.8a30.854,30.854,0,0,0,11.368,5.2l.571,7.313h10.605l.538-6.887a30.808,30.808,0,0,0,12.037-4.592l5.29,4.524,7.5-7.5-4.348-5.085a30.851,30.851,0,0,0,5.164-11.926Zm-37.307,8.954a14.48,14.48,0,1,1,14.484-14.476A14.477,14.477,0,0,1,688.539,254.585Z" transform="translate(-650.158 -201.948)" fill="#ebebeb"/>
</svg>
