<svg xmlns="http://www.w3.org/2000/svg" width="70.376" height="69.82" viewBox="0 0 70.376 69.82">
  <path id="Trazado_195099" data-name="Trazado 195099" d="M202.469,158.073l-9.905-17.168-5.254,3.036a4.712,4.712,0,0,1-4.941-.168,27.529,27.529,0,0,0-2.567-1.484A4.708,4.708,0,0,1,177.2,138.1v-6.068H157.368V138.1a4.709,4.709,0,0,1-2.606,4.188,27.428,27.428,0,0,0-2.568,1.484,4.712,4.712,0,0,1-4.94.168L142,140.905l-9.906,17.168,5.279,3.039a4.719,4.719,0,0,1,2.308,4.373q-.037.726-.037,1.46c0,.488.012.975.037,1.458a4.7,4.7,0,0,1-2.294,4.355l-5.292,3.058L142,192.983l5.269-3.038a4.712,4.712,0,0,1,4.942.173,27.316,27.316,0,0,0,2.555,1.48,4.711,4.711,0,0,1,2.6,4.187v6.069H177.2v-6.069a4.71,4.71,0,0,1,2.6-4.187,27.186,27.186,0,0,0,2.555-1.48,4.713,4.713,0,0,1,4.942-.173l5.269,3.038,9.905-17.168-5.271-3.041a4.707,4.707,0,0,1-2.3-4.36q.037-.729.037-1.469t-.037-1.46a4.723,4.723,0,0,1,2.307-4.375Zm-18.951,8.871A16.237,16.237,0,1,1,167.29,150.7,16.224,16.224,0,0,1,183.518,166.944Z" transform="translate(-132.093 -132.034)" fill="#ebebeb"/>
</svg>
