<svg xmlns="http://www.w3.org/2000/svg" width="608.64" height="432.724" viewBox="0 0 608.64 432.724">
  <g id="Grupo_132471" data-name="Grupo 132471" transform="translate(-68.401 -13.897)">
    <g id="Background_Complete" data-name="Background Complete" transform="translate(103.735 45.615)">
      <g id="Grupo_132336" data-name="Grupo 132336" transform="translate(0 193.278)">
        <path id="Trazado_194866" data-name="Trazado 194866" d="M246.33,360.813h-138.3V266.194h138.3ZM109.12,359.72H245.238V267.286H109.12Z" transform="translate(-108.028 -266.194)" fill="#ebebeb"/>
        <g id="Grupo_132335" data-name="Grupo 132335" transform="translate(5.308 3.343)">
          <path id="Trazado_194867" data-name="Trazado 194867" d="M119.487,272.7a2.753,2.753,0,1,1-2.753-2.753A2.754,2.754,0,0,1,119.487,272.7Z" transform="translate(-113.981 -269.943)" fill="#a6a6a6"/>
          <path id="Trazado_194868" data-name="Trazado 194868" d="M132.093,272.7a2.753,2.753,0,1,1-2.753-2.753A2.753,2.753,0,0,1,132.093,272.7Z" transform="translate(-115.347 -269.943)" fill="#ebebeb"/>
          <path id="Trazado_194869" data-name="Trazado 194869" d="M144.7,272.7a2.753,2.753,0,1,1-2.753-2.753A2.753,2.753,0,0,1,144.7,272.7Z" transform="translate(-116.712 -269.943)" fill="#ffc727"/>
        </g>
        <rect id="Rectángulo_294801" data-name="Rectángulo 294801" width="137.21" height="1.092" transform="translate(0.546 10.942)" fill="#ebebeb"/>
      </g>
    </g>
    <g id="Window" transform="translate(202.286 14.193)">
      <g id="Grupo_132342" data-name="Grupo 132342" transform="translate(0)">
        <rect id="Rectángulo_294802" data-name="Rectángulo 294802" width="283.857" height="220.894" transform="translate(0.295)" fill="#fff" stroke="#263238" stroke-miterlimit="10" stroke-width="0.592"/>
        <g id="Grupo_132338" data-name="Grupo 132338">
          <rect id="Rectángulo_294803" data-name="Rectángulo 294803" width="284.153" height="8.5" fill="#455a64"/>
          <g id="Grupo_132337" data-name="Grupo 132337" transform="translate(2.54 2.142)">
            <circle id="Elipse_5290" data-name="Elipse 5290" cx="2.108" cy="2.108" r="2.108" transform="translate(0 0)" fill="#c7c7c7"/>
            <path id="Trazado_194872" data-name="Trazado 194872" d="M235.272,18.7a2.108,2.108,0,1,1-2.109-2.108A2.109,2.109,0,0,1,235.272,18.7Z" transform="translate(-222.447 -16.595)" fill="#fff"/>
            <path id="Trazado_194873" data-name="Trazado 194873" d="M244.925,18.7a2.108,2.108,0,1,1-2.108-2.108A2.108,2.108,0,0,1,244.925,18.7Z" transform="translate(-223.493 -16.595)" fill="#ffc727"/>
          </g>
        </g>
        <g id="Grupo_132341" data-name="Grupo 132341" transform="translate(0 8.5)">
          <g id="Grupo_132339" data-name="Grupo 132339">
            <rect id="Rectángulo_294804" data-name="Rectángulo 294804" width="13.256" height="212.394" fill="#a6a6a6"/>
            <rect id="Rectángulo_294805" data-name="Rectángulo 294805" width="9.535" height="9.535" transform="translate(1.86 2.619)" fill="none" stroke="#c7c7c7" stroke-miterlimit="10" stroke-width="0.394"/>
            <rect id="Rectángulo_294806" data-name="Rectángulo 294806" width="9.535" height="9.535" transform="translate(1.86 15.018)" fill="none" stroke="#c7c7c7" stroke-miterlimit="10" stroke-width="0.394"/>
            <rect id="Rectángulo_294807" data-name="Rectángulo 294807" width="9.535" height="9.535" transform="translate(1.86 27.417)" fill="none" stroke="#c7c7c7" stroke-miterlimit="10" stroke-width="0.394"/>
            <rect id="Rectángulo_294808" data-name="Rectángulo 294808" width="9.535" height="9.535" transform="translate(1.86 39.816)" fill="none" stroke="#c7c7c7" stroke-miterlimit="10" stroke-width="0.394"/>
            <rect id="Rectángulo_294809" data-name="Rectángulo 294809" width="9.535" height="9.535" transform="translate(1.86 52.215)" fill="none" stroke="#c7c7c7" stroke-miterlimit="10" stroke-width="0.394"/>
            <rect id="Rectángulo_294810" data-name="Rectángulo 294810" width="9.535" height="9.535" transform="translate(1.86 64.614)" fill="none" stroke="#c7c7c7" stroke-miterlimit="10" stroke-width="0.394"/>
            <rect id="Rectángulo_294811" data-name="Rectángulo 294811" width="9.535" height="9.535" transform="translate(1.86 77.013)" fill="none" stroke="#c7c7c7" stroke-miterlimit="10" stroke-width="0.394"/>
          </g>
          <g id="Grupo_132340" data-name="Grupo 132340" transform="translate(13.256 18.166)">
            <rect id="Rectángulo_294812" data-name="Rectángulo 294812" width="270.896" height="194.228" fill="#385164" opacity="0.95" style="isolation: isolate"/>
          </g>
          <rect id="Rectángulo_294813" data-name="Rectángulo 294813" width="270.896" height="18.166" transform="translate(13.256)" fill="#dbdbdb"/>
        </g>
      </g>
    </g>
    <g id="_3D_figures" data-name="3D figures" transform="translate(68.401 298.977)">
      <g id="Grupo_132344" data-name="Grupo 132344">
        <path id="Trazado_194962" data-name="Trazado 194962" d="M61.247,0A61.247,61.247,0,1,1,0,61.247,61.247,61.247,0,0,1,61.247,0Z" transform="translate(0 119.129) rotate(-76.539)" fill="#ff9500"/>
        <g id="Grupo_132343" data-name="Grupo 132343" transform="translate(17.919 14.25)">
          <circle id="Elipse_5292" data-name="Elipse 5292" cx="29.527" cy="29.527" r="29.527" transform="translate(5.618 6.195)" fill="#fff" opacity="0.15"/>
          <circle id="Elipse_5293" data-name="Elipse 5293" cx="21.654" cy="21.654" r="21.654" transform="translate(0 33.25) rotate(-50.153)" fill="#fff" opacity="0.15"/>
          <circle id="Elipse_5294" data-name="Elipse 5294" cx="16.222" cy="16.222" r="16.222" transform="translate(11.615 10.194)" fill="#fff" opacity="0.15"/>
        </g>
      </g>
    </g>
    <g id="Character" transform="translate(176.654 50.652)">
      <path id="Trazado_194963" data-name="Trazado 194963" d="M389.872,61.627a57.945,57.945,0,0,0-58.31-.394c-19.75,11.371-30.782,31.625-29.509,54.179a58.324,58.324,0,0,0,35.058,50.553,57.386,57.386,0,0,0,23.136,4.844,58.985,58.985,0,0,0,30.284-8.4A57.783,57.783,0,0,0,418.869,116.8l.178-4.594A58.025,58.025,0,0,0,389.872,61.627Zm-65.4,93.476a46.346,46.346,0,0,1-6.58-8.8,61.344,61.344,0,0,0,9.247,2.547,61.837,61.837,0,0,0,8.2,8.095c-2.217.872-3.612,1.875-3.939,2.959-.159-.092-.321-.178-.479-.271-.294-.175-.58-.362-.872-.543-.472-.293-.945-.585-1.408-.89-.3-.2-.593-.408-.89-.612-.44-.3-.88-.6-1.31-.918-.161-.118-.317-.239-.474-.359Q325.208,155.719,324.473,155.1Zm85.261-16.211a4.65,4.65,0,0,0-.681-.937,9.619,9.619,0,0,0-1.986-1.573,59.488,59.488,0,0,0,2.562-17.374,20.53,20.53,0,0,0,6.677-3.679l-.05,1.295A55.554,55.554,0,0,1,409.734,138.891Zm-20.806,20.032a8.369,8.369,0,0,0-2.841-1.777,62,62,0,0,0,8.765-8.507,61.5,61.5,0,0,0,7.316-2.015,45.435,45.435,0,0,1-7.446,9.777,58.371,58.371,0,0,1-5.2,3.554A2.442,2.442,0,0,0,388.928,158.923Zm-28.763,7.755v-.006c-.006-.127-.012-.257-.018-.394l-.007-.174c-.007-.154-.013-.311-.02-.477l-.005-.147c-.007-.176-.013-.356-.02-.544l-.006-.163c-.006-.2-.013-.4-.02-.61l0-.093c-.008-.237-.016-.48-.023-.732l0-.048c-.008-.262-.015-.532-.023-.811l0-.088c-.007-.276-.015-.559-.022-.852v-.033c-.007-.3-.015-.615-.022-.934l0-.091c-.007-.311-.014-.63-.021-.958v-.057c-.007-.33-.014-.667-.021-1.012l0-.165c-.006-.33-.012-.664-.019-1.008v-.065q-.01-.565-.02-1.156v0c-.01-.619-.019-1.265-.029-1.926.2,0,.406,0,.611,0h.261c-.006.274-.012.551-.018.819-.007.317-.015.622-.022.931-.007.285-.014.575-.021.853s-.014.563-.022.841-.015.585-.023.866c-.007.263-.014.516-.021.771s-.016.539-.023.8-.017.518-.024.773c-.007.239-.015.481-.022.71s-.016.46-.024.687-.016.463-.024.683-.017.433-.024.646-.016.41-.024.6-.017.4-.025.6-.016.365-.024.537c-.008.188-.017.364-.025.541-.008.159-.016.32-.024.469s-.016.285-.024.424Zm.122.455v0c-.009.145-.017.277-.027.409,0,.048-.006.093-.01.14l-.032-.015v-.015c-.005-.085-.01-.172-.016-.264,0-.063-.007-.131-.01-.2l0-.061Zm-48.793-27.862a5.539,5.539,0,0,1,1.811-2.017,51.986,51.986,0,0,0,3.531,8.117,21.591,21.591,0,0,1-2.253-1.1A55.384,55.384,0,0,1,311.495,139.272Zm49.249-81.527c0,.081.008.159.012.244l0,.041c.008.181.016.371.024.567l0,.068c.008.195.015.4.023.61l0,.078q.012.33.024.685l0,.048c.007.228.015.466.022.709l0,.114c.008.246.015.5.022.76l0,.086c.008.273.015.555.023.845l0,.069c.007.291.014.591.022.9l0,.079c.007.3.014.607.02.922l0,.117q.01.476.02.975l0,.111c.007.331.013.669.019,1.014l0,.138c.006.329.012.667.017,1.009,0,.069,0,.136,0,.206.005.3.01.619.015.934,0,.124,0,.246.006.371,0,.278.009.564.012.849-.2,0-.406,0-.61,0h-.262c.006-.273.012-.551.018-.818.007-.312.014-.613.022-.918s.013-.585.021-.868.014-.552.021-.827c.008-.295.015-.593.023-.879.007-.259.014-.507.022-.757.008-.274.015-.55.023-.813s.016-.51.024-.762.015-.489.023-.722.016-.453.023-.676.017-.47.024-.694.016-.425.024-.633.017-.418.024-.616.017-.393.024-.585.016-.372.024-.547.017-.359.026-.533.016-.325.024-.476.016-.284.024-.424Zm-.122-.455v0c.009-.143.017-.274.026-.4l.01-.142.032.015c0,.053.006.1.01.157l0,.046c.006.1.012.22.018.333Zm48.832,27.784a5.424,5.424,0,0,1-1.85,2.095,52.022,52.022,0,0,0-3.532-8.117,21.381,21.381,0,0,1,2.326,1.141A54.894,54.894,0,0,1,409.454,85.074Zm-47.238,82.45c.272-.129.543-.274.813-.416q.779-.016,1.546-.038Q363.4,167.326,362.216,167.524Zm4.657-.549c2.125-.106,4.161-.263,6.076-.469a58.612,58.612,0,0,1-9.268,1.216C364.755,167.512,365.818,167.259,366.873,166.975Zm-3.952-.322q-1.067.021-2.151.024c.007-.127.014-.252.021-.387.01-.174.018-.36.028-.548.007-.154.015-.305.022-.468.01-.2.018-.407.027-.619.007-.168.015-.335.022-.511.009-.227.018-.466.027-.7.007-.181.014-.358.021-.544.009-.254.018-.521.027-.788.007-.192.013-.381.019-.58.01-.277.018-.564.027-.853.007-.209.013-.414.019-.628.009-.3.017-.6.026-.912.007-.226.013-.449.019-.681.009-.317.017-.646.025-.975.006-.234.012-.464.018-.7.009-.352.017-.715.026-1.077.005-.236.011-.467.017-.707.006-.282.013-.571.019-.859a112.1,112.1,0,0,1,13.881.9C371.426,160.292,367.309,164.325,362.921,166.653Zm-.92.472c-.428.2-.86.38-1.293.55,0-.047.006-.1.01-.148.008-.115.016-.23.024-.356l0-.038C361.164,167.131,361.585,167.13,362,167.125ZM304.648,114.8q-.127-2.615-.026-5.181c.044-.05.084-.1.134-.15.088-.088.194-.174.29-.261.127-.115.248-.232.389-.346.115-.092.249-.183.373-.275.143-.106.279-.214.435-.319s.306-.192.46-.288.305-.2.473-.293.37-.2.558-.3c.165-.089.322-.178.5-.265.211-.106.441-.211.665-.316.168-.079.33-.159.505-.237.253-.112.523-.222.79-.332.165-.068.321-.137.49-.2.195-.077.4-.151.605-.227,0,.4.017.8.026,1.2a64.649,64.649,0,0,0-1.035,11.167c-.173-.071-.339-.143-.505-.215s-.316-.131-.464-.2c-.209-.093-.4-.188-.6-.284-.142-.068-.292-.134-.43-.2-.188-.093-.359-.189-.537-.284-.134-.072-.276-.142-.4-.215-.167-.093-.317-.188-.473-.284-.124-.075-.257-.149-.374-.225-.15-.1-.284-.195-.424-.292-.108-.076-.225-.15-.327-.227-.14-.1-.263-.21-.39-.316-.086-.071-.182-.141-.263-.213C304.924,115.084,304.785,114.943,304.648,114.8Zm6.755-5.48a66.388,66.388,0,0,0,1.3,9.756c-.179-.06-.352-.122-.525-.183s-.371-.127-.548-.191c-.235-.086-.455-.175-.682-.262l-.221-.086A63.891,63.891,0,0,1,311.4,109.321Zm31.1-35.422a88.761,88.761,0,0,0-7.9,19.385q-.849-.118-1.676-.243a78.27,78.27,0,0,1,3.482-18.5Q339.346,74.176,342.507,73.9Zm-5.928.144a48.785,48.785,0,0,1,2.227-5.475,59.746,59.746,0,0,0,6.257,1.19q-1.169,1.741-2.265,3.646C340.648,73.587,338.57,73.8,336.579,74.044Zm-2.212,49.393c-.165-.019-.334-.037-.5-.057-.377-.044-.746-.092-1.118-.139-.32-.04-.643-.079-.96-.12-.3-.038-.585-.08-.877-.12a110.636,110.636,0,0,1,1.382-17.107A118.674,118.674,0,0,0,334.367,123.437ZM332.185,100.8l-.51.067-.258.034q-1.1.148-2.164.3l-.133.019a95.024,95.024,0,0,0-16.961,3.876,66.6,66.6,0,0,1,5.292-15.3,72.838,72.838,0,0,0,14.993,3.661C332.276,95.838,332.189,98.289,332.185,100.8Zm.455-.06c.005-2.465.09-4.873.255-7.21q.783.118,1.584.228c-.632,2.271-1.2,4.593-1.694,6.963Zm.059.421c-.019.094-.037.188-.056.282,0-.092,0-.182,0-.274Zm-.027,2.516q.233-1.3.5-2.575c4.107-.5,8.511-.89,13.142-1.153l.092-.005q1.245-.071,2.51-.127l.274-.013c.779-.035,1.566-.065,2.356-.092l.491-.017c.718-.024,1.442-.043,2.168-.06l.739-.018q.962-.02,1.934-.032l1.036-.013c.469,0,.943-.006,1.416-.008V99.7q-.01,1.28-.019,2.577v.1c-.005.75-.01,1.508-.014,2.266,0,.172,0,.342,0,.515-.023,3.695-.039,7.47-.05,11.279,0,.194,0,.388,0,.582q0,1.119-.005,2.241,0,.559,0,1.118,0,.879,0,1.758c0,.349,0,.7,0,1.046q0,.842,0,1.685c-.436,0-.869-.008-1.3-.012-.345,0-.691,0-1.035-.01-.47-.007-.937-.017-1.406-.026-.347-.007-.7-.012-1.043-.021-.465-.01-.927-.025-1.389-.039-.344-.01-.688-.019-1.03-.031-.463-.016-.922-.035-1.382-.053-.337-.013-.676-.025-1.011-.04-.445-.019-.886-.042-1.327-.065-.347-.017-.7-.032-1.042-.051-.422-.024-.839-.05-1.259-.074-.357-.022-.717-.041-1.071-.064-.422-.027-.838-.058-1.256-.087-.345-.024-.692-.046-1.034-.072-.424-.031-.841-.066-1.261-.1-.332-.027-.667-.051-1-.08-.413-.035-.818-.073-1.227-.11-.33-.031-.662-.058-.988-.09-.393-.038-.779-.079-1.167-.119-.336-.034-.675-.067-1.009-.1-.38-.04-.754-.085-1.13-.127l-.029,0A118.228,118.228,0,0,1,332.673,103.675Zm3.032,20.4c.356.038.719.073,1.079.109s.732.076,1.1.112.73.066,1.1.1.753.07,1.134.1c.36.031.727.058,1.091.086.4.031.787.065,1.186.093.361.027.729.051,1.093.076.407.028.811.057,1.221.083.359.023.725.043,1.088.064.423.025.845.051,1.272.074.353.019.712.035,1.067.051.441.022.88.044,1.324.064.359.016.723.028,1.085.042.446.017.891.036,1.341.051.359.012.722.021,1.083.031.46.014.918.028,1.38.039.354.008.712.013,1.068.02.473.01.944.02,1.42.026.359.005.722.007,1.082.01.436,0,.87.01,1.309.013,0,.411,0,.817,0,1.225v1c0,.406,0,.806,0,1.209v.272a196.394,196.394,0,0,0-22.815,1.366q-.819-3.138-1.478-6.407C335.194,124.019,335.447,124.049,335.7,124.077Zm23.526,5.409c0,.137,0,.275,0,.412,0,.361,0,.717,0,1.075,0,.4,0,.8,0,1.2,0,.548,0,1.089,0,1.63,0,.188,0,.38,0,.568q0,1.06.008,2.1v.089q0,1.078.01,2.135v.03c0,.579.006,1.151.01,1.72,0,.14,0,.284,0,.425,0,.589.008,1.168.011,1.744l0,.311c0,.522.007,1.033.011,1.544,0,.159,0,.321,0,.478q.007.945.016,1.862v.072c.01,1.16.022,2.282.034,3.372,0,.12,0,.246,0,.366,0,.224.005.44.008.66-5.271-.026-10.38-.245-15.182-.626a91.268,91.268,0,0,1-7.645-19.789A196.018,196.018,0,0,1,359.231,129.486Zm.121-32.931,0,.432c-.005.622-.01,1.25-.015,1.878l0,.24h0c-.388,0-.777,0-1.164.006-.631.005-1.257.015-1.883.025-.295.005-.592.008-.886.014q-1.2.025-2.383.06l-.359.01c-2.84.088-5.615.224-8.311.4l-.049,0q-1.3.088-2.58.188l-.248.02q-1.177.094-2.331.2l-.331.031q-1.112.1-2.2.216l-.345.037q-1.08.115-2.134.239l-.332.039-.536.064c.486-2.33,1.049-4.613,1.67-6.845a193.162,193.162,0,0,0,24.437,1.577C359.359,95.781,359.356,96.166,359.352,96.554Zm-26.869-3.581a73.964,73.964,0,0,1-14.826-3.6,65.993,65.993,0,0,1,8.63-13.162c2.9-.619,6.132-1.16,9.636-1.608A78.883,78.883,0,0,0,332.484,92.974Zm-15.248-3.766a22.023,22.023,0,0,1-2.846-1.373,51.715,51.715,0,0,1,4-9.442,58.565,58.565,0,0,1,7.174-2.025A66.552,66.552,0,0,0,317.235,89.208Zm-.207.426a67,67,0,0,0-5.28,15.208,58.965,58.965,0,0,1,2.494-16.557A22.7,22.7,0,0,0,317.029,89.634Zm-5.688,29.476c.176.065.365.129.545.194.246.088.487.177.741.263l.184.06a68.481,68.481,0,0,0,5.084,14.812,22.286,22.286,0,0,0-4.34,2.123,57.869,57.869,0,0,1-2.824-17.691C310.934,118.95,311.132,119.031,311.341,119.11Zm1.973.681c.226.074.447.148.679.221.2.061.4.12.606.181.277.083.551.167.837.249.211.06.433.118.648.177.288.079.571.159.867.236.223.058.457.114.685.172.3.076.6.154.907.228.239.058.489.113.733.169.306.071.609.143.922.213.274.06.558.119.838.178.3.063.586.127.888.188.284.058.578.113.867.169.308.06.612.122.926.181.284.053.576.1.863.155.331.059.657.12.994.178.3.051.6.1.9.149.336.055.668.112,1.009.166.32.051.649.1.974.147s.661.1,1,.15.667.092,1,.138q.008,3.992.319,7.776a72.17,72.17,0,0,0-12.459,3.068A68.032,68.032,0,0,1,313.314,119.79Zm17.147,3.149c-.229-.031-.463-.062-.691-.1-.354-.051-.7-.1-1.049-.157-.309-.046-.622-.092-.927-.14-.334-.052-.66-.107-.989-.161-.308-.051-.62-.1-.924-.152-.333-.057-.656-.116-.983-.174-.291-.051-.585-.1-.872-.155-.325-.06-.64-.124-.96-.186-.277-.053-.56-.106-.833-.161-.327-.065-.643-.134-.962-.2-.255-.054-.515-.106-.764-.161-.322-.07-.633-.143-.948-.216-.238-.054-.482-.108-.715-.163-.3-.072-.6-.147-.9-.222-.232-.058-.47-.114-.7-.173-.285-.073-.558-.149-.836-.224-.228-.062-.462-.122-.685-.185-.271-.076-.53-.154-.793-.231-.216-.064-.44-.127-.652-.191-.266-.082-.519-.166-.777-.249l-.31-.1a65.861,65.861,0,0,1-1.431-12.2c.093-.515.2-1.024.31-1.536.345-.122.707-.242,1.07-.361.14-.046.276-.094.419-.14.4-.128.819-.254,1.242-.379.119-.036.232-.072.352-.106.455-.132.927-.261,1.4-.388.1-.026.191-.053.29-.079.517-.136,1.048-.269,1.588-.4l.2-.048q.86-.205,1.761-.4l.116-.026q.947-.207,1.938-.4l.024-.005c2.973-.59,6.234-1.109,9.712-1.551q0,1.222.031,2.441A111.087,111.087,0,0,0,330.46,122.939Zm1.025.637c.342.044.692.086,1.037.13s.7.088,1.05.13c.295.035.6.067.894.1q.664,3.323,1.5,6.516c-1.641.209-3.226.436-4.742.685q-.3-3.714-.313-7.641C331.105,123.523,331.293,123.55,331.486,123.576Zm4.6,7.338a92.382,92.382,0,0,0,7.568,19.691c-3.052-.251-5.973-.569-8.728-.945a74.36,74.36,0,0,1-3.662-18.052C332.806,131.356,334.421,131.125,336.089,130.914ZM343.93,151.1c.651,1.194,1.32,2.344,2.011,3.443a57.277,57.277,0,0,0-8.22,1.608,47.351,47.351,0,0,1-2.605-5.974C337.893,150.546,340.843,150.855,343.93,151.1Zm-5.02,7.989c-.9-.635-1.79-1.3-2.662-1.994.4-.136.818-.268,1.26-.4Q338.18,157.946,338.909,159.088Zm-.959-2.518a60.379,60.379,0,0,1,8.279-1.583c3.308,5.153,7.04,9.18,11.022,11.65q-1.42-.035-2.8-.1a50.47,50.47,0,0,1-14.554-6.77A35.644,35.644,0,0,1,337.951,156.57Zm6.5-5.429c4.7.358,9.716.561,14.916.587.009.665.017,1.317.026,1.952a113.757,113.757,0,0,0-12.97.8Q345.408,152.881,344.451,151.141Zm14.925-57.206c0,.13,0,.258,0,.388,0,.205,0,.412-.005.618a191.277,191.277,0,0,1-24.311-1.595,87.731,87.731,0,0,1,7.988-19.492c5.189-.436,10.787-.682,16.625-.7l0,.178c-.007.366-.014.742-.021,1.118-.006.3-.011.6-.017.91-.008.437-.016.886-.024,1.333,0,.263-.009.521-.014.787-.008.463-.015.938-.023,1.412,0,.272-.009.54-.013.815-.007.471-.015.953-.022,1.433,0,.284-.009.564-.013.852-.006.458-.013.926-.019,1.392,0,.332-.009.658-.014.993-.006.492-.013.994-.019,1.494,0,.3-.008.588-.011.886-.007.586-.014,1.181-.021,1.777,0,.234-.006.464-.009.7-.005.512-.011,1.033-.017,1.552,0,.345-.008.685-.011,1.032C359.391,92.515,359.384,93.223,359.377,93.934ZM343.334,73.358q1.074-1.841,2.217-3.532a112.8,112.8,0,0,0,14.168.92c0,.194-.008.384-.012.58-.008.359-.015.73-.023,1.1l-.005.27C353.924,72.714,348.425,72.944,343.334,73.358Zm17.894,26.2q0,.626,0,1.251,0,.771,0,1.542,0,.678,0,1.355,0,.724,0,1.447c-.012,6.724-.044,13.378-.094,19.713l-.656,0-.789,0v-1.252q0-.77,0-1.541,0-.678,0-1.355,0-.724,0-1.447c.012-6.726.044-13.381.094-19.716C360.263,99.557,360.743,99.554,361.227,99.556Zm-1.441-.454q.014-1.873.031-3.7l.689,0c.241,0,.478,0,.718,0,0,.236,0,.474,0,.712,0,.316,0,.628,0,.948s0,.636,0,.954V99.1h-.778C360.227,99.1,360.008,99.1,359.786,99.1Zm.675,26.222c.222,0,.441,0,.663,0q-.016,1.874-.032,3.7H360.4c-.241,0-.478,0-.718,0v-.344c0-.438,0-.875,0-1.32,0-.313,0-.633,0-.951v-1.09Zm.73,28.352c0-.193.008-.384.012-.58.008-.353.015-.718.022-1.081,0-.1,0-.19.006-.288,5.755-.017,11.253-.248,16.344-.661q-1.073,1.841-2.216,3.532A112.629,112.629,0,0,0,361.191,153.676ZM407.6,104.633c-.225-.073-.444-.147-.675-.219s-.48-.143-.72-.215-.475-.144-.722-.215-.482-.132-.722-.2c-.265-.072-.525-.147-.8-.217-.251-.066-.514-.129-.771-.194s-.537-.138-.814-.2-.582-.135-.873-.2c-.262-.06-.518-.121-.784-.181-.305-.067-.621-.133-.933-.2-.264-.056-.523-.113-.793-.168-.311-.064-.633-.124-.951-.186-.281-.055-.557-.111-.843-.165-.32-.06-.651-.117-.977-.175-.292-.052-.579-.106-.875-.157-.335-.058-.68-.113-1.02-.168-.3-.049-.593-.1-.9-.147-.342-.054-.694-.106-1.043-.158-.31-.046-.616-.094-.93-.14-.331-.048-.669-.092-1.005-.139q-.008-3.992-.318-7.776a72.158,72.158,0,0,0,12.459-3.068A68.024,68.024,0,0,1,407.6,104.633Zm-4.581-14.648a22.334,22.334,0,0,0,4.34-2.124,57.873,57.873,0,0,1,2.823,17.691c-.2-.079-.4-.16-.608-.237-.192-.072-.4-.141-.594-.212-.229-.082-.454-.166-.691-.246-.06-.021-.125-.04-.186-.061A68.475,68.475,0,0,0,403.015,89.985Zm-12.566,11.5c.23.032.465.063.693.1.366.053.725.108,1.086.163.295.044.594.087.886.133.348.054.687.112,1.03.168.3.049.6.1.887.146.332.057.656.117.982.175.291.051.585.1.872.155.325.06.64.123.96.185.278.054.561.107.834.162.312.063.614.128.92.193.27.057.544.113.809.17.3.065.581.132.871.2.264.06.533.12.792.181.292.069.572.141.858.212.244.06.494.12.732.181.277.071.541.145.811.217.237.064.481.127.712.192.266.074.52.152.778.228.222.065.448.128.665.195.265.081.518.165.776.247.1.034.209.066.311.1a65.909,65.909,0,0,1,1.432,12.193c-.093.513-.2,1.022-.309,1.531a101.6,101.6,0,0,1-20.112,4.284q0-1.217-.031-2.432A111.056,111.056,0,0,0,390.449,101.484Zm-2.706,21.826a229.432,229.432,0,0,1-26.16,1.553v-.133q.009-1.271.018-2.56v-.122c.005-.747.01-1.5.015-2.254,0-.176,0-.35,0-.526.023-3.695.039-7.471.049-11.28,0-.194,0-.389,0-.583q0-1.119,0-2.241,0-.559,0-1.119l0-1.757q0-.523,0-1.046,0-.843,0-1.685c.426,0,.849.007,1.273.011.357,0,.715.005,1.07.01.461.006.917.017,1.375.025.356.007.714.012,1.068.021.467.011.929.026,1.393.04.342.01.686.018,1.026.03.452.016.9.035,1.35.052.35.014.7.026,1.049.041.435.019.865.042,1.3.064.356.017.714.033,1.067.052.434.024.865.051,1.3.076.343.021.688.039,1.03.061.422.027.838.058,1.257.087.347.024.7.047,1.043.072.41.031.814.065,1.221.1.344.028.69.054,1.03.083.414.036.822.074,1.232.111.327.031.659.058.984.09.393.038.778.079,1.167.119.337.034.676.066,1.009.1.382.041.756.086,1.134.128l.024,0a118.194,118.194,0,0,1,2.16,19.814Q388.006,122.036,387.743,123.31Zm.523-.329c0,.088,0,.176,0,.264l-.057.007C388.231,123.162,388.248,123.071,388.266,122.981Zm-3.051-22.633c-.4-.044-.817-.083-1.226-.125-.319-.031-.635-.065-.957-.1-.422-.04-.852-.078-1.279-.116-.316-.028-.627-.058-.946-.085-.443-.038-.894-.072-1.343-.106-.31-.024-.616-.051-.928-.073-.444-.033-.894-.062-1.344-.092-.325-.023-.647-.046-.975-.066-.457-.03-.92-.055-1.382-.081-.323-.019-.642-.039-.966-.057-.489-.026-.984-.048-1.478-.072-.3-.014-.6-.031-.908-.044-.5-.022-1.014-.04-1.523-.058-.3-.011-.6-.024-.9-.035-.51-.017-1.026-.03-1.541-.045-.306-.008-.61-.018-.917-.025-.518-.012-1.04-.021-1.562-.03-.309-.006-.615-.013-.925-.017-.529-.008-1.061-.011-1.593-.015-.28,0-.558-.007-.839-.009h0c0-.41,0-.815,0-1.222,0-.335,0-.673,0-1.005,0-.4,0-.8,0-1.2v-.278A196.2,196.2,0,0,0,384.5,94.026q.821,3.138,1.478,6.407C385.72,100.4,385.471,100.375,385.215,100.348Zm-23.536-5.41c0-.138,0-.277,0-.414,0-.357,0-.709,0-1.064,0-.4,0-.808,0-1.208,0-.544,0-1.081,0-1.618,0-.193,0-.388,0-.579,0-.7-.005-1.4-.008-2.09v-.1q-.005-1.074-.01-2.126V85.7c0-.577-.006-1.145-.01-1.71l0-.435c0-.585-.007-1.161-.01-1.734l0-.319c0-.519-.007-1.029-.011-1.537,0-.161,0-.325,0-.485q-.008-.945-.016-1.862v-.072c-.01-1.164-.022-2.289-.034-3.383,0-.117,0-.238,0-.353,0-.224-.005-.44-.008-.66,5.271.026,10.38.245,15.182.626a91.3,91.3,0,0,1,7.645,19.789A196.2,196.2,0,0,1,361.679,94.938Zm-.121,32.939c0-.147,0-.291,0-.437.005-.618.01-1.242.016-1.866l0-.255c.567,0,1.136,0,1.7-.01.3,0,.6-.01.908-.015.627-.009,1.255-.018,1.877-.032.359-.008.715-.019,1.071-.028.559-.015,1.119-.03,1.673-.048.38-.013.756-.029,1.134-.043.528-.02,1.055-.04,1.578-.064l1.135-.055q.771-.038,1.536-.08c.376-.021.749-.044,1.121-.066q.76-.046,1.511-.1.546-.037,1.085-.077.759-.055,1.509-.115.517-.041,1.03-.085.764-.064,1.518-.134c.324-.031.648-.06.969-.092.519-.051,1.031-.1,1.542-.157.3-.031.592-.061.885-.093.543-.06,1.078-.123,1.612-.186.226-.027.455-.052.679-.08-.487,2.33-1.049,4.612-1.67,6.845a192.991,192.991,0,0,0-24.437-1.578Q361.553,128.455,361.558,127.877Zm26.566-4.172.146-.019c-.005,2.465-.09,4.873-.255,7.21q-.783-.118-1.584-.229C387.061,128.4,387.632,126.075,388.124,123.7Zm-1.581-22.718.5.056c.38.045.752.093,1.127.14.317.04.637.078.949.119.3.039.585.08.878.12a110.708,110.708,0,0,1-1.382,17.1A118.528,118.528,0,0,0,386.543,100.987Zm2.182,22.639.748-.1c.183-.025.37-.048.552-.073q1.05-.144,2.07-.3l.161-.024c3.028-.46,5.853-.983,8.445-1.563l.069-.016q.925-.207,1.809-.424l.139-.035q.847-.209,1.653-.426l.161-.044q.8-.216,1.55-.44l.141-.043q.76-.226,1.477-.462l.112-.038c.318-.1.633-.21.938-.317a66.56,66.56,0,0,1-5.291,15.3,72.894,72.894,0,0,0-14.993-3.661C388.634,128.585,388.721,126.134,388.725,123.626Zm.7-22.777c-.377-.05-.762-.1-1.144-.143-.313-.039-.623-.079-.94-.117-.3-.036-.6-.068-.9-.1q-.662-3.323-1.5-6.517c1.641-.209,3.226-.436,4.741-.685q.3,3.714.313,7.641C389.806,100.9,389.62,100.873,389.43,100.849Zm-4.608-7.339a92.366,92.366,0,0,0-7.568-19.691c3.052.251,5.973.568,8.728.944a74.367,74.367,0,0,1,3.662,18.053C388.1,93.068,386.49,93.3,384.822,93.509Zm-7.841-20.186c-.651-1.193-1.321-2.344-2.012-3.442a57.261,57.261,0,0,0,8.22-1.609,47.308,47.308,0,0,1,2.605,5.975C383.017,73.877,380.067,73.567,376.981,73.324ZM382,65.335c.9.635,1.79,1.3,2.662,1.994-.4.136-.818.269-1.26.4Q382.73,66.477,382,65.335Zm.959,2.519a60.431,60.431,0,0,1-8.28,1.582c-3.308-5.153-7.041-9.18-11.023-11.65q1.42.037,2.8.1a50.479,50.479,0,0,1,14.555,6.77A35.537,35.537,0,0,1,382.96,67.854Zm-6.5,5.429c-4.7-.358-9.716-.562-14.917-.587-.008-.665-.017-1.317-.025-1.952a113.558,113.558,0,0,0,12.97-.8Q375.5,71.543,376.459,73.283Zm-14.925,57.225c0-.136,0-.269,0-.4,0-.206,0-.414.006-.62a191.267,191.267,0,0,1,24.311,1.6,87.75,87.75,0,0,1-7.988,19.492c-5.189.436-10.787.682-16.625.7l0-.179c.007-.36.014-.731.021-1.1.005-.308.011-.612.017-.926.008-.433.016-.876.023-1.319.005-.267.01-.53.014-.8.008-.458.016-.927.023-1.4.005-.277.01-.55.014-.831.007-.466.014-.941.021-1.416,0-.291.009-.576.013-.869.007-.454.013-.915.019-1.376.005-.337.01-.669.014-1.009.007-.486.013-.982.019-1.477,0-.3.008-.6.012-.9.007-.58.014-1.17.021-1.761,0-.239.005-.475.008-.716.006-.507.011-1.022.017-1.536,0-.35.007-.7.011-1.05C361.52,131.916,361.526,131.213,361.533,130.508Zm16.579,20.511c2.15-.181,4.228-.394,6.219-.639a48.787,48.787,0,0,1-2.227,5.475,59.739,59.739,0,0,0-6.257-1.19C376.626,153.5,377.381,152.285,378.112,151.019Zm.291-.5a88.724,88.724,0,0,0,7.9-19.385q.849.118,1.676.243a78.231,78.231,0,0,1-3.482,18.5Q381.564,150.248,378.4,150.523Zm10.024-19.074a73.94,73.94,0,0,1,14.826,3.6,65.994,65.994,0,0,1-8.63,13.162c-2.9.619-6.132,1.16-9.636,1.607A78.912,78.912,0,0,0,388.427,131.449Zm15.248,3.766a22.023,22.023,0,0,1,2.846,1.373,51.689,51.689,0,0,1-4,9.442,58.375,58.375,0,0,1-7.175,2.026A66.548,66.548,0,0,0,403.675,135.215Zm.207-.426a67.015,67.015,0,0,0,5.28-15.21,58.945,58.945,0,0,1-2.493,16.559A22.911,22.911,0,0,0,403.882,134.789Zm4.327-29.443c.174.059.343.12.513.18.186.065.379.129.559.2.236.086.456.174.683.262l.22.085a64.125,64.125,0,0,1-.675,9.033A66.631,66.631,0,0,0,408.208,105.345Zm2.425.9c.161.065.314.132.469.2s.341.141.5.214c.194.086.372.174.557.262.158.075.324.149.475.225.182.091.349.183.523.276.139.074.285.147.418.222.166.093.316.189.473.284.124.075.257.149.374.225.167.107.315.215.469.325.092.065.194.129.282.195.167.124.314.25.464.376.061.051.131.1.188.153.2.174.377.351.542.528.035.807.059,1.616.061,2.43l-.1,2.605c-1.285,1.379-3.58,2.675-6.7,3.849,0-.4-.017-.8-.027-1.2A64.549,64.549,0,0,0,410.634,106.247Zm5.515,2.628c-.058-.051-.126-.1-.185-.152-.154-.131-.308-.263-.479-.392-.1-.072-.205-.143-.306-.216-.149-.106-.293-.213-.454-.318-.113-.073-.239-.146-.357-.218-.164-.1-.322-.2-.5-.3-.127-.072-.266-.143-.4-.215-.181-.1-.356-.2-.546-.294-.142-.072-.3-.143-.444-.214-.2-.1-.385-.19-.59-.284-.159-.073-.332-.143-.5-.215-.207-.09-.408-.181-.624-.269l-.136-.054A58.358,58.358,0,0,0,407.747,87.6a6.548,6.548,0,0,0,1.97-2.053,55.634,55.634,0,0,1,6.618,23.511C416.271,109,416.216,108.935,416.149,108.875Zm-8.93-21.426a21.539,21.539,0,0,1-4.394,2.133,67.387,67.387,0,0,0-8.561-13.406,58.281,58.281,0,0,1,9.139,2.6A51.532,51.532,0,0,1,407.219,87.448ZM402.4,89.741a73.3,73.3,0,0,1-12.309,3,74.941,74.941,0,0,0-3.615-17.908c2.517.352,4.89.753,7.086,1.2A66.84,66.84,0,0,1,402.4,89.741ZM386.3,74.317a48.283,48.283,0,0,0-2.67-6.17c.516-.155,1-.317,1.454-.483a61.138,61.138,0,0,1,7.983,7.769C390.958,75.018,388.694,74.645,386.3,74.317Zm-4.966-9.99a25.747,25.747,0,0,0-4.891-5.4c1.265.366,2.519.757,3.746,1.2.064.023.125.05.188.073.795.293,1.583.6,2.361.925.191.08.377.17.566.252.645.278,1.288.559,1.919.86.246.117.485.244.729.365.568.28,1.135.56,1.693.858.272.146.537.3.807.452.216.12.432.244.646.367-.211,1.036-1.625,2.013-3.937,2.867C383.918,66.153,382.642,65.208,381.332,64.327Zm-1.045-.682A51.148,51.148,0,0,0,368.428,58c2.463.161,4.8.394,6.963.689A23.663,23.663,0,0,1,380.287,63.645Zm-13.774-6.212q-1.429-.4-2.882-.7l.137.005c.565.034,1.125.088,1.686.138.384.034.771.059,1.153.1.6.065,1.192.152,1.785.235.338.047.677.085,1.013.138.66.1,1.314.23,1.967.358.231.044.466.081.7.128C370.3,57.658,368.441,57.524,366.514,57.433Zm-2.2-.086q-.73-.021-1.471-.035c-.249-.14-.5-.285-.748-.413C362.841,57.03,363.58,57.181,364.316,57.347Zm-1.588.419c4.146,2.357,8.035,6.426,11.47,11.73a113.192,113.192,0,0,1-12.687.792c0-.339-.01-.667-.015-1-.011-.717-.023-1.42-.034-2.092-.011-.635-.023-1.23-.034-1.8l-.005-.28c-.005-.216-.01-.421-.014-.628,0-.111,0-.224-.007-.332,0-.212-.009-.415-.014-.618,0-.09,0-.182-.006-.27,0-.186-.009-.366-.013-.545,0-.1,0-.205-.007-.305-.005-.182-.01-.359-.014-.532,0-.078,0-.155-.006-.231-.005-.171-.01-.337-.014-.5l-.007-.237c-.005-.156-.01-.309-.014-.458l-.007-.2c0-.153-.01-.3-.015-.446l-.005-.167c-.005-.143-.01-.285-.016-.421l-.006-.164c0-.127-.01-.253-.015-.373l-.007-.161c0-.114-.01-.229-.014-.337,0-.077-.007-.147-.01-.22s-.007-.15-.01-.22C361.713,57.75,362.221,57.756,362.728,57.766Zm-1.551-.474v0c-.006-.113-.013-.222-.019-.326.242.11.484.213.724.335C361.647,57.3,361.412,57.293,361.177,57.292Zm-.018,22.494c0,.407.006.824.01,1.242l0,.451c0,.407.006.824.009,1.241,0,.174,0,.346,0,.523,0,.384.005.776.007,1.168,0,.22,0,.437,0,.66,0,.414,0,.834.006,1.255,0,.191,0,.38,0,.572,0,.4,0,.8.005,1.2,0,.253,0,.5,0,.759,0,.354,0,.715,0,1.074,0,.3,0,.588,0,.887,0,.468,0,.943,0,1.42,0,.179,0,.355,0,.536,0,.494,0,1,0,1.5,0,.2,0,.4,0,.6v.063c-.25,0-.5,0-.746,0h-.657c0-.2,0-.4.005-.6l0-.4c.007-.731.014-1.46.022-2.179,0-.18,0-.356.006-.536.007-.675.014-1.348.022-2.012,0-.182,0-.36.006-.542.008-.64.015-1.279.023-1.909,0-.294.008-.582.011-.873.007-.514.013-1.029.02-1.534,0-.312.009-.616.013-.925.006-.482.013-.965.02-1.438,0-.314.009-.62.014-.931.006-.448.013-.9.02-1.338.005-.334.01-.659.016-.988.007-.412.013-.826.02-1.23.005-.3.01-.588.016-.881.007-.428.015-.859.022-1.277.005-.264.01-.52.015-.781.008-.428.017-.858.024-1.276l0-.139.308,0,.662,0v0c0,.134,0,.266,0,.4,0,.332.008.674.011,1.015,0,.147,0,.293.005.442,0,.413.009.834.013,1.259l0,.243c0,.392.008.793.011,1.2,0,.147,0,.292,0,.441,0,.374.006.756.01,1.139C361.156,79.456,361.157,79.619,361.158,79.786Zm-.755-7.094h-.27l0-.184c.008-.4.016-.793.024-1.178,0-.2.009-.387.012-.582h.307c.2,0,.387,0,.582,0,.005.381.01.77.016,1.165l0,.147c0,.208.005.424.008.635ZM360.192,56.9c-.007.114-.015.228-.023.352l0,.039c-.421,0-.84,0-1.256.007.428-.2.859-.38,1.292-.549C360.2,56.8,360.2,56.851,360.192,56.9Zm-.051.846c-.007.127-.014.252-.021.387-.01.176-.019.365-.028.554-.008.152-.015.3-.022.461-.01.2-.018.414-.028.627-.007.166-.014.329-.021.5-.01.23-.018.472-.028.715-.007.177-.013.351-.02.535-.009.257-.018.527-.028.8-.006.188-.012.374-.019.569-.009.281-.018.573-.027.866-.006.2-.012.4-.019.616-.009.3-.017.613-.026.926-.006.222-.012.44-.018.667-.009.323-.017.657-.026.991-.006.229-.012.455-.017.688-.01.357-.018.725-.027,1.093-.005.23-.01.456-.016.691-.007.282-.013.571-.019.859a112.272,112.272,0,0,1-13.881-.9c3.636-5.264,7.753-9.3,12.141-11.624Q359.056,57.749,360.14,57.746Zm-2.258-.431q-.779.016-1.545.039,1.171-.257,2.357-.455C358.422,57.028,358.153,57.174,357.882,57.315Zm-3.844.133c-2.124.106-4.16.263-6.075.469A58.575,58.575,0,0,1,357.23,56.7C356.156,56.912,355.093,57.164,354.038,57.448Zm-2.017.587a51.442,51.442,0,0,0-8.982,3.807,21.37,21.37,0,0,1,3.33-3.256C348.151,58.359,350.042,58.173,352.021,58.035Zm2.044-.124q1.449-.076,2.942-.117c-4.206,2.442-8.15,6.428-11.647,11.534a61.7,61.7,0,0,1-6.343-1.187,33.623,33.623,0,0,1,3.271-5.354A50.857,50.857,0,0,1,354.065,57.911ZM338.573,68.029a29.38,29.38,0,0,1-2.842-.882,56.6,56.6,0,0,1,5.6-3.819A35.4,35.4,0,0,0,338.573,68.029Zm-.211.426a49.781,49.781,0,0,0-2.276,5.652c-3.372.426-6.5.937-9.313,1.525a61.349,61.349,0,0,1,8.534-8.158A28.1,28.1,0,0,0,338.362,68.455Zm-12.305,7.33a61.363,61.363,0,0,0-7.315,2.015,45.375,45.375,0,0,1,7.672-10.008A59.749,59.749,0,0,1,331.37,64.4a2.385,2.385,0,0,0,.612,1.1,8.347,8.347,0,0,0,2.841,1.776A62.06,62.06,0,0,0,326.057,75.784Zm-2.191-5.929a46.477,46.477,0,0,0-5.791,8.181,27.122,27.122,0,0,0-3.028,1.331A55.831,55.831,0,0,1,323.866,69.855Zm-9.4,10.323a23.135,23.135,0,0,1,3.292-1.547,52.286,52.286,0,0,0-3.768,8.964,8.859,8.859,0,0,1-1.8-1.434,3.957,3.957,0,0,1-.757-1.136A54.276,54.276,0,0,1,314.466,80.178Zm-2.61,6.291a9.626,9.626,0,0,0,1.987,1.573,59.494,59.494,0,0,0-2.563,17.375c-.3.114-.6.23-.886.346l-.014.005a19.254,19.254,0,0,0-5.735,3.281,54.938,54.938,0,0,1,6.519-23.542A4.643,4.643,0,0,0,311.857,86.469Zm-7.095,29.08c.056.05.123.1.181.147.156.133.311.265.483.4.084.063.181.125.269.188.161.116.318.231.491.346.1.062.2.123.3.185.181.113.358.225.551.337.1.058.218.116.325.175.2.112.4.223.619.334.121.061.255.121.38.182.215.106.427.211.653.314.132.06.275.119.41.178.235.1.465.206.71.307l.133.052a58.323,58.323,0,0,0,2.891,18.132,6.679,6.679,0,0,0-1.923,1.967,56.547,56.547,0,0,1-6.557-23.319C304.71,115.5,304.733,115.523,304.762,115.549Zm8.93,21.425a21.538,21.538,0,0,1,4.394-2.133,67.442,67.442,0,0,0,8.561,13.406,58.282,58.282,0,0,1-9.139-2.6A51.461,51.461,0,0,1,313.691,136.974Zm4.818-2.292a73.228,73.228,0,0,1,12.308-3,75.045,75.045,0,0,0,3.615,17.908c-2.516-.352-4.889-.754-7.085-1.2A66.833,66.833,0,0,1,318.509,134.682Zm16.1,15.424a48.145,48.145,0,0,0,2.67,6.169c-.516.156-1,.318-1.455.483a61.186,61.186,0,0,1-7.982-7.769C329.953,149.4,332.216,149.778,334.612,150.107Zm4.966,9.989a25.708,25.708,0,0,0,4.891,5.4c-1.264-.366-2.517-.757-3.744-1.2-.085-.031-.169-.068-.255-.1-.771-.285-1.538-.583-2.294-.9-.206-.086-.407-.183-.611-.271-.63-.272-1.258-.547-1.876-.841-.257-.122-.506-.256-.761-.381-.557-.275-1.113-.549-1.659-.84-.284-.151-.558-.314-.838-.469-.208-.116-.414-.235-.62-.352.212-1.036,1.626-2.013,3.937-2.867Q337.615,158.769,339.578,160.1Zm1.045.682a51.153,51.153,0,0,0,11.858,5.645c-2.462-.161-4.8-.394-6.961-.689A23.642,23.642,0,0,1,340.623,160.778Zm13.772,6.213c.954.263,1.914.5,2.884.7l-.136-.005c-.567-.035-1.128-.088-1.691-.139-.383-.034-.769-.059-1.149-.1-.6-.065-1.187-.151-1.779-.234-.339-.048-.683-.086-1.021-.139-.653-.1-1.3-.229-1.943-.353-.241-.046-.483-.084-.722-.133C350.607,166.765,352.467,166.9,354.395,166.991Zm2.2.085q.73.021,1.472.035c.249.14.5.285.749.414Q357.695,167.328,356.592,167.076Zm1.59-.418c-4.146-2.358-8.035-6.427-11.47-11.73a112.96,112.96,0,0,1,12.687-.792c0,.336.01.66.015.988.01.721.022,1.427.034,2.1q.01.558.02,1.082c0,.112,0,.218.006.328.005.257.01.512.015.757l0,.161c.006.272.011.539.017.8,0,.094,0,.184.007.276,0,.207.009.412.014.61,0,.111.005.217.008.325,0,.18.009.357.013.528l.007.271c0,.193.01.382.015.564l.005.188q.008.271.016.527l.006.21c.005.169.01.332.016.492l.005.161c.005.156.01.307.016.455l.007.174c.005.144.01.281.016.416l.005.136c.006.154.013.3.019.442l0,.069c.006.133.012.258.018.381l0,.1C359.2,166.673,358.688,166.666,358.181,166.658Zm1.552.474v0c.006.113.013.223.019.327-.242-.111-.485-.213-.725-.335Zm.017-22.624c0-.145,0-.293,0-.439,0-.418-.006-.837-.01-1.264,0-.157,0-.318,0-.476,0-.4-.005-.81-.008-1.222,0-.242,0-.489,0-.735,0-.362,0-.723-.006-1.091,0-.231,0-.467,0-.7,0-.374,0-.749-.005-1.13,0-.242,0-.489,0-.732,0-.409,0-.817-.005-1.233,0-.208,0-.421,0-.631,0-.416,0-.832,0-1.255,0-.356,0-.719,0-1.079,0-.317,0-.631,0-.951,0-.289,0-.585,0-.877,0-.4,0-.8,0-1.208.25,0,.5,0,.746,0l.657,0c0,.2,0,.406-.006.606,0,.128,0,.254,0,.382-.007.739-.015,1.474-.022,2.2,0,.175,0,.346-.006.519-.007.681-.014,1.359-.022,2.028,0,.18,0,.355-.006.534-.008.644-.016,1.285-.024,1.917,0,.294-.007.581-.01.872-.007.514-.013,1.03-.02,1.535,0,.311-.009.616-.013.924-.006.482-.013.966-.02,1.439,0,.316-.01.622-.014.934-.007.447-.013.9-.02,1.335-.005.336-.01.662-.016.994-.007.409-.014.822-.02,1.224-.005.3-.01.592-.016.888-.008.426-.015.853-.023,1.27,0,.266-.01.524-.015.786-.008.427-.016.854-.024,1.27l0,.136-.308,0-.662,0c0-.194,0-.383-.007-.58v-.058c-.006-.456-.01-.92-.016-1.393l0-.242c0-.422-.009-.849-.013-1.283l0-.289c0-.424-.008-.852-.011-1.289l0-.378C359.757,145.349,359.754,144.932,359.75,144.507Zm.756,7.224.27,0,0,.194c-.008.393-.016.788-.024,1.171,0,.2-.009.386-.013.58h-.305c-.2,0-.388,0-.583,0l0-.179v-.088q-.009-.619-.017-1.262l0-.18,0-.238Zm8.384,14.658a51.539,51.539,0,0,0,8.981-3.807,21.328,21.328,0,0,1-3.331,3.255C372.76,166.063,370.869,166.25,368.89,166.389Zm-2.044.123q-1.447.076-2.943.117c4.207-2.442,8.15-6.427,11.647-11.533a61.529,61.529,0,0,1,6.344,1.187,33.688,33.688,0,0,1-3.272,5.354A50.834,50.834,0,0,1,366.846,166.512Zm15.491-10.117a29.051,29.051,0,0,1,2.841.882,56.5,56.5,0,0,1-5.6,3.819A35.551,35.551,0,0,0,382.337,156.395Zm.211-.427a49.936,49.936,0,0,0,2.275-5.651c3.373-.426,6.5-.937,9.314-1.525a61.341,61.341,0,0,1-8.534,8.157A28.351,28.351,0,0,0,382.548,155.968Zm20.287-9.581a27.4,27.4,0,0,0,2.972-1.3,55.447,55.447,0,0,1-8.575,9.274A46.445,46.445,0,0,0,402.835,146.387Zm3.558-2.113a23.214,23.214,0,0,1-3.24,1.517,52.186,52.186,0,0,0,3.768-8.964,8.83,8.83,0,0,1,1.8,1.435,3.984,3.984,0,0,1,.747,1.108A54.516,54.516,0,0,1,406.393,144.274Zm-.618-64.952q-.947-.482-2.074-.936a47.579,47.579,0,0,0-4.272-6.317A55.287,55.287,0,0,1,405.775,79.322Zm-2.758-1.2a61.343,61.343,0,0,0-9.247-2.547,61.893,61.893,0,0,0-8.2-8.095c2.217-.872,3.612-1.875,3.938-2.959.161.093.325.18.483.274.286.171.564.352.847.527.355.22.707.444,1.057.669a56.776,56.776,0,0,1,4.822,3.647A46.368,46.368,0,0,1,403.017,78.118ZM343.845,58.945c.541-.086,1.1-.168,1.664-.246a23.166,23.166,0,0,0-3.52,3.739,56.7,56.7,0,0,0-6.749,4.519,8.25,8.25,0,0,1-2.924-1.765,1.8,1.8,0,0,1-.519-1.051c.354-.214.7-.429,1.065-.637.687-.391,1.38-.76,2.077-1.119A56.458,56.458,0,0,1,343.845,58.945Zm-28.64,86.192q.92.462,2,.9a47.52,47.52,0,0,0,4.436,6.52A55.362,55.362,0,0,1,315.205,145.136Zm61.86,20.343q-.811.128-1.665.245a23.135,23.135,0,0,0,3.521-3.739,56.654,56.654,0,0,0,6.749-4.519,8.24,8.24,0,0,1,2.923,1.765,1.846,1.846,0,0,1,.51.978,48.693,48.693,0,0,1-12.038,5.269Z" transform="translate(-195.156 -51.42)" fill="#e59323"/>
      <g id="Grupo_132470" data-name="Grupo 132470" transform="translate(0 33.547)">
        <g id="Grupo_132443" data-name="Grupo 132443" transform="translate(315.142)">
          <g id="Grupo_132442" data-name="Grupo 132442">
            <g id="Grupo_132356" data-name="Grupo 132356" transform="translate(15.063)">
              <path id="Trazado_194917" data-name="Trazado 194917" d="M671.711,146.569a32.286,32.286,0,0,1-24.589-7.76c8.015,4.045,18.691-1.506,21.51-10.029s.507-24.383-6.49-30.006A27.757,27.757,0,0,0,638,93.582c-8.25,2.209-16.993,14.752-19.691,22.854l.154.248c-1.269-.506-2.548-.979-3.836-1.412a66.1,66.1,0,0,0-28.474-3.445c-9.574,1.108-18.95,4.914-26.025,11.46L616.07,213.2c10.161-.9,19.162-7.747,24.486-16.448s7.366-19.05,7.868-29.239c.126-2.555.119-5.139.013-7.72l17.991,2.893a40.1,40.1,0,0,0-11.961-10.692A15.021,15.021,0,0,0,671.711,146.569Z" transform="translate(-560.132 -92.705)" fill="#263238"/>
            </g>
            <g id="Grupo_132430" data-name="Grupo 132430" transform="translate(2.399 32.676)">
              <g id="Grupo_132429" data-name="Grupo 132429">
                <g id="Grupo_132428" data-name="Grupo 132428">
                  <g id="Grupo_132422" data-name="Grupo 132422">
                    <g id="Grupo_132421" data-name="Grupo 132421">
                      <g id="Grupo_132410" data-name="Grupo 132410">
                        <g id="Grupo_132409" data-name="Grupo 132409">
                          <g id="Grupo_132408" data-name="Grupo 132408">
                            <g id="Grupo_132361" data-name="Grupo 132361">
                              <g id="Grupo_132360" data-name="Grupo 132360">
                                <g id="Grupo_132359" data-name="Grupo 132359">
                                  <g id="Grupo_132358" data-name="Grupo 132358">
                                    <g id="Grupo_132357" data-name="Grupo 132357">
                                      <path id="Trazado_194918" data-name="Trazado 194918" d="M599.465,290.081a28.135,28.135,0,0,0,27.527-27.8l1.3-111.861h0a8.9,8.9,0,0,0-7.966-9.03l-47.247-11.942c-15.132-1.6-25.192,17.032-26.149,32.217-1.063,16.871-1.7,37.511.3,50.1,4.02,25.313,23.42,28.533,23.42,28.533,0-.066.014,9.8.072,21.791a28.137,28.137,0,0,0,28.74,27.993Z" transform="translate(-545.93 -129.351)" fill="#eebd9d"/>
                                    </g>
                                  </g>
                                </g>
                              </g>
                            </g>
                            <g id="Grupo_132373" data-name="Grupo 132373" transform="translate(5.425 39.638)">
                              <g id="Grupo_132366" data-name="Grupo 132366" transform="translate(5.388 6.126)">
                                <g id="Grupo_132365" data-name="Grupo 132365">
                                  <g id="Grupo_132364" data-name="Grupo 132364">
                                    <g id="Grupo_132363" data-name="Grupo 132363">
                                      <g id="Grupo_132362" data-name="Grupo 132362">
                                        <path id="Trazado_194919" data-name="Trazado 194919" d="M558.059,183.61a3.246,3.246,0,0,0,3.131,3.275,3.1,3.1,0,0,0,3.346-2.926,3.248,3.248,0,0,0-3.127-3.278A3.108,3.108,0,0,0,558.059,183.61Z" transform="translate(-558.057 -180.675)" fill="#263238"/>
                                      </g>
                                    </g>
                                  </g>
                                </g>
                              </g>
                              <g id="Grupo_132372" data-name="Grupo 132372">
                                <g id="Grupo_132371" data-name="Grupo 132371">
                                  <g id="Grupo_132370" data-name="Grupo 132370">
                                    <g id="Grupo_132369" data-name="Grupo 132369">
                                      <g id="Grupo_132368" data-name="Grupo 132368">
                                        <g id="Grupo_132367" data-name="Grupo 132367">
                                          <path id="Trazado_194920" data-name="Trazado 194920" d="M552.066,177.217c.4.424,2.862-1.4,6.356-1.387,3.489-.041,6.053,1.757,6.432,1.329.186-.19-.224-.954-1.34-1.766a8.9,8.9,0,0,0-5.149-1.587,8.556,8.556,0,0,0-5.058,1.633C552.232,176.262,551.868,177.027,552.066,177.217Z" transform="translate(-552.014 -173.805)" fill="#263238"/>
                                        </g>
                                      </g>
                                    </g>
                                  </g>
                                </g>
                              </g>
                            </g>
                            <g id="Grupo_132385" data-name="Grupo 132385" transform="translate(39.763 40.29)">
                              <g id="Grupo_132378" data-name="Grupo 132378" transform="translate(4.283 5.474)">
                                <g id="Grupo_132377" data-name="Grupo 132377">
                                  <g id="Grupo_132376" data-name="Grupo 132376">
                                    <g id="Grupo_132375" data-name="Grupo 132375">
                                      <g id="Grupo_132374" data-name="Grupo 132374">
                                        <path id="Trazado_194921" data-name="Trazado 194921" d="M595.329,183.61a3.246,3.246,0,0,0,3.131,3.275,3.105,3.105,0,0,0,3.346-2.926,3.249,3.249,0,0,0-3.128-3.278A3.108,3.108,0,0,0,595.329,183.61Z" transform="translate(-595.327 -180.675)" fill="#263238"/>
                                      </g>
                                    </g>
                                  </g>
                                </g>
                              </g>
                              <g id="Grupo_132384" data-name="Grupo 132384">
                                <g id="Grupo_132383" data-name="Grupo 132383">
                                  <g id="Grupo_132382" data-name="Grupo 132382">
                                    <g id="Grupo_132381" data-name="Grupo 132381">
                                      <g id="Grupo_132380" data-name="Grupo 132380">
                                        <g id="Grupo_132379" data-name="Grupo 132379">
                                          <path id="Trazado_194922" data-name="Trazado 194922" d="M590.575,177.948c.4.423,2.866-1.4,6.357-1.387,3.489-.041,6.054,1.757,6.432,1.329.185-.19-.22-.953-1.341-1.766a8.9,8.9,0,0,0-5.148-1.587,8.567,8.567,0,0,0-5.059,1.633C590.744,176.993,590.378,177.758,590.575,177.948Z" transform="translate(-590.524 -174.536)" fill="#263238"/>
                                        </g>
                                      </g>
                                    </g>
                                  </g>
                                </g>
                              </g>
                            </g>
                            <g id="Grupo_132391" data-name="Grupo 132391" transform="translate(18.237 40.502)">
                              <g id="Grupo_132390" data-name="Grupo 132390">
                                <g id="Grupo_132389" data-name="Grupo 132389">
                                  <g id="Grupo_132388" data-name="Grupo 132388">
                                    <g id="Grupo_132387" data-name="Grupo 132387">
                                      <g id="Grupo_132386" data-name="Grupo 132386">
                                        <path id="Trazado_194923" data-name="Trazado 194923" d="M575.283,203.881c.016-.2-2.156-.573-5.674-1.024-.892-.093-1.736-.269-1.887-.878a4.545,4.545,0,0,1,.6-2.644q1.259-3.238,2.638-6.793c3.663-9.671,6.315-17.623,5.924-17.766s-3.677,7.577-7.34,17.248q-1.323,3.576-2.527,6.833c-.338,1.014-.918,2.163-.463,3.5a2.237,2.237,0,0,0,1.466,1.3,6.1,6.1,0,0,0,1.516.21C573.072,204.063,575.269,204.079,575.283,203.881Z" transform="translate(-566.382 -174.774)" fill="#263238"/>
                                      </g>
                                    </g>
                                  </g>
                                </g>
                              </g>
                            </g>
                            <g id="Grupo_132396" data-name="Grupo 132396" transform="translate(24.723 101.904)">
                              <g id="Grupo_132395" data-name="Grupo 132395">
                                <g id="Grupo_132394" data-name="Grupo 132394">
                                  <g id="Grupo_132393" data-name="Grupo 132393">
                                    <g id="Grupo_132392" data-name="Grupo 132392">
                                      <path id="Trazado_194924" data-name="Trazado 194924" d="M573.657,252.678a64.392,64.392,0,0,0,33.9-9.042S599.332,261.024,574,258.655Z" transform="translate(-573.657 -243.636)" fill="#d79870"/>
                                    </g>
                                  </g>
                                </g>
                              </g>
                            </g>
                            <g id="Grupo_132401" data-name="Grupo 132401" transform="translate(28.265 75.653)">
                              <g id="Grupo_132400" data-name="Grupo 132400">
                                <g id="Grupo_132399" data-name="Grupo 132399">
                                  <g id="Grupo_132398" data-name="Grupo 132398">
                                    <g id="Grupo_132397" data-name="Grupo 132397">
                                      <path id="Trazado_194925" data-name="Trazado 194925" d="M577.978,216.57a6.3,6.3,0,0,1,5.643-2.338,5.745,5.745,0,0,1,3.968,2.128,3.642,3.642,0,0,1,.277,4.164c-.943,1.326-2.913,1.632-4.58,1.158a13.226,13.226,0,0,1-4.465-2.665,3.878,3.878,0,0,1-1-1.033,1.169,1.169,0,0,1,0-1.3" transform="translate(-577.629 -214.196)" fill="#d79870"/>
                                    </g>
                                  </g>
                                </g>
                              </g>
                            </g>
                            <g id="Grupo_132407" data-name="Grupo 132407" transform="translate(26.283 72.025)">
                              <g id="Grupo_132406" data-name="Grupo 132406">
                                <g id="Grupo_132405" data-name="Grupo 132405">
                                  <g id="Grupo_132404" data-name="Grupo 132404">
                                    <g id="Grupo_132403" data-name="Grupo 132403">
                                      <g id="Grupo_132402" data-name="Grupo 132402">
                                        <path id="Trazado_194926" data-name="Trazado 194926" d="M586.54,210.127c-.568-.033-.575,3.758-3.821,6.45s-7.282,2.274-7.312,2.8c-.053.238.9.737,2.606.783a9.447,9.447,0,0,0,6.1-2.127,8.224,8.224,0,0,0,2.96-5.409C587.222,211.044,586.8,210.106,586.54,210.127Z" transform="translate(-575.406 -210.127)" fill="#263238"/>
                                      </g>
                                    </g>
                                  </g>
                                </g>
                              </g>
                            </g>
                          </g>
                        </g>
                      </g>
                      <g id="Grupo_132415" data-name="Grupo 132415" transform="translate(38.225 34.967)">
                        <g id="Grupo_132414" data-name="Grupo 132414">
                          <g id="Grupo_132413" data-name="Grupo 132413">
                            <g id="Grupo_132412" data-name="Grupo 132412">
                              <g id="Grupo_132411" data-name="Grupo 132411">
                                <path id="Trazado_194927" data-name="Trazado 194927" d="M588.817,171.186c.344.949,3.832.5,7.93.993,4.109.412,7.413,1.611,7.957.76.242-.408-.333-1.3-1.67-2.221a13.9,13.9,0,0,0-12.1-1.336C589.426,169.988,588.669,170.735,588.817,171.186Z" transform="translate(-588.799 -168.567)" fill="#263238"/>
                              </g>
                            </g>
                          </g>
                        </g>
                      </g>
                      <g id="Grupo_132420" data-name="Grupo 132420" transform="translate(5.874 32.986)">
                        <g id="Grupo_132419" data-name="Grupo 132419">
                          <g id="Grupo_132418" data-name="Grupo 132418">
                            <g id="Grupo_132417" data-name="Grupo 132417">
                              <g id="Grupo_132416" data-name="Grupo 132416">
                                <path id="Trazado_194928" data-name="Trazado 194928" d="M552.607,169.963c.614.794,3.021-.03,5.914-.069,2.893-.14,5.345.533,5.909-.3.247-.4-.139-1.2-1.21-1.949a8.564,8.564,0,0,0-9.527.3C552.671,168.76,552.336,169.576,552.607,169.963Z" transform="translate(-552.517 -166.344)" fill="#263238"/>
                              </g>
                            </g>
                          </g>
                        </g>
                      </g>
                    </g>
                  </g>
                  <g id="Grupo_132424" data-name="Grupo 132424" transform="translate(78.782 51.731)">
                    <g id="Grupo_132423" data-name="Grupo 132423">
                      <path id="Trazado_194929" data-name="Trazado 194929" d="M635.061,188.162c1.918-1.329,4.6-.836,6.619.332a11.734,11.734,0,0,1-7.4,21.793" transform="translate(-634.284 -187.367)" fill="#eebd9d"/>
                    </g>
                  </g>
                  <g id="Grupo_132427" data-name="Grupo 132427" transform="translate(80.746 57.375)">
                    <g id="Grupo_132426" data-name="Grupo 132426">
                      <g id="Grupo_132425" data-name="Grupo 132425">
                        <path id="Trazado_194930" data-name="Trazado 194930" d="M637.068,203.422c.072-.179.984.217,2.205-.345,1.2-.477,2.3-2.256,2.171-4.325a4.466,4.466,0,0,0-2.7-4.059c-1.266-.519-2.2-.265-2.252-.461-.088-.125.86-.8,2.531-.424a4.656,4.656,0,0,1,2.475,1.543,5.653,5.653,0,0,1,1.256,3.332c.183,2.552-1.42,4.868-3.168,5.265C637.866,204.4,636.934,203.526,637.068,203.422Z" transform="translate(-636.487 -193.697)" fill="#d79870"/>
                      </g>
                    </g>
                  </g>
                </g>
              </g>
            </g>
            <g id="Grupo_132432" data-name="Grupo 132432" transform="translate(86.56 102.924)">
              <g id="Grupo_132431" data-name="Grupo 132431">
                <path id="Trazado_194931" data-name="Trazado 194931" d="M644.4,210.112a5.147,5.147,0,0,1,1.161.818l3.1,2.532,10.923,9.278.368.313-.311.373c-4.068,4.884-8.6,11-13.692,17.389-1.154,1.442-2.306,2.852-3.425,4.17l-.936,1.1-.065-1.444c-.46-10.307-.814-19.43-1.016-25.979-.075-3.116-.136-5.7-.186-7.718a14.316,14.316,0,0,1,.077-2.811,14.374,14.374,0,0,1,.336,2.793c.138,2.012.317,4.592.531,7.7.4,6.54.9,15.658,1.394,25.963l-1-.342c1.088-1.329,2.234-2.728,3.4-4.151,5.076-6.367,9.665-12.454,13.846-17.3l.057.685-10.66-9.59-2.928-2.737A5.245,5.245,0,0,1,644.4,210.112Z" transform="translate(-640.316 -208.134)" fill="#455a64"/>
              </g>
            </g>
            <g id="Grupo_132433" data-name="Grupo 132433" transform="translate(0 21.707)">
              <path id="Trazado_194932" data-name="Trazado 194932" d="M582.7,117.05c-6.194.258-12.44.522-18.456,2.017s-11.865,4.327-15.958,8.984-6.178,11.321-4.409,17.263,7.87,10.6,14.014,9.773c4.666-.625,9.14-4.079,13.643-2.707,4.255,1.3,6.6,6.489,10.972,7.3,4.318.8,8.161-3.078,12.537-3.458,4.827-.418,9.015,3.543,11.163,7.885s2.964,9.248,5.121,13.586c1.379,2.771,3.523,5.43,6.52,6.2a8.963,8.963,0,0,0,7.891-2.219,18.336,18.336,0,0,0,4.622-7.074,39.311,39.311,0,0,0-31.94-53.889" transform="translate(-543.239 -117.05)" fill="#263238"/>
            </g>
            <g id="Grupo_132435" data-name="Grupo 132435" transform="translate(73.861 23.909)">
              <g id="Grupo_132434" data-name="Grupo 132434">
                <path id="Trazado_194933" data-name="Trazado 194933" d="M653.345,144.2c-.2.056-.785-2.042-2.34-5.14a36.674,36.674,0,0,0-19.582-17.692c-3.238-1.234-5.386-1.607-5.35-1.809.013-.078.556-.045,1.539.085a22.907,22.907,0,0,1,4.08.96,33.393,33.393,0,0,1,20.045,18.111,22.885,22.885,0,0,1,1.369,3.963C653.334,143.644,653.422,144.182,653.345,144.2Z" transform="translate(-626.073 -119.52)" fill="#ca515b"/>
              </g>
            </g>
            <g id="Grupo_132437" data-name="Grupo 132437" transform="translate(84.45 8.294)">
              <g id="Grupo_132436" data-name="Grupo 132436">
                <path id="Trazado_194934" data-name="Trazado 194934" d="M674,105.226c-.1.2-2.22-1.191-6.1-1.889a24.311,24.311,0,0,0-14.846,2.234,32.962,32.962,0,0,0-11.475,9.983c-2.348,3.187-3.444,5.417-3.617,5.328a4.89,4.89,0,0,1,.6-1.646,31.634,31.634,0,0,1,2.352-4.148,30.826,30.826,0,0,1,11.626-10.543,23.568,23.568,0,0,1,15.518-2,17.322,17.322,0,0,1,4.495,1.676C673.543,104.774,674.031,105.17,674,105.226Z" transform="translate(-637.949 -102.007)" fill="#455a64"/>
              </g>
            </g>
            <g id="Grupo_132439" data-name="Grupo 132439" transform="translate(82.531 41.252)">
              <g id="Grupo_132438" data-name="Grupo 132438">
                <path id="Trazado_194935" data-name="Trazado 194935" d="M649.425,138.97c.128,0,.335,1.99.039,5.206a41.327,41.327,0,0,1-9.844,22.834c-2.135,2.424-3.726,3.642-3.812,3.546-.3-.244,5.65-5.712,9.44-14.659C649.151,147,649.042,138.92,649.425,138.97Z" transform="translate(-635.798 -138.97)" fill="#455a64"/>
              </g>
            </g>
            <g id="Grupo_132441" data-name="Grupo 132441" transform="translate(87.619 41.791)">
              <g id="Grupo_132440" data-name="Grupo 132440">
                <path id="Trazado_194936" data-name="Trazado 194936" d="M650.774,139.574c.076-.023.292.49.619,1.45a24.527,24.527,0,0,1,.991,4.172,35.723,35.723,0,0,1-6.784,26.85,24.564,24.564,0,0,1-2.853,3.2c-.744.688-1.178,1.039-1.233.982-.144-.143,1.424-1.726,3.429-4.656A39.438,39.438,0,0,0,651.58,145.3C651.207,141.77,650.578,139.63,650.774,139.574Z" transform="translate(-641.504 -139.573)" fill="#455a64"/>
              </g>
            </g>
          </g>
        </g>
        <g id="Grupo_132465" data-name="Grupo 132465" transform="translate(0 54.212)">
          <path id="Trazado_194937" data-name="Trazado 194937" d="M400.105,246.313,394.719,227.3c9.426-12.347,7.406-34.1-8.865-36.571-3.142-12.935-6.508-25.518-8.528-32.926s-9.538-4.939-8.079,5.057,2.58,17.992,2.58,17.992c-2.805-4.116-9.033-2.529-8.64,3.763-3.759-3.352-7.687-.823-7.35,4.645-5.387-4.057-8.7,2.822-5.162,14.581.617,13.406,4.825,28.575,12.737,30.4,2.524,9.114,4.937,21.344,4.937,21.344Z" transform="translate(-207.076 -153.504)" fill="#e9a892"/>
          <g id="Grupo_132444" data-name="Grupo 132444" transform="translate(156.296 84.743)">
            <path id="Trazado_194938" data-name="Trazado 194938" d="M709.129,429.915C708.005,407.2,682.154,328.032,667.7,302.792c-12.332-21.538-48.208-34-60.111-43.941-1.312,8.032-7.976,23.5-25.028,26.653-22.474,4.156-32.72-1.379-31.5-18.767-1.279.76-2.754,1.531-4.466,2.33-13.247,6.184-29.984,16.142-48.61,40.876s-36.448,50.984-46.082,64.109c-12.043-34.663-19.589-47.114-30.828-75.718s-16.86-47.2-17.984-49.554-35.4,13.714-37.733,14.975,11.4,46.188,11.4,46.188,26.855,121.192,58.767,118.626c42.534-3.42,54.111-19.014,81.568-47.618,4.977,15.816,9.152,24.735,9.152,44.253-11.239.673-25.088.127-24.967,2.4s2.649,17.794-1.325,31.171h176.9C694.036,458.772,710.253,452.63,709.129,429.915Z" transform="translate(-365.093 -248.544)" fill="#ff9500"/>
          </g>
          <g id="Grupo_132445" data-name="Grupo 132445" transform="translate(305.5 147.79)">
            <path id="Trazado_194939" data-name="Trazado 194939" d="M537.235,395.542a.679.679,0,0,1-.64-.482c-3.142-9.8-6.724-24.722-1.573-41.164a349,349,0,0,1,13.239-34.242.661.661,0,0,1,.9-.333.724.724,0,0,1,.318.944A347,347,0,0,0,536.3,354.339c-5.025,16.038-1.51,30.664,1.57,40.269a.716.716,0,0,1-.425.9A.627.627,0,0,1,537.235,395.542Z" transform="translate(-532.425 -319.251)" fill="#994f49"/>
          </g>
          <g id="Grupo_132446" data-name="Grupo 132446" transform="translate(313.137 149.01)">
            <path id="Trazado_194940" data-name="Trazado 194940" d="M543.5,335.757a.675.675,0,0,1-.612-.407c-2.785-6.217-1.693-13.813-1.645-14.132a.68.68,0,0,1,.772-.59.706.706,0,0,1,.563.809c-.011.075-1.072,7.494,1.532,13.31a.723.723,0,0,1-.324.942A.655.655,0,0,1,543.5,335.757Z" transform="translate(-540.99 -320.619)" fill="#994f49"/>
          </g>
          <path id="Trazado_194941" data-name="Trazado 194941" d="M507.107,450.593c-4.521-.165-12.7-.86-18.741-3.622-3.043-1.39-5.654-2.8-8.241-4.011A29.059,29.059,0,0,0,463,440s-4.284-1.535-11.837.827c-6.04-.457-13.939,2.5-20.5,5.681a117.787,117.787,0,0,0-12.531,7.078l1.24,25.873h86.47C509.427,467.392,507.363,453.493,507.107,450.593Z" transform="translate(-214.543 -184.49)" fill="#e9a892"/>
          <g id="Grupo_132448" data-name="Grupo 132448" transform="translate(202.955 255.993)">
            <g id="Grupo_132447" data-name="Grupo 132447">
              <path id="Trazado_194942" data-name="Trazado 194942" d="M418.054,454.369a.628.628,0,0,1-.528-.3.683.683,0,0,1,.178-.919c4.239-2.942,18.5-11.561,28.089-12.553a.664.664,0,0,1,.123,1.321c-9.334.963-23.342,9.443-27.514,12.338A.617.617,0,0,1,418.054,454.369Z" transform="translate(-417.421 -440.6)" fill="#da8e75"/>
            </g>
          </g>
          <g id="Grupo_132450" data-name="Grupo 132450" transform="translate(221.807 254.73)">
            <g id="Grupo_132449" data-name="Grupo 132449">
              <path id="Trazado_194943" data-name="Trazado 194943" d="M443.4,469.323a4.5,4.5,0,0,1-2.213-.593,4.854,4.854,0,0,1-2.581-3.781c-.375-3.142,1.777-7.112,6.061-11.179.885-.841,1.781-1.749,2.705-2.688,5.946-6.035,13.35-13.551,26.879-11.576a.657.657,0,0,1,.539.747.646.646,0,0,1-.712.566c-12.92-1.886-19.777,5.076-25.826,11.216-.935.949-1.841,1.867-2.736,2.716-3.912,3.715-5.973,7.371-5.656,10.032a3.535,3.535,0,0,0,1.92,2.775c2.605,1.439,5.276-.842,9.32-4.3,1.154-.986,2.462-2.106,3.871-3.209,6.44-5.046,11.184-3.651,11.381-3.591a.667.667,0,0,1,.428.823.627.627,0,0,1-.785.449c-.087-.022-4.406-1.212-10.266,3.38-1.387,1.088-2.63,2.148-3.829,3.175C448.692,467.03,446.011,469.323,443.4,469.323Z" transform="translate(-438.563 -439.184)" fill="#da8e75"/>
            </g>
          </g>
          <g id="Grupo_132452" data-name="Grupo 132452" transform="translate(210.518 254.336)">
            <g id="Grupo_132451" data-name="Grupo 132451">
              <path id="Trazado_194944" data-name="Trazado 194944" d="M429.289,469.278a.619.619,0,0,1-.224-.043,4.6,4.6,0,0,1-3.087-3.53c-.586-3.358,2.284-8.161,8.078-13.525,9.284-8.59,19.584-13.831,26.219-13.415a.653.653,0,0,1,.592.7.622.622,0,0,1-.671.62c-6.328-.393-16.257,4.716-25.3,13.086-5.37,4.969-8.166,9.451-7.67,12.292a3.323,3.323,0,0,0,2.291,2.528.673.673,0,0,1,.367.854A.635.635,0,0,1,429.289,469.278Z" transform="translate(-425.903 -438.742)" fill="#da8e75"/>
            </g>
          </g>
          <path id="Trazado_194945" data-name="Trazado 194945" d="M420.7,481.8l2.168,1.009h59.489a5.728,5.728,0,0,0,3.924-1.565,6.3,6.3,0,0,0,1.977-4.619h0a6.342,6.342,0,0,0-1.3-3.87,5.8,5.8,0,0,0-4.6-2.314h-63.7Z" transform="translate(-214.599 -187.841)" fill="#302f30"/>
          <g id="Grupo_132453" data-name="Grupo 132453" transform="translate(291.803 246.813)">
            <path id="Trazado_194946" data-name="Trazado 194946" d="M517.843,472.767a.674.674,0,0,1-.1-.008.7.7,0,0,1-.565-.808,82.19,82.19,0,0,0,.1-22.219,20.11,20.11,0,0,1-.21-2.47c.094-2.136,4.108-2.356,19.441-2.865q2.87-.092,6.179-.21c5.974-.213,19.392-2.412,34.93-4.959,27.736-4.545,62.25-10.2,78.193-8.669,24.9,2.4,36.1,14.842,36.563,15.37a.732.732,0,0,1-.04,1,.653.653,0,0,1-.954-.04c-.111-.126-11.348-12.577-35.692-14.918-15.766-1.514-50.2,4.126-77.86,8.658-15.58,2.553-29.036,4.759-35.094,4.975q-3.308.118-6.182.21c-9.771.324-17.487.58-18.152,1.581,0,.276.1,1.11.222,2.167a83.623,83.623,0,0,1-.11,22.605A.686.686,0,0,1,517.843,472.767Z" transform="translate(-517.064 -430.306)" fill="#994f49"/>
          </g>
          <g id="Grupo_132454" data-name="Grupo 132454" transform="translate(412.71 143.836)">
            <path id="Trazado_194947" data-name="Trazado 194947" d="M689.729,423.986a.671.671,0,0,1-.609-.4c-.193-.424-19.4-42.65-27.978-64.374a130.363,130.363,0,0,1-8.481-43.691.713.713,0,0,1,.683-.7.692.692,0,0,1,.668.716,128.824,128.824,0,0,0,8.378,43.132c8.565,21.69,27.756,63.883,27.948,64.308a.721.721,0,0,1-.319.943A.643.643,0,0,1,689.729,423.986Z" transform="translate(-652.661 -314.817)" fill="#994f49"/>
          </g>
          <g id="Grupo_132455" data-name="Grupo 132455" transform="translate(407.291 149.011)">
            <path id="Trazado_194948" data-name="Trazado 194948" d="M653.637,330.288a.655.655,0,0,1-.377-.12,19.674,19.674,0,0,1-6.632-8.591.718.718,0,0,1,.395-.912.668.668,0,0,1,.869.414,18.575,18.575,0,0,0,6.122,7.913.73.73,0,0,1,.184.984A.667.667,0,0,1,653.637,330.288Z" transform="translate(-646.584 -320.62)" fill="#994f49"/>
          </g>
          <g id="Grupo_132457" data-name="Grupo 132457" transform="translate(0 141.768)">
            <path id="Trazado_194949" data-name="Trazado 194949" d="M370.431,316.723l-.494-4.226H194.862a4.881,4.881,0,0,0-3.195,1.192,5.377,5.377,0,0,0-1.821,3.476H364.921Z" transform="translate(-189.811 -312.497)" fill="#8c8c8d"/>
            <path id="Trazado_194950" data-name="Trazado 194950" d="M370.427,317.237l-5.51.441H189.842a5.562,5.562,0,0,0,.03,1.477L212.76,466.214H387.834Z" transform="translate(-189.806 -313.011)" fill="#464546"/>
            <g id="Grupo_132456" data-name="Grupo 132456" transform="translate(0 4.668)">
              <path id="Trazado_194951" data-name="Trazado 194951" d="M189.842,317.732a5.562,5.562,0,0,0,.03,1.477L212.76,466.268,364.917,317.732Z" transform="translate(-189.806 -317.732)" fill="#696969"/>
            </g>
          </g>
          <path id="Trazado_194952" data-name="Trazado 194952" d="M409.106,465.7,386.219,318.642a5.416,5.416,0,0,1,1.79-4.953A4.879,4.879,0,0,1,391.2,312.5h0a4.9,4.9,0,0,1,3.272,1.261,5.348,5.348,0,0,1,1.714,3.181L419.342,465.7Z" transform="translate(-211.078 -170.729)" fill="#302f30"/>
          <g id="Grupo_132458" data-name="Grupo 132458" transform="translate(163.46 22.017)">
            <path id="Trazado_194953" data-name="Trazado 194953" d="M376.6,197.773a.639.639,0,0,1-.621-.553l-2.847-18.257a.657.657,0,0,1,.521-.757.631.631,0,0,1,.723.543l2.846,18.257a.656.656,0,0,1-.52.757A.506.506,0,0,1,376.6,197.773Z" transform="translate(-373.127 -178.197)" fill="#da8e75"/>
          </g>
          <g id="Grupo_132459" data-name="Grupo 132459" transform="translate(155.511 27.803)">
            <path id="Trazado_194954" data-name="Trazado 194954" d="M370.965,202.414a4.166,4.166,0,0,1-2.744-1.064c-3.5-2.988-4.563-11.544-3.752-16.124a.627.627,0,0,1,.735-.528.657.657,0,0,1,.5.768c-.746,4.213.315,12.308,3.308,14.86a2.974,2.974,0,0,0,3.365.452.622.622,0,0,1,.821.361.672.672,0,0,1-.344.86A4.8,4.8,0,0,1,370.965,202.414Z" transform="translate(-364.212 -184.686)" fill="#da8e75"/>
          </g>
          <g id="Grupo_132460" data-name="Grupo 132460" transform="translate(148.145 32.999)">
            <path id="Trazado_194955" data-name="Trazado 194955" d="M362.291,207.99c-.085,0-.171,0-.259-.008a3.875,3.875,0,0,1-2.779-1.588c-2.706-3.288-3.605-10.989-3.215-15.285a.631.631,0,1,1,1.254.126c-.36,3.958.471,11.328,2.915,14.3a2.7,2.7,0,0,0,1.893,1.132c3.592.157,4.282-5.938,4.288-6a.633.633,0,0,1,.692-.587.652.652,0,0,1,.56.725C367.609,201.1,366.866,207.99,362.291,207.99Z" transform="translate(-355.951 -190.513)" fill="#da8e75"/>
          </g>
          <g id="Grupo_132461" data-name="Grupo 132461" transform="translate(142.111 46.306)">
            <path id="Trazado_194956" data-name="Trazado 194956" d="M354.684,212.946c-1.352,0-3.9-.848-5.476-6.671a.665.665,0,0,1,.434-.815.628.628,0,0,1,.778.457c1.255,4.652,3.224,5.976,4.644,5.673,1.5-.325,2.875-2.443,2.54-5.08a.656.656,0,0,1,.541-.742.635.635,0,0,1,.707.569c.393,3.1-1.192,6.037-3.534,6.544A3.006,3.006,0,0,1,354.684,212.946Z" transform="translate(-349.184 -205.436)" fill="#da8e75"/>
          </g>
          <g id="Grupo_132462" data-name="Grupo 132462" transform="translate(149.934 75.743)">
            <path id="Trazado_194957" data-name="Trazado 194957" d="M369.78,244.822a14.51,14.51,0,0,1-11.675-5.288.681.681,0,0,1,.077-.929.61.61,0,0,1,.887.081c5.311,6.625,14.229,4.45,14.318,4.43a.627.627,0,0,1,.761.484.661.661,0,0,1-.462.8A16.932,16.932,0,0,1,369.78,244.822Z" transform="translate(-357.957 -238.451)" fill="#da8e75"/>
          </g>
          <g id="Grupo_132463" data-name="Grupo 132463" transform="translate(177.961 68.244)">
            <path id="Trazado_194958" data-name="Trazado 194958" d="M390.02,241.378a.639.639,0,0,1-.622-.564.656.656,0,0,1,.53-.749c.086-.013,8.61-1.445,11.49-9.594a.621.621,0,0,1,.809-.389.668.668,0,0,1,.372.848c-3.143,8.894-12.105,10.382-12.485,10.44A.55.55,0,0,1,390.02,241.378Z" transform="translate(-389.39 -230.04)" fill="#da8e75"/>
          </g>
          <g id="Grupo_132464" data-name="Grupo 132464" transform="translate(237.531 195.963)">
            <path id="Trazado_194959" data-name="Trazado 194959" d="M464.094,413.176a.666.666,0,0,1-.111-.009.707.707,0,0,1-.557-.813c.023-.147,2.173-14.96-7.175-38.092a.72.72,0,0,1,.358-.928.663.663,0,0,1,.885.375c9.517,23.549,7.362,38.259,7.265,38.874A.684.684,0,0,1,464.094,413.176Z" transform="translate(-456.197 -373.277)" fill="#994f49"/>
          </g>
        </g>
        <g id="Grupo_132467" data-name="Grupo 132467" transform="translate(284.34 181.023)">
          <g id="Grupo_132466" data-name="Grupo 132466">
            <path id="Trazado_194960" data-name="Trazado 194960" d="M672.928,295.723a1.759,1.759,0,0,1,0,.469l-.1,1.372c-.117,1.284-1.373,20.421-1.579,22.683l-2.005,19.971-.052.514-.461-.243-26.555-13.98.63-.176L628.378,350.67l-.309.522-.481-.37-24.292-18.628.7,0-10.581,8.294-14.423,11.294-.53.415-.319-.591L564.4,326.182l.687.233L535.949,339.4l-.534.238-.1-.573c-1.7-9.988-3.17-18.679-4.4-25.916l.448.251-16.684,6.363-4.439,1.644-1.149.4a1.444,1.444,0,0,1-.4.108,1.386,1.386,0,0,1,.366-.193l1.117-.485,4.375-1.8,16.572-6.651.376-.152.072.4c1.295,7.226,2.85,15.9,4.637,25.874l-.632-.335,29.073-13.131.451-.2.237.436c4.366,8.032,8.99,16.54,13.8,25.387l-.848-.176,14.416-11.3,10.584-8.289.349-.274.35.27,24.254,18.678-.791.151c5.214-8.708,10.124-16.905,14.534-24.271l.234-.39.4.213,26.44,14.2-.512.271,2.326-19.935c.284-2.254,1.6-21.385,1.762-22.664.079-.553.144-1,.2-1.362A1.719,1.719,0,0,1,672.928,295.723Z" transform="translate(-508.694 -295.723)" fill="#f5f5f5"/>
          </g>
        </g>
        <g id="Grupo_132469" data-name="Grupo 132469" transform="translate(273.654 217.712)">
          <g id="Grupo_132468" data-name="Grupo 132468">
            <path id="Trazado_194961" data-name="Trazado 194961" d="M693.158,336.869a3.123,3.123,0,0,1-.123.644c-.117.474-.269,1.091-.461,1.868-.446,1.7-2.323,9.281-3.13,12.366-1.7,6.328-4.152,15.42-7.206,26.767l-.117.434-.407-.2-31.032-14.894.608-.158-26.139,37.278-.383.547-.469-.476-25.122-25.46-5.272-5.349.712.082-33.854,21.229-.483.3-.281-.495c-6.538-11.548-12.663-22.366-18.251-32.234l.573.215-34.81,11.983-.331.114-.113-.327-7.724-22.4q-1.287-3.831-2-5.955c-.2-.637-.366-1.143-.492-1.54a2.419,2.419,0,0,1-.136-.531,2.242,2.242,0,0,1,.228.5c.15.388.341.885.581,1.508l2.174,5.9,8.029,22.294-.443-.213,34.724-12.227.375-.132.2.347,18.368,32.167-.763-.192,33.824-21.274.39-.245.323.328,5.273,5.348,25.1,25.482-.852.07,26.256-37.2.239-.338.37.181,30.935,15.093-.524.238,7.536-26.676c.888-3.062,2.828-10.621,3.32-12.314.234-.766.419-1.373.561-1.84A2.989,2.989,0,0,1,693.158,336.869Z" transform="translate(-496.71 -336.869)" fill="#f5f5f5"/>
          </g>
        </g>
      </g>
    </g>
  </g>
</svg>
