<?xml version="1.0" encoding="utf-8"?>
<!-- Generator: Adobe Illustrator 26.1.0, SVG Export Plug-In . SVG Version: 6.00 Build 0)  -->
<svg version="1.1" id="Capa_1" xmlns="http://www.w3.org/2000/svg" xmlns:xlink="http://www.w3.org/1999/xlink" x="0px" y="0px"
	 viewBox="0 0 1029.5 397.9" style="enable-background:new 0 0 1029.5 397.9;" xml:space="preserve">
<style type="text/css">
	.st0{opacity:0.3;}
	.st1{fill:url(#Elipse_5247_00000005975007651520144880000015107575401646609339_);}
	.st2{fill:url(#Elipse_5247_00000042721534295685583560000016947936158514621609_);}
	.st3{fill:#F6F6F6;}
	.st4{fill:url(#Elipse_5247_00000149342481877859267400000003371967582048472716_);}
	.st5{fill:#FF9500;}
	.st6{opacity:0.95;}
	.st7{fill:#0CA4CA;}
	.st8{fill:#255065;}
	.st9{opacity:0.5;fill:#F37D07;enable-background:new    ;}
	.st10{fill:#6C6C6C;}
	.st11{fill:#3777BC;}
	.st12{fill:#95D3E8;}
	.st13{fill:#FFFFFF;}
	.st14{fill:#9E9E9F;}
</style>
<g id="Grupo_132766" transform="translate(-285.24 -545.994)">
	<g id="Grupo_131966" transform="translate(285.24 549.921)">
		<g id="Grupo_131962_00000115508984027326816370000016260321645624590514_" transform="translate(682.445 52.653)" class="st0">
			
				<radialGradient id="Elipse_5247_00000033333925599596333300000007020104601463902387_" cx="-170.5031" cy="145.065" r="138.638" gradientUnits="userSpaceOnUse">
				<stop  offset="0.6034" style="stop-color:#000000"/>
				<stop  offset="0.654" style="stop-color:#040404"/>
				<stop  offset="0.704" style="stop-color:#101010"/>
				<stop  offset="0.7536" style="stop-color:#242424"/>
				<stop  offset="0.803" style="stop-color:#3F3F3F"/>
				<stop  offset="0.8524" style="stop-color:#636363"/>
				<stop  offset="0.9017" style="stop-color:#8F8F8F"/>
				<stop  offset="0.9508" style="stop-color:#C3C3C3"/>
				<stop  offset="0.999" style="stop-color:#FEFEFE"/>
				<stop  offset="1" style="stop-color:#FFFFFF"/>
			</radialGradient>
			
				<ellipse id="Elipse_5247_00000182507228802867997630000014797120713628485017_" style="fill:url(#Elipse_5247_00000033333925599596333300000007020104601463902387_);" cx="-170.5" cy="145.1" rx="138.6" ry="138.6"/>
		</g>
		<g id="Grupo_131962_00000039855810755264417450000000038735932657606826_" transform="translate(682.445 52.653)" class="st0">
			
				<radialGradient id="Elipse_5247_00000065066380925241418360000014166183475772579515_" cx="-488.719" cy="139.8668" r="138.638" gradientUnits="userSpaceOnUse">
				<stop  offset="0.6034" style="stop-color:#000000"/>
				<stop  offset="0.654" style="stop-color:#040404"/>
				<stop  offset="0.704" style="stop-color:#101010"/>
				<stop  offset="0.7536" style="stop-color:#242424"/>
				<stop  offset="0.803" style="stop-color:#3F3F3F"/>
				<stop  offset="0.8524" style="stop-color:#636363"/>
				<stop  offset="0.9017" style="stop-color:#8F8F8F"/>
				<stop  offset="0.9508" style="stop-color:#C3C3C3"/>
				<stop  offset="0.999" style="stop-color:#FEFEFE"/>
				<stop  offset="1" style="stop-color:#FFFFFF"/>
			</radialGradient>
			
				<ellipse id="Elipse_5247_00000078035972104072645190000003948488131391139242_" style="fill:url(#Elipse_5247_00000065066380925241418360000014166183475772579515_);" cx="-488.7" cy="139.9" rx="138.6" ry="138.6"/>
		</g>
		<g id="Grupo_131958" transform="translate(46.904 54.047)">
			<ellipse id="Elipse_5245" class="st3" cx="149" cy="138.7" rx="121.7" ry="121.7"/>
		</g>
		<g id="Grupo_131960" transform="translate(372.935 52.962)">
			<ellipse id="Elipse_5246" class="st3" cx="141.5" cy="141.5" rx="123.5" ry="123.5"/>
		</g>
		<g id="Grupo_131962_00000144306424653844316590000016800956747494011784_" transform="translate(682.445 52.653)" class="st0">
			
				<radialGradient id="Elipse_5247_00000075849725607826919730000006560006145252974977_" cx="154.37" cy="136.058" r="138.638" gradientUnits="userSpaceOnUse">
				<stop  offset="0.6034" style="stop-color:#000000"/>
				<stop  offset="0.654" style="stop-color:#040404"/>
				<stop  offset="0.704" style="stop-color:#101010"/>
				<stop  offset="0.7536" style="stop-color:#242424"/>
				<stop  offset="0.803" style="stop-color:#3F3F3F"/>
				<stop  offset="0.8524" style="stop-color:#636363"/>
				<stop  offset="0.9017" style="stop-color:#8F8F8F"/>
				<stop  offset="0.9508" style="stop-color:#C3C3C3"/>
				<stop  offset="0.999" style="stop-color:#FEFEFE"/>
				<stop  offset="1" style="stop-color:#FFFFFF"/>
			</radialGradient>
			
				<ellipse id="Elipse_5247_00000073716853605860840730000014425924554379584402_" style="fill:url(#Elipse_5247_00000075849725607826919730000006560006145252974977_);" cx="154.4" cy="136.1" rx="138.6" ry="138.6"/>
		</g>
		<g id="Grupo_131962" transform="translate(682.445 52.653)">
			<ellipse id="Elipse_5247" class="st3" cx="154.4" cy="134.1" rx="120.5" ry="120.5"/>
		</g>
		<g id="Grupo_131963" transform="translate(0 161.137)">
			<path id="Trazado_194701" class="st5" d="M192.5,223.8C86.3,223.8,0,137.5,0,31.3C0,14,14,0,31.4,0s31.3,14,31.3,31.4
				c0,71.7,58.1,129.8,129.7,129.8c71.7,0,129.8-58.1,129.8-129.7c0,0,0-0.1,0-0.1c0-17.3,14-31.4,31.4-31.4S385,14,385,31.3l0,0
				C385,137.5,298.6,223.8,192.5,223.8z"/>
		</g>
		<g id="Grupo_131964" transform="translate(322.273 0)" class="st6">
			<path id="Trazado_194702" class="st7" d="M353.6,223.8c-17.3,0-31.3-14-31.3-31.3l0,0c-0.2-71.7-58.5-129.6-130.2-129.4
				c-71.4,0.2-129.2,58-129.4,129.4c0,17.3-14,31.4-31.4,31.4S0,209.8,0,192.5C0,86.3,86.3,0,192.5,0S385,86.3,385,192.5
				C385,209.8,370.9,223.8,353.6,223.8z"/>
		</g>
		<g id="Grupo_131965" transform="translate(644.548 161.137)" class="st6">
			<path id="Trazado_194703" class="st8" d="M192.5,223.8C86.3,223.8,0,137.5,0,31.3C0,14,14,0,31.3,0c17.3,0,31.4,14,31.4,31.4l0,0
				c0,71.7,58.1,129.8,129.8,129.8s129.8-58.1,129.8-129.8c0,0,0,0,0,0c0-17.3,14-31.4,31.3-31.4S385,14,385,31.3
				C385,137.5,298.6,223.8,192.5,223.8z"/>
		</g>
		<g id="Grupo_132571" transform="translate(757.747 113.19)">
			<path id="Trazado_195102" class="st9" d="M44.4,42.4h102v92.8h-30.1v8.8H41.8V42.4L44.4,42.4z"/>
			<path id="Trazado_195103" class="st10" d="M32.2,33.3v125.3h121.6V33.3H32.2z M146.4,135.2h-30.1v8.8H41.8V42.4h104.6V135.2z"/>
			<rect id="Rectángulo_294852" x="2.1" y="2.3" class="st11" width="134.3" height="19.2"/>
			<rect id="Rectángulo_294853" x="138.1" y="2.3" class="st9" width="19.2" height="19.2"/>
			<path id="Trazado_195104" class="st12" d="M71.7,80.9l22.5,10.2v26.3l-22.5-8.6V80.9z"/>
			<path id="Trazado_195105" class="st11" d="M96.5,89.1l20.7-8.2V98l-11.5,15.6l-9.2,3.9V89.1z"/>
			<path id="Trazado_195106" class="st13" d="M74.2,79l20.5-9.8l20.1,9.9l-20.1,10L74.2,79z"/>
			<g id="Grupo_132570" transform="translate(0 0)">
				<path id="Trazado_195107" d="M0,158.6V0h158.6v158.6H0z M153.7,34.8H34.8v118.9h118.9L153.7,34.8z M4.7,24.7
					c0,0.6-0.1,1-0.1,1.4c0,38.8,0,77.6,0,116.3c0,1.2,0.3,1.6,1.6,1.6c7.4-0.1,14.8,0,22.2,0c0.4,0,0.8-0.1,1.2-0.1V24.7H4.7z
					 M133.9,4.9H4.9v14.8h129V4.9z M114.1,24.8H59.5v4.8h54.5V24.8z M153.7,19.7V4.8H139v14.8H153.7z M153.8,24.8h-34.7v4.9h34.7
					V24.8z M29.7,148.7H8.2c-3.6,0-3.5,0-3.6,3.6c0,1.3,0.4,1.7,1.7,1.7c7.3-0.1,14.7,0,22,0c0.4,0,0.8-0.1,1.3-0.1L29.7,148.7z
					 M54.4,29.6v-4.8H34.7v4.8H54.4z"/>
				<path id="Trazado_195108" d="M118.9,138.9v7.2H39.8V39.8h108.9v99.1L118.9,138.9z M65.1,112.9c-6.5,2.8-13,5.6-19.4,8.3
					c-0.8,0.2-1.4,1-1.3,1.8c0.1,5.6,0.1,11.3,0,16.9c0,1.3,0.4,1.7,1.7,1.7c22.2,0,44.4,0,66.5,0c1.2,0,1.7-0.3,1.6-1.6
					c-0.1-2,0-3.9,0-6H144c0-4.8,0-9.4,0-14c0-0.4-0.6-0.9-1.1-1.2c-1.9-1-3.9-2-5.9-2.9c-2.1-1-4.1-2.1-6.3-3.2l2.1-4.2l11,5.5
					c0.1-0.7,0.1-1.2,0.1-1.6c0-22.1,0-44.2,0-66.2c0-1.3-0.4-1.6-1.6-1.6c-14.7,0-29.4,0-44.2,0c-0.5,0-1,0.1-1.7,0.1v17.3h-4.9
					V44.5c-0.5,0-0.9-0.1-1.2-0.1c-14.8,0-29.6,0-44.5,0c-1.3,0-1.5,0.5-1.5,1.6c0,23,0,46,0,69.1c0,0.4,0.1,0.8,0.2,1.2
					c0.3-0.1,0.6-0.1,0.9-0.2c5.5-2.4,10.9-4.7,16.4-7.1c1-0.4,1.5-0.4,1.9,0.7C64.1,110.7,64.6,111.7,65.1,112.9L65.1,112.9z"/>
				<path id="Trazado_195109" d="M128.8,148.6h-4.8V144h4.8V148.6z"/>
				<path id="Trazado_195110" d="M134.1,144h4.8v4.6h-4.8V144z"/>
				<path id="Trazado_195111" d="M144,148.6V144h4.6v4.6H144z"/>
				<path id="Trazado_195112" d="M24.7,49.3h-4.8v-4.9c-1.6,0-2.9-0.1-4.3,0c-0.5,0.2-0.8,0.6-0.9,1c-0.1,1.2,0,2.5,0,3.8h-4.4
					c0-4.5-0.4-9,0.1-13.4c0.4-3.8,3.8-6.4,7.6-6c1,0.1,2,0.4,2.8,1c2.3,1.5,3.7,4.1,3.8,6.8c0.1,0.9,0.1,1.8,0.1,2.7
					C24.7,43.3,24.7,46.2,24.7,49.3z M20,39.6c-0.1-1.2-0.3-2.4-0.7-3.6c-0.4-0.7-1.1-1.3-2-1.4c-0.8,0.1-1.6,0.6-2,1.4
					c-0.4,1.2-0.7,2.3-0.9,3.6L20,39.6z"/>
				<path id="Trazado_195113" d="M14.6,64.6v4.7h-4.5v-4.7H14.6z"/>
				<path id="Trazado_195114" d="M10.1,124.1h4.5v4.7h-4.5V124.1z"/>
				<path id="Trazado_195115" d="M19.8,64.5h4.7v4.8c-1.3,0-2.7,0-4,0c-0.3-0.1-0.6-0.4-0.6-0.7C19.8,67.3,19.8,65.9,19.8,64.5z"/>
				<path id="Trazado_195116" d="M24.6,124.1v4.8c-1.4,0-3,0.4-4.1-0.1c-1.5-0.6-0.4-2.4-0.6-3.6c0.1-0.5,0.4-0.9,0.9-1.1
					C22,124,23.3,124,24.6,124.1z"/>
				<path id="Trazado_195117" d="M14.6,138.7H10v-4.6h4.5V138.7z"/>
				<path id="Trazado_195118" d="M19.9,134h4.6v4.7h-4.6V134z"/>
				<path id="Trazado_195119" d="M10.1,54.7h4.5v4.6h-4.5V54.7z"/>
				<path id="Trazado_195120" d="M10,79v-4.5h4.5V79H10z"/>
				<path id="Trazado_195121" d="M10,89.1v-4.5h4.5v4.5H10z"/>
				<path id="Trazado_195122" d="M20,84.5h4.6v4.5H20V84.5z"/>
				<path id="Trazado_195123" d="M14.5,99h-4.4v-4.7h4.4V99z"/>
				<path id="Trazado_195124" d="M24.6,99H20v-4.7h4.6V99z"/>
				<path id="Trazado_195125" d="M14.6,104.3v4.5h-4.5v-4.5H14.6z"/>
				<path id="Trazado_195126" d="M19.9,108.8v-4.5h4.6v4.5H19.9z"/>
				<path id="Trazado_195127" d="M19.9,59.3v-4.5h4.6v4.5H19.9z"/>
				<path id="Trazado_195128" d="M14.6,114.3v4.5h-4.5v-4.5H14.6z"/>
				<path id="Trazado_195129" d="M24.5,118.9H20v-4.5h4.6V118.9z"/>
				<path id="Trazado_195130" d="M19.9,79.1v-4.5h4.6v4.5H19.9z"/>
				<path id="Trazado_195131" d="M24.6,10.1v4.5h-4.8v-4.5H24.6z"/>
				<path id="Trazado_195132" d="M34.5,10v4.5h-4.7V10H34.5z"/>
				<path id="Trazado_195133" d="M14.6,14.6h-4.5V10h4.5V14.6z"/>
				<path id="Trazado_195134" d="M119.8,98H115V83.9c-1.9,0.9-3.6,1.6-5.3,2.4c-3.9,1.8-7.7,3.6-11.5,5.5c-0.6,0.3-1,0.9-1.1,1.5
					c-0.1,7-0.1,14.1-0.1,21.1c0,0.3,0.1,0.5,0.1,0.8l7.7-3.5l2,4.3c-2.4,1-4.7,2.1-7,3.4c-3.5,2.2-6.7,2.1-10.4,0.1
					c-6-3.2-12.3-5.8-18.4-8.7c-1-0.4-1.7-1.5-1.6-2.6c0-9.2,0-18.5,0.1-27.7c0.1-1,0.6-1.9,1.4-2.4c7.3-3.5,14.6-6.9,21.9-10.4
					c1.2-0.6,2.7-0.5,3.8,0.1c7.1,3.3,14.2,6.7,21.3,10c1.1,0.4,1.8,1.3,1.8,2.5C119.8,86,119.8,91.9,119.8,98z M74.4,83.8
					c-0.1,0.2-0.1,0.5-0.2,0.7c0,7,0,14.1,0,21.1c0,1,0.5,1.3,1.3,1.7c3.2,1.5,6.5,3.1,9.7,4.6c2.3,1.1,4.6,2.1,6.9,3.2
					c0.1-0.2,0.2-0.4,0.2-0.6c0-7.2,0-14.3,0-21.4c-0.1-0.6-0.5-1.1-1-1.3c-2.7-1.3-5.4-2.6-8.1-3.8C80.2,86.6,77.4,85.2,74.4,83.8
					L74.4,83.8z M111.5,80.1c-0.2-0.2-0.5-0.4-0.8-0.5c-5.1-2.4-10.2-4.8-15.3-7.1c-0.7-0.2-1.4-0.1-2,0.2c-3.6,1.6-7.2,3.3-10.8,5
					c-1.6,0.7-3.2,1.5-5,2.4c4.7,2.2,9,4.2,13.3,6.3c2.5,1.3,4.6,1.6,7.3,0.1C102.4,84.1,107,82.3,111.5,80.1L111.5,80.1z"/>
				<path id="Trazado_195135" d="M109.7,101.8l12.4,3.9c-0.3,1-0.6,2-0.9,3c-0.3,0.7-0.1,1.4,0.5,1.9c1.1,1.1,2.1,2.3,3.2,3.4
					l-3.4,3.4c-0.9-1-1.8-1.9-2.7-3c-0.6-1-1.9-1.3-3-0.8c-2.3,0.8-2.3,0.8-3-1.6C111.7,108.8,110.8,105.5,109.7,101.8z"/>
			</g>
		</g>
		<g id="Grupo_132572" transform="translate(430.879 106.121)">
			<path id="Trazado_195136" class="st13" d="M164.3,120.3c0-0.8,0-1.3,0-1.9c0-34.9,0-69.9,0-104.8c0.2-7.3-5.5-13.4-12.8-13.7
				c-0.3,0-0.5,0-0.8,0C105.8,0,61,0,16.1,0C8.8-0.2,2.7,5.6,2.6,13c0,0.2,0,0.4,0,0.6c0,34.9,0,69.9,0,104.8v2H0v46.6h166.8v-46.6
				H164.3z"/>
			<path id="Trazado_195137" d="M164.3,120.3h2.6v46.6H0v-46.6h2.6v-2c0-34.9,0-69.9,0-104.8C2.4,6.2,8.2,0.2,15.5,0
				c0.2,0,0.4,0,0.6,0C61,0,105.8,0,150.7,0c7.3-0.2,13.4,5.6,13.6,12.9c0,0.3,0,0.5,0,0.8c0,34.9,0,69.9,0,104.8
				C164.3,119,164.3,119.5,164.3,120.3z M130.3,120.3c1.3-0.1,2.5,0,3.8,0c1.5,0.2,1.8-0.4,1.8-1.8c0-17.1,0-34.3,0-51.4
				c0-0.6-0.1-1.2-0.1-1.7l-2.4-0.2c-0.2-2.5-0.2-2.5-2.6-2.5c-7.5,0-14.9,0-22.4,0c-0.5,0-1.1,0-1.8,0.1c0,2-0.1,3.9,0,5.8
				c0.2,2.7-2.9,6.2-5.2,6.6c-1.6,0.3-3.3,0.4-5.1,0.6V86h-5.2v5.2h-5v-5.2h-5.3V75.4c-0.9,0-1.7,0-2.4,0c-4.2,0-7-2.1-7.7-6.2
				c-0.3-2.2-0.5-4.4-0.5-6.6H44.1c-0.1,0.9-0.1,1.7-0.2,2.5l-2.5,0.2v1.9c0,17,0,34,0,51.1c0,0.3-0.1,0.7,0,1c0.2,0.4,0.6,1,0.9,1
				c1.5,0.1,3,0,4.7,0v-10.5H92c12.2,0,24.4,0,36.6,0c1.4,0,1.8,0.4,1.7,1.8C130.2,114.3,130.3,117.2,130.3,120.3L130.3,120.3z
				 M4.9,125.3c0,0.6-0.1,1.1-0.1,1.6c0,11.1,0,22.2,0,33.3c0,1.5,0.4,1.9,1.9,1.9c51.1,0,102.1,0,153.2,0c1.6,0,2-0.5,2-2
				c-0.1-11,0-22.1,0-33.1c0-0.5,0-1.1-0.1-1.7L4.9,125.3z M151.2,120.3c2.2,0,4.3-0.1,6.3,0c1.5,0.1,1.9-0.4,1.9-1.9
				c0-34.9-0.1-69.9,0-104.8c0.2-4.6-3.3-8.4-7.8-8.7c-0.3,0-0.5,0-0.8,0c-44.9,0-89.7,0-134.6,0c-5.2,0-8.7,3.5-8.7,8.7
				c0,34.9,0,69.7,0,104.6c0,0.3-0.1,0.7,0,1c0.2,0.4,0.6,1,0.9,1c5.8,0.1,11.6,0,17.6,0v-55l-2.5-0.2l-0.3-2.6H13.2V47.1h10.1
				c0.1-0.9,0.2-1.7,0.3-2.5l2.5-0.2V10.7h125.1v33.8l2.5,0.1v20.5l-2.4,0.2V120.3z M75.9,26l-0.2,0.4c0.8,0.6,1.7,1.1,2.6,1.6
				c2.9,1.2,6,2.4,8.9,3.6c3.7,1.5,7.2,3.3,8.8,7.6h10.6c0,2.2,0.1,4.2,0,6.2c-0.1,1.4,0.4,1.7,1.8,1.7c7.5-0.1,15,0,22.6,0
				c2.2,0,2.2,0,2.4-2.3c0-0.1,0.1-0.2,0.2-0.3l2.2-0.2V26L75.9,26z M70,26.1H41.5v18.3l2.4,0.2l0.2,2.4h26.4v-7.8H90
				c-0.6-0.8-1.4-1.5-2.3-1.9c-3-1.3-6-2.4-9.1-3.7C74.9,32.1,71.5,30.2,70,26.1L70,26.1z M146.1,15.5H31.1c0.1,1.2,0,2.4,0,3.6
				c-0.2,1.6,0.5,1.9,2,1.9c37.1,0,74.2,0,111.3,0c0.6,0,1.2-0.1,1.8-0.1L146.1,15.5z M52,120.3h69.6c3.8,0,3.8,0,3.8-3.8
				c0-1.4-0.3-1.9-1.8-1.9c-23.3,0-46.6,0.1-70,0c-0.5,0-1,0.1-1.6,0.1L52,120.3z M75.3,54.8c0,4.4,0,8.6,0,12.9
				c-0.1,1.5,1,2.8,2.4,2.9c0,0,0.1,0,0.1,0c7.1,0,14.3,0,21.4,0c1.3,0.1,2.4-0.9,2.4-2.1c0-0.1,0-0.2,0-0.3c0-4.1,0-8.1,0-12.2
				c0-0.4-0.1-0.7-0.1-1.1L75.3,54.8z M36.4,120.2V65.3h-5.3v54.9L36.4,120.2z M140.9,65.3v54.9h5.2V65.3H140.9z M119.8,57.7h9.5
				c4,0,3.9,0,3.9-4c0-1.3-0.4-1.7-1.7-1.7c-7,0.1-13.9,0-20.9,0c-4.2,0-4.1,0-4.1,4.1c0,1.1,0.4,1.5,1.5,1.5
				C112,57.6,115.9,57.7,119.8,57.7L119.8,57.7z M101.7,44.1H79.2c-3.9,0-3.8,0-3.9,3.9c0,1.4,0.4,1.8,1.8,1.8
				c7.8-0.1,15.6,0,23.3,0c0.4,0,0.8-0.1,1.3-0.1L101.7,44.1z M70.3,52.1H47.9c-3.9,0-3.9,0-3.9,4c0,1.3,0.4,1.7,1.7,1.7
				c7.7-0.1,15.5,0,23.2,0c0.5,0,0.9-0.1,1.4-0.1L70.3,52.1z M39.1,49.5H28.6v10.6h10.4V49.5z M138.2,49.5c0,3.4,0,6.5,0,9.7
				c0.1,0.5,0.5,0.9,1,1c2.8,0.1,5.7,0.1,8.5,0c0.4,0,1-0.6,1-0.9c0.1-3.3,0-6.5,0-9.9L138.2,49.5z M36.5,26.1h-5.4v18.3h5.4V26.1z
				 M146.1,44.5V26.1h-5.2v18.3L146.1,44.5z M86,80.9c5.4,0.6,5.7,0.4,5.5-4.1c0-0.1,0-0.3,0-0.3c-0.3-0.3-0.6-0.9-0.9-0.9
				c-1.5-0.1-3,0-4.6,0L86,80.9z M18,52.1c0,1.6,0,3.1,0,4.5c0,0.3,0.5,0.9,0.8,1c1.5,0.1,3,0,4.5,0v-5.5H18z"/>
			<path id="Trazado_195138" class="st12" d="M130.3,120.3c0-3.1-0.1-5.9,0-8.8c0.1-1.4-0.4-1.8-1.7-1.8c-12.2,0-24.4,0-36.6,0H47.1
				v10.5c-1.7,0-3.2,0.1-4.7,0c-0.3,0-0.7-0.6-0.9-1c-0.1-0.3,0-0.6,0-1c0-17,0-34,0-51.1v-1.9l2.5-0.2c0.1-0.8,0.1-1.6,0.2-2.5
				h26.1c0,2.2,0.2,4.4,0.5,6.6c0.8,4.1,3.6,6.2,7.7,6.2c0.8,0,1.5,0,2.4,0v10.5h5.3v5.2h5V86h5.2V75.6c1.8-0.2,3.5-0.3,5.1-0.6
				c2.3-0.4,5.4-3.9,5.2-6.6c-0.1-1.9,0-3.8,0-5.8c0.7,0,1.2-0.1,1.8-0.1c7.5,0,14.9,0,22.4,0c2.4,0,2.4,0,2.6,2.5l2.4,0.2
				c0,0.6,0.1,1.2,0.1,1.7c0,17.1,0,34.3,0,51.4c0,1.4-0.3,2-1.8,1.8C132.8,120.2,131.5,120.2,130.3,120.3z"/>
			<path id="Trazado_195139" class="st10" d="M4.9,125.3h156.9c0,0.6,0.1,1.1,0.1,1.7c0,11,0,22.1,0,33.1c0,1.6-0.4,2-2,2
				c-51.1,0-102.1,0-153.2,0c-1.5,0-1.9-0.4-1.9-1.9c0.1-11.1,0-22.2,0-33.3C4.9,126.4,4.9,125.9,4.9,125.3z M109.7,156.4h46.5
				v-25.7h-46.5V156.4z M83.6,130.6c-6.4,0-12.8,0-19.2,0c-1.3,0-1.7,0.4-1.7,1.7c0.1,4.1,0.1,8.2,0,12.3c0,1.2,0.4,1.6,1.6,1.6
				c12.8,0,25.6,0,38.3,0c1.2,0,1.6-0.4,1.6-1.6c-0.1-4.1-0.1-8.2,0-12.3c0-1.3-0.4-1.7-1.7-1.7C96.2,130.6,89.9,130.6,83.6,130.6z
				 M46.6,130.7H10.6v4.9h36.1V130.7z M10.6,141.1v4.9h12.6v-4.9H10.6z"/>
			<path id="Trazado_195140" class="st12" d="M151.2,120.3v-55l2.4-0.2V44.6l-2.5-0.1V10.7H26.1v33.7l-2.5,0.2
				c-0.1,0.8-0.2,1.6-0.3,2.5H13.2v15.4h10.1l0.3,2.6l2.5,0.2v55c-6,0-11.8,0-17.6,0c-0.3,0-0.7-0.6-0.9-1c-0.1-0.3,0-0.6,0-1
				c0-34.9,0-69.7,0-104.6c0-5.2,3.5-8.7,8.7-8.7c44.9,0,89.7,0,134.6,0c4.6-0.2,8.4,3.3,8.6,7.9c0,0.3,0,0.5,0,0.8
				c0,34.9,0,69.9,0,104.8c0,1.5-0.4,2-1.9,1.9C155.5,120.2,153.4,120.3,151.2,120.3z"/>
			<path id="Trazado_195141" class="st12" d="M75.9,26h59.8v18.3l-2.2,0.2c-0.1,0.1-0.2,0.2-0.2,0.3c-0.2,2.3-0.2,2.3-2.4,2.3
				c-7.5,0-15,0-22.6,0c-1.3,0-1.9-0.3-1.8-1.7c0.1-2,0-4,0-6.2H96c-1.5-4.3-5.1-6.1-8.8-7.6c-3-1.2-6-2.3-8.9-3.6
				c-0.9-0.5-1.8-1-2.6-1.6L75.9,26z"/>
			<path id="Trazado_195142" class="st12" d="M70,26.1c1.5,4.1,5,5.9,8.7,7.5c3,1.2,6.1,2.4,9.1,3.7c0.9,0.4,1.7,1.1,2.3,1.9H70.5
				V47H44.1l-0.2-2.4l-2.4-0.2V26.1L70,26.1z"/>
			<path id="Trazado_195143" class="st14" d="M146.1,15.5v5.4c-0.6,0-1.2,0.1-1.8,0.1c-37.1,0-74.2,0-111.3,0c-1.5,0-2.1-0.3-2-1.9
				c0.1-1.2,0.1-2.4,0-3.6L146.1,15.5z"/>
			<path id="Trazado_195144" class="st14" d="M52,120.3v-5.5c0.6,0,1.1-0.1,1.6-0.1c23.3,0,46.6,0,70,0c1.5,0,1.9,0.5,1.8,1.9
				c-0.1,3.8,0,3.8-3.8,3.8L52,120.3L52,120.3z"/>
			<path id="Trazado_195145" class="st9" d="M75.3,54.8h26.3c0.1,0.4,0.1,0.7,0.1,1.1c0,4.1,0,8.1,0,12.2c0.1,1.3-0.8,2.4-2.1,2.5
				c-0.1,0-0.2,0-0.3,0c-7.1,0-14.3,0-21.4,0c-1.5-0.1-2.6-1.3-2.5-2.8c0,0,0-0.1,0-0.1C75.3,63.4,75.3,59.2,75.3,54.8z M96.3,65.1
				v-4.7h-4.7v4.7H96.3z M85.7,65.1v-4.7h-4.7v4.7H85.7z"/>
			<path id="Trazado_195146" class="st12" d="M36.4,120.2h-5.3V65.3h5.3V120.2z"/>
			<path id="Trazado_195147" class="st12" d="M140.9,65.3h5.2v54.9h-5.2V65.3z"/>
			<path id="Trazado_195148" class="st12" d="M119.8,57.7c-3.9,0-7.8,0-11.7,0c-1.2,0-1.5-0.4-1.5-1.5c0-4.1-0.1-4.1,4.1-4.1
				c7,0,13.9,0,20.9,0c1.3,0,1.7,0.4,1.7,1.7c0,4,0,4-3.9,4C126.2,57.7,123,57.7,119.8,57.7z"/>
			<path id="Trazado_195149" class="st9" d="M101.7,44.1v5.5c-0.5,0-0.9,0.1-1.3,0.1c-7.8,0-15.6,0-23.3,0c-1.4,0-1.8-0.4-1.8-1.8
				c0.1-3.9,0-3.9,3.9-3.9L101.7,44.1z"/>
			<path id="Trazado_195150" class="st12" d="M70.3,52v5.5c-0.5,0-1,0.1-1.4,0.1c-7.7,0-15.5,0-23.2,0c-1.3,0-1.7-0.4-1.7-1.7
				c0-4,0-4,3.9-4L70.3,52z"/>
			<path id="Trazado_195151" class="st10" d="M39.1,49.5v10.6H28.6V49.5H39.1z"/>
			<path id="Trazado_195152" class="st10" d="M138.2,49.5h10.6c0,3.3,0,6.6,0,9.9c0,0.3-0.7,0.8-1,0.9c-2.8,0.1-5.7,0.1-8.5,0
				c-0.5-0.1-0.9-0.5-1-1C138.2,56,138.2,52.9,138.2,49.5z"/>
			<path id="Trazado_195153" class="st12" d="M36.5,26.1v18.3h-5.4V26.1H36.5z"/>
			<path id="Trazado_195154" class="st12" d="M146.1,44.4h-5.2V26.1h5.2L146.1,44.4z"/>
			<path id="Trazado_195155" class="st13" d="M86,80.9v-5.4c1.6,0,3.1-0.1,4.6,0c0.3,0,0.6,0.6,0.9,0.9c0.1,0.1,0,0.2,0,0.3
				C91.7,81.3,91.4,81.6,86,80.9z"/>
			<path id="Trazado_195156" class="st9" d="M18,52.1h5.3v5.5c-1.5,0-3,0.1-4.5,0c-0.3,0-0.7-0.6-0.8-1C18,55.2,18,53.7,18,52.1z"/>
			<path id="Trazado_195157" d="M109.7,156.4v-25.7h46.5v25.7H109.7z M151.4,135.8c-0.3-0.1-0.5-0.1-0.8-0.1
				c-11.6,0-23.2,0-34.8-0.1c-1.1,0-1.3,0.5-1.3,1.5c0,4.2,0.1,8.5,0,12.7c0,1.5,0.5,1.8,1.9,1.8c11.1-0.1,22.3,0,33.4,0
				c0.5,0,1.1,0,1.6-0.1L151.4,135.8z"/>
			<path id="Trazado_195158" d="M83.6,130.6c6.3,0,12.6,0,18.9,0c1.3,0,1.7,0.4,1.7,1.7c-0.1,4.1-0.1,8.2,0,12.3
				c0,1.2-0.4,1.6-1.6,1.6c-12.8,0-25.6,0-38.3,0c-1.2,0-1.6-0.4-1.6-1.6c0.1-4.1,0.1-8.2,0-12.3c0-1.3,0.4-1.7,1.7-1.7
				C70.7,130.6,77.2,130.6,83.6,130.6z M99,135.7H67.8v5.3H99V135.7z"/>
			<path id="Trazado_195159" d="M46.6,130.7v4.9H10.5v-4.9H46.6z"/>
			<path id="Trazado_195160" d="M10.6,141.1h12.6v4.9H10.6V141.1z"/>
			<path id="Trazado_195161" d="M96.3,65.1h-4.7v-4.7h4.7V65.1z"/>
			<path id="Trazado_195162" d="M85.7,65.1h-4.7v-4.7h4.7L85.7,65.1z"/>
			<path id="Trazado_195163" class="st11" d="M151.4,135.8v15.7c-0.6,0-1.1,0.1-1.6,0.1c-11.1,0-22.3,0-33.4,0
				c-1.4,0-1.9-0.3-1.9-1.8c0.1-4.2,0.1-8.5,0-12.7c0-1,0.2-1.5,1.3-1.5c11.6,0,23.2,0.1,34.8,0.1
				C150.9,135.7,151.1,135.7,151.4,135.8z M120.3,141.1v4.8h4.7v-4.8H120.3z M135.4,145.9v-4.8h-4.6v4.8H135.4z M141,145.8
				c4.7,0.8,5.4,0.1,4.8-4.4c0,0-0.1-0.1-0.1-0.1c-4.3-1-4.9-0.5-4.8,3.6C141,145.2,141,145.5,141,145.8z"/>
			<path id="Trazado_195164" class="st9" d="M99,135.7v5.3H67.8v-5.3H99z"/>
			<path id="Trazado_195165" d="M120.3,141.1h4.7v4.8h-4.7V141.1z"/>
			<path id="Trazado_195166" d="M135.4,145.9h-4.6v-4.8h4.6V145.9z"/>
			<path id="Trazado_195167" d="M141,145.8c0-0.4-0.1-0.6-0.1-0.9c-0.2-4.2,0.5-4.6,4.8-3.6c0,0,0.1,0.1,0.1,0.1
				C146.5,145.9,145.7,146.6,141,145.8z"/>
		</g>
		<g id="Grupo_132574" transform="translate(111.985 106.656)">
			<path id="Trazado_195168" class="st9" d="M65.6,26.3L41.8,89h82.7L99.7,23.8L65.6,26.3z"/>
			<path id="Trazado_195169" class="st13" d="M65.1,73c0,0,17.5-7.5,17.7-7.8s19.1,9.7,19.1,9.7l-18.9,9.8l-19-10.4L65.1,73z"/>
			<g id="Grupo_132573" transform="translate(0 0)">
				<path id="Trazado_195170" d="M166.2,165.9h-5.3v-13H159c-50.7,0-101.3,0-152,0c-1.6,0-2.1,0.4-2,2c0.1,3.6,0,7.3,0,11H0.1
					c0-3.6,0.2-7.2-0.1-10.8c-0.3-4.6,0.9-8.8,1.9-13.2c1.4-6.4,2.9-12.8,4.3-19.1c1.5-6.8,3-13.5,4.5-20.3c0.1-0.4,0.2-0.8,0.4-1.3
					c4.2,0,8.4-0.1,12.6,0c2.8,0.1,5.6-0.4,8.2-1.6c6.7-2.8,13.8-4.8,21-6c1.3-0.3,2.5-0.5,3.8-0.6c1.2-0.1,1.7-0.5,1.7-1.8
					c-0.1-5.1-0.1-10.3-0.2-15.4c-0.2-1.7,0.8-3.2,2.4-3.8c6.9-3,13.7-6.1,20.5-9.2c1.2-0.6,2.7-0.6,3.9,0
					c6.9,3.2,13.8,6.3,20.8,9.4c1.3,0.4,2.2,1.7,2.1,3.1c-0.1,5.3,0,10.6,0,15.9c0,1.1,0.3,1.5,1.5,1.7c9.5,1.5,18.8,3.6,27.5,7.7
					c0.6,0.3,1.3,0.4,2,0.4c4.9,0,9.8,0,14.7,0c1.1,0,1.5,0.2,1.8,1.4c1.6,7.9,3.5,15.7,5.2,23.6c1.5,6.9,2.8,13.8,4.6,20.5
					C166.9,153.1,165.3,159.4,166.2,165.9z M145.1,106.2v1.8c0,4.1-0.2,8.2,0.1,12.3c0.2,3.1-1.2,5.2-3.5,6.9
					c-1.1,0.8-2.2,1.5-3.5,2.1c-9.5,5-19.9,7.2-30.4,8.7c-6.3,0.9-12.7,1.3-19.1,1.7c-10.4,0.8-20.7-0.3-30.9-1.7
					c-7.4-1-14.7-2.7-21.7-5.2c-4.4-1.5-8.7-3.3-12.4-6.3c-1.9-1.4-3-3.7-2.9-6.1c0.1-4.2,0-8.4,0-12.6v-1.8c-1.8,0-3.4,0-5,0
					c-0.3,0-0.8,0.5-0.8,0.9c-0.4,1.6-0.7,3.2-1.1,4.7c-2.3,10-4.5,19.9-6.8,29.9c-0.5,2-0.8,4.1-1.2,6.1h154.4
					c-0.6-2.9-1.2-5.7-1.8-8.5c-2.4-10.7-4.8-21.4-7.2-32.1c-0.1-0.5-0.5-0.9-1-1C148.6,106.1,146.9,106.2,145.1,106.2z M25.8,109
					c0.7,0.7,1.5,1.3,2.3,1.8c1.7,1,3.5,1.9,5.4,2.7c11.4,4.7,23.3,6.8,35.4,7.8c11.5,1,23,0.8,34.4-0.6c9.4-1.2,18.6-3,27.5-6.5
					c2.8-1.2,5.6-2.6,8.2-4.2c1.2-0.7,1.1-1.5,0-2.3c-0.8-0.6-1.7-1.2-2.6-1.7c-7.1-3.6-14.6-5.6-22.4-7.2c-2-0.4-4.1-0.7-6.3-1.1
					c0,1.3-0.1,2.3,0,3.3c0.1,1.3-0.7,2.6-2,3c-7.2,3.2-14.3,6.5-21.5,9.6c-0.8,0.3-1.7,0.4-2.5,0.1c-7.3-3.2-14.5-6.5-21.7-9.7
					c-1.2-0.4-2-1.6-1.9-2.9c0-1,0-2.1,0-3.2c-0.4,0-0.8,0-1.3,0c-8.2,1.4-16.3,3.2-23.9,6.5C30.5,105.5,27.8,106.6,25.8,109z
					 M25.9,115.5c0,1.9,0.1,3.5,0,5c-0.2,1.2,0.5,2.4,1.6,2.9c2.2,1.3,4.5,2.4,6.8,3.4c12,4.7,24.5,6.7,37.3,7.6
					c8.4,0.6,16.8,0.5,25.2-0.2c10.2-0.7,20.3-2.6,30.1-5.7c4-1.5,7.9-3.3,11.7-5.3c0.8-0.4,1.3-1.1,1.5-1.9
					c0.1-1.9,0.2-3.8,0.1-5.7c-3.2,1.4-6.2,2.9-9.4,4c-12.4,4.3-25.2,6.3-38.2,7.1c-16.5,1-33.1-0.5-49.1-4.5
					C37.3,120.8,31.4,118.5,25.9,115.5z M63.5,78.8c-0.1,0.2-0.1,0.4-0.2,0.6c0,6.5,0,13.1,0,19.6c0.1,0.5,0.5,1,0.9,1.2
					c4.5,2.1,8.9,4.1,13.4,6.1c0.9,0.4,1.7,0.7,2.8,1.1c0-6.9,0-13.6,0-20.2c-0.1-0.5-0.5-1-1-1.3c-1.4-0.8-2.9-1.4-4.4-2
					C71.2,82.3,67.3,80.6,63.5,78.8L63.5,78.8z M102.7,78.9c-0.3,0.1-0.5,0.1-0.8,0.2c-5.1,2.3-10.2,4.6-15.3,6.8
					c-0.8,0.3-1.2,1.1-1.1,1.9c0,5.8,0,11.7,0,17.5v2c0.3-0.1,0.6-0.1,0.8-0.2c5.1-2.3,10.1-4.6,15.2-6.8c0.8-0.3,1.4-1.1,1.2-1.9
					c-0.1-5.8,0-11.7,0-17.5C102.7,80.3,102.7,79.7,102.7,78.9L102.7,78.9z M66.9,74.8c5.5,2.5,10.5,4.7,15.5,7
					c0.5,0.1,1,0.1,1.5-0.1c3.2-1.4,6.4-2.9,9.6-4.3c1.7-0.8,3.4-1.6,5.3-2.4c-0.2-0.2-0.5-0.4-0.7-0.6c-4.8-2.2-9.6-4.3-14.4-6.5
					c-0.4-0.2-0.8-0.2-1.3-0.1C77.4,70.1,72.3,72.4,66.9,74.8L66.9,74.8z"/>
				<path id="Trazado_195171" d="M38.3,89.6L63.7,26c-1-0.1-1.9-0.2-2.8-0.4c-3.6-0.8-6-3.1-6.2-6.7c-0.2-4.1-0.2-8.2,0.1-12.3
					C55.2,2.8,58.4,0,62.2,0c13.9,0,27.7,0,41.6,0c4.2,0,7.6,3.5,7.6,7.7c-0.1,3.3-0.2,6.6,0,9.8c0.3,4.3-3,8-7.4,8.3
					c-0.2,0-0.5,0-0.7,0c-0.3,0-0.5,0.1-1.1,0.1l25.4,63.6l-4.6,1.9l-8.6-21.3h-5.3v-5.2h3.2c-0.6-1.6-1.1-3.1-1.7-4.5
					c-1-2.6-2.1-5.1-3.2-7.7c-0.2-0.5-0.7-0.8-1.2-1c-3.6-0.1-7.2,0-11.1,0c0.4,2.5,0.7,4.9,1,7.4l-4.9,0.8
					c-0.4-2.4-0.7-4.8-1.2-7.1c-0.1-0.4-0.6-1-1-1.1c-4.3-0.1-8.6,0-13.1,0l-1.3,8.2l-5-0.7c0.4-2.5,0.7-4.8,1.1-7.4
					c-3.9,0-7.7,0-11.4,0c-0.4,0.1-0.7,0.3-0.8,0.6c-1.7,4.1-3.3,8.1-5,12.4l3.3,0.2V70c-1.3,0.1-2.7,0-4,0c-1.2-0.1-1.7,0.4-2,1.4
					c-2.5,6.4-5.1,12.8-7.6,19.2c-0.1,0.3-0.3,0.5-0.4,0.8L38.3,89.6z M82.9,20.7c6.8,0,13.6,0,20.4,0c2.2,0,3.1-0.9,3.1-3.1
					c0-3.2,0-6.3,0-9.5c0-1.9-1-3-2.9-3c-13.7,0-27.4,0-41,0c-2,0-2.9,1-2.9,3c0,3.1,0,6.2,0,9.3c0,2.5,0.8,3.3,3.3,3.3
					C69.6,20.7,76.2,20.7,82.9,20.7z M89.2,46.7c-0.5-3.3-0.9-6.5-1.5-9.7c-0.1-0.3-0.4-0.6-0.7-0.7c-2.9,0-5.7,0-8.6,0
					c-0.5,3.6-1.1,6.9-1.6,10.4H89.2z M60.8,46.8c3.5,0,6.8,0,10,0c0.4-0.1,0.7-0.3,0.9-0.7c0.5-3.2,1-6.4,1.5-9.8
					c-2.7,0-5.2,0-7.7,0c-0.3,0.1-0.6,0.3-0.8,0.6C63.5,40.1,62.2,43.3,60.8,46.8L60.8,46.8z M92.7,36.3c0.6,3.6,1.1,7,1.6,10.4
					h10.8c-1.4-3.5-2.7-6.7-4-10c-0.1-0.2-0.4-0.4-0.6-0.4C98,36.3,95.4,36.3,92.7,36.3z M79.2,31.1h7.6c-0.2-1.7-0.4-3.1-0.7-4.4
					c-0.2-0.4-0.5-0.7-0.9-0.8c-1.7-0.1-3.4,0-5.1,0C79.7,27.6,79.5,29.2,79.2,31.1L79.2,31.1z M91.2,25.9c0.2,1.6,0.4,3,0.6,4.4
					c0.1,0.3,0.5,0.8,0.7,0.8c2,0.1,4.1,0,6.1,0c-1-4.9-1.4-5.3-5.9-5.3H91.2z M74.8,25.9c-1.8,0-3.4,0-5,0c-0.4,0-0.8,0.3-1,0.6
					c-0.6,1.5-1.2,3-1.8,4.6H74C74.3,29.4,74.5,27.7,74.8,25.9L74.8,25.9z"/>
				<path id="Trazado_195172" d="M31.9,34.5l10.7,7.7l-2.9,4L29,38.5L31.9,34.5z"/>
				<path id="Trazado_195173" d="M134,34.5l2.9,4l-10.6,7.7l-3-4L134,34.5z"/>
				<path id="Trazado_195174" d="M132.1,70c0.1-1.7,0.1-3.2,0.2-4.8h12.9V70H132.1z"/>
				<path id="Trazado_195175" d="M33.8,65.2v4.8h-13v-4.8H33.8z"/>
				<path id="Trazado_195176" d="M35.9,52.7l-1.5,4.7c-3.8-1.2-7.6-2.3-11.4-3.5c-0.1,0-0.1,0-0.1-0.1c-1.2-1.5,0.6-2.6,0.6-4
					c0-0.2,0.8-0.8,1.1-0.7C28.2,50.3,32,51.5,35.9,52.7z"/>
				<path id="Trazado_195177" d="M130.1,52.7l12.2-3.8c0.5,1.6,1,3,1.5,4.7l-12.2,3.8L130.1,52.7z"/>
				<path id="Trazado_195178" class="st14" d="M25.8,109c2-2.5,4.7-3.5,7.2-4.6c7.7-3.3,15.8-5.1,23.9-6.5c0.4,0,0.8,0,1.3,0
					c0,1.2,0,2.2,0,3.2c-0.1,1.3,0.7,2.5,1.9,2.9c7.2,3.3,14.4,6.5,21.7,9.7c0.8,0.3,1.7,0.3,2.5-0.1c7.2-3.2,14.4-6.4,21.5-9.6
					c1.3-0.4,2.1-1.7,2-3c-0.1-1,0-1.9,0-3.3c2.2,0.4,4.3,0.7,6.3,1.1c7.7,1.6,15.3,3.6,22.4,7.2c0.9,0.5,1.8,1.1,2.6,1.7
					c1.1,0.7,1.2,1.6,0,2.3c-2.6,1.6-5.4,3-8.2,4.2c-8.8,3.5-18.1,5.3-27.5,6.5c-11.4,1.4-23,1.6-34.4,0.6
					c-12.1-1-24.1-3.1-35.4-7.8c-1.8-0.8-3.6-1.7-5.4-2.7C27.3,110.3,26.5,109.7,25.8,109z"/>
				<path id="Trazado_195179" class="st10" d="M25.9,115.5c5.5,3,11.4,5.3,17.5,6.7c16,4,32.6,5.6,49.1,4.5
					c13-0.7,25.8-2.7,38.2-7.1c3.2-1.1,6.2-2.6,9.4-4c0.1,1.9,0.1,3.8-0.1,5.7c-0.2,0.8-0.8,1.5-1.5,1.9c-3.8,2-7.7,3.7-11.7,5.3
					c-9.8,3.1-19.8,5-30.1,5.7c-8.4,0.7-16.8,0.8-25.2,0.2c-12.7-0.9-25.3-2.9-37.3-7.6c-2.3-1-4.6-2.2-6.8-3.4
					c-1.1-0.5-1.8-1.7-1.6-2.9C26,119,25.9,117.4,25.9,115.5z"/>
				<path id="Trazado_195180" class="st12" d="M63.5,78.8c3.9,1.7,7.7,3.5,11.6,5.2c1.5,0.7,3,1.3,4.4,2c0.5,0.3,0.9,0.7,1,1.3
					c0.1,6.6,0,13.3,0,20.2c-1.1-0.4-2-0.7-2.8-1.1c-4.5-2-9-4.1-13.4-6.1c-0.5-0.2-0.8-0.7-0.9-1.2c-0.1-6.5,0-13.1,0-19.6
					C63.3,79.2,63.4,79,63.5,78.8z"/>
				<path id="Trazado_195181" class="st11" d="M102.7,78.9c0,0.8,0,1.4,0,2.1c0,5.8,0,11.7,0,17.5c0.1,0.9-0.4,1.7-1.2,1.9
					c-5.1,2.2-10.1,4.5-15.2,6.8c-0.3,0.1-0.5,0.2-0.8,0.2v-2c0-5.8,0-11.7,0-17.5c-0.1-0.8,0.3-1.6,1.1-1.9
					c5.1-2.3,10.2-4.6,15.3-6.8C102.2,79.1,102.4,79,102.7,78.9z"/>
				<path id="Trazado_195182" class="st14" d="M82.9,20.7c-6.6,0-13.3,0-19.9,0c-2.6,0-3.3-0.8-3.3-3.3c0-3.1,0-6.2,0-9.3
					c0-1.9,0.9-2.9,2.9-3c13.7,0,27.4,0,41,0c1.9,0,2.9,1.1,2.9,3c0,3.2,0,6.3,0,9.5c0,2.1-0.9,3.1-3.1,3.1
					C96.5,20.7,89.7,20.7,82.9,20.7z M95.9,15.4v-4.8h-5v4.8H95.9z M70.2,10.5v4.8H75v-4.8L70.2,10.5z M85.5,10.6h-4.9v4.7h4.9V10.6
					z"/>
				<path id="Trazado_195183" d="M95.9,15.4h-5v-4.8h5L95.9,15.4z"/>
				<path id="Trazado_195184" d="M70.2,10.5H75v4.8h-4.7V10.5z"/>
				<path id="Trazado_195185" d="M85.5,10.6v4.7h-4.9v-4.7H85.5z"/>
			</g>
		</g>
	</g>
	<g id="Grupo_132580" transform="translate(448.313 931.933) rotate(-90)">
		<g id="Grupo_131989" transform="translate(0)">
			<g transform="matrix(0, 1, -1, 0, 385.94, -163.07)">
				<ellipse id="Elipse_5249-2" class="st13" cx="192.4" cy="356.6" rx="29.3" ry="29.3"/>
			</g>
		</g>
	</g>
	<g id="Grupo_132586" transform="translate(770.689 551.994)">
		<g id="Grupo_132581" transform="translate(0 58.622) rotate(-90)">
			<g id="Grupo_131992" transform="translate(0 0)">
				<g transform="matrix(0, 1, -1, 0, 64.62, -485.45)">
					<path id="Trazado_195188-2" class="st13" d="M485.5,35.3c0-16.2,13.1-29.3,29.3-29.3c16.2,0,29.3,13.1,29.3,29.3
						s-13.1,29.3-29.3,29.3C498.6,64.6,485.5,51.5,485.5,35.3C485.5,35.3,485.5,35.3,485.5,35.3z"/>
				</g>
			</g>
		</g>
	</g>
	<g id="Grupo_132585" transform="translate(1094.152 873.311)">
		<g id="Grupo_132582" transform="translate(0 58.622) rotate(-90)">
			<g id="Grupo_131995" transform="translate(0 0)">
				<g transform="matrix(0, 1, -1, 0, 385.94, -808.91)">
					<path id="Trazado_195189-2" class="st13" d="M808.9,356.6c0-16.2,13.1-29.3,29.3-29.3c16.2,0,29.3,13.1,29.3,29.3
						s-13.1,29.3-29.3,29.3c0,0,0,0,0,0C822,385.9,808.9,372.8,808.9,356.6C808.9,356.6,808.9,356.6,808.9,356.6z"/>
				</g>
			</g>
		</g>
	</g>
	<g id="Grupo_132641" transform="translate(716.118 656.042)">
		<path id="Trazado_195136-2" class="st13" d="M164.3,120.3c0-0.8,0-1.3,0-1.9c0-34.9,0-69.9,0-104.8c0.2-7.3-5.5-13.4-12.8-13.7
			c-0.3,0-0.5,0-0.8,0C105.8,0,61,0,16.1,0C8.8-0.2,2.7,5.6,2.6,13c0,0.2,0,0.4,0,0.6c0,34.9,0,69.9,0,104.8v2H0v46.6h166.8v-46.6
			H164.3z"/>
		<path id="Trazado_195137-2" d="M164.3,120.3h2.6v46.6H0v-46.6h2.6v-2c0-34.9,0-69.9,0-104.8C2.4,6.2,8.2,0.2,15.5,0
			c0.2,0,0.4,0,0.6,0C61,0,105.8,0,150.7,0c7.3-0.2,13.4,5.6,13.6,12.9c0,0.3,0,0.5,0,0.8c0,34.9,0,69.9,0,104.8
			C164.3,119,164.3,119.5,164.3,120.3z M130.3,120.3c1.3-0.1,2.5,0,3.8,0c1.5,0.2,1.8-0.4,1.8-1.8c0-17.1,0-34.3,0-51.4
			c0-0.6-0.1-1.2-0.1-1.7l-2.4-0.2c-0.2-2.5-0.2-2.5-2.6-2.5c-7.5,0-14.9,0-22.4,0c-0.5,0-1.1,0-1.8,0.1c0,2-0.1,3.9,0,5.8
			c0.2,2.7-2.9,6.2-5.2,6.6c-1.6,0.3-3.3,0.4-5.1,0.6V86h-5.2v5.2h-5v-5.2h-5.3V75.4c-0.9,0-1.7,0-2.4,0c-4.2,0-7-2.1-7.7-6.2
			c-0.3-2.2-0.5-4.4-0.5-6.6H44.1c-0.1,0.9-0.1,1.7-0.2,2.5l-2.5,0.2v1.9c0,17,0,34,0,51.1c0,0.3-0.1,0.7,0,1c0.2,0.4,0.6,1,0.9,1
			c1.5,0.1,3,0,4.7,0v-10.5H92c12.2,0,24.4,0,36.6,0c1.4,0,1.8,0.4,1.7,1.8C130.2,114.3,130.3,117.2,130.3,120.3L130.3,120.3z
			 M4.9,125.3c0,0.6-0.1,1.1-0.1,1.6c0,11.1,0,22.2,0,33.3c0,1.5,0.4,1.9,1.9,1.9c51.1,0,102.1,0,153.2,0c1.6,0,2-0.5,2-2
			c-0.1-11,0-22.1,0-33.1c0-0.5,0-1.1-0.1-1.7L4.9,125.3z M151.2,120.3c2.2,0,4.3-0.1,6.3,0c1.5,0.1,1.9-0.4,1.9-1.9
			c0-34.9-0.1-69.9,0-104.8c0.2-4.6-3.3-8.4-7.8-8.7c-0.3,0-0.5,0-0.8,0c-44.9,0-89.7,0-134.6,0c-5.2,0-8.7,3.5-8.7,8.7
			c0,34.9,0,69.7,0,104.6c0,0.3-0.1,0.7,0,1c0.2,0.4,0.6,1,0.9,1c5.8,0.1,11.6,0,17.6,0v-55l-2.5-0.2l-0.3-2.6H13.2V47.1h10.1
			c0.1-0.9,0.2-1.7,0.3-2.5l2.5-0.2V10.7h125.1v33.8l2.5,0.1v20.5l-2.4,0.2V120.3z M75.9,26l-0.2,0.4c0.8,0.6,1.7,1.1,2.6,1.6
			c2.9,1.2,6,2.4,8.9,3.6c3.7,1.5,7.2,3.3,8.8,7.6h10.6c0,2.2,0.1,4.2,0,6.2c-0.1,1.4,0.4,1.7,1.8,1.7c7.5-0.1,15,0,22.6,0
			c2.2,0,2.2,0,2.4-2.3c0-0.1,0.1-0.2,0.2-0.3l2.2-0.2V26L75.9,26z M70,26.1H41.5v18.3l2.4,0.2l0.2,2.4h26.4v-7.8H90
			c-0.6-0.8-1.4-1.5-2.3-1.9c-3-1.3-6-2.4-9.1-3.7C74.9,32.1,71.5,30.2,70,26.1L70,26.1z M146.1,15.5H31.1c0.1,1.2,0,2.4,0,3.6
			c-0.2,1.6,0.5,1.9,2,1.9c37.1,0,74.2,0,111.3,0c0.6,0,1.2-0.1,1.8-0.1L146.1,15.5z M52,120.3h69.6c3.8,0,3.8,0,3.8-3.8
			c0-1.4-0.3-1.9-1.8-1.9c-23.3,0-46.6,0.1-70,0c-0.5,0-1,0.1-1.6,0.1L52,120.3z M75.3,54.8c0,4.4,0,8.6,0,12.9
			c-0.1,1.5,1,2.8,2.4,2.9c0,0,0.1,0,0.1,0c7.1,0,14.3,0,21.4,0c1.3,0.1,2.4-0.9,2.4-2.1c0-0.1,0-0.2,0-0.3c0-4.1,0-8.1,0-12.2
			c0-0.4-0.1-0.7-0.1-1.1L75.3,54.8z M36.4,120.2V65.3h-5.3v54.9L36.4,120.2z M140.9,65.3v54.9h5.2V65.3H140.9z M119.8,57.7h9.5
			c4,0,3.9,0,3.9-4c0-1.3-0.4-1.7-1.7-1.7c-7,0.1-13.9,0-20.9,0c-4.2,0-4.1,0-4.1,4.1c0,1.1,0.4,1.5,1.5,1.5
			C112,57.6,115.9,57.7,119.8,57.7L119.8,57.7z M101.7,44.1H79.2c-3.9,0-3.8,0-3.9,3.9c0,1.4,0.4,1.8,1.8,1.8c7.8-0.1,15.6,0,23.3,0
			c0.4,0,0.8-0.1,1.3-0.1L101.7,44.1z M70.3,52.1H47.9c-3.9,0-3.9,0-3.9,4c0,1.3,0.4,1.7,1.7,1.7c7.7-0.1,15.5,0,23.2,0
			c0.5,0,0.9-0.1,1.4-0.1L70.3,52.1z M39.1,49.5H28.6v10.6h10.4V49.5z M138.2,49.5c0,3.4,0,6.5,0,9.7c0.1,0.5,0.5,0.9,1,1
			c2.8,0.1,5.7,0.1,8.5,0c0.4,0,1-0.6,1-0.9c0.1-3.3,0-6.5,0-9.9L138.2,49.5z M36.5,26.1h-5.4v18.3h5.4V26.1z M146.1,44.5V26.1h-5.2
			v18.3L146.1,44.5z M86,80.9c5.4,0.6,5.7,0.4,5.5-4.1c0-0.1,0-0.3,0-0.3c-0.3-0.3-0.6-0.9-0.9-0.9c-1.5-0.1-3,0-4.6,0L86,80.9z
			 M18,52.1c0,1.6,0,3.1,0,4.5c0,0.3,0.5,0.9,0.8,1c1.5,0.1,3,0,4.5,0v-5.5H18z"/>
		<path id="Trazado_195138-2" class="st12" d="M130.3,120.3c0-3.1-0.1-5.9,0-8.8c0.1-1.4-0.4-1.8-1.7-1.8c-12.2,0-24.4,0-36.6,0
			H47.1v10.5c-1.7,0-3.2,0.1-4.7,0c-0.3,0-0.7-0.6-0.9-1c-0.1-0.3,0-0.6,0-1c0-17,0-34,0-51.1v-1.9l2.5-0.2c0.1-0.8,0.1-1.6,0.2-2.5
			h26.1c0,2.2,0.2,4.4,0.5,6.6c0.8,4.1,3.6,6.2,7.7,6.2c0.8,0,1.5,0,2.4,0v10.5h5.3v5.2h5V86h5.2V75.6c1.8-0.2,3.5-0.3,5.1-0.6
			c2.3-0.4,5.4-3.9,5.2-6.6c-0.1-1.9,0-3.8,0-5.8c0.7,0,1.2-0.1,1.8-0.1c7.5,0,14.9,0,22.4,0c2.4,0,2.4,0,2.6,2.5l2.4,0.2
			c0,0.6,0.1,1.2,0.1,1.7c0,17.1,0,34.3,0,51.4c0,1.4-0.3,2-1.8,1.8C132.8,120.2,131.5,120.2,130.3,120.3z"/>
		<path id="Trazado_195139-2" class="st10" d="M4.9,125.3h156.9c0,0.6,0.1,1.1,0.1,1.7c0,11,0,22.1,0,33.1c0,1.6-0.4,2-2,2
			c-51.1,0-102.1,0-153.2,0c-1.5,0-1.9-0.4-1.9-1.9c0.1-11.1,0-22.2,0-33.3C4.9,126.4,4.9,125.9,4.9,125.3z M109.7,156.4h46.5v-25.7
			h-46.5V156.4z M83.6,130.6c-6.4,0-12.8,0-19.2,0c-1.3,0-1.7,0.4-1.7,1.7c0.1,4.1,0.1,8.2,0,12.3c0,1.2,0.4,1.6,1.6,1.6
			c12.8,0,25.6,0,38.3,0c1.2,0,1.6-0.4,1.6-1.6c-0.1-4.1-0.1-8.2,0-12.3c0-1.3-0.4-1.7-1.7-1.7C96.2,130.6,89.9,130.6,83.6,130.6z
			 M46.6,130.7H10.6v4.9h36.1V130.7z M10.6,141.1v4.9h12.6v-4.9H10.6z"/>
		<path id="Trazado_195140-2" class="st12" d="M151.2,120.3v-55l2.4-0.2V44.6l-2.5-0.1V10.7H26.1v33.7l-2.5,0.2
			c-0.1,0.8-0.2,1.6-0.3,2.5H13.2v15.4h10.1l0.3,2.6l2.5,0.2v55c-6,0-11.8,0-17.6,0c-0.3,0-0.7-0.6-0.9-1c-0.1-0.3,0-0.6,0-1
			c0-34.9,0-69.7,0-104.6c0-5.2,3.5-8.7,8.7-8.7c44.9,0,89.7,0,134.6,0c4.6-0.2,8.4,3.3,8.6,7.9c0,0.3,0,0.5,0,0.8
			c0,34.9,0,69.9,0,104.8c0,1.5-0.4,2-1.9,1.9C155.5,120.2,153.4,120.3,151.2,120.3z"/>
		<path id="Trazado_195141-2" class="st12" d="M75.9,26h59.8v18.3l-2.2,0.2c-0.1,0.1-0.2,0.2-0.2,0.3c-0.2,2.3-0.2,2.3-2.4,2.3
			c-7.5,0-15,0-22.6,0c-1.3,0-1.9-0.3-1.8-1.7c0.1-2,0-4,0-6.2H96c-1.5-4.3-5.1-6.1-8.8-7.6c-3-1.2-6-2.3-8.9-3.6
			c-0.9-0.5-1.8-1-2.6-1.6L75.9,26z"/>
		<path id="Trazado_195142-2" class="st12" d="M70,26.1c1.5,4.1,5,5.9,8.7,7.5c3,1.2,6.1,2.4,9.1,3.7c0.9,0.4,1.7,1.1,2.3,1.9H70.5
			V47H44.1l-0.2-2.4l-2.4-0.2V26.1L70,26.1z"/>
		<path id="Trazado_195143-2" class="st14" d="M146.1,15.5v5.4c-0.6,0-1.2,0.1-1.8,0.1c-37.1,0-74.2,0-111.3,0c-1.5,0-2.1-0.3-2-1.9
			c0.1-1.2,0.1-2.4,0-3.6L146.1,15.5z"/>
		<path id="Trazado_195144-2" class="st14" d="M52,120.3v-5.5c0.6,0,1.1-0.1,1.6-0.1c23.3,0,46.6,0,70,0c1.5,0,1.9,0.5,1.8,1.9
			c-0.1,3.8,0,3.8-3.8,3.8L52,120.3L52,120.3z"/>
		<path id="Trazado_195145-2" class="st9" d="M75.3,54.8h26.3c0.1,0.4,0.1,0.7,0.1,1.1c0,4.1,0,8.1,0,12.2c0.1,1.3-0.8,2.4-2.1,2.5
			c-0.1,0-0.2,0-0.3,0c-7.1,0-14.3,0-21.4,0c-1.5-0.1-2.6-1.3-2.5-2.8c0,0,0-0.1,0-0.1C75.3,63.4,75.3,59.2,75.3,54.8z M96.3,65.1
			v-4.7h-4.7v4.7H96.3z M85.7,65.1v-4.7h-4.7v4.7H85.7z"/>
		<path id="Trazado_195146-2" class="st12" d="M36.4,120.2h-5.3V65.3h5.3V120.2z"/>
		<path id="Trazado_195147-2" class="st12" d="M140.9,65.3h5.2v54.9h-5.2V65.3z"/>
		<path id="Trazado_195148-2" class="st12" d="M119.8,57.7c-3.9,0-7.8,0-11.7,0c-1.2,0-1.5-0.4-1.5-1.5c0-4.1-0.1-4.1,4.1-4.1
			c7,0,13.9,0,20.9,0c1.3,0,1.7,0.4,1.7,1.7c0,4,0,4-3.9,4C126.2,57.7,123,57.7,119.8,57.7z"/>
		<path id="Trazado_195149-2" class="st9" d="M101.7,44.1v5.5c-0.5,0-0.9,0.1-1.3,0.1c-7.8,0-15.6,0-23.3,0c-1.4,0-1.8-0.4-1.8-1.8
			c0.1-3.9,0-3.9,3.9-3.9L101.7,44.1z"/>
		<path id="Trazado_195150-2" class="st12" d="M70.3,52v5.5c-0.5,0-1,0.1-1.4,0.1c-7.7,0-15.5,0-23.2,0c-1.3,0-1.7-0.4-1.7-1.7
			c0-4,0-4,3.9-4L70.3,52z"/>
		<path id="Trazado_195151-2" class="st10" d="M39.1,49.5v10.6H28.6V49.5H39.1z"/>
		<path id="Trazado_195152-2" class="st10" d="M138.2,49.5h10.6c0,3.3,0,6.6,0,9.9c0,0.3-0.7,0.8-1,0.9c-2.8,0.1-5.7,0.1-8.5,0
			c-0.5-0.1-0.9-0.5-1-1C138.2,56,138.2,52.9,138.2,49.5z"/>
		<path id="Trazado_195153-2" class="st12" d="M36.5,26.1v18.3h-5.4V26.1H36.5z"/>
		<path id="Trazado_195154-2" class="st12" d="M146.1,44.4h-5.2V26.1h5.2L146.1,44.4z"/>
		<path id="Trazado_195155-2" class="st13" d="M86,80.9v-5.4c1.6,0,3.1-0.1,4.6,0c0.3,0,0.6,0.6,0.9,0.9c0.1,0.1,0,0.2,0,0.3
			C91.7,81.3,91.4,81.6,86,80.9z"/>
		<path id="Trazado_195156-2" class="st9" d="M18,52.1h5.3v5.5c-1.5,0-3,0.1-4.5,0c-0.3,0-0.7-0.6-0.8-1C18,55.2,18,53.7,18,52.1z"
			/>
		<path id="Trazado_195157-2" d="M109.7,156.4v-25.7h46.5v25.7H109.7z M151.4,135.8c-0.3-0.1-0.5-0.1-0.8-0.1
			c-11.6,0-23.2,0-34.8-0.1c-1.1,0-1.3,0.5-1.3,1.5c0,4.2,0.1,8.5,0,12.7c0,1.5,0.5,1.8,1.9,1.8c11.1-0.1,22.3,0,33.4,0
			c0.5,0,1.1,0,1.6-0.1L151.4,135.8z"/>
		<path id="Trazado_195158-2" d="M83.6,130.6c6.3,0,12.6,0,18.9,0c1.3,0,1.7,0.4,1.7,1.7c-0.1,4.1-0.1,8.2,0,12.3
			c0,1.2-0.4,1.6-1.6,1.6c-12.8,0-25.6,0-38.3,0c-1.2,0-1.6-0.4-1.6-1.6c0.1-4.1,0.1-8.2,0-12.3c0-1.3,0.4-1.7,1.7-1.7
			C70.7,130.6,77.2,130.6,83.6,130.6z M99,135.7H67.8v5.3H99V135.7z"/>
		<path id="Trazado_195159-2" d="M46.6,130.7v4.9H10.5v-4.9H46.6z"/>
		<path id="Trazado_195160-2" d="M10.6,141.1h12.6v4.9H10.6V141.1z"/>
		<path id="Trazado_195161-2" d="M96.3,65.1h-4.7v-4.7h4.7V65.1z"/>
		<path id="Trazado_195162-2" d="M85.7,65.1h-4.7v-4.7h4.7L85.7,65.1z"/>
		<path id="Trazado_195163-2" class="st11" d="M151.4,135.8v15.7c-0.6,0-1.1,0.1-1.6,0.1c-11.1,0-22.3,0-33.4,0
			c-1.4,0-1.9-0.3-1.9-1.8c0.1-4.2,0.1-8.5,0-12.7c0-1,0.2-1.5,1.3-1.5c11.6,0,23.2,0.1,34.8,0.1
			C150.9,135.7,151.1,135.7,151.4,135.8z M120.3,141.1v4.8h4.7v-4.8H120.3z M135.4,145.9v-4.8h-4.6v4.8H135.4z M141,145.8
			c4.7,0.8,5.4,0.1,4.8-4.4c0,0-0.1-0.1-0.1-0.1c-4.3-1-4.9-0.5-4.8,3.6C141,145.2,141,145.5,141,145.8z"/>
		<path id="Trazado_195164-2" class="st9" d="M99,135.7v5.3H67.8v-5.3H99z"/>
		<path id="Trazado_195165-2" d="M120.3,141.1h4.7v4.8h-4.7V141.1z"/>
		<path id="Trazado_195166-2" d="M135.4,146h-4.6v-4.8h4.6V146z"/>
		<path id="Trazado_195167-2" d="M141,145.8c0-0.4-0.1-0.6-0.1-0.9c-0.2-4.2,0.5-4.6,4.8-3.6c0,0,0.1,0.1,0.1,0.1
			C146.5,145.9,145.7,146.6,141,145.8z"/>
	</g>
</g>
</svg>
