<svg xmlns="http://www.w3.org/2000/svg" width="155" height="154.701" viewBox="0 0 155 154.701">
  <g id="Grupo_132767" data-name="Grupo 132767" transform="translate(4425 11653.852)">
    <path id="Trazado_195168" data-name="Trazado 195168" d="M1843.38-192.248,1821.171-133.8h77.147l-23.144-60.782Z" transform="translate(-6207.221 -11437.067)" fill="#f37d07" opacity="0.5"/>
    <path id="Trazado_195169" data-name="Trazado 195169" d="M1890.362-60.968s16.362-6.981,16.545-7.283,17.846,9.007,17.846,9.007l-17.585,9.185-17.741-9.663Z" transform="translate(-6254.645 -11524.839)" fill="#fff"/>
    <g id="Grupo_132573" data-name="Grupo 132573" transform="translate(-4425 -11653.852)">
      <path id="Trazado_195170" data-name="Trazado 195170" d="M1848.554,19.908h-4.934V7.781h-1.77q-70.886,0-141.772-.031c-1.453,0-1.915.368-1.868,1.849.107,3.4.034,6.8.034,10.3h-4.588c0-3.4.2-6.753-.049-10.08-.313-4.262.823-8.25,1.738-12.3,1.343-5.948,2.7-11.893,4.023-17.846,1.4-6.3,2.765-12.6,4.152-18.907.084-.383.227-.754.365-1.207,3.929,0,7.843-.082,11.752.028a17.011,17.011,0,0,0,7.609-1.486,87.177,87.177,0,0,1,19.6-5.553,28.209,28.209,0,0,1,3.58-.585c1.159-.062,1.587-.438,1.563-1.649-.1-4.779-.052-9.561-.16-14.339a3.278,3.278,0,0,1,2.228-3.513c6.4-2.8,12.762-5.7,19.113-8.61a4.022,4.022,0,0,1,3.627.009q9.665,4.432,19.374,8.767a2.829,2.829,0,0,1,1.922,2.917c-.051,4.935.01,9.87-.039,14.805-.01,1.071.27,1.438,1.4,1.617,8.834,1.4,17.524,3.337,25.678,7.189a4.634,4.634,0,0,0,1.894.384q6.867.048,13.734,0c.994-.008,1.426.143,1.671,1.315,1.536,7.35,3.224,14.668,4.855,22,1.422,6.393,2.576,12.859,4.328,19.16C1849.263,7.971,1847.709,13.912,1848.554,19.908Zm-19.688-55.664v1.7c0,3.815-.179,7.642.057,11.443.182,2.931-1.143,4.85-3.259,6.451a22.739,22.739,0,0,1-3.222,2c-8.9,4.633-18.582,6.687-28.375,8.137-5.9.873-11.891,1.167-17.849,1.609-9.67.717-19.271-.28-28.815-1.626a105.221,105.221,0,0,1-20.261-4.813c-4.1-1.443-8.13-3.068-11.548-5.853a6.738,6.738,0,0,1-2.727-5.652c.1-3.915.026-7.834.026-11.751V-35.75c-1.68,0-3.2-.043-4.706.038-.286.016-.7.487-.788.818-.381,1.462-.649,2.953-.983,4.428q-3.155,13.925-6.314,27.849c-.424,1.884-.758,3.788-1.141,5.725H1843c-.577-2.728-1.107-5.338-1.682-7.936q-3.318-14.978-6.688-29.945a1.429,1.429,0,0,0-.927-.939C1832.146-35.812,1830.579-35.756,1828.866-35.756Zm-111.244,2.668a16.97,16.97,0,0,0,2.162,1.72,46.842,46.842,0,0,0,5.013,2.526c10.588,4.364,21.74,6.345,33.061,7.264a154.939,154.939,0,0,0,32.1-.595c8.743-1.111,17.385-2.791,25.609-6.074a70.605,70.605,0,0,0,7.662-3.938c1.1-.606,1-1.423-.023-2.107a25.852,25.852,0,0,0-2.431-1.555c-6.576-3.393-13.652-5.261-20.848-6.74-1.9-.389-3.811-.683-5.86-1.047,0,1.223-.049,2.136.011,3.041a2.7,2.7,0,0,1-1.824,2.843c-6.693,3-13.375,6.031-20.093,8.977a3.2,3.2,0,0,1-2.3.073c-6.764-2.966-13.487-6.023-20.22-9.056a2.68,2.68,0,0,1-1.78-2.729c.036-.957.007-1.917.007-2.99a7.8,7.8,0,0,0-1.177.007,99.908,99.908,0,0,0-22.326,6.08C1721.966-36.364,1719.487-35.388,1717.623-33.089Zm.12,6c0,1.756.1,3.239-.03,4.7a2.585,2.585,0,0,0,1.477,2.748,62.763,62.763,0,0,0,6.381,3.2c11.167,4.366,22.868,6.246,34.752,7.1a151.629,151.629,0,0,0,23.464-.2,118.276,118.276,0,0,0,28.034-5.334,96.79,96.79,0,0,0,10.925-4.9,2.8,2.8,0,0,0,1.434-1.808,46.167,46.167,0,0,0,.068-5.278c-3,1.283-5.807,2.683-8.748,3.711-11.532,4.032-23.486,5.886-35.64,6.583a149.936,149.936,0,0,1-45.785-4.227A63.313,63.313,0,0,1,1717.743-27.085Zm35-34.2a2.479,2.479,0,0,0-.172.547c-.011,6.1-.031,12.2.02,18.3a1.652,1.652,0,0,0,.869,1.145c4.161,1.946,8.348,3.836,12.535,5.726.8.36,1.623.653,2.623,1.052,0-6.466.017-12.659-.041-18.851a1.772,1.772,0,0,0-.922-1.167c-1.342-.7-2.747-1.283-4.13-1.905C1759.944-58.048,1756.366-59.656,1752.74-61.287Zm36.6.094a7.251,7.251,0,0,0-.732.219c-4.77,2.126-9.531,4.272-14.311,6.373a1.619,1.619,0,0,0-1,1.788c.03,5.443.016,10.887.015,16.33v1.9a7.18,7.18,0,0,0,.764-.22c4.716-2.114,9.422-4.254,14.154-6.331a1.657,1.657,0,0,0,1.151-1.811c-.056-5.443-.034-10.887-.039-16.33C1789.342-59.879,1789.343-60.479,1789.343-61.193Zm-33.425-3.8c5.085,2.289,9.766,4.415,14.473,6.484a1.949,1.949,0,0,0,1.385-.108c3.008-1.312,6-2.672,8.987-4.024,1.612-.729,3.217-1.471,4.952-2.266a4.682,4.682,0,0,0-.688-.555q-6.688-3.028-13.392-6.022a1.624,1.624,0,0,0-1.172-.061C1765.714-69.433,1760.984-67.283,1755.918-64.992Z" transform="translate(-1693.554 134.793)"/>
      <path id="Trazado_195171" data-name="Trazado 195171" d="M1810.451-183.784c7.939-19.853,15.8-39.51,23.7-59.269-.939-.131-1.777-.2-2.593-.371-3.358-.7-5.611-2.922-5.79-6.285a95.753,95.753,0,0,1,.077-11.427,6.974,6.974,0,0,1,6.955-6.163c12.92-.015,25.84-.036,38.76.012a7.187,7.187,0,0,1,7.1,7.184c-.083,3.051-.166,6.114.02,9.155a7.312,7.312,0,0,1-7.509,7.747c-.245,0-.49.057-.979.118l23.7,59.286-4.328,1.73-8.014-19.9h-4.943v-4.823h2.979c-.574-1.51-1.062-2.854-1.594-4.18-.961-2.4-1.917-4.8-2.953-7.16a1.635,1.635,0,0,0-1.118-.89c-3.35-.07-6.7-.04-10.374-.04.331,2.352.643,4.571.972,6.913l-4.614.715c-.366-2.255-.683-4.441-1.11-6.606-.076-.387-.6-.974-.925-.979-4.011-.067-8.024-.044-12.18-.044l-1.25,7.613-4.619-.687c.336-2.293.66-4.512,1.013-6.92-3.675,0-7.172-.013-10.668.026a1.077,1.077,0,0,0-.756.588c-1.556,3.779-3.074,7.574-4.665,11.521l3.108.169v4.762a36.217,36.217,0,0,1-3.726-.029c-1.087-.113-1.539.366-1.9,1.274q-3.535,8.965-7.126,17.909a6.67,6.67,0,0,1-.414.734Zm41.636-64.229c6.353,0,12.706.011,19.06-.006,2.026-.006,2.892-.86,2.912-2.857.028-2.948.033-5.9,0-8.845a2.511,2.511,0,0,0-2.7-2.814q-19.136-.036-38.272,0c-1.82,0-2.672.94-2.68,2.755-.012,2.9,0,5.8,0,8.693,0,2.36.7,3.072,3.084,3.075Q1842.786-248,1852.087-248.013Zm5.859,24.24c-.461-3.114-.883-6.062-1.359-9a.974.974,0,0,0-.661-.652c-2.675-.046-5.351-.029-8.044-.029-.508,3.315-.986,6.441-1.482,9.683Zm-26.471.078c3.3,0,6.328.018,9.35-.029a1.1,1.1,0,0,0,.832-.638c.5-2.971.928-5.952,1.4-9.1-2.505,0-4.825-.018-7.144.026a1.049,1.049,0,0,0-.733.574C1833.957-229.9,1832.771-226.919,1831.475-223.695Zm29.779-9.769c.535,3.363,1.04,6.534,1.538,9.667h10.032c-1.283-3.227-2.485-6.267-3.716-9.295a.78.78,0,0,0-.6-.356C1866.135-233.473,1863.758-233.464,1861.254-233.464Zm-12.656-4.817h7.128c-.224-1.555-.361-2.862-.632-4.14a1.225,1.225,0,0,0-.885-.743c-1.563-.077-3.132-.035-4.8-.035C1849.141-241.579,1848.89-240.05,1848.6-238.281Zm11.2-4.917c.212,1.5.357,2.8.6,4.087.058.306.445.773.694.782,1.9.066,3.793.036,5.724.036-.9-4.6-1.263-4.912-5.484-4.9Zm-15.225,0c-1.705,0-3.166-.034-4.622.026a1.228,1.228,0,0,0-.916.56c-.6,1.365-1.1,2.772-1.67,4.265h6.435C1844.055-239.92,1844.3-241.446,1844.577-243.2Z" transform="translate(-1774.773 267.317)"/>
      <path id="Trazado_195172" data-name="Trazado 195172" d="M1784.894-162.026l9.962,7.207-2.716,3.776-9.96-7.2Z" transform="translate(-1755.131 194.162)"/>
      <path id="Trazado_195173" data-name="Trazado 195173" d="M2080.53-161.962l2.726,3.745-9.921,7.2-2.754-3.73Z" transform="translate(-1955.509 194.117)"/>
      <path id="Trazado_195174" data-name="Trazado 195174" d="M2097.293-63.724c.073-1.579.139-2.983.211-4.511h12.073v4.511Z" transform="translate(-1974.068 128.997)"/>
      <path id="Trazado_195175" data-name="Trazado 195175" d="M1769.19-68.15V-63.7h-12.1V-68.15Z" transform="translate(-1737.701 128.938)"/>
      <path id="Trazado_195176" data-name="Trazado 195176" d="M1774.621-113.765l-1.4,4.381c-3.589-1.1-7.1-2.166-10.6-3.238a.276.276,0,0,1-.133-.07c-1.14-1.41.546-2.463.518-3.752,0-.218.739-.714,1-.635C1767.523-116.033,1771.012-114.907,1774.621-113.765Z" transform="translate(-1741.175 162.938)"/>
      <path id="Trazado_195177" data-name="Trazado 195177" d="M2091.159-114.335l11.339-3.559,1.433,4.4-11.347,3.587Z" transform="translate(-1969.806 163.499)"/>
      <path id="Trazado_195178" data-name="Trazado 195178" d="M1772.415,41.9c1.864-2.3,4.343-3.276,6.741-4.3a99.909,99.909,0,0,1,22.326-6.08,7.8,7.8,0,0,1,1.177-.007c0,1.073.029,2.033-.007,2.99a2.68,2.68,0,0,0,1.78,2.729c6.734,3.033,13.457,6.091,20.22,9.056a3.2,3.2,0,0,0,2.3-.073c6.718-2.946,13.4-5.974,20.093-8.977a2.7,2.7,0,0,0,1.824-2.843c-.061-.905-.011-1.818-.011-3.041,2.049.363,3.965.657,5.86,1.047,7.2,1.478,14.272,3.347,20.849,6.74A25.872,25.872,0,0,1,1878,40.7c1.025.684,1.126,1.5.023,2.107a70.6,70.6,0,0,1-7.662,3.938c-8.224,3.283-16.866,4.963-25.609,6.074a154.938,154.938,0,0,1-32.1.595c-11.321-.919-22.473-2.9-33.061-7.264a46.827,46.827,0,0,1-5.013-2.526A16.936,16.936,0,0,1,1772.415,41.9Z" transform="translate(-1748.346 59.8)" fill="#9e9e9f"/>
      <path id="Trazado_195179" data-name="Trazado 195179" d="M1772.7,85.581a63.315,63.315,0,0,0,16.331,6.291,149.937,149.937,0,0,0,45.785,4.227c12.154-.7,24.108-2.551,35.64-6.583,2.941-1.028,5.752-2.428,8.748-3.711a46.222,46.222,0,0,1-.068,5.278,2.8,2.8,0,0,1-1.434,1.808,96.766,96.766,0,0,1-10.925,4.9,118.275,118.275,0,0,1-28.034,5.334,151.627,151.627,0,0,1-23.464.2c-11.884-.856-23.585-2.736-34.752-7.1a62.773,62.773,0,0,1-6.381-3.2,2.584,2.584,0,0,1-1.477-2.748C1772.8,88.82,1772.7,87.337,1772.7,85.581Z" transform="translate(-1748.515 22.127)" fill="#6c6c6c"/>
      <path id="Trazado_195180" data-name="Trazado 195180" d="M1887.05-26.477c3.626,1.631,7.2,3.238,10.781,4.849,1.383.623,2.788,1.2,4.13,1.905a1.772,1.772,0,0,1,.922,1.167c.058,6.192.041,12.385.041,18.851-1-.4-1.827-.692-2.623-1.052-4.187-1.89-8.374-3.781-12.535-5.726a1.653,1.653,0,0,1-.869-1.145c-.05-6.1-.03-12.2-.019-18.3A2.463,2.463,0,0,1,1887.05-26.477Z" transform="translate(-1827.864 99.984)" fill="#95d3e8"/>
      <path id="Trazado_195181" data-name="Trazado 195181" d="M1970.875-26.169c0,.713,0,1.314,0,1.914,0,5.443-.017,10.887.039,16.33a1.656,1.656,0,0,1-1.151,1.811c-4.732,2.077-9.437,4.217-14.154,6.331a7.156,7.156,0,0,1-.764.22v-1.9c0-5.443.015-10.887-.015-16.33a1.619,1.619,0,0,1,1-1.788c4.78-2.1,9.542-4.247,14.311-6.373A7.323,7.323,0,0,1,1970.875-26.169Z" transform="translate(-1875.086 99.77)" fill="#3777bc"/>
      <path id="Trazado_195182" data-name="Trazado 195182" d="M1897.492-237.169q-9.3,0-18.6,0c-2.383,0-3.082-.715-3.084-3.075,0-2.9-.01-5.8,0-8.693.008-1.814.86-2.751,2.68-2.754q19.136-.033,38.272,0a2.512,2.512,0,0,1,2.7,2.814c.037,2.948.032,5.9,0,8.845-.019,2-.885,2.851-2.912,2.857C1910.2-237.159,1903.846-237.17,1897.492-237.169Zm12.09-4.959v-4.481h-4.633v4.481Zm-23.894-4.514v4.469h4.419v-4.469Zm14.192.028h-4.541v4.424h4.541Z" transform="translate(-1820.178 256.474)" fill="#9e9e9f"/>
      <path id="Trazado_195183" data-name="Trazado 195183" d="M1975.936-230.515H1971.3V-235h4.633Z" transform="translate(-1886.531 244.861)"/>
      <path id="Trazado_195184" data-name="Trazado 195184" d="M1908.193-235.1h4.418v4.469h-4.418Z" transform="translate(-1842.683 244.936)"/>
      <path id="Trazado_195185" data-name="Trazado 195185" d="M1944.354-235.013v4.424h-4.541v-4.424Z" transform="translate(-1864.652 244.872)"/>
    </g>
  </g>
</svg>
