<?xml version="1.0" encoding="utf-8"?>
<!-- Generator: Adobe Illustrator 26.1.0, SVG Export Plug-In . SVG Version: 6.00 Build 0)  -->
<svg version="1.1" id="Capa_1" xmlns="http://www.w3.org/2000/svg" xmlns:xlink="http://www.w3.org/1999/xlink" x="0px" y="0px"
	 viewBox="0 0 1240 580" style="enable-background:new 0 0 1240 580;" xml:space="preserve">
<style type="text/css">
	.st0{fill:none;}
	.st1{fill:#FF9500;}
	.st2{opacity:0.95;fill:#EFEFEF;enable-background:new    ;}
	.st3{opacity:0.95;fill:#546E7A;enable-background:new    ;}
	.st4{opacity:0.95;fill:#FF9500;enable-background:new    ;}
	.st5{opacity:0.95;fill:#0CA4CA;enable-background:new    ;}
	.st6{opacity:0.95;fill:#255065;enable-background:new    ;}
	.st7{fill:url(#Trazado_194718_00000016067092316234220160000004305142712910597528_);}
	.st8{fill:url(#Trazado_194719_00000039126532479904584240000000972126252766212533_);}
	.st9{fill:url(#Trazado_195246_00000002382311704007626480000007071036793328092086_);}
	.st10{fill:#FFFFFF;}
	.st11{fill:url(#Trazado_195248_00000165924713133073531770000008487698328000329361_);}
	.st12{fill:url(#Trazado_195252_00000132089957425081997020000000701389027843678910_);}
	.st13{fill:url(#Trazado_195254_00000102514109137017506950000002031664562553531829_);}
	.st14{fill:url(#Trazado_195256_00000059301249279245415390000009976668050411517598_);}
	.st15{fill:url(#Trazado_195258_00000101806020329730055660000014667579571664422023_);}
	.st16{fill:url(#Trazado_195260_00000008133617536851416340000013923123791460177055_);}
	.st17{fill:url(#Trazado_195263_00000132077766577254821040000004335705861662952336_);}
	.st18{fill:url(#Trazado_195266_00000005952973180460088260000001371484939612402348_);}
	.st19{fill:url(#Trazado_195268_00000025422005352747090700000018394550452778409096_);}
	.st20{fill:url(#Trazado_195270_00000078753242669296564660000013724788489838793114_);}
	.st21{fill:#12263F;}
	.st22{fill:url(#Trazado_195286_00000023990903278298500250000010145008502976117128_);}
	.st23{fill:url(#Trazado_195288_00000147188161262203180050000000405546891960771996_);}
	.st24{fill:url(#Trazado_195290_00000074433344623043031310000004910682079916551319_);}
	.st25{fill:url(#Trazado_195292_00000083773205946153268910000015635258181359500477_);}
	.st26{fill:url(#Trazado_195294_00000046320697168334854930000016094144935217645983_);}
	.st27{fill:url(#Trazado_195296_00000158749152139574985590000014299321988504915124_);}
	.st28{fill:url(#Trazado_195298_00000031897680132562260150000017613702168342449555_);}
</style>
<g id="Grupo_132770" transform="translate(-180 -789)">
	<path id="Trazado_195238" class="st0" d="M180,789h1240v580H180V789z"/>
	<path id="Trazado_194705" class="st1" d="M469.4,944v-15.9H435V944H469.4z"/>
	<path id="Trazado_195239" class="st2" d="M430.4,1001v-62.7h43.5v62.7H430.4z"/>
	<path id="Trazado_194707" class="st3" d="M812.6,944v-15.9h-34.4V944H812.6z"/>
	<path id="Trazado_195240" class="st2" d="M773.6,1001v-62.7h43.5v62.7H773.6z"/>
	<path id="Trazado_194708" class="st4" d="M1155.8,948.4v-15.9h-34.4v15.9H1155.8z"/>
	<path id="Trazado_195241" class="st2" d="M1116.8,1005.4v-62.7h43.5v62.7H1116.8z"/>
	<path id="Trazado_194704" class="st5" d="M263.4,1213.5v15.9h34.4v-15.9H263.4z"/>
	<path id="Trazado_195242" class="st2" d="M258.8,1220.7v-53.6h43.5v53.6H258.8z"/>
	<path id="Trazado_194706" class="st6" d="M606.6,1213.1v15.9H641v-15.9H606.6z"/>
	<path id="Trazado_195243" class="st2" d="M602,1220.3v-53.6h43.5v53.6H602z"/>
	<path id="Trazado_194709" class="st5" d="M949.8,1213.1v15.9h34.4v-15.9H949.8z"/>
	<path id="Trazado_195244" class="st2" d="M945.2,1220.3v-53.6h43.5v53.6H945.2z"/>
	<path id="Trazado_194710" class="st5" d="M1293,1213.1v15.9h34.4v-15.9H1293z"/>
	<path id="Trazado_195245" class="st2" d="M1288.4,1220.3v-53.6h43.5v53.6H1288.4z"/>
	<path id="Trazado_194711" class="st5" d="M1305.1,983.8c-57.1,0-103.4,46.3-103.4,103.4h206.9
		C1408.5,1030.1,1362.2,983.8,1305.1,983.8C1305.1,983.8,1305.1,983.8,1305.1,983.8z"/>
	<path id="Trazado_194712" class="st1" d="M1134.3,1171.1c49.9,0,90.4-40.5,90.4-90.4h-180.8
		C1043.9,1130.6,1084.4,1171.1,1134.3,1171.1C1134.3,1171.1,1134.3,1171.1,1134.3,1171.1z"/>
	<path id="Trazado_194713" class="st5" d="M963.6,990.3c-49.9,0-90.4,40.5-90.4,90.4c0,0,0,0,0,0H1054
		C1054,1030.8,1013.5,990.3,963.6,990.3C963.6,990.3,963.6,990.3,963.6,990.3z"/>
	<path id="Trazado_194714" class="st6" d="M622.1,990.3c-49.9,0-90.4,40.5-90.4,90.4c0,0,0,0,0,0h180.8
		C712.5,1030.8,672,990.3,622.1,990.3z"/>
	<path id="Trazado_194715" class="st3" d="M792.8,1171.1c49.9,0,90.4-40.5,90.4-90.4c0,0,0,0,0,0H702.4
		C702.4,1130.6,742.9,1171.1,792.8,1171.1z"/>
	<path id="Trazado_194716" class="st1" d="M451.3,1171.1c49.9,0,90.4-40.5,90.4-90.4H360.9C360.9,1130.6,401.4,1171.1,451.3,1171.1
		C451.3,1171.1,451.3,1171.1,451.3,1171.1z"/>
	<path id="Trazado_194717" class="st5" d="M280.6,990.3c-49.9,0-90.4,40.5-90.4,90.4c0,0,0,0,0,0H371
		C371,1030.8,330.5,990.3,280.6,990.3z"/>
	
		<linearGradient id="Trazado_194718_00000074443556991930533300000016186119069974939578_" gradientUnits="userSpaceOnUse" x1="124.3605" y1="1461.9135" x2="120.7735" y2="1462.7615" gradientTransform="matrix(1.271239e-14 -207.609 -877.183 -5.371197e-14 1284324 25589.3379)">
		<stop  offset="0" style="stop-color:#D2CCD0"/>
		<stop  offset="1" style="stop-color:#F1F1F1"/>
	</linearGradient>
	<path id="Trazado_194718" style="fill:url(#Trazado_194718_00000074443556991930533300000016186119069974939578_);" d="
		M1030.5,1080.7c0,37-30,67-67,66.9c-37,0-66.9-30-66.9-66.9c0-57.3-46.4-103.8-103.7-103.8s-103.8,46.4-103.8,103.7
		c0,0,0,0.1,0,0.1h0c0,37-30,67-67,67c-37,0-67-30-67-67c0-57.3-46.5-103.8-103.8-103.8s-103.8,46.5-103.8,103.8c0,37-30,67-67,67
		s-67-30-67-67h-23.4c0,57.3,44.7,95,90.4,95c40.5,0,103.8-37.7,103.8-95c0-37,30-67,67-67s67,30,67,67
		c0,57.3,46.5,103.8,103.8,103.7c57.3,0,103.7-46.5,103.7-103.7c0-37,30-67,66.9-67c37,0,67,30,67,66.9c0,0,0,0,0,0.1
		c0,57.3,46.5,103.8,103.8,103.8s103.8-46.5,103.8-103.8H1030.5z"/>
	
		<linearGradient id="Trazado_194719_00000145768231839042559840000002504410194570424459_" gradientUnits="userSpaceOnUse" x1="125.5509" y1="1460.5148" x2="123.2429" y2="1461.3867" gradientTransform="matrix(1.271012e-14 -207.572 -549.072 -3.362097e-14 804639.25 25584.9727)">
		<stop  offset="0" style="stop-color:#D2CCD0"/>
		<stop  offset="1" style="stop-color:#F1F1F1"/>
	</linearGradient>
	<path id="Trazado_194719" style="fill:url(#Trazado_194719_00000145768231839042559840000002504410194570424459_);" d="
		M1372,1080.7c0,37-30,67-67,66.9c-37,0-66.9-30-66.9-66.9c0-57.3-46.5-103.8-103.8-103.8c-57.3,0-103.8,46.5-103.8,103.8
		c0,37-30,67-67,67s-67-30-67-67h-36.8c0,57.3,46.5,103.8,103.8,103.8c57.3,0,103.8-46.5,103.8-103.8c0-37,30-67,67-67
		c37,0,67,30,67,67c0,57.3,46.5,103.8,103.8,103.8c57.3,0,103.8-46.5,103.8-103.8"/>
	
		<radialGradient id="Trazado_195246_00000147199410462600734840000011446627477158958520_" cx="118.9737" cy="1462.7894" r="0.5" gradientTransform="matrix(130.8914 0 0 -130.8914 -16310.748 190055.5312)" gradientUnits="userSpaceOnUse">
		<stop  offset="0" style="stop-color:#000000"/>
		<stop  offset="0.183" style="stop-color:#333333"/>
		<stop  offset="0.589" style="stop-color:#9F9F9F"/>
		<stop  offset="0.869" style="stop-color:#E4E4E4"/>
		<stop  offset="1" style="stop-color:#FFFFFF"/>
	</radialGradient>
	<path id="Trazado_195246" style="fill:url(#Trazado_195246_00000147199410462600734840000011446627477158958520_);" d="
		M284.4,1167.3c-35.2-8.3-57-43.6-48.6-78.8c8.3-35.2,43.6-57,78.8-48.6c35.2,8.3,57,43.6,48.6,78.8c0,0,0,0,0,0
		C354.8,1153.8,319.6,1175.6,284.4,1167.3z"/>
	<path id="Trazado_195247" class="st10" d="M213.6,1080.7c0-37,30-67,67-67s67,30,67,67s-30,67-67,67S213.6,1117.7,213.6,1080.7
		C213.6,1080.7,213.6,1080.7,213.6,1080.7z"/>
	
		<radialGradient id="Trazado_195248_00000169519719421733182620000016985705963306587572_" cx="119.0815" cy="1462.6272" r="0.5" gradientTransform="matrix(106.5802 -3.083932e-02 -3.084293e-02 -106.5802 -13348.0342 154476.4219)" gradientUnits="userSpaceOnUse">
		<stop  offset="0" style="stop-color:#000000"/>
		<stop  offset="0.183" style="stop-color:#333333"/>
		<stop  offset="0.589" style="stop-color:#9F9F9F"/>
		<stop  offset="0.869" style="stop-color:#E4E4E4"/>
		<stop  offset="1" style="stop-color:#FFFFFF"/>
	</radialGradient>
	<path id="Trazado_195248" style="fill:url(#Trazado_195248_00000169519719421733182620000016985705963306587572_);" d="
		M275.8,1141.7c-28.6-6.8-46.4-35.5-39.6-64.1c6.8-28.6,35.5-46.4,64.1-39.6s46.4,35.5,39.6,64.1
		C333.2,1130.7,304.5,1148.5,275.8,1141.7C275.8,1141.7,275.8,1141.7,275.8,1141.7z"/>
	<path id="Trazado_195249" class="st5" d="M279.1,1034.2c26.5,0,48,21.5,48,48s-21.5,48-48,48s-48-21.5-48-48c0,0,0,0,0,0
		C231.1,1055.7,252.6,1034.2,279.1,1034.2z"/>
	<path id="Trazado_195250" class="st10" d="M285.6,1107.2h-12v-38.4l-11.8,3.5v-9.1l22.8-7.9h1.1L285.6,1107.2z"/>
	<path id="Trazado_195251" class="st10" d="M384.4,1080.7c0-37,30-67,67-67s67,30,67,67s-30,67-67,67S384.4,1117.7,384.4,1080.7
		C384.4,1080.7,384.4,1080.7,384.4,1080.7z"/>
	
		<radialGradient id="Trazado_195252_00000109031033934246769920000000298734477765901982_" cx="117.9185" cy="1464.3722" r="0.5" gradientTransform="matrix(-106.622 -5.480768e-03 -5.477650e-03 106.622 12926.127 -155209.2969)" gradientUnits="userSpaceOnUse">
		<stop  offset="0" style="stop-color:#000000"/>
		<stop  offset="0.183" style="stop-color:#333333"/>
		<stop  offset="0.589" style="stop-color:#9F9F9F"/>
		<stop  offset="0.869" style="stop-color:#E4E4E4"/>
		<stop  offset="1" style="stop-color:#FFFFFF"/>
	</radialGradient>
	<path id="Trazado_195252" style="fill:url(#Trazado_195252_00000109031033934246769920000000298734477765901982_);" d="
		M452.7,1141.7c-29-4.8-48.7-32.2-44-61.2c4.8-29,32.2-48.7,61.2-44c29,4.8,48.7,32.2,44,61.2S481.7,1146.4,452.7,1141.7
		C452.7,1141.7,452.7,1141.7,452.7,1141.7z"/>
	<path id="Trazado_195253" class="st1" d="M403.3,1080.7c0-26.5,21.5-48,48-48s48,21.5,48,48s-21.5,48-48,48c0,0,0,0,0,0
		C424.8,1128.7,403.3,1107.2,403.3,1080.7z"/>
	
		<radialGradient id="Trazado_195254_00000148639642933566509710000009953958008161869968_" cx="118.9735" cy="1462.7898" r="0.5" gradientTransform="matrix(130.94 0 0 -130.94 -16803.8848 190785.4062)" gradientUnits="userSpaceOnUse">
		<stop  offset="0" style="stop-color:#000000"/>
		<stop  offset="0.183" style="stop-color:#333333"/>
		<stop  offset="0.589" style="stop-color:#9F9F9F"/>
		<stop  offset="0.869" style="stop-color:#E4E4E4"/>
		<stop  offset="1" style="stop-color:#FFFFFF"/>
	</radialGradient>
	<path id="Trazado_195254" style="fill:url(#Trazado_195254_00000148639642933566509710000009953958008161869968_);" d="
		M634.2,1168.2c-35.7-5.9-59.8-39.6-54-75.2c5.9-35.7,39.6-59.8,75.2-54s59.8,39.6,54,75.2c0,0,0,0,0,0
		C703.6,1149.9,669.9,1174,634.2,1168.2z"/>
	<path id="Trazado_195255" class="st10" d="M555.1,1080.7c0-37,30-67,67-67s67,30,67,67s-30,67-67,67S555.1,1117.7,555.1,1080.7
		C555.1,1080.7,555.1,1080.7,555.1,1080.7z"/>
	
		<radialGradient id="Trazado_195256_00000109017536271222489390000000985079522433336223_" cx="119.0816" cy="1462.6276" r="0.5" gradientTransform="matrix(106.6 0 0 -106.6 -13881.1328 155155.1719)" gradientUnits="userSpaceOnUse">
		<stop  offset="0" style="stop-color:#000000"/>
		<stop  offset="0.183" style="stop-color:#333333"/>
		<stop  offset="0.589" style="stop-color:#9F9F9F"/>
		<stop  offset="0.869" style="stop-color:#E4E4E4"/>
		<stop  offset="1" style="stop-color:#FFFFFF"/>
	</radialGradient>
	<path id="Trazado_195256" style="fill:url(#Trazado_195256_00000109017536271222489390000000985079522433336223_);" d="
		M621.1,1142.5c-29.1-4.7-48.8-32-44.2-61.1c4.7-29.1,32-48.8,61.1-44.2c29.1,4.7,48.8,32,44.2,61.1
		C677.5,1127.3,650.2,1147.1,621.1,1142.5C621.1,1142.5,621.1,1142.5,621.1,1142.5z"/>
	<path id="Trazado_195257" class="st6" d="M574.1,1080.7c0-26.5,21.5-48,48-48c26.5,0,48,21.5,48,48s-21.5,48-48,48c0,0,0,0,0,0
		C595.6,1128.7,574.1,1107.2,574.1,1080.7z"/>
	
		<radialGradient id="Trazado_195258_00000164497744958462081760000008175020926528508585_" cx="118.9735" cy="1462.7898" r="0.5" gradientTransform="matrix(130.94 0 0 -130.94 -16542.6289 190815.7812)" gradientUnits="userSpaceOnUse">
		<stop  offset="0" style="stop-color:#000000"/>
		<stop  offset="0.183" style="stop-color:#333333"/>
		<stop  offset="0.589" style="stop-color:#9F9F9F"/>
		<stop  offset="0.869" style="stop-color:#E4E4E4"/>
		<stop  offset="1" style="stop-color:#FFFFFF"/>
	</radialGradient>
	<path id="Trazado_195258" style="fill:url(#Trazado_195258_00000164497744958462081760000008175020926528508585_);" d="
		M941.6,1149.9c-25.6-25.6-25.6-67,0-92.6c25.6-25.6,67-25.6,92.6,0s25.6,67,0,92.6c0,0,0,0,0,0
		C1008.6,1175.4,967.2,1175.4,941.6,1149.9z"/>
	<path id="Trazado_195259" class="st10" d="M896.6,1080.7c0-37,30-67,67-67s67,30,67,67s-30,67-67,67S896.6,1117.7,896.6,1080.7
		C896.6,1080.7,896.6,1080.7,896.6,1080.7z"/>
	
		<radialGradient id="Trazado_195260_00000013194832535972154870000007923036372719249296_" cx="119.0816" cy="1462.6276" r="0.5" gradientTransform="matrix(106.6 0 0 -106.6 -14255.5713 155751.5625)" gradientUnits="userSpaceOnUse">
		<stop  offset="0" style="stop-color:#000000"/>
		<stop  offset="0.183" style="stop-color:#333333"/>
		<stop  offset="0.589" style="stop-color:#9F9F9F"/>
		<stop  offset="0.869" style="stop-color:#E4E4E4"/>
		<stop  offset="1" style="stop-color:#FFFFFF"/>
	</radialGradient>
	<path id="Trazado_195260" style="fill:url(#Trazado_195260_00000013194832535972154870000007923036372719249296_);" d="
		M961.4,1142.3c-28.9-5.3-48.1-33.1-42.8-62.1c5.3-28.9,33.1-48.1,62.1-42.8c28.9,5.3,48.1,33.1,42.8,62.1
		S990.4,1147.6,961.4,1142.3C961.4,1142.3,961.4,1142.3,961.4,1142.3z"/>
	<path id="Trazado_195261" class="st5" d="M915.6,1080.7c0-26.5,21.5-48,48-48c26.5,0,48,21.5,48,48s-21.5,48-48,48c0,0,0,0,0,0
		C937.1,1128.7,915.6,1107.2,915.6,1080.7z"/>
	<path id="Trazado_195262" class="st10" d="M725.9,1080.7c0-37,30-67,67-67s67,30,67,67s-30,67-67,67S725.9,1117.7,725.9,1080.7
		C725.9,1080.7,725.9,1080.7,725.9,1080.7z"/>
	
		<radialGradient id="Trazado_195263_00000051385783518028406620000003982468499600213942_" cx="117.9184" cy="1464.3724" r="0.5" gradientTransform="matrix(-106.6 6.985432e-06 9.055422e-06 106.6 13212.082 -155115.5938)" gradientUnits="userSpaceOnUse">
		<stop  offset="0" style="stop-color:#000000"/>
		<stop  offset="0.183" style="stop-color:#333333"/>
		<stop  offset="0.589" style="stop-color:#9F9F9F"/>
		<stop  offset="0.869" style="stop-color:#E4E4E4"/>
		<stop  offset="1" style="stop-color:#FFFFFF"/>
	</radialGradient>
	<path id="Trazado_195263" style="fill:url(#Trazado_195263_00000051385783518028406620000003982468499600213942_);" d="M795,1141.8
		c-29.1-4.3-49.2-31.5-44.8-60.6s31.5-49.2,60.6-44.8c29.1,4.3,49.2,31.5,44.8,60.6C851.2,1126.1,824.1,1146.1,795,1141.8
		C795,1141.8,795,1141.8,795,1141.8z"/>
	<path id="Trazado_195264" class="st3" d="M744.8,1080.7c0-26.5,21.5-48,48-48c26.5,0,48,21.5,48,48s-21.5,48-48,48c0,0,0,0,0,0
		C766.3,1128.7,744.8,1107.2,744.8,1080.7z"/>
	<path id="Trazado_195265" class="st10" d="M1067.4,1080.7c0-37,30-67,67-67s67,30,67,67s-30,67-67,67S1067.4,1117.7,1067.4,1080.7
		C1067.4,1080.7,1067.4,1080.7,1067.4,1080.7z"/>
	
		<radialGradient id="Trazado_195266_00000018203888783371172470000003559122233466368169_" cx="117.9186" cy="1464.3721" r="0.5" gradientTransform="matrix(-106.644 0 0 106.644 13484.0156 -155140.5)" gradientUnits="userSpaceOnUse">
		<stop  offset="0" style="stop-color:#000000"/>
		<stop  offset="0.183" style="stop-color:#333333"/>
		<stop  offset="0.589" style="stop-color:#9F9F9F"/>
		<stop  offset="0.869" style="stop-color:#E4E4E4"/>
		<stop  offset="1" style="stop-color:#FFFFFF"/>
	</radialGradient>
	<path id="Trazado_195266" style="fill:url(#Trazado_195266_00000018203888783371172470000003559122233466368169_);" d="
		M1135.7,1141.7c-29.1-4.8-48.7-32.2-44-61.2c4.8-29.1,32.2-48.7,61.2-44c29.1,4.8,48.7,32.2,44,61.2
		C1192.2,1126.7,1164.7,1146.4,1135.7,1141.7C1135.7,1141.7,1135.7,1141.7,1135.7,1141.7z"/>
	<path id="Trazado_195267" class="st1" d="M1086.3,1080.7c0-26.5,21.5-48,48-48s48,21.5,48,48s-21.5,48-48,48c0,0,0,0,0,0
		C1107.8,1128.7,1086.3,1107.2,1086.3,1080.7z"/>
	
		<radialGradient id="Trazado_195268_00000085228344337771983930000012614703498897682561_" cx="118.9737" cy="1462.7902" r="0.5" gradientTransform="matrix(130.967 6.159307e-02 6.159307e-02 -130.967 -17682.1406 192063.6406)" gradientUnits="userSpaceOnUse">
		<stop  offset="0" style="stop-color:#000000"/>
		<stop  offset="0.183" style="stop-color:#333333"/>
		<stop  offset="0.589" style="stop-color:#9F9F9F"/>
		<stop  offset="0.869" style="stop-color:#E4E4E4"/>
		<stop  offset="1" style="stop-color:#FFFFFF"/>
	</radialGradient>
	<path id="Trazado_195268" style="fill:url(#Trazado_195268_00000085228344337771983930000012614703498897682561_);" d="
		M1317.2,1168.2c-35.7-5.9-59.8-39.6-54-75.2c5.9-35.7,39.6-59.8,75.2-54c35.7,5.9,59.8,39.6,54,75.2c0,0,0,0,0,0
		C1386.6,1149.9,1352.9,1174,1317.2,1168.2z"/>
	<path id="Trazado_195269" class="st10" d="M1238.1,1080.7c0-37,30-67,67-67s67,30,67,67s-30,67-67,67S1238.1,1117.7,1238.1,1080.7
		C1238.1,1080.7,1238.1,1080.7,1238.1,1080.7z"/>
	
		<radialGradient id="Trazado_195270_00000169545982601200266430000003398347728632433538_" cx="119.0821" cy="1462.6274" r="0.5" gradientTransform="matrix(106.5538 3.384935e-02 3.384626e-02 -106.5538 -14710.8174 156323.5312)" gradientUnits="userSpaceOnUse">
		<stop  offset="0" style="stop-color:#000000"/>
		<stop  offset="0.183" style="stop-color:#333333"/>
		<stop  offset="0.589" style="stop-color:#9F9F9F"/>
		<stop  offset="0.869" style="stop-color:#E4E4E4"/>
		<stop  offset="1" style="stop-color:#FFFFFF"/>
	</radialGradient>
	<path id="Trazado_195270" style="fill:url(#Trazado_195270_00000169545982601200266430000003398347728632433538_);" d="
		M1301.1,1133.3c-29.1-4.7-48.8-32-44.2-61.1c4.7-29.1,32-48.8,61.1-44.2c29.1,4.7,48.8,32,44.2,61.1
		C1357.6,1118.2,1330.2,1138,1301.1,1133.3C1301.1,1133.3,1301.1,1133.3,1301.1,1133.3z"/>
	<path id="Trazado_195271" class="st5" d="M1257.1,1080.7c0-26.5,21.5-48,48-48s48,21.5,48,48s-21.5,48-48,48c0,0,0,0,0,0
		C1278.6,1128.7,1257.1,1107.2,1257.1,1080.7z"/>
	<path id="Trazado_195272" class="st10" d="M468.2,1105.3H432v-7.8l16.7-17.5c4.1-4.7,6.2-8.4,6.2-11.2c0.1-1.8-0.4-3.6-1.5-5.1
		c-1.1-1.2-2.6-1.8-4.2-1.7c-1.8,0-3.5,0.9-4.5,2.3c-1.2,1.7-1.8,3.8-1.7,5.8h-12c0-3.1,0.8-6.2,2.4-8.8c1.6-2.7,3.9-4.9,6.6-6.3
		c2.9-1.5,6.2-2.3,9.5-2.3c5.6,0,9.9,1.3,13,3.9c3,2.6,4.5,6.3,4.5,11.2c0,2-0.4,4.1-1.1,6c-0.9,2.2-2.1,4.2-3.5,6.1
		c-2.4,3-5,5.9-7.8,8.5l-6.7,7.7h20.4V1105.3z"/>
	<path id="Trazado_195273" class="st10" d="M614,1074.3h5.7c4.5,0,6.7-2.2,6.7-6.6c0.1-1.6-0.5-3.1-1.6-4.2
		c-1.2-1.1-2.9-1.7-4.5-1.6c-1.5,0-3,0.5-4.2,1.4c-1.1,0.8-1.8,2.1-1.8,3.5h-12c0-2.6,0.8-5.2,2.3-7.3c1.6-2.2,3.8-3.9,6.3-5
		c2.8-1.2,5.8-1.8,8.9-1.8c5.8,0,10.3,1.3,13.6,4c3.3,2.6,5.1,6.7,5,10.9c0,2.3-0.7,4.5-2,6.3c-1.5,2.1-3.6,3.8-6,4.8
		c2.6,0.9,4.8,2.4,6.5,4.5c1.6,2.2,2.4,4.8,2.4,7.5c0.1,4.4-1.9,8.5-5.4,11.1c-3.6,2.8-8.2,4.2-14,4.2c-3.3,0-6.5-0.6-9.5-1.9
		c-2.7-1.1-5-3-6.6-5.4c-1.5-2.3-2.3-5.1-2.2-7.8h12.1c0,1.6,0.7,3.1,1.9,4.1c1.3,1.2,3,1.8,4.7,1.7c1.9,0.1,3.7-0.5,5.1-1.8
		c1.3-1.2,1.9-2.8,1.9-4.5c0-2.6-0.7-4.5-2-5.6c-1.6-1.2-3.5-1.8-5.4-1.6H614V1074.3z"/>
	<path id="Trazado_195274" class="st10" d="M803.7,1090.9h5.3v9.3h-5.3v11.1h-12.1v-11.1h-20.2l-0.7-7.4l20.9-33.6v-0.1h12.1V1090.9
		z M782.2,1090.9h9.4v-16.1l-0.8,1.2L782.2,1090.9z"/>
	<path id="Trazado_195275" class="st10" d="M945.4,1085l3.2-26.5h30.3v9.3h-20.6l-1.2,10.4c1.1-0.6,2.2-1,3.4-1.3
		c1.3-0.4,2.7-0.6,4.1-0.6c5.2,0,9.1,1.5,11.9,4.6s4.2,7.3,4.2,12.9c0,3.2-0.7,6.3-2.2,9c-1.4,2.6-3.6,4.8-6.3,6.2
		c-2.9,1.5-6.2,2.3-9.5,2.2c-3.2,0-6.3-0.7-9.2-2c-2.7-1.2-5-3.1-6.7-5.5c-1.6-2.3-2.4-5.1-2.4-7.9h12c0,1.7,0.7,3.3,1.8,4.5
		c1.1,1.1,2.7,1.7,4.3,1.7c4,0,6.1-3,6.1-9c0-5.5-2.5-8.3-7.4-8.3c-2.8,0-4.9,0.9-6.3,2.7L945.4,1085z"/>
	<path id="Trazado_195276" class="st10" d="M1143.4,1058.4v9.5h-0.5c-4-0.2-7.9,1-11.1,3.2c-2.9,2.2-4.8,5.4-5.4,9
		c2.8-2.7,6.5-4.1,10.3-4c4.2-0.2,8.2,1.7,10.8,4.9c2.7,3.3,4,7.6,4,13c0,3.2-0.8,6.3-2.3,9.1c-1.5,2.7-3.8,5-6.6,6.5
		c-2.9,1.6-6.1,2.4-9.3,2.4c-3.5,0.1-6.9-0.8-9.9-2.5c-2.9-1.7-5.3-4.2-6.8-7.2c-1.7-3.4-2.5-7.1-2.5-10.8v-4.8
		c-0.1-5,1.1-10,3.5-14.5c2.3-4.2,5.7-7.7,9.9-10.1c4.3-2.5,9.2-3.7,14.2-3.7H1143.4z M1132.5,1085.4c-1.4-0.1-2.8,0.3-4,1.1
		c-1,0.7-1.9,1.6-2.4,2.7v3.6c0,6.6,2.3,9.9,6.8,9.9c1.8,0,3.6-0.9,4.6-2.5c1.3-1.8,1.9-4,1.8-6.2c0.1-2.2-0.6-4.4-1.9-6.2
		C1136.4,1086.3,1134.5,1085.4,1132.5,1085.4z"/>
	<path id="Trazado_195277" class="st10" d="M1323.6,1064.8l-19.4,45.5h-12.7l19.4-42.6h-24.7v-9.3h37.4V1064.8z"/>
	<path id="Trazado_195278" class="st21" d="M206.3,1246.9l3.2,9.9l3.2-9.9h4.5v14.2h-3.4v-3.3l0.3-6.8l-3.4,10.1h-2.3l-3.4-10.1
		l0.3,6.8v3.3h-3.4v-14.2H206.3z M218.8,1255.8c0-1,0.2-1.9,0.6-2.8c0.4-0.8,1-1.5,1.8-1.9c0.8-0.5,1.8-0.7,2.7-0.7
		c1.4-0.1,2.8,0.5,3.7,1.5c1,1.1,1.4,2.5,1.4,4v0.1c0.1,1.4-0.4,2.8-1.4,3.9c-1,1-2.3,1.5-3.7,1.4c-1.3,0.1-2.7-0.4-3.6-1.4
		c-0.9-1-1.5-2.3-1.5-3.7L218.8,1255.8z M222.1,1256c-0.1,0.7,0.1,1.5,0.5,2.1c0.3,0.5,0.8,0.7,1.4,0.7c1.2,0,1.8-0.9,1.8-2.7v-0.3
		c0-1.9-0.6-2.8-1.8-2.8c-1.1,0-1.7,0.8-1.8,2.5L222.1,1256z M230,1255.8c-0.1-1.4,0.3-2.8,1.1-4c0.7-1,1.8-1.5,3-1.4
		c0.9,0,1.8,0.4,2.4,1.1v-5.4h3.3v15h-3l-0.2-1.1c-0.6,0.8-1.5,1.3-2.6,1.3c-1.2,0-2.3-0.5-3-1.4
		C230.3,1258.7,229.9,1257.3,230,1255.8L230,1255.8z M233.3,1256c0,1.9,0.5,2.8,1.6,2.8c0.7,0,1.3-0.3,1.6-0.9v-4
		c-0.3-0.6-0.9-1-1.5-0.9c-1,0-1.6,0.8-1.6,2.5L233.3,1256z M246.8,1261.4c-1.5,0.1-2.9-0.5-3.9-1.4c-1-1-1.6-2.4-1.5-3.8v-0.3
		c0-1,0.2-2,0.6-2.9c0.4-0.8,1-1.5,1.8-1.9c0.8-0.5,1.8-0.7,2.7-0.7c1.3-0.1,2.6,0.4,3.5,1.4c0.9,1.1,1.4,2.5,1.3,3.9v1.3h-6.5
		c0.1,0.5,0.4,1,0.8,1.4c0.4,0.4,1,0.5,1.5,0.5c0.9,0,1.8-0.4,2.4-1.1l1.5,1.8c-0.5,0.6-1.1,1.1-1.7,1.4
		C248.4,1261.2,247.6,1261.4,246.8,1261.4z M246.4,1252.9c-1,0-1.5,0.6-1.7,1.9h3.3v-0.3c0-0.4-0.1-0.9-0.4-1.2
		C247.3,1253.1,246.9,1252.9,246.4,1252.9L246.4,1252.9z M256,1261.2h-3.3v-15h3.3V1261.2z M264,1261.2c-0.1-0.3-0.3-0.6-0.3-0.9
		c-0.6,0.8-1.6,1.2-2.5,1.1c-0.9,0-1.8-0.3-2.5-0.9c-0.7-0.6-1.1-1.4-1-2.3c-0.1-1,0.4-2,1.3-2.6c1.1-0.7,2.4-1,3.7-0.9h1v-0.6
		c0-1-0.4-1.5-1.3-1.5c-0.6-0.1-1.1,0.3-1.2,0.9c0,0.1,0,0.2,0,0.3h-3.3c0-1,0.5-1.9,1.3-2.5c1-0.7,2.1-1,3.3-1
		c1.1-0.1,2.3,0.3,3.2,1c0.8,0.7,1.2,1.7,1.2,2.7v4.7c0,0.8,0.1,1.5,0.4,2.2v0.2H264z M261.9,1259c0.4,0,0.7-0.1,1-0.3
		c0.2-0.1,0.4-0.4,0.6-0.6v-1.7h-1c-1.1,0-1.7,0.5-1.7,1.5c0,0.3,0.1,0.5,0.3,0.7C261.4,1258.9,261.7,1259,261.9,1259z
		 M268.3,1255.8c-0.1-1.4,0.3-2.8,1.1-4c0.7-1,1.8-1.5,3-1.4c0.9,0,1.8,0.4,2.4,1.1v-5.4h3.3v15h-3l-0.2-1.1
		c-0.6,0.8-1.6,1.3-2.6,1.3c-1.2,0-2.3-0.5-3-1.4C268.5,1258.7,268.2,1257.3,268.3,1255.8z M271.5,1256c0,1.9,0.5,2.8,1.6,2.8
		c0.7,0,1.3-0.3,1.6-0.9v-4c-0.3-0.6-0.9-1-1.5-0.9c-1,0-1.6,0.8-1.6,2.5L271.5,1256z M279.5,1255.8c0-1,0.2-1.9,0.6-2.8
		c0.4-0.8,1-1.5,1.8-1.9c0.8-0.5,1.8-0.7,2.7-0.7c1.4-0.1,2.8,0.5,3.7,1.5c1,1.1,1.4,2.5,1.4,4v0.1c0.1,1.4-0.4,2.8-1.4,3.9
		c-1,1-2.3,1.5-3.7,1.4c-1.3,0.1-2.7-0.4-3.6-1.4c-0.9-1-1.5-2.3-1.5-3.7L279.5,1255.8z M282.8,1256c-0.1,0.7,0.1,1.5,0.5,2.1
		c0.3,0.5,0.8,0.7,1.4,0.7c1.2,0,1.8-0.9,1.8-2.7v-0.3c0-1.9-0.6-2.8-1.8-2.8c-1.1,0-1.7,0.8-1.8,2.5L282.8,1256z M299.1,1252.7h1.6
		c0.9,0.1,1.7-0.5,1.8-1.3c0-0.2,0-0.3,0-0.5c0-0.4-0.1-0.8-0.4-1.1c-0.3-0.3-0.8-0.5-1.2-0.4c-0.4,0-0.8,0.1-1.1,0.4
		c-0.3,0.2-0.5,0.6-0.5,0.9h-3.3c0-0.7,0.2-1.4,0.6-2c0.4-0.6,1-1.1,1.7-1.4c0.8-0.3,1.6-0.5,2.4-0.5c1.3-0.1,2.6,0.3,3.7,1.1
		c0.9,0.7,1.4,1.8,1.4,3c0,0.6-0.2,1.2-0.6,1.7c-0.4,0.6-1,1-1.6,1.3c0.7,0.2,1.3,0.7,1.8,1.2c0.4,0.6,0.7,1.3,0.6,2.1
		c0,1.2-0.5,2.3-1.5,3c-1.1,0.8-2.5,1.2-3.8,1.1c-0.9,0-1.8-0.2-2.6-0.5c-0.7-0.3-1.4-0.8-1.8-1.5c-0.4-0.6-0.6-1.4-0.6-2.1h3.3
		c0,0.4,0.2,0.9,0.5,1.1c0.4,0.3,0.8,0.5,1.3,0.5c0.5,0,1-0.1,1.4-0.5c0.3-0.3,0.5-0.8,0.5-1.2c0.1-0.6-0.1-1.1-0.5-1.5
		c-0.4-0.3-1-0.5-1.5-0.4h-1.6L299.1,1252.7z M307.9,1261.2v-14.2h4.6c1.2,0,2.4,0.3,3.4,0.9c1,0.6,1.8,1.4,2.3,2.4
		c0.6,1.1,0.9,2.3,0.9,3.5v0.7c0,1.2-0.3,2.4-0.8,3.5c-0.5,1-1.3,1.9-2.3,2.4c-1,0.6-2.2,0.9-3.3,0.9L307.9,1261.2z M311.3,1249.6
		v8.9h1.2c0.9,0,1.7-0.3,2.3-1.1c0.6-0.9,0.9-2,0.8-3.1v-0.6c0.1-1.1-0.2-2.2-0.8-3.1c-0.5-0.7-1.4-1.1-2.3-1L311.3,1249.6z
		 M330.1,1258.8c0.4,0,0.8-0.1,1.1-0.4c0.3-0.3,0.4-0.7,0.4-1.1h3.1c0,1.1-0.4,2.1-1.2,2.9c-0.9,0.8-2,1.2-3.2,1.1
		c-1.4,0.1-2.7-0.5-3.6-1.4c-0.9-1.1-1.4-2.5-1.3-4v-0.1c0-1,0.2-1.9,0.6-2.8c0.4-0.8,1-1.4,1.7-1.9c0.8-0.5,1.7-0.7,2.6-0.7
		c1.2-0.1,2.4,0.3,3.3,1.1c0.8,0.8,1.3,1.9,1.2,3.1h-3.1c0-0.5-0.1-0.9-0.4-1.3c-0.3-0.3-0.7-0.5-1.1-0.4c-0.9,0-1.4,0.5-1.5,1.6
		c-0.1,0.5-0.1,0.9-0.1,1.4c-0.1,0.8,0.1,1.5,0.4,2.2C329.1,1258.6,329.6,1258.9,330.1,1258.8L330.1,1258.8z M335.6,1255.8
		c0-1,0.2-1.9,0.6-2.8c0.4-0.8,1-1.5,1.8-1.9c0.8-0.5,1.8-0.7,2.7-0.7c1.4-0.1,2.8,0.5,3.7,1.5c1,1.1,1.4,2.5,1.4,4v0.1
		c0.1,1.4-0.4,2.8-1.4,3.9c-1,1-2.3,1.5-3.7,1.5c-1.3,0.1-2.7-0.4-3.6-1.4c-0.9-1-1.5-2.3-1.5-3.7L335.6,1255.8z M338.9,1256
		c-0.1,0.7,0.1,1.5,0.5,2.1c0.3,0.5,0.8,0.7,1.4,0.7c1.2,0,1.8-0.9,1.8-2.7v-0.3c0-1.9-0.6-2.8-1.8-2.8c-1.1,0-1.7,0.8-1.8,2.5
		L338.9,1256z M350.3,1250.6l0.1,1.2c0.7-0.9,1.8-1.5,3-1.4c0.9-0.1,1.8,0.3,2.5,1c0.6,0.9,0.9,1.9,0.8,3v6.8h-3.3v-6.7
		c0-0.4-0.1-0.8-0.3-1.2c-0.3-0.3-0.7-0.4-1.2-0.4c-0.6,0-1.1,0.3-1.4,0.8v7.5h-3.3v-10.6H350.3z M200.6,1284.3v4.8h-3.4v-14.2h5.7
		c1,0,2,0.2,2.9,0.6c0.8,0.4,1.5,1,1.9,1.7c0.5,0.8,0.7,1.6,0.7,2.5c0,1.3-0.5,2.5-1.5,3.3c-1.2,0.9-2.6,1.3-4.1,1.2L200.6,1284.3z
		 M200.6,1281.7h2.2c0.6,0,1.1-0.1,1.5-0.5c0.4-0.4,0.6-0.9,0.5-1.4c0-0.6-0.2-1.1-0.5-1.6c-0.4-0.4-0.9-0.6-1.5-0.6h-2.3V1281.7z
		 M216.5,1281.6l-1.1-0.1c-0.8-0.1-1.6,0.3-2,1v6.7h-3.3v-10.6h3.1l0.1,1.4c0.4-0.9,1.3-1.5,2.3-1.6c0.3,0,0.6,0,0.9,0.1
		L216.5,1281.6z M221.1,1289.2h-3.3v-10.6h3.3V1289.2z M217.6,1275.9c0-0.4,0.2-0.9,0.5-1.2c0.8-0.6,1.9-0.6,2.6,0
		c0.6,0.6,0.7,1.6,0.1,2.2c0,0-0.1,0.1-0.1,0.1c-0.8,0.6-1.9,0.6-2.6,0C217.8,1276.7,217.6,1276.3,217.6,1275.9L217.6,1275.9z
		 M226.3,1278.6l0.1,1.2c0.7-0.9,1.8-1.5,3-1.4c1.2-0.1,2.2,0.5,2.7,1.6c0.7-1,1.9-1.6,3.1-1.6c2.1,0,3.2,1.3,3.3,3.9v6.9h-3.3v-6.7
		c0-0.4-0.1-0.8-0.3-1.2c-0.3-0.3-0.6-0.4-1-0.4c-0.6,0-1.2,0.3-1.5,0.9l0,0.1v7.2h-3.3v-6.7c0-0.4-0.1-0.8-0.3-1.2
		c-0.3-0.3-0.6-0.4-1-0.4c-0.6,0-1.2,0.3-1.4,0.9v7.4h-3.3v-10.6H226.3z M243.8,1289.2h-3.3v-10.6h3.3V1289.2z M240.3,1275.9
		c0-0.4,0.2-0.9,0.5-1.2c0.8-0.6,1.9-0.6,2.6,0c0.6,0.6,0.7,1.6,0.1,2.2c0,0-0.1,0.1-0.1,0.1c-0.8,0.6-1.9,0.6-2.6,0
		C240.5,1276.7,240.3,1276.3,240.3,1275.9L240.3,1275.9z M249.7,1276v2.6h1.7v2.3h-1.7v4.8c0,0.3,0,0.6,0.2,0.8
		c0.2,0.2,0.5,0.3,0.9,0.2c0.3,0,0.5,0,0.8-0.1v2.4c-0.6,0.2-1.2,0.3-1.9,0.3c-0.9,0.1-1.8-0.2-2.5-0.8c-0.6-0.7-0.9-1.5-0.8-2.4
		v-5.2h-1.3v-2.3h1.3v-2.6H249.7z M256.2,1289.2h-3.3v-10.6h3.3V1289.2z M252.7,1275.9c0-0.4,0.2-0.9,0.5-1.2c0.8-0.6,1.9-0.6,2.6,0
		c0.6,0.6,0.7,1.6,0.1,2.2c0,0-0.1,0.1-0.1,0.1c-0.8,0.6-1.9,0.6-2.6,0C252.9,1276.7,252.7,1276.3,252.7,1275.9L252.7,1275.9z
		 M262.4,1285.2l1.7-6.7h3.5l-3.4,10.6h-3.4l-3.4-10.6h3.5L262.4,1285.2z M274.4,1289.2c-0.1-0.3-0.3-0.6-0.3-0.9
		c-0.6,0.8-1.6,1.2-2.5,1.1c-0.9,0-1.8-0.3-2.5-0.9c-0.7-0.6-1.1-1.4-1-2.3c-0.1-1,0.4-2,1.3-2.6c1.1-0.7,2.4-1,3.7-0.9h1v-0.6
		c0-1-0.4-1.5-1.3-1.5c-0.6-0.1-1.1,0.3-1.2,0.9c0,0.1,0,0.2,0,0.3h-3.3c0-1,0.5-1.9,1.3-2.5c1-0.7,2.1-1,3.3-1
		c1.1-0.1,2.3,0.3,3.2,1c0.8,0.7,1.2,1.7,1.2,2.7v4.7c0,0.8,0.1,1.5,0.5,2.2v0.2H274.4z M272.3,1287c0.4,0,0.7-0.1,1-0.3
		c0.2-0.1,0.4-0.4,0.6-0.6v-1.7h-1c-1.1,0-1.7,0.5-1.7,1.5c0,0.3,0.1,0.5,0.3,0.7C271.7,1286.9,272,1287,272.3,1287L272.3,1287z
		 M284.6,1286.2c0-0.3-0.2-0.6-0.4-0.7c-0.5-0.2-1.1-0.4-1.7-0.5c-0.7-0.1-1.4-0.4-2-0.7c-0.5-0.3-0.9-0.6-1.2-1.1
		c-0.3-0.4-0.4-0.9-0.4-1.5c0-0.9,0.4-1.8,1.2-2.4c0.9-0.7,2-1,3.1-0.9c1.2-0.1,2.4,0.3,3.4,0.9c0.8,0.6,1.3,1.5,1.3,2.5h-3.3
		c0-0.8-0.4-1.3-1.3-1.3c-0.3,0-0.6,0.1-0.9,0.3c-0.2,0.2-0.4,0.4-0.4,0.7c0,0.3,0.2,0.6,0.4,0.7c0.4,0.2,0.9,0.4,1.4,0.4
		c0.6,0.1,1.1,0.2,1.7,0.4c1.4,0.3,2.4,1.5,2.4,2.9c0,1-0.5,1.8-1.3,2.4c-1,0.6-2.1,1-3.3,0.9c-0.8,0-1.7-0.2-2.4-0.5
		c-0.7-0.3-1.2-0.7-1.7-1.3c-0.4-0.5-0.6-1.1-0.6-1.8h3.1c0,0.4,0.2,0.8,0.5,1.1c0.4,0.2,0.8,0.4,1.2,0.3c0.4,0,0.7-0.1,1-0.3
		C284.4,1286.7,284.6,1286.5,284.6,1286.2L284.6,1286.2z M304.1,1284c0.1,1.4-0.3,2.8-1.1,4c-0.7,0.9-1.8,1.5-3,1.4
		c-1,0-2-0.5-2.6-1.3l-0.1,1.1h-2.9v-15h3.3v5.3c0.6-0.7,1.5-1.1,2.4-1c1.2-0.1,2.3,0.5,3,1.4c0.8,1.2,1.2,2.6,1.1,4L304.1,1284z
		 M300.8,1283.8c0.1-0.7-0.1-1.5-0.4-2.2c-0.3-0.4-0.7-0.7-1.2-0.6c-0.6-0.1-1.2,0.3-1.5,0.8v4.2c0.3,0.6,0.9,0.9,1.6,0.8
		c0.7,0.1,1.3-0.4,1.5-1.1C300.7,1285,300.8,1284.4,300.8,1283.8L300.8,1283.8z M311.5,1289.2c-0.1-0.3-0.3-0.6-0.3-0.9
		c-0.6,0.8-1.6,1.2-2.5,1.1c-0.9,0-1.8-0.3-2.5-0.9c-0.7-0.6-1.1-1.4-1-2.3c-0.1-1,0.4-2,1.3-2.6c1.1-0.7,2.4-1,3.7-0.9h1v-0.6
		c0-1-0.4-1.5-1.3-1.5c-0.6-0.1-1.1,0.3-1.2,0.9c0,0.1,0,0.2,0,0.3h-3.3c0-1,0.5-1.9,1.3-2.5c1-0.7,2.1-1,3.3-1
		c1.1-0.1,2.3,0.3,3.2,1c0.8,0.7,1.2,1.7,1.2,2.7v4.7c0,0.8,0.1,1.5,0.4,2.2v0.2H311.5z M309.4,1287c0.4,0,0.7-0.1,1-0.3
		c0.2-0.1,0.4-0.4,0.6-0.6v-1.7h-1c-1.1,0-1.7,0.5-1.7,1.5c0,0.3,0.1,0.5,0.3,0.7C308.8,1286.9,309.1,1287,309.4,1287L309.4,1287z
		 M310.2,1274.2h3.5l-2.7,3.1h-2.7L310.2,1274.2z M321.7,1286.2c0-0.3-0.2-0.6-0.4-0.7c-0.5-0.2-1.1-0.4-1.7-0.5
		c-0.7-0.1-1.4-0.4-2-0.7c-0.5-0.3-0.9-0.6-1.2-1.1c-0.3-0.4-0.4-0.9-0.4-1.5c0-0.9,0.4-1.8,1.2-2.4c0.9-0.7,2-1,3.1-0.9
		c1.2-0.1,2.4,0.3,3.4,0.9c0.8,0.6,1.3,1.5,1.3,2.5h-3.3c0-0.8-0.4-1.3-1.3-1.3c-0.3,0-0.6,0.1-0.9,0.3c-0.2,0.2-0.4,0.4-0.4,0.7
		c0,0.3,0.2,0.6,0.4,0.7c0.4,0.2,0.9,0.4,1.4,0.4c0.6,0.1,1.1,0.2,1.7,0.4c1.4,0.3,2.4,1.5,2.4,2.9c0,1-0.5,1.8-1.3,2.4
		c-1,0.6-2.1,1-3.3,0.9c-0.8,0-1.7-0.2-2.4-0.5c-0.7-0.3-1.2-0.7-1.7-1.3c-0.4-0.5-0.6-1.1-0.6-1.8h3.1c0,0.4,0.2,0.8,0.5,1.1
		c0.4,0.2,0.8,0.4,1.2,0.3c0.4,0,0.7-0.1,1-0.3C321.5,1286.7,321.7,1286.5,321.7,1286.2z M329.9,1289.2h-3.3v-10.6h3.3V1289.2z
		 M326.4,1275.9c0-0.4,0.2-0.9,0.5-1.2c0.8-0.6,1.9-0.6,2.6,0c0.6,0.6,0.7,1.6,0.1,2.2c0,0-0.1,0.1-0.1,0.1c-0.8,0.6-1.9,0.6-2.6,0
		C326.5,1276.7,326.3,1276.3,326.4,1275.9L326.4,1275.9z M336.3,1286.8c0.4,0,0.8-0.1,1.1-0.4c0.3-0.3,0.4-0.7,0.4-1.1h3.1
		c0,1.1-0.4,2.1-1.2,2.9c-0.9,0.8-2,1.2-3.2,1.1c-1.4,0.1-2.7-0.5-3.6-1.4c-0.9-1.1-1.4-2.5-1.3-4v-0.1c0-1,0.2-1.9,0.6-2.8
		c0.4-0.8,1-1.4,1.7-1.9c0.8-0.5,1.7-0.7,2.6-0.7c1.2-0.1,2.4,0.3,3.3,1.1c0.8,0.8,1.3,1.9,1.2,3.1h-3.1c0-0.5-0.1-0.9-0.4-1.3
		c-0.3-0.3-0.7-0.5-1.1-0.4c-0.9,0-1.4,0.5-1.5,1.6c-0.1,0.5-0.1,0.9-0.1,1.4c-0.1,0.8,0.1,1.5,0.4,2.2
		C335.4,1286.6,335.9,1286.9,336.3,1286.8L336.3,1286.8z M348.2,1289.2c-0.1-0.3-0.3-0.6-0.3-0.9c-0.6,0.8-1.6,1.2-2.5,1.1
		c-0.9,0-1.8-0.3-2.5-0.9c-0.7-0.6-1.1-1.4-1-2.3c-0.1-1,0.4-2,1.3-2.6c1.1-0.7,2.4-1,3.7-0.9h1v-0.6c0-1-0.4-1.5-1.3-1.5
		c-0.6-0.1-1.1,0.3-1.2,0.9c0,0.1,0,0.2,0,0.3H342c0-1,0.5-1.9,1.3-2.5c1-0.7,2.1-1,3.3-1c1.1-0.1,2.3,0.3,3.2,1
		c0.8,0.7,1.2,1.7,1.2,2.7v4.7c0,0.8,0.1,1.5,0.4,2.2v0.2H348.2z M346.2,1287c0.4,0,0.7-0.1,1-0.3c0.2-0.1,0.4-0.4,0.6-0.6v-1.7h-1
		c-1.1,0-1.7,0.5-1.7,1.5c0,0.3,0.1,0.5,0.3,0.7C345.6,1286.9,345.9,1287,346.2,1287L346.2,1287z M358.4,1286.2
		c0-0.3-0.2-0.6-0.4-0.7c-0.5-0.2-1.1-0.4-1.7-0.5c-0.7-0.1-1.4-0.4-2-0.7c-0.5-0.3-0.9-0.6-1.2-1.1c-0.3-0.4-0.4-0.9-0.4-1.5
		c0-0.9,0.4-1.8,1.2-2.4c0.9-0.7,2-1,3.1-0.9c1.2-0.1,2.4,0.3,3.4,0.9c0.8,0.6,1.3,1.5,1.3,2.5h-3.3c0-0.8-0.4-1.3-1.3-1.3
		c-0.3,0-0.6,0.1-0.9,0.3c-0.2,0.2-0.4,0.4-0.4,0.7c0,0.3,0.2,0.6,0.4,0.7c0.4,0.2,0.9,0.4,1.4,0.4c0.6,0.1,1.1,0.2,1.7,0.4
		c1.4,0.3,2.4,1.5,2.4,2.9c0,1-0.5,1.8-1.3,2.4c-1,0.6-2.1,1-3.3,0.9c-0.8,0-1.7-0.2-2.4-0.5c-0.7-0.3-1.2-0.7-1.7-1.3
		c-0.4-0.5-0.6-1.1-0.6-1.8h3.1c0,0.4,0.2,0.8,0.5,1.1c0.4,0.2,0.8,0.4,1.2,0.3c0.4,0,0.7-0.1,1-0.3
		C358.3,1286.7,358.4,1286.5,358.4,1286.2L358.4,1286.2z"/>
	<path id="Trazado_195279" class="st21" d="M570.3,1246.9l3.2,9.9l3.2-9.9h4.5v14.2h-3.4v-3.3l0.3-6.8l-3.4,10.1h-2.3l-3.4-10.1
		l0.3,6.8v3.3h-3.4v-14.2H570.3z M582.7,1255.8c0-1,0.2-1.9,0.6-2.8c0.4-0.8,1-1.5,1.8-1.9c0.8-0.5,1.8-0.7,2.7-0.7
		c1.4-0.1,2.8,0.5,3.7,1.5c1,1.1,1.4,2.5,1.4,4v0.1c0.1,1.4-0.4,2.8-1.4,3.9c-1,1-2.3,1.5-3.7,1.4c-1.3,0.1-2.7-0.4-3.6-1.4
		c-0.9-1-1.5-2.3-1.5-3.7L582.7,1255.8z M586,1256c-0.1,0.7,0.1,1.5,0.5,2.1c0.3,0.5,0.8,0.7,1.4,0.7c1.2,0,1.8-0.9,1.8-2.7v-0.3
		c0-1.9-0.6-2.8-1.8-2.8c-1.1,0-1.7,0.8-1.8,2.5L586,1256z M593.9,1255.8c-0.1-1.4,0.3-2.8,1.1-4c0.7-1,1.8-1.5,3-1.4
		c0.9,0,1.8,0.4,2.4,1.1v-5.4h3.3v15h-3l-0.2-1.1c-0.6,0.8-1.6,1.3-2.6,1.3c-1.2,0-2.3-0.5-3-1.4
		C594.2,1258.7,593.8,1257.3,593.9,1255.8L593.9,1255.8z M597.2,1256c0,1.9,0.5,2.8,1.6,2.8c0.7,0,1.3-0.3,1.6-0.9v-4
		c-0.3-0.6-0.9-1-1.5-0.9c-1,0-1.6,0.8-1.6,2.5L597.2,1256z M610.7,1261.4c-1.5,0.1-2.9-0.5-3.9-1.4c-1-1-1.6-2.4-1.5-3.8v-0.3
		c0-1,0.2-2,0.6-2.9c0.4-0.8,1-1.5,1.8-1.9c0.8-0.5,1.8-0.7,2.7-0.7c1.3-0.1,2.6,0.4,3.5,1.4c0.9,1.1,1.4,2.5,1.3,3.9v1.3h-6.5
		c0.1,0.5,0.4,1,0.8,1.4c0.4,0.4,1,0.5,1.5,0.5c0.9,0,1.8-0.4,2.4-1.1l1.5,1.8c-0.5,0.6-1.1,1.1-1.7,1.4
		C612.4,1261.2,611.6,1261.4,610.7,1261.4z M610.3,1252.9c-1,0-1.5,0.6-1.7,1.9h3.3v-0.3c0-0.4-0.1-0.9-0.4-1.2
		C611.2,1253.1,610.8,1252.9,610.3,1252.9L610.3,1252.9z M620,1261.2h-3.3v-15h3.3V1261.2z M627.9,1261.2c-0.1-0.3-0.3-0.6-0.3-0.9
		c-0.6,0.8-1.6,1.2-2.5,1.1c-0.9,0-1.8-0.3-2.5-0.9c-0.7-0.6-1.1-1.4-1-2.3c-0.1-1,0.4-2,1.3-2.6c1.1-0.7,2.4-1,3.7-0.9h1v-0.6
		c0-1-0.4-1.5-1.3-1.5c-0.6-0.1-1.1,0.3-1.2,0.9c0,0.1,0,0.2,0,0.3h-3.3c0-1,0.5-1.9,1.3-2.5c1-0.7,2.1-1,3.3-1
		c1.1-0.1,2.3,0.3,3.2,1c0.8,0.7,1.2,1.7,1.2,2.7v4.7c0,0.8,0.1,1.5,0.4,2.2v0.2H627.9z M625.9,1259c0.4,0,0.7-0.1,1-0.3
		c0.2-0.1,0.4-0.4,0.6-0.6v-1.7h-1c-1.1,0-1.7,0.5-1.7,1.5c0,0.3,0.1,0.5,0.3,0.7C625.3,1258.9,625.6,1259,625.9,1259L625.9,1259z
		 M632.2,1255.8c-0.1-1.4,0.3-2.8,1.1-4c0.7-1,1.8-1.5,3-1.4c0.9,0,1.8,0.4,2.4,1.1v-5.4h3.3v15h-3l-0.2-1.1
		c-0.6,0.8-1.6,1.3-2.6,1.3c-1.2,0-2.3-0.5-3-1.4C632.5,1258.7,632.1,1257.3,632.2,1255.8z M635.5,1256c0,1.9,0.5,2.8,1.6,2.8
		c0.7,0,1.3-0.3,1.6-0.9v-4c-0.3-0.6-0.9-1-1.5-0.9c-1,0-1.6,0.8-1.7,2.5L635.5,1256z M643.4,1255.8c0-1,0.2-1.9,0.6-2.8
		c0.4-0.8,1-1.5,1.8-1.9c0.8-0.5,1.8-0.7,2.7-0.7c1.4-0.1,2.8,0.5,3.7,1.5c1,1.1,1.4,2.5,1.4,4v0.1c0.1,1.4-0.4,2.8-1.4,3.9
		c-1,1-2.3,1.5-3.7,1.4c-1.3,0.1-2.7-0.4-3.6-1.4c-0.9-1-1.5-2.3-1.5-3.7L643.4,1255.8z M646.7,1256c-0.1,0.7,0.1,1.5,0.5,2.1
		c0.3,0.5,0.8,0.7,1.4,0.7c1.2,0,1.8-0.9,1.8-2.7v-0.3c0-1.9-0.6-2.8-1.8-2.8c-1.1,0-1.7,0.8-1.8,2.5L646.7,1256z M663,1252.7h1.6
		c0.9,0.1,1.7-0.5,1.8-1.3c0-0.2,0-0.3,0-0.5c0-0.4-0.1-0.8-0.4-1.1c-0.3-0.3-0.8-0.5-1.2-0.4c-0.4,0-0.8,0.1-1.1,0.4
		c-0.3,0.2-0.5,0.6-0.5,0.9h-3.3c0-0.7,0.2-1.4,0.6-2c0.4-0.6,1-1.1,1.7-1.4c0.8-0.3,1.6-0.5,2.4-0.5c1.3-0.1,2.6,0.3,3.7,1.1
		c0.9,0.7,1.4,1.8,1.4,3c0,0.6-0.2,1.2-0.6,1.7c-0.4,0.6-1,1-1.6,1.3c0.7,0.2,1.3,0.7,1.8,1.2c0.4,0.6,0.7,1.3,0.6,2.1
		c0,1.2-0.5,2.3-1.5,3c-1.1,0.8-2.5,1.2-3.8,1.1c-0.9,0-1.8-0.2-2.6-0.5c-0.7-0.3-1.4-0.8-1.8-1.5c-0.4-0.6-0.6-1.4-0.6-2.1h3.3
		c0,0.4,0.2,0.9,0.5,1.1c0.4,0.3,0.8,0.5,1.3,0.5c0.5,0,1-0.1,1.4-0.5c0.3-0.3,0.5-0.8,0.5-1.2c0.1-0.6-0.1-1.1-0.5-1.5
		c-0.4-0.3-1-0.5-1.5-0.4H663L663,1252.7z M671.8,1261.2v-14.2h4.6c1.2,0,2.4,0.3,3.4,0.9c1,0.6,1.8,1.4,2.3,2.4
		c0.6,1.1,0.9,2.3,0.9,3.5v0.7c0,1.2-0.3,2.4-0.8,3.5c-0.5,1-1.3,1.9-2.3,2.4c-1,0.6-2.2,0.9-3.3,0.9L671.8,1261.2z M675.2,1249.6
		v8.9h1.2c0.9,0,1.7-0.3,2.3-1.1c0.6-0.9,0.9-2,0.8-3.1v-0.6c0.1-1.1-0.2-2.2-0.8-3.1c-0.5-0.7-1.4-1.1-2.3-1L675.2,1249.6z
		 M573,1284.3v4.8h-3.4v-14.2h5.7c1,0,2,0.2,2.9,0.6c0.8,0.4,1.5,1,1.9,1.7c0.5,0.8,0.7,1.6,0.7,2.5c0,1.3-0.5,2.5-1.5,3.3
		c-1.2,0.9-2.6,1.3-4.1,1.2L573,1284.3z M573,1281.7h2.2c0.6,0,1.1-0.1,1.5-0.5c0.4-0.4,0.6-0.9,0.5-1.4c0-0.6-0.2-1.1-0.5-1.6
		c-0.4-0.4-0.9-0.6-1.5-0.6H573V1281.7z M581.9,1283.8c0-1,0.2-1.9,0.6-2.8c0.4-0.8,1-1.5,1.8-1.9c0.8-0.5,1.8-0.7,2.7-0.7
		c1.4-0.1,2.8,0.5,3.7,1.5c1,1.1,1.4,2.5,1.4,4v0.1c0.1,1.4-0.4,2.8-1.4,3.9c-1,1-2.3,1.5-3.7,1.4c-1.3,0.1-2.7-0.4-3.6-1.4
		c-0.9-1-1.5-2.3-1.5-3.7L581.9,1283.8z M585.1,1284c-0.1,0.7,0.1,1.5,0.5,2.1c0.3,0.5,0.8,0.7,1.4,0.7c1.2,0,1.8-0.9,1.8-2.7v-0.3
		c0-1.9-0.6-2.8-1.8-2.8c-1.1,0-1.7,0.8-1.8,2.5L585.1,1284z M597,1289.2h-3.3v-15h3.3V1289.2z M603.2,1284.6l1.8-6h3.5l-4.3,12.3
		l-0.2,0.4c-0.5,1.3-1.8,2.1-3.2,2.1c-0.5,0-0.9-0.1-1.4-0.2v-2.3h0.4c0.4,0,0.7,0,1.1-0.2c0.3-0.2,0.5-0.4,0.5-0.7l0.3-0.7
		l-3.7-10.7h3.5L603.2,1284.6z M624.1,1284c0.1,1.4-0.3,2.8-1.1,4c-0.7,0.9-1.8,1.5-3,1.4c-1,0-2-0.5-2.6-1.3l-0.1,1.1h-3v-15h3.3
		v5.3c0.6-0.7,1.5-1.1,2.4-1c1.2-0.1,2.3,0.5,3,1.4c0.8,1.2,1.2,2.6,1.1,4L624.1,1284z M620.8,1283.8c0.1-0.7-0.1-1.5-0.4-2.2
		c-0.3-0.4-0.7-0.7-1.2-0.6c-0.6-0.1-1.2,0.3-1.5,0.8v4.2c0.3,0.6,0.9,0.9,1.6,0.8c0.7,0.1,1.3-0.4,1.5-1.1
		C620.8,1285,620.9,1284.4,620.8,1283.8L620.8,1283.8z M629.7,1284.6l1.8-6h3.5l-4.3,12.3l-0.2,0.4c-0.5,1.3-1.8,2.1-3.2,2.1
		c-0.5,0-0.9-0.1-1.4-0.2v-2.3h0.4c0.4,0,0.7,0,1.1-0.2c0.3-0.2,0.5-0.4,0.5-0.7l0.3-0.7l-3.7-10.7h3.5L629.7,1284.6z M644.4,1284.3
		v4.8H641v-14.2h5.7c1,0,2,0.2,2.9,0.6c0.8,0.4,1.5,1,1.9,1.7c0.5,0.8,0.7,1.6,0.7,2.5c0,1.3-0.5,2.5-1.5,3.3
		c-1.2,0.9-2.6,1.3-4.1,1.2H644.4z M644.4,1281.7h2.2c0.6,0,1.1-0.1,1.5-0.5c0.4-0.4,0.6-0.9,0.5-1.4c0-0.6-0.2-1.1-0.5-1.6
		c-0.4-0.4-0.9-0.6-1.5-0.6h-2.3L644.4,1281.7z M653.3,1283.8c0-1,0.2-1.9,0.6-2.8c0.4-0.8,1-1.5,1.8-1.9c0.8-0.5,1.8-0.7,2.7-0.7
		c1.4-0.1,2.8,0.5,3.7,1.5c1,1.1,1.4,2.5,1.4,4v0.1c0.1,1.4-0.4,2.8-1.4,3.9c-1,1-2.3,1.5-3.7,1.5c-1.3,0.1-2.7-0.4-3.6-1.4
		c-0.9-1-1.5-2.3-1.5-3.7L653.3,1283.8z M656.6,1284c-0.1,0.7,0.1,1.5,0.5,2.1c0.3,0.5,0.8,0.7,1.4,0.7c1.2,0,1.8-0.9,1.8-2.7v-0.3
		c0-1.9-0.6-2.8-1.8-2.8c-1.1,0-1.7,0.8-1.8,2.5L656.6,1284z M668.4,1289.2h-3.3v-15h3.3V1289.2z M674.7,1284.6l1.8-6h3.5l-4.3,12.3
		l-0.2,0.4c-0.5,1.3-1.8,2.1-3.2,2.1c-0.5,0-0.9-0.1-1.4-0.2v-2.3h0.4c0.4,0,0.7,0,1.1-0.2c0.3-0.2,0.5-0.4,0.5-0.7l0.3-0.7
		l-3.7-10.7h3.5L674.7,1284.6z"/>
	<path id="Trazado_195280" class="st21" d="M908.1,1246.9l3.2,9.9l3.2-9.9h4.5v14.2h-3.4v-3.3l0.3-6.8l-3.4,10.1h-2.3l-3.4-10.1
		l0.3,6.8v3.3h-3.4v-14.2H908.1z M920.5,1255.8c0-1,0.2-1.9,0.6-2.8c0.4-0.8,1-1.5,1.8-1.9c0.8-0.5,1.8-0.7,2.7-0.7
		c1.4-0.1,2.8,0.5,3.7,1.5c1,1.1,1.4,2.5,1.4,4v0.1c0.1,1.4-0.4,2.8-1.4,3.9c-1,1-2.3,1.5-3.7,1.5c-1.3,0.1-2.7-0.4-3.6-1.4
		c-0.9-1-1.5-2.3-1.5-3.7L920.5,1255.8z M923.8,1256c-0.1,0.7,0.1,1.5,0.5,2.1c0.3,0.5,0.8,0.7,1.4,0.7c1.2,0,1.8-0.9,1.8-2.7v-0.3
		c0-1.9-0.6-2.8-1.8-2.8c-1.1,0-1.7,0.8-1.8,2.5L923.8,1256z M931.7,1255.8c-0.1-1.4,0.3-2.8,1.1-4c0.7-1,1.8-1.5,3-1.4
		c0.9,0,1.8,0.4,2.4,1.1v-5.4h3.3v15h-3l-0.2-1.1c-0.6,0.8-1.6,1.3-2.6,1.3c-1.2,0-2.3-0.5-3-1.4
		C932,1258.7,931.7,1257.3,931.7,1255.8L931.7,1255.8z M935,1256c0,1.9,0.5,2.8,1.6,2.8c0.7,0,1.3-0.3,1.6-0.9v-4
		c-0.3-0.6-0.9-1-1.5-0.9c-1,0-1.6,0.8-1.7,2.5L935,1256z M948.5,1261.4c-1.5,0.1-2.9-0.5-3.9-1.4c-1-1-1.6-2.4-1.5-3.8v-0.3
		c0-1,0.2-2,0.6-2.9c0.4-0.8,1-1.5,1.8-1.9c0.8-0.5,1.8-0.7,2.7-0.7c1.3-0.1,2.6,0.4,3.5,1.4c0.9,1.1,1.4,2.5,1.3,3.9v1.3h-6.5
		c0.1,0.5,0.4,1,0.8,1.4c0.4,0.4,1,0.5,1.5,0.5c0.9,0,1.8-0.4,2.4-1.1l1.5,1.8c-0.5,0.6-1.1,1.1-1.7,1.4
		C950.2,1261.2,949.4,1261.4,948.5,1261.4z M948.2,1252.9c-1,0-1.5,0.6-1.7,1.9h3.3v-0.3c0-0.4-0.1-0.9-0.4-1.2
		C949,1253.1,948.6,1252.9,948.2,1252.9L948.2,1252.9z M957.8,1261.2h-3.3v-15h3.3V1261.2z M965.8,1261.2c-0.1-0.3-0.3-0.6-0.3-0.9
		c-0.6,0.8-1.6,1.2-2.5,1.1c-0.9,0-1.8-0.3-2.5-0.9c-0.7-0.6-1.1-1.4-1-2.3c-0.1-1,0.4-2,1.3-2.6c1.1-0.7,2.4-1,3.7-0.9h1v-0.6
		c0-1-0.4-1.5-1.3-1.5c-0.6-0.1-1.1,0.3-1.2,0.9c0,0.1,0,0.2,0,0.3h-3.3c0-1,0.5-1.9,1.3-2.5c1-0.7,2.1-1,3.3-1
		c1.1-0.1,2.3,0.3,3.2,1c0.8,0.7,1.2,1.7,1.2,2.7v4.7c0,0.8,0.1,1.5,0.4,2.2v0.2H965.8z M963.7,1259c0.4,0,0.7-0.1,1-0.3
		c0.2-0.1,0.4-0.4,0.6-0.6v-1.7h-1c-1.1,0-1.7,0.5-1.7,1.5c0,0.3,0.1,0.5,0.3,0.7C963.1,1258.9,963.4,1259,963.7,1259z M970,1255.8
		c-0.1-1.4,0.3-2.8,1.1-4c0.7-1,1.8-1.5,3-1.4c0.9,0,1.8,0.4,2.4,1.1v-5.4h3.3v15h-3l-0.2-1.1c-0.6,0.8-1.5,1.3-2.6,1.3
		c-1.2,0-2.3-0.5-3-1.4C970.3,1258.7,969.9,1257.3,970,1255.8z M973.3,1256c0,1.9,0.5,2.8,1.6,2.8c0.7,0,1.3-0.3,1.6-0.9v-4
		c-0.3-0.6-0.9-1-1.5-0.9c-1,0-1.6,0.8-1.7,2.5L973.3,1256z M981.2,1255.8c0-1,0.2-1.9,0.6-2.8c0.4-0.8,1-1.5,1.8-1.9
		c0.8-0.5,1.8-0.7,2.7-0.7c1.4-0.1,2.8,0.5,3.7,1.5c1,1.1,1.4,2.5,1.4,4v0.1c0.1,1.4-0.4,2.8-1.4,3.9c-1,1-2.3,1.5-3.7,1.4
		c-1.3,0.1-2.7-0.4-3.6-1.4c-0.9-1-1.5-2.3-1.5-3.7L981.2,1255.8z M984.5,1256c-0.1,0.7,0.1,1.5,0.5,2.1c0.3,0.5,0.8,0.7,1.4,0.7
		c1.2,0,1.8-0.9,1.8-2.7v-0.3c0-1.9-0.6-2.8-1.8-2.8c-1.1,0-1.7,0.8-1.8,2.5L984.5,1256z M1002.3,1258.8c0.4,0,0.8-0.1,1.1-0.4
		c0.3-0.3,0.4-0.7,0.4-1.1h3.1c0,1.1-0.4,2.1-1.2,2.9c-0.9,0.8-2,1.2-3.2,1.1c-1.4,0.1-2.7-0.5-3.6-1.4c-0.9-1.1-1.4-2.5-1.3-4v-0.1
		c0-1,0.2-1.9,0.6-2.8c0.4-0.8,1-1.4,1.7-1.9c0.8-0.5,1.7-0.7,2.6-0.7c1.2-0.1,2.4,0.3,3.3,1.1c0.8,0.8,1.3,1.9,1.2,3.1h-3.1
		c0-0.5-0.1-0.9-0.4-1.3c-0.3-0.3-0.7-0.5-1.1-0.4c-0.9,0-1.4,0.5-1.5,1.6c-0.1,0.5-0.1,0.9-0.1,1.4c-0.1,0.8,0.1,1.5,0.4,2.2
		C1001.4,1258.6,1001.9,1258.9,1002.3,1258.8L1002.3,1258.8z M1007.8,1255.8c0-1,0.2-1.9,0.6-2.8c0.4-0.8,1-1.5,1.8-1.9
		c0.8-0.5,1.8-0.7,2.7-0.7c1.4-0.1,2.8,0.5,3.7,1.5c1,1.1,1.4,2.5,1.4,4v0.1c0.1,1.4-0.4,2.8-1.4,3.9c-1,1-2.3,1.5-3.7,1.4
		c-1.3,0.1-2.7-0.4-3.6-1.4c-0.9-1-1.5-2.3-1.5-3.7L1007.8,1255.8z M1011.1,1256c-0.1,0.7,0.1,1.5,0.5,2.1c0.3,0.5,0.8,0.7,1.4,0.7
		c1.2,0,1.8-0.9,1.8-2.7v-0.3c0-1.9-0.6-2.8-1.8-2.8c-1.1,0-1.7,0.8-1.8,2.5L1011.1,1256z M1022.5,1250.6l0.1,1.2
		c0.7-0.9,1.8-1.5,3-1.4c0.9-0.1,1.8,0.3,2.5,1c0.6,0.9,0.9,1.9,0.8,3v6.8h-3.3v-6.7c0-0.4-0.1-0.8-0.3-1.2
		c-0.3-0.3-0.7-0.4-1.2-0.4c-0.6,0-1.1,0.3-1.4,0.8v7.5h-3.3v-10.6L1022.5,1250.6z M884.4,1289.4c-1.5,0.1-2.9-0.5-3.9-1.4
		c-1-1-1.6-2.4-1.5-3.8v-0.3c0-1,0.2-2,0.6-2.9c0.4-0.8,1-1.5,1.8-1.9c0.8-0.5,1.8-0.7,2.7-0.7c1.3-0.1,2.6,0.4,3.5,1.4
		c0.9,1.1,1.4,2.5,1.3,3.9v1.3h-6.5c0.1,0.5,0.4,1,0.8,1.4c0.4,0.4,1,0.5,1.5,0.5c0.9,0,1.8-0.4,2.4-1.1l1.5,1.8
		c-0.5,0.6-1.1,1.1-1.7,1.4C886.1,1289.2,885.3,1289.4,884.4,1289.4z M884.1,1280.9c-1,0-1.5,0.6-1.7,1.9h3.3v-0.3
		c0-0.4-0.1-0.9-0.4-1.2C884.9,1281.1,884.5,1280.9,884.1,1280.9L884.1,1280.9z M895.7,1286.2c0-0.3-0.2-0.6-0.4-0.7
		c-0.5-0.2-1.1-0.4-1.7-0.5c-0.7-0.1-1.4-0.4-2-0.7c-0.5-0.3-0.9-0.6-1.2-1.1c-0.3-0.4-0.4-0.9-0.4-1.5c0-0.9,0.4-1.8,1.2-2.4
		c0.9-0.7,2-1,3.1-0.9c1.2-0.1,2.4,0.3,3.4,0.9c0.8,0.6,1.3,1.5,1.3,2.5h-3.3c0-0.8-0.4-1.3-1.3-1.3c-0.3,0-0.6,0.1-0.9,0.3
		c-0.2,0.2-0.4,0.4-0.4,0.7c0,0.3,0.2,0.6,0.4,0.7c0.4,0.2,0.9,0.4,1.4,0.4c0.6,0.1,1.1,0.2,1.7,0.4c1.4,0.3,2.4,1.5,2.4,2.9
		c0,1-0.5,1.8-1.3,2.4c-1,0.6-2.1,1-3.3,0.9c-0.8,0-1.7-0.2-2.4-0.5c-0.7-0.3-1.2-0.7-1.7-1.3c-0.4-0.5-0.6-1.1-0.6-1.8h3.1
		c0,0.4,0.2,0.8,0.5,1.1c0.4,0.2,0.8,0.4,1.2,0.3c0.4,0,0.7-0.1,1-0.3C895.6,1286.7,895.7,1286.5,895.7,1286.2L895.7,1286.2z
		 M904.9,1286.8c0.4,0,0.8-0.1,1.1-0.4c0.3-0.3,0.4-0.7,0.4-1.1h3.1c0,1.1-0.4,2.1-1.2,2.9c-0.9,0.8-2,1.2-3.2,1.1
		c-1.4,0.1-2.7-0.5-3.6-1.4c-0.9-1.1-1.4-2.5-1.3-4v-0.1c0-1,0.2-1.9,0.6-2.8c0.4-0.8,1-1.4,1.7-1.9c0.8-0.5,1.7-0.7,2.6-0.7
		c1.2-0.1,2.4,0.3,3.3,1.1c0.8,0.8,1.3,1.9,1.2,3.1h-3.1c0-0.5-0.1-0.9-0.4-1.3c-0.3-0.3-0.7-0.5-1.1-0.4c-0.9,0-1.4,0.5-1.5,1.6
		c-0.1,0.5-0.1,0.9-0.1,1.4c-0.1,0.8,0.1,1.5,0.4,2.2C904,1286.6,904.4,1286.9,904.9,1286.8L904.9,1286.8z M917.1,1288
		c-0.7,0.9-1.7,1.4-2.8,1.3c-1,0.1-1.9-0.3-2.6-1c-0.6-0.8-1-1.9-0.9-2.9v-6.9h3.3v6.9c-0.1,0.6,0.3,1.3,1,1.4c0.1,0,0.2,0,0.3,0
		c0.6,0.1,1.3-0.3,1.6-0.8v-7.4h3.3v10.6h-3.1L917.1,1288z M925.6,1289.2h-3.3v-15h3.3V1289.2z M931.5,1276v2.6h1.7v2.3h-1.7v4.8
		c0,0.3,0,0.6,0.2,0.8c0.2,0.2,0.5,0.3,0.9,0.2c0.3,0,0.5,0,0.8-0.1v2.4c-0.6,0.2-1.2,0.3-1.9,0.3c-0.9,0.1-1.8-0.2-2.5-0.8
		c-0.6-0.7-0.9-1.5-0.8-2.4v-5.2h-1.3v-2.3h1.3v-2.6H931.5z M940.8,1288c-0.7,0.9-1.7,1.4-2.8,1.3c-1,0.1-1.9-0.3-2.6-1
		c-0.6-0.8-1-1.9-0.9-2.9v-6.9h3.3v6.9c-0.1,0.6,0.3,1.3,1,1.4c0.1,0,0.2,0,0.3,0c0.6,0.1,1.3-0.3,1.6-0.8v-7.4h3.3v10.6h-3.1
		L940.8,1288z M952.2,1281.6l-1.1-0.1c-0.8-0.1-1.6,0.3-2,1v6.7h-3.3v-10.6h3.1l0.1,1.4c0.4-0.9,1.3-1.5,2.3-1.6
		c0.3,0,0.6,0,0.9,0.1L952.2,1281.6z M959,1289.2c-0.1-0.3-0.3-0.6-0.3-0.9c-0.6,0.8-1.6,1.2-2.5,1.1c-0.9,0-1.8-0.3-2.5-0.9
		c-0.7-0.6-1.1-1.4-1-2.3c-0.1-1,0.4-2,1.3-2.6c1.1-0.7,2.4-1,3.7-0.9h1v-0.6c0-1-0.4-1.5-1.3-1.5c-0.6-0.1-1.1,0.3-1.2,0.9
		c0,0.1,0,0.2,0,0.3h-3.3c0-1,0.5-1.9,1.3-2.5c1-0.7,2.1-1,3.3-1c1.1-0.1,2.3,0.3,3.2,1c0.8,0.7,1.2,1.7,1.2,2.7v4.7
		c0,0.8,0.1,1.5,0.4,2.2v0.2H959z M956.9,1287c0.4,0,0.7-0.1,1-0.3c0.2-0.1,0.4-0.4,0.6-0.6v-1.7h-1c-1.1,0-1.7,0.5-1.7,1.5
		c0,0.3,0.1,0.5,0.3,0.7C956.4,1286.9,956.7,1287,956.9,1287z M968.2,1283.8c-0.1-1.4,0.3-2.8,1.1-4c0.7-1,1.8-1.5,3-1.4
		c0.9,0,1.8,0.4,2.4,1.1v-5.4h3.3v15h-3l-0.2-1.1c-0.6,0.8-1.6,1.3-2.6,1.3c-1.2,0-2.3-0.5-3-1.4
		C968.5,1286.7,968.1,1285.3,968.2,1283.8L968.2,1283.8z M971.5,1284c0,1.9,0.5,2.8,1.6,2.8c0.7,0,1.3-0.3,1.6-0.9v-4
		c-0.3-0.6-0.9-1-1.5-0.9c-1,0-1.6,0.8-1.7,2.5L971.5,1284z M983.4,1289.2h-3.3v-10.6h3.3V1289.2z M979.9,1275.9
		c0-0.4,0.2-0.9,0.5-1.2c0.8-0.6,1.9-0.6,2.6,0c0.6,0.6,0.7,1.6,0.1,2.2c0,0-0.1,0.1-0.1,0.1c-0.8,0.6-1.9,0.6-2.6,0
		C980,1276.7,979.9,1276.3,979.9,1275.9z M985,1283.8c0-1,0.2-1.9,0.5-2.8c0.3-0.8,0.8-1.4,1.5-1.9c0.7-0.5,1.5-0.7,2.3-0.7
		c1-0.1,1.9,0.4,2.6,1.1l0.1-0.9h3v10.2c0,0.9-0.2,1.7-0.6,2.4c-0.5,0.7-1.1,1.3-1.9,1.6c-0.9,0.4-1.9,0.6-2.9,0.6
		c-0.8,0-1.5-0.1-2.3-0.4c-0.6-0.2-1.2-0.6-1.7-1.1l1.4-1.9c0.6,0.7,1.5,1.1,2.4,1.1c1.1,0.1,2.1-0.6,2.2-1.7c0-0.2,0-0.4,0-0.6
		v-0.3c-0.6,0.7-1.5,1.1-2.4,1c-1.2,0-2.4-0.5-3.1-1.5c-0.8-1.1-1.3-2.5-1.2-4V1283.8z M988.3,1284c0,0.7,0.1,1.4,0.5,2.1
		c0.3,0.5,0.8,0.8,1.4,0.8c0.6,0,1.2-0.2,1.6-0.7v-4.4c-0.3-0.5-0.9-0.8-1.5-0.7c-0.6,0-1.1,0.3-1.4,0.8
		C988.4,1282.4,988.3,1283.2,988.3,1284L988.3,1284z M1000.4,1289.2h-3.3v-10.6h3.3V1289.2z M996.9,1275.9c0-0.4,0.2-0.9,0.5-1.2
		c0.8-0.6,1.9-0.6,2.6,0c0.6,0.6,0.7,1.6,0.1,2.2c0,0-0.1,0.1-0.1,0.1c-0.8,0.6-1.9,0.6-2.6,0C997,1276.7,996.9,1276.3,996.9,1275.9
		z M1006.2,1276v2.6h1.7v2.3h-1.7v4.8c0,0.3,0,0.6,0.2,0.8c0.2,0.2,0.5,0.3,0.9,0.2c0.3,0,0.5,0,0.8-0.1v2.4
		c-0.6,0.2-1.2,0.3-1.9,0.3c-0.9,0.1-1.8-0.2-2.5-0.8c-0.6-0.7-0.9-1.5-0.8-2.4v-5.2h-1.4v-2.3h1.3v-2.6H1006.2z M1015.2,1289.2
		c-0.1-0.3-0.3-0.6-0.3-0.9c-0.6,0.8-1.6,1.2-2.5,1.1c-0.9,0-1.8-0.3-2.5-0.9c-0.7-0.6-1.1-1.4-1-2.3c-0.1-1,0.4-2,1.3-2.6
		c1.1-0.7,2.4-1,3.7-0.9h1v-0.6c0-1-0.4-1.5-1.3-1.5c-0.6-0.1-1.1,0.3-1.2,0.9c0,0.1,0,0.2,0,0.3h-3.3c0-1,0.5-1.9,1.3-2.5
		c1-0.7,2.1-1,3.3-1c1.1-0.1,2.3,0.3,3.2,1c0.8,0.7,1.2,1.7,1.2,2.7v4.7c0,0.8,0.1,1.5,0.4,2.2v0.2H1015.2z M1013.1,1287
		c0.4,0,0.7-0.1,1-0.3c0.2-0.1,0.4-0.4,0.6-0.6v-1.7h-1c-1.1,0-1.7,0.5-1.7,1.5c0,0.3,0.1,0.5,0.3,0.7
		C1012.6,1286.9,1012.9,1287,1013.1,1287z M1023.3,1289.2h-3.3v-15h3.3V1289.2z M1033.3,1280.7h1.6c0.9,0.1,1.7-0.5,1.8-1.3
		c0-0.2,0-0.3,0-0.5c0-0.4-0.1-0.8-0.4-1.1c-0.3-0.3-0.8-0.5-1.2-0.4c-0.4,0-0.8,0.1-1.1,0.4c-0.3,0.2-0.5,0.6-0.5,0.9h-3.3
		c0-0.7,0.2-1.4,0.6-2c0.4-0.6,1-1.1,1.7-1.4c0.8-0.3,1.6-0.5,2.4-0.5c1.3-0.1,2.6,0.3,3.7,1.1c0.9,0.7,1.4,1.8,1.4,3
		c0,0.6-0.2,1.2-0.6,1.7c-0.4,0.6-1,1-1.6,1.3c0.7,0.2,1.3,0.7,1.8,1.2c0.4,0.6,0.7,1.3,0.6,2.1c0,1.2-0.5,2.3-1.5,3
		c-1.1,0.8-2.5,1.2-3.8,1.1c-0.9,0-1.8-0.2-2.6-0.5c-0.7-0.3-1.4-0.8-1.8-1.5c-0.4-0.6-0.6-1.4-0.6-2.1h3.3c0,0.4,0.2,0.9,0.5,1.1
		c0.4,0.3,0.8,0.5,1.3,0.5c0.5,0,1-0.1,1.4-0.5c0.3-0.3,0.5-0.8,0.5-1.2c0.1-0.6-0.1-1.1-0.5-1.5c-0.4-0.3-1-0.5-1.5-0.4h-1.6
		L1033.3,1280.7z M1042.1,1289.2v-14.2h4.6c1.2,0,2.4,0.3,3.4,0.9c1,0.6,1.8,1.4,2.3,2.4c0.6,1.1,0.9,2.3,0.9,3.5v0.7
		c0,1.2-0.3,2.4-0.8,3.5c-0.5,1-1.3,1.9-2.3,2.4c-1,0.6-2.2,0.9-3.3,0.9H1042.1z M1045.5,1277.6v8.9h1.2c0.9,0,1.7-0.3,2.3-1.1
		c0.6-0.9,0.9-2,0.8-3.1v-0.6c0.1-1.1-0.2-2.2-0.8-3.1c-0.5-0.7-1.4-1.1-2.3-1L1045.5,1277.6z"/>
	<path id="Trazado_195281" class="st21" d="M1237.3,1246.9l3.2,9.9l3.2-9.9h4.5v14.2h-3.4v-3.3l0.3-6.8l-3.4,10.1h-2.3l-3.4-10.1
		l0.3,6.8v3.3h-3.4v-14.2H1237.3z M1249.8,1255.8c0-1,0.2-1.9,0.6-2.8c0.4-0.8,1-1.5,1.8-1.9c0.8-0.5,1.8-0.7,2.7-0.7
		c1.4-0.1,2.8,0.5,3.7,1.5c1,1.1,1.4,2.5,1.4,4v0.1c0.1,1.4-0.4,2.8-1.4,3.9c-1,1-2.3,1.5-3.7,1.4c-1.3,0.1-2.7-0.4-3.6-1.4
		c-0.9-1-1.5-2.3-1.5-3.7L1249.8,1255.8z M1253.1,1256c-0.1,0.7,0.1,1.5,0.5,2.1c0.3,0.5,0.8,0.7,1.4,0.7c1.2,0,1.8-0.9,1.8-2.7
		v-0.3c0-1.9-0.6-2.8-1.8-2.8c-1.1,0-1.7,0.8-1.8,2.5L1253.1,1256z M1261,1255.8c-0.1-1.4,0.3-2.8,1.1-4c0.7-1,1.8-1.5,3-1.4
		c0.9,0,1.8,0.4,2.4,1.1v-5.4h3.3v15h-3l-0.2-1.1c-0.6,0.8-1.5,1.3-2.6,1.3c-1.2,0-2.3-0.5-3-1.4
		C1261.3,1258.7,1260.9,1257.3,1261,1255.8L1261,1255.8z M1264.3,1256c0,1.9,0.5,2.8,1.6,2.8c0.7,0,1.3-0.3,1.6-0.9v-4
		c-0.3-0.6-0.9-1-1.5-0.9c-1,0-1.6,0.8-1.7,2.5L1264.3,1256z M1277.8,1261.4c-1.5,0.1-2.9-0.5-3.9-1.4c-1-1-1.6-2.4-1.5-3.8v-0.3
		c0-1,0.2-2,0.6-2.9c0.4-0.8,1-1.5,1.8-1.9c0.8-0.5,1.8-0.7,2.7-0.7c1.3-0.1,2.6,0.4,3.5,1.4c0.9,1.1,1.4,2.5,1.3,3.9v1.3h-6.5
		c0.1,0.5,0.4,1,0.8,1.4c0.4,0.4,1,0.5,1.5,0.5c0.9,0,1.8-0.4,2.4-1.1l1.5,1.8c-0.4,0.6-1.1,1.1-1.7,1.4
		C1279.4,1261.2,1278.6,1261.4,1277.8,1261.4z M1277.4,1252.9c-1,0-1.5,0.6-1.7,1.9h3.3v-0.3c0-0.4-0.1-0.9-0.4-1.2
		C1278.3,1253.1,1277.9,1252.9,1277.4,1252.9L1277.4,1252.9z M1287,1261.2h-3.3v-15h3.3V1261.2z M1295,1261.2
		c-0.1-0.3-0.3-0.6-0.3-0.9c-0.6,0.8-1.6,1.2-2.5,1.1c-0.9,0-1.8-0.3-2.5-0.9c-0.7-0.6-1.1-1.4-1-2.3c-0.1-1,0.4-2,1.3-2.6
		c1.1-0.7,2.4-1,3.7-0.9h1v-0.6c0-1-0.4-1.5-1.3-1.5c-0.6-0.1-1.1,0.3-1.2,0.9c0,0.1,0,0.2,0,0.3h-3.3c0-1,0.5-1.9,1.3-2.5
		c1-0.7,2.1-1,3.3-1c1.1-0.1,2.3,0.3,3.2,1c0.8,0.7,1.2,1.7,1.2,2.7v4.7c0,0.8,0.1,1.5,0.4,2.2v0.2H1295z M1292.9,1259
		c0.4,0,0.7-0.1,1-0.3c0.2-0.1,0.4-0.4,0.6-0.6v-1.7h-1c-1.1,0-1.7,0.5-1.7,1.5c0,0.3,0.1,0.5,0.3,0.7
		C1292.4,1258.9,1292.7,1259,1292.9,1259z M1299.3,1255.8c-0.1-1.4,0.3-2.8,1.1-4c0.7-1,1.8-1.5,3-1.4c0.9,0,1.8,0.4,2.4,1.1v-5.4
		h3.3v15h-3l-0.2-1.1c-0.6,0.8-1.6,1.3-2.6,1.3c-1.2,0-2.3-0.5-3-1.4C1299.5,1258.7,1299.2,1257.3,1299.3,1255.8z M1302.5,1256
		c0,1.9,0.5,2.8,1.6,2.8c0.7,0,1.3-0.3,1.6-0.9v-4c-0.3-0.6-0.9-1-1.5-0.9c-1,0-1.6,0.8-1.7,2.5L1302.5,1256z M1310.5,1255.8
		c0-1,0.2-1.9,0.6-2.8c0.4-0.8,1-1.5,1.8-1.9c0.8-0.5,1.8-0.7,2.7-0.7c1.4-0.1,2.8,0.5,3.7,1.5c1,1.1,1.4,2.5,1.4,4v0.1
		c0.1,1.4-0.4,2.8-1.4,3.9c-1,1-2.3,1.5-3.7,1.4c-1.3,0.1-2.7-0.4-3.6-1.4c-0.9-1-1.5-2.3-1.5-3.7L1310.5,1255.8z M1313.8,1256
		c-0.1,0.7,0.1,1.5,0.5,2.1c0.3,0.5,0.8,0.7,1.4,0.7c1.2,0,1.8-0.9,1.8-2.7v-0.3c0-1.9-0.6-2.8-1.8-2.8c-1.1,0-1.7,0.8-1.8,2.5
		L1313.8,1256z M1330.1,1252.7h1.6c0.9,0.1,1.7-0.5,1.8-1.3c0-0.2,0-0.3,0-0.5c0-0.4-0.1-0.8-0.4-1.1c-0.3-0.3-0.8-0.5-1.2-0.4
		c-0.4,0-0.8,0.1-1.1,0.4c-0.3,0.2-0.5,0.6-0.5,0.9h-3.3c0-0.7,0.2-1.4,0.6-2c0.4-0.6,1-1.1,1.7-1.4c0.8-0.3,1.6-0.5,2.4-0.5
		c1.3-0.1,2.6,0.3,3.7,1.1c0.9,0.7,1.4,1.8,1.4,3c0,0.6-0.2,1.2-0.6,1.7c-0.4,0.6-1,1-1.6,1.3c0.7,0.2,1.3,0.7,1.8,1.2
		c0.4,0.6,0.7,1.3,0.6,2.1c0,1.2-0.5,2.3-1.5,3c-1.1,0.8-2.5,1.2-3.8,1.1c-0.9,0-1.8-0.2-2.6-0.5c-0.7-0.3-1.4-0.8-1.8-1.5
		c-0.4-0.6-0.6-1.4-0.6-2.1h3.3c0,0.4,0.2,0.9,0.5,1.1c0.4,0.3,0.8,0.5,1.3,0.5c0.5,0,1-0.1,1.4-0.5c0.3-0.3,0.5-0.8,0.5-1.2
		c0.1-0.6-0.1-1.1-0.5-1.5c-0.4-0.3-1-0.5-1.5-0.4h-1.6L1330.1,1252.7z M1338.9,1261.2v-14.2h4.6c1.2,0,2.4,0.3,3.4,0.9
		c1,0.6,1.8,1.4,2.3,2.4c0.6,1.1,0.9,2.3,0.9,3.5v0.7c0,1.2-0.3,2.4-0.8,3.5c-0.5,1-1.3,1.9-2.3,2.4c-1,0.6-2.2,0.9-3.3,0.9
		L1338.9,1261.2z M1342.3,1249.6v8.9h1.2c0.9,0,1.7-0.3,2.3-1.1c0.6-0.9,0.9-2,0.8-3.1v-0.6c0.1-1.1-0.2-2.2-0.8-3.1
		c-0.5-0.7-1.4-1.1-2.3-1L1342.3,1249.6z M1361.1,1258.8c0.4,0,0.8-0.1,1.1-0.4c0.3-0.3,0.4-0.7,0.4-1.1h3.1c0,1.1-0.4,2.1-1.2,2.9
		c-0.9,0.8-2,1.2-3.2,1.1c-1.4,0.1-2.7-0.5-3.6-1.4c-0.9-1.1-1.4-2.5-1.3-4v-0.1c0-1,0.2-1.9,0.6-2.8c0.4-0.8,1-1.4,1.7-1.9
		c0.8-0.5,1.7-0.7,2.6-0.7c1.2-0.1,2.4,0.3,3.3,1.1c0.8,0.8,1.3,1.9,1.2,3.1h-3.1c0-0.5-0.1-0.9-0.4-1.3c-0.3-0.3-0.7-0.5-1.1-0.4
		c-0.9,0-1.4,0.5-1.5,1.6c-0.1,0.5-0.1,0.9-0.1,1.4c-0.1,0.8,0.1,1.5,0.4,2.2C1360.1,1258.6,1360.6,1258.9,1361.1,1258.8
		L1361.1,1258.8z M1366.6,1255.8c0-1,0.2-1.9,0.6-2.8c0.4-0.8,1-1.5,1.8-1.9c0.8-0.5,1.8-0.7,2.7-0.7c1.4-0.1,2.8,0.5,3.7,1.5
		c1,1.1,1.4,2.5,1.4,4v0.1c0.1,1.4-0.4,2.8-1.4,3.9c-1,1-2.3,1.5-3.7,1.5c-1.3,0.1-2.7-0.4-3.6-1.4c-0.9-1-1.5-2.3-1.5-3.7
		L1366.6,1255.8z M1369.9,1256c-0.1,0.7,0.1,1.5,0.5,2.1c0.3,0.5,0.8,0.7,1.4,0.7c1.2,0,1.8-0.9,1.8-2.7v-0.3c0-1.9-0.6-2.8-1.8-2.8
		c-1.1,0-1.7,0.8-1.8,2.5L1369.9,1256z M1381.3,1250.6l0.1,1.2c0.7-0.9,1.8-1.5,3-1.4c0.9-0.1,1.8,0.3,2.5,1c0.6,0.9,0.9,1.9,0.8,3
		v6.8h-3.3v-6.7c0-0.4-0.1-0.8-0.3-1.2c-0.3-0.3-0.7-0.4-1.2-0.4c-0.6,0-1.1,0.3-1.4,0.8v7.5h-3.3v-10.6H1381.3z M1259.5,1281.6
		l-1.1-0.1c-0.8-0.1-1.6,0.3-2,1v6.7h-3.3v-10.6h3.1l0.1,1.4c0.4-0.9,1.3-1.5,2.3-1.6c0.3,0,0.6,0,0.9,0.1L1259.5,1281.6z
		 M1265.7,1289.4c-1.5,0.1-2.9-0.5-3.9-1.4c-1-1-1.6-2.4-1.5-3.8v-0.3c0-1,0.2-2,0.6-2.9c0.4-0.8,1-1.5,1.7-1.9
		c0.8-0.5,1.8-0.7,2.7-0.7c1.3-0.1,2.6,0.4,3.5,1.4c0.9,1.1,1.4,2.5,1.3,3.9v1.3h-6.5c0.1,0.5,0.4,1,0.8,1.4c0.4,0.4,1,0.5,1.5,0.5
		c0.9,0,1.8-0.4,2.4-1.1l1.5,1.8c-0.5,0.6-1.1,1.1-1.7,1.4C1267.3,1289.2,1266.5,1289.4,1265.7,1289.4z M1265.3,1280.9
		c-1,0-1.5,0.6-1.7,1.9h3.3v-0.3c0-0.4-0.1-0.9-0.4-1.2C1266.2,1281.1,1265.7,1280.9,1265.3,1280.9L1265.3,1280.9z M1275.5,1285.2
		l1.7-6.7h3.5l-3.4,10.6h-3.4l-3.4-10.6h3.5L1275.5,1285.2z M1281.1,1283.8c0-1,0.2-1.9,0.6-2.8c0.4-0.8,1-1.5,1.8-1.9
		c0.8-0.5,1.8-0.7,2.7-0.7c1.4-0.1,2.8,0.5,3.7,1.5c1,1.1,1.4,2.5,1.4,4v0.1c0.1,1.4-0.4,2.8-1.4,3.9c-1,1-2.3,1.5-3.7,1.5
		c-1.3,0.1-2.7-0.4-3.6-1.4c-0.9-1-1.5-2.3-1.5-3.7L1281.1,1283.8z M1284.4,1284c-0.1,0.7,0.1,1.5,0.5,2.1c0.3,0.5,0.8,0.7,1.4,0.7
		c1.2,0,1.8-0.9,1.8-2.7v-0.3c0-1.9-0.6-2.8-1.8-2.8c-1.1,0-1.7,0.8-1.8,2.5L1284.4,1284z M1296.2,1289.2h-3.3v-15h3.3V1289.2z
		 M1304.5,1288c-0.7,0.9-1.7,1.4-2.8,1.3c-1,0.1-1.9-0.3-2.6-1c-0.6-0.8-1-1.9-0.9-2.9v-6.9h3.3v6.9c-0.1,0.6,0.3,1.3,1,1.4
		c0.1,0,0.2,0,0.3,0c0.6,0.1,1.3-0.3,1.6-0.8v-7.4h3.3v10.6h-3.1L1304.5,1288z M1314,1286.8c0.4,0,0.8-0.1,1.1-0.4
		c0.3-0.3,0.4-0.7,0.4-1.1h3.1c0,1.1-0.4,2.1-1.2,2.9c-0.9,0.8-2,1.2-3.2,1.1c-1.4,0.1-2.7-0.5-3.6-1.4c-0.9-1.1-1.4-2.5-1.3-4v-0.1
		c0-1,0.2-1.9,0.6-2.8c0.4-0.8,1-1.4,1.7-1.9c0.8-0.5,1.7-0.7,2.6-0.7c1.2-0.1,2.4,0.3,3.3,1.1c0.8,0.8,1.3,1.9,1.2,3.1h-3.1
		c0-0.5-0.1-0.9-0.4-1.3c-0.3-0.3-0.7-0.5-1.1-0.4c-0.9,0-1.4,0.5-1.5,1.6c-0.1,0.5-0.1,0.9-0.1,1.4c-0.1,0.8,0.1,1.5,0.4,2.2
		C1313,1286.6,1313.5,1286.9,1314,1286.8L1314,1286.8z M1323.4,1289.2h-3.3v-10.6h3.3V1289.2z M1319.9,1275.9c0-0.4,0.2-0.9,0.5-1.2
		c0.8-0.6,1.9-0.6,2.6,0c0.6,0.6,0.7,1.6,0.1,2.2c0,0-0.1,0.1-0.1,0.1c-0.8,0.6-1.9,0.6-2.6,0
		C1320,1276.7,1319.9,1276.3,1319.9,1275.9z M1325,1283.8c0-1,0.2-1.9,0.6-2.8c0.4-0.8,1-1.5,1.8-1.9c0.8-0.5,1.8-0.7,2.7-0.7
		c1.4-0.1,2.8,0.5,3.7,1.5c1,1.1,1.4,2.5,1.4,4v0.1c0.1,1.4-0.4,2.8-1.4,3.9c-1,1-2.3,1.5-3.7,1.4c-1.3,0.1-2.7-0.4-3.6-1.4
		c-0.9-1-1.5-2.3-1.5-3.7L1325,1283.8z M1328.3,1284c-0.1,0.7,0.1,1.5,0.5,2.1c0.3,0.5,0.8,0.7,1.4,0.7c1.2,0,1.8-0.9,1.8-2.7v-0.3
		c0-1.9-0.6-2.8-1.8-2.8c-1.1,0-1.7,0.8-1.8,2.5L1328.3,1284z M1339.6,1278.6l0.1,1.2c0.7-0.9,1.8-1.5,3-1.4c0.9-0.1,1.8,0.3,2.5,1
		c0.6,0.9,0.9,1.9,0.8,3v6.8h-3.3v-6.7c0-0.4-0.1-0.8-0.3-1.2c-0.3-0.3-0.7-0.4-1.2-0.4c-0.6,0-1.1,0.3-1.4,0.8v7.5h-3.3v-10.6
		H1339.6z M1353,1289.4c-1.5,0.1-2.9-0.5-3.9-1.4c-1-1-1.6-2.4-1.5-3.8v-0.3c0-1,0.2-2,0.6-2.9c0.4-0.8,1-1.5,1.8-1.9
		c0.8-0.5,1.8-0.7,2.7-0.7c1.3-0.1,2.6,0.4,3.5,1.4c0.9,1.1,1.4,2.5,1.3,3.9v1.3h-6.5c0.1,0.5,0.4,1,0.8,1.4c0.4,0.4,1,0.5,1.5,0.5
		c0.9,0,1.8-0.4,2.4-1.1l1.5,1.8c-0.5,0.6-1.1,1.1-1.7,1.4C1354.7,1289.2,1353.8,1289.4,1353,1289.4z M1352.6,1280.9
		c-1,0-1.5,0.6-1.7,1.9h3.3v-0.3c0-0.4-0.1-0.9-0.4-1.2C1353.5,1281.1,1353.1,1280.9,1352.6,1280.9L1352.6,1280.9z M1364.3,1286.2
		c0-0.3-0.2-0.6-0.4-0.7c-0.5-0.2-1.1-0.4-1.7-0.5c-0.7-0.1-1.4-0.4-2-0.7c-0.5-0.3-0.9-0.6-1.2-1.1c-0.3-0.4-0.4-0.9-0.4-1.5
		c0-0.9,0.4-1.8,1.2-2.4c0.9-0.7,2-1,3.1-0.9c1.2-0.1,2.4,0.3,3.4,0.9c0.8,0.6,1.3,1.5,1.3,2.5h-3.3c0-0.8-0.4-1.3-1.3-1.3
		c-0.3,0-0.6,0.1-0.9,0.3c-0.2,0.2-0.4,0.4-0.4,0.7c0,0.3,0.2,0.6,0.4,0.7c0.4,0.2,0.9,0.4,1.4,0.4c0.6,0.1,1.1,0.2,1.7,0.4
		c1.4,0.3,2.4,1.5,2.4,2.9c0,1-0.5,1.8-1.3,2.4c-1,0.6-2.1,1-3.3,0.9c-0.8,0-1.7-0.2-2.4-0.5c-0.7-0.3-1.2-0.7-1.7-1.3
		c-0.4-0.5-0.6-1.1-0.6-1.8h3.1c0,0.4,0.2,0.8,0.5,1.1c0.4,0.2,0.8,0.4,1.2,0.3c0.4,0,0.7-0.1,1-0.3
		C1364.2,1286.7,1364.3,1286.5,1364.3,1286.2L1364.3,1286.2z"/>
	<path id="Trazado_195282" class="st21" d="M363.7,870.9l3.2,9.9l3.2-9.9h4.5v14.2h-3.4v-3.3l0.3-6.8l-3.4,10.1h-2.3l-3.5-10.1
		l0.3,6.8v3.3h-3.4v-14.2H363.7z M381.7,885.4c-1.5,0.1-2.9-0.5-3.9-1.5c-1-1-1.6-2.4-1.5-3.8v-0.3c0-1,0.2-2,0.6-2.9
		c0.4-0.8,1-1.5,1.8-1.9c0.8-0.5,1.8-0.7,2.7-0.7c1.3-0.1,2.6,0.4,3.5,1.4c0.9,1.1,1.4,2.4,1.3,3.9v1.3h-6.5c0.1,0.5,0.4,1,0.8,1.4
		c0.4,0.4,1,0.5,1.5,0.5c0.9,0,1.8-0.4,2.4-1.1l1.5,1.8c-0.5,0.6-1.1,1.1-1.7,1.4C383.4,885.2,382.6,885.4,381.7,885.4z
		 M381.4,876.9c-1,0-1.5,0.6-1.7,1.9h3.3v-0.3c0-0.4-0.1-0.9-0.4-1.2C382.2,877.1,381.8,876.9,381.4,876.9L381.4,876.9z
		 M381.3,870.1h3.5l-2.7,3.1h-2.7L381.3,870.1z M391.3,872v2.6h1.7v2.3h-1.7v4.8c0,0.3,0,0.6,0.2,0.8c0.2,0.2,0.5,0.3,0.9,0.2
		c0.3,0,0.5,0,0.8-0.1v2.4c-0.6,0.2-1.2,0.3-1.9,0.3c-0.9,0.1-1.8-0.2-2.5-0.8c-0.6-0.7-0.9-1.5-0.8-2.4v-5.2h-1.3v-2.3h1.3V872
		L391.3,872z M393.7,879.8c0-1,0.2-1.9,0.6-2.8c0.4-0.8,1-1.5,1.8-1.9c0.8-0.5,1.8-0.7,2.7-0.7c1.4-0.1,2.8,0.5,3.7,1.5
		c1,1.1,1.4,2.5,1.4,4v0.1c0.1,1.4-0.4,2.8-1.4,3.9c-1,1-2.3,1.5-3.7,1.5c-1.3,0.1-2.7-0.4-3.6-1.4c-0.9-1-1.5-2.3-1.5-3.7
		L393.7,879.8z M397,880c-0.1,0.7,0.1,1.5,0.5,2.1c0.3,0.5,0.8,0.7,1.4,0.7c1.2,0,1.8-0.9,1.8-2.7v-0.3c0-1.9-0.6-2.8-1.8-2.8
		c-1.1,0-1.7,0.8-1.8,2.5L397,880z M404.9,879.8c-0.1-1.4,0.3-2.8,1.1-4c0.7-1,1.8-1.5,3-1.4c0.9,0,1.8,0.4,2.4,1.1v-5.4h3.3v15h-3
		l-0.2-1.1c-0.6,0.8-1.6,1.3-2.6,1.3c-1.2,0-2.3-0.5-3-1.4C405.2,882.7,404.8,881.3,404.9,879.8L404.9,879.8z M408.2,880
		c0,1.9,0.5,2.8,1.6,2.8c0.7,0,1.3-0.3,1.6-0.9v-4c-0.3-0.6-0.9-1-1.5-0.9c-1,0-1.6,0.8-1.7,2.5L408.2,880z M416.1,879.8
		c0-1,0.2-1.9,0.6-2.8c0.4-0.8,1-1.5,1.8-1.9c0.8-0.5,1.8-0.7,2.7-0.7c1.4-0.1,2.8,0.5,3.7,1.5c1,1.1,1.4,2.5,1.4,4v0.1
		c0.1,1.4-0.4,2.8-1.4,3.9c-1,1-2.3,1.5-3.7,1.5c-1.3,0.1-2.7-0.4-3.6-1.4c-0.9-1-1.5-2.3-1.5-3.7L416.1,879.8z M419.4,880
		c-0.1,0.7,0.1,1.5,0.5,2.1c0.3,0.5,0.8,0.7,1.4,0.7c1.2,0,1.8-0.9,1.8-2.7v-0.3c0-1.9-0.6-2.8-1.8-2.8c-1.1,0-1.7,0.8-1.8,2.5
		L419.4,880z M432.4,879.8c-0.1-1.4,0.3-2.8,1.1-4c0.7-1,1.8-1.5,3-1.4c0.9,0,1.8,0.4,2.4,1.1v-5.4h3.3v15h-3L439,884
		c-0.6,0.8-1.5,1.3-2.6,1.3c-1.2,0-2.3-0.5-3-1.4C432.7,882.7,432.3,881.3,432.4,879.8L432.4,879.8z M435.7,880
		c0,1.9,0.5,2.8,1.6,2.8c0.7,0,1.3-0.3,1.6-0.9v-4c-0.3-0.6-0.9-1-1.5-0.9c-1,0-1.6,0.8-1.7,2.5L435.7,880z M449.1,885.4
		c-1.5,0.1-2.9-0.5-3.9-1.5c-1-1-1.6-2.4-1.5-3.8v-0.3c0-1,0.2-2,0.6-2.9c0.4-0.8,1-1.5,1.8-1.9c0.8-0.5,1.8-0.7,2.7-0.7
		c1.3-0.1,2.6,0.4,3.5,1.4c0.9,1.1,1.4,2.5,1.3,3.9v1.3H447c0.1,0.5,0.4,1,0.8,1.4c0.4,0.4,1,0.5,1.5,0.5c0.9,0,1.8-0.4,2.4-1.1
		l1.5,1.8c-0.5,0.6-1.1,1.1-1.7,1.4C450.8,885.2,450,885.4,449.1,885.4z M448.8,876.9c-1,0-1.5,0.6-1.7,1.9h3.3v-0.3
		c0-0.4-0.1-0.9-0.4-1.2C449.6,877.1,449.2,876.9,448.8,876.9L448.8,876.9z M463,874.6l0.1,1.2c0.7-0.9,1.8-1.5,3-1.4
		c1.2-0.1,2.2,0.5,2.7,1.6c0.7-1,1.9-1.6,3.1-1.6c2.1,0,3.2,1.3,3.3,3.9v6.9h-3.3v-6.7c0-0.4-0.1-0.8-0.3-1.2
		c-0.3-0.3-0.6-0.4-1-0.4c-0.6,0-1.2,0.3-1.5,0.9l0,0.1v7.2h-3.3v-6.7c0-0.4-0.1-0.8-0.3-1.2c-0.3-0.3-0.6-0.4-1-0.4
		c-0.6,0-1.2,0.3-1.4,0.9v7.4h-3.3v-10.6L463,874.6z M476.7,879.8c0-1,0.2-1.9,0.6-2.8c0.4-0.8,1-1.5,1.8-1.9
		c0.8-0.5,1.8-0.7,2.7-0.7c1.4-0.1,2.8,0.5,3.7,1.5c1,1.1,1.4,2.5,1.4,4v0.1c0.1,1.4-0.4,2.8-1.4,3.9c-1,1-2.3,1.5-3.7,1.5
		c-1.3,0.1-2.7-0.4-3.6-1.4c-0.9-1-1.5-2.3-1.5-3.7L476.7,879.8z M480,880c-0.1,0.7,0.1,1.5,0.5,2.1c0.3,0.5,0.8,0.7,1.4,0.7
		c1.2,0,1.8-0.9,1.8-2.7v-0.3c0-1.9-0.6-2.8-1.8-2.8c-1.1,0-1.7,0.8-1.8,2.5L480,880z M487.9,879.8c-0.1-1.4,0.3-2.8,1.1-4
		c0.7-1,1.8-1.5,3-1.4c0.9,0,1.8,0.4,2.4,1.1v-5.4h3.3v15h-3l-0.2-1.1c-0.6,0.8-1.6,1.3-2.6,1.3c-1.2,0-2.3-0.5-3-1.4
		C488.2,882.7,487.8,881.3,487.9,879.8L487.9,879.8z M491.2,880c0,1.9,0.5,2.8,1.6,2.8c0.7,0,1.3-0.3,1.6-0.9v-4
		c-0.3-0.6-0.9-1-1.5-0.9c-1,0-1.6,0.8-1.7,2.5L491.2,880z M504.7,885.4c-1.5,0.1-2.9-0.5-3.9-1.5c-1-1-1.6-2.4-1.5-3.8v-0.3
		c0-1,0.2-2,0.6-2.9c0.4-0.8,1-1.5,1.8-1.9c0.8-0.5,1.8-0.7,2.7-0.7c1.3-0.1,2.6,0.4,3.5,1.4c0.9,1.1,1.4,2.5,1.3,3.9v1.3h-6.5
		c0.1,0.5,0.4,1,0.8,1.4c0.4,0.4,1,0.5,1.5,0.5c0.9,0,1.8-0.4,2.4-1.1l1.5,1.8c-0.5,0.6-1.1,1.1-1.7,1.4
		C506.4,885.2,505.5,885.4,504.7,885.4z M504.3,876.9c-1,0-1.5,0.6-1.7,1.9h3.3v-0.3c0-0.4-0.1-0.9-0.4-1.2
		C505.2,877.1,504.8,876.9,504.3,876.9L504.3,876.9z M514,885.2h-3.3v-15h3.3V885.2z M521.9,885.2c-0.1-0.3-0.3-0.6-0.3-0.9
		c-0.6,0.8-1.6,1.2-2.5,1.1c-0.9,0-1.8-0.3-2.5-0.9c-0.7-0.6-1.1-1.4-1-2.3c-0.1-1,0.4-2,1.3-2.6c1.1-0.7,2.4-1,3.7-0.9h1v-0.6
		c0-1-0.4-1.5-1.3-1.5c-0.6-0.1-1.1,0.3-1.2,0.9c0,0.1,0,0.2,0,0.3h-3.3c0-1,0.5-1.9,1.3-2.5c1-0.7,2.1-1,3.3-1
		c1.1-0.1,2.3,0.3,3.2,1c0.8,0.7,1.2,1.7,1.2,2.7v4.7c0,0.8,0.1,1.5,0.4,2.2v0.2H521.9z M519.9,883c0.4,0,0.7-0.1,1-0.3
		c0.2-0.1,0.4-0.4,0.6-0.6v-1.7h-1c-1.1,0-1.7,0.5-1.7,1.5c0,0.3,0.1,0.5,0.3,0.7C519.3,882.9,519.6,883,519.9,883z M526.2,879.8
		c-0.1-1.4,0.3-2.8,1.1-4c0.7-1,1.8-1.5,3-1.4c0.9,0,1.8,0.4,2.4,1.1v-5.4h3.3v15h-3l-0.2-1.1c-0.6,0.8-1.6,1.3-2.6,1.3
		c-1.2,0-2.3-0.5-3-1.4C526.5,882.7,526.1,881.3,526.2,879.8L526.2,879.8z M529.5,880c0,1.9,0.5,2.8,1.6,2.8c0.7,0,1.3-0.3,1.6-0.9
		v-4c-0.3-0.6-0.9-1-1.5-0.9c-1,0-1.6,0.8-1.6,2.5L529.5,880z M537.4,879.8c0-1,0.2-1.9,0.6-2.8c0.4-0.8,1-1.5,1.8-1.9
		c0.8-0.5,1.8-0.7,2.7-0.7c1.4-0.1,2.8,0.5,3.7,1.5c1,1.1,1.4,2.5,1.4,4v0.1c0.1,1.4-0.4,2.8-1.4,3.9c-1,1-2.3,1.5-3.7,1.5
		c-1.3,0.1-2.7-0.4-3.6-1.4c-0.9-1-1.5-2.3-1.5-3.7L537.4,879.8z M540.7,880c-0.1,0.7,0.1,1.5,0.5,2.1c0.3,0.5,0.8,0.7,1.4,0.7
		c1.2,0,1.8-0.9,1.8-2.7v-0.3c0-1.9-0.6-2.8-1.8-2.8c-1.1,0-1.7,0.8-1.8,2.5L540.7,880z M389.7,913.2v-14.2h5.1
		c1.5-0.1,2.9,0.3,4.2,1c0.9,0.7,1.5,1.8,1.4,2.9c0,0.7-0.2,1.3-0.5,1.9c-0.4,0.5-0.9,0.9-1.5,1.2c0.7,0.2,1.3,0.5,1.7,1.1
		c0.4,0.6,0.6,1.3,0.6,2c0.1,1.2-0.4,2.4-1.3,3.1c-1.2,0.8-2.5,1.2-3.9,1.1H389.7z M393.1,907.1v3.4h2.2c0.5,0,1-0.1,1.4-0.4
		c0.3-0.3,0.5-0.7,0.5-1.2c0.1-0.9-0.5-1.7-1.3-1.8c-0.1,0-0.3,0-0.4,0L393.1,907.1z M393.1,904.9h1.8c0.6,0,1.1-0.1,1.6-0.4
		c0.3-0.3,0.5-0.7,0.5-1.2c0-0.5-0.1-1-0.5-1.3c-0.5-0.3-1.1-0.4-1.7-0.4h-1.7V904.9z M402,907.8c0-1,0.2-1.9,0.6-2.8
		c0.4-0.8,1-1.5,1.8-1.9c0.8-0.5,1.8-0.7,2.7-0.7c1.4-0.1,2.8,0.5,3.7,1.5c1,1.1,1.4,2.5,1.4,4v0.1c0.1,1.4-0.4,2.8-1.4,3.9
		c-1,1-2.3,1.5-3.7,1.4c-1.3,0.1-2.7-0.4-3.6-1.4c-0.9-1-1.5-2.3-1.5-3.7L402,907.8z M405.3,908c-0.1,0.7,0.1,1.5,0.5,2.1
		c0.3,0.5,0.8,0.7,1.4,0.7c1.2,0,1.8-0.9,1.8-2.7v-0.3c0-1.9-0.6-2.8-1.8-2.8c-1.1,0-1.7,0.8-1.8,2.5L405.3,908z M417.8,905.5
		l1.5-2.9h3.4l-2.8,5.1l2.9,5.4h-3.4l-1.7-3.1l-1.6,3.1h-3.5l2.9-5.4l-2.8-5.1h3.5L417.8,905.5z M431.9,902.6l0.1,1.2
		c0.7-0.9,1.8-1.5,3-1.4c1.1-0.1,2.2,0.5,2.7,1.6c0.7-1,1.9-1.6,3.1-1.6c2.1,0,3.2,1.3,3.3,3.9v6.9h-3.3v-6.7c0-0.4-0.1-0.8-0.3-1.2
		c-0.3-0.3-0.6-0.4-1-0.4c-0.6,0-1.2,0.3-1.5,0.9l0,0.1v7.2h-3.3v-6.7c0-0.4-0.1-0.8-0.3-1.2c-0.3-0.3-0.6-0.4-1-0.4
		c-0.6,0-1.2,0.3-1.4,0.9v7.4h-3.3v-10.6H431.9z M445.6,907.8c0-1,0.2-1.9,0.6-2.8c0.4-0.8,1-1.5,1.8-1.9c0.8-0.5,1.8-0.7,2.7-0.7
		c1.4-0.1,2.8,0.5,3.7,1.5c1,1.1,1.4,2.5,1.4,4v0.1c0.1,1.4-0.4,2.8-1.4,3.9c-1,1-2.3,1.5-3.7,1.5c-1.3,0.1-2.7-0.4-3.6-1.4
		c-0.9-1-1.5-2.3-1.5-3.7L445.6,907.8z M448.9,908c-0.1,0.7,0.1,1.5,0.5,2.1c0.3,0.5,0.8,0.7,1.4,0.7c1.2,0,1.8-0.9,1.8-2.7v-0.3
		c0-1.9-0.6-2.8-1.8-2.8c-1.1,0-1.7,0.8-1.8,2.5L448.9,908z M456.8,907.8c-0.1-1.4,0.3-2.8,1.1-4c0.7-1,1.8-1.5,3-1.4
		c0.9,0,1.8,0.4,2.4,1.1v-5.4h3.3v15h-3l-0.2-1.1c-0.6,0.8-1.6,1.3-2.6,1.3c-1.2,0-2.3-0.5-3-1.4
		C457.1,910.7,456.7,909.3,456.8,907.8L456.8,907.8z M460.1,908c0,1.9,0.5,2.8,1.6,2.8c0.7,0,1.3-0.3,1.6-0.9v-4
		c-0.3-0.6-0.9-1-1.5-0.9c-1,0-1.6,0.8-1.6,2.5L460.1,908z M473.6,913.4c-1.5,0.1-2.9-0.5-3.9-1.5c-1-1-1.6-2.4-1.5-3.8v-0.3
		c0-1,0.2-2,0.6-2.9c0.4-0.8,1-1.5,1.8-1.9c0.8-0.5,1.8-0.7,2.7-0.7c1.3-0.1,2.6,0.4,3.5,1.4c0.9,1.1,1.4,2.5,1.3,3.9v1.3h-6.5
		c0.1,0.5,0.4,1,0.8,1.4c0.4,0.4,1,0.5,1.5,0.5c0.9,0,1.8-0.4,2.4-1.1l1.5,1.8c-0.5,0.6-1.1,1.1-1.7,1.4
		C475.2,913.2,474.4,913.4,473.6,913.4z M473.2,904.9c-1,0-1.5,0.6-1.7,1.9h3.3v-0.3c0-0.4-0.1-0.9-0.4-1.2
		C474.1,905.1,473.6,904.9,473.2,904.9L473.2,904.9z M482.8,913.2h-3.3v-15h3.3V913.2z M488.3,913.2H485v-15h3.3V913.2z
		 M493.8,913.2h-3.3v-10.6h3.3V913.2z M490.3,899.9c0-0.4,0.2-0.9,0.5-1.2c0.8-0.6,1.9-0.6,2.6,0c0.6,0.6,0.7,1.6,0.1,2.2
		c0,0-0.1,0.1-0.1,0.1c-0.8,0.6-1.9,0.6-2.6,0C490.5,900.7,490.3,900.3,490.3,899.9z M498.9,902.6l0.1,1.2c0.7-0.9,1.8-1.5,3-1.4
		c0.9-0.1,1.8,0.3,2.5,1c0.6,0.9,0.9,1.9,0.8,3v6.8H502v-6.7c0-0.4-0.1-0.8-0.3-1.2c-0.3-0.3-0.7-0.4-1.2-0.4
		c-0.6,0-1.1,0.3-1.4,0.8v7.5h-3.3v-10.6H498.9z M506.7,907.8c0-1,0.2-1.9,0.5-2.8c0.3-0.8,0.8-1.4,1.5-1.9c0.7-0.5,1.5-0.7,2.3-0.7
		c1-0.1,1.9,0.4,2.6,1.1l0.1-0.9h3v10.2c0,0.9-0.2,1.7-0.6,2.4c-0.5,0.7-1.1,1.3-1.9,1.6c-0.9,0.4-1.9,0.6-2.9,0.6
		c-0.8,0-1.5-0.1-2.3-0.4c-0.6-0.2-1.2-0.6-1.7-1.1l1.4-1.9c0.6,0.7,1.5,1.1,2.4,1.1c1.1,0.1,2.1-0.6,2.2-1.7c0-0.2,0-0.4,0-0.6
		v-0.3c-0.6,0.7-1.5,1.1-2.4,1c-1.2,0-2.4-0.5-3.1-1.5c-0.8-1.1-1.3-2.5-1.2-4V907.8z M510,908c0,0.7,0.1,1.4,0.5,2.1
		c0.3,0.5,0.8,0.8,1.4,0.8c0.6,0,1.2-0.2,1.6-0.7v-4.4c-0.3-0.5-0.9-0.8-1.5-0.7c-0.6,0-1.1,0.3-1.4,0.8
		C510.2,906.4,510,907.2,510,908z"/>
	<path id="Trazado_195283" class="st21" d="M742.3,870.9l3.2,9.9l3.2-9.9h4.5v14.2h-3.4v-3.3l0.3-6.8l-3.4,10.1h-2.3l-3.4-10.1
		l0.3,6.8v3.3h-3.4v-14.2H742.3z M754.7,879.8c0-1,0.2-1.9,0.6-2.8c0.4-0.8,1-1.5,1.8-1.9c0.8-0.5,1.8-0.7,2.7-0.7
		c1.4-0.1,2.8,0.5,3.7,1.5c1,1.1,1.4,2.5,1.4,4v0.1c0.1,1.4-0.4,2.8-1.4,3.9c-1,1-2.3,1.5-3.7,1.5c-1.3,0.1-2.7-0.4-3.6-1.4
		c-0.9-1-1.5-2.3-1.5-3.7L754.7,879.8z M758,880c-0.1,0.7,0.1,1.5,0.5,2.1c0.3,0.5,0.8,0.7,1.4,0.7c1.2,0,1.8-0.9,1.8-2.7v-0.3
		c0-1.9-0.6-2.8-1.8-2.8c-1.1,0-1.7,0.8-1.8,2.5L758,880z M765.9,879.8c-0.1-1.4,0.3-2.8,1.1-4c0.7-1,1.8-1.5,3-1.4
		c0.9,0,1.8,0.4,2.4,1.1v-5.4h3.3v15h-3l-0.2-1.1c-0.6,0.8-1.6,1.3-2.6,1.3c-1.2,0-2.3-0.5-3-1.4
		C766.2,882.7,765.8,881.3,765.9,879.8L765.9,879.8z M769.2,880c0,1.9,0.5,2.8,1.6,2.8c0.7,0,1.3-0.3,1.6-0.9v-4
		c-0.3-0.6-0.9-1-1.5-0.9c-1,0-1.6,0.8-1.6,2.5L769.2,880z M782.7,885.4c-1.5,0.1-2.9-0.5-3.9-1.5c-1-1-1.6-2.4-1.5-3.8v-0.3
		c0-1,0.2-2,0.6-2.9c0.4-0.8,1-1.5,1.8-1.9c0.8-0.5,1.8-0.7,2.7-0.7c1.3-0.1,2.6,0.4,3.5,1.4c0.9,1.1,1.4,2.5,1.3,3.9v1.3h-6.5
		c0.1,0.5,0.4,1,0.8,1.4c0.4,0.4,1,0.5,1.5,0.5c0.9,0,1.8-0.4,2.4-1.1l1.5,1.8c-0.5,0.6-1.1,1.1-1.7,1.4
		C784.4,885.2,783.6,885.4,782.7,885.4z M782.3,876.9c-1,0-1.5,0.6-1.7,1.9h3.3v-0.3c0-0.4-0.1-0.9-0.4-1.2
		C783.2,877.1,782.8,876.9,782.3,876.9L782.3,876.9z M792,885.2h-3.3v-15h3.3V885.2z M799.9,885.2c-0.1-0.3-0.3-0.6-0.3-0.9
		c-0.6,0.8-1.6,1.2-2.5,1.1c-0.9,0-1.8-0.3-2.5-0.9c-0.7-0.6-1.1-1.4-1-2.3c-0.1-1,0.4-2,1.3-2.6c1.1-0.7,2.4-1,3.7-0.9h1v-0.6
		c0-1-0.4-1.5-1.3-1.5c-0.6-0.1-1.1,0.3-1.2,0.9c0,0.1,0,0.2,0,0.3h-3.3c0-1,0.5-1.9,1.3-2.5c1-0.7,2.1-1,3.3-1
		c1.1-0.1,2.3,0.3,3.2,1c0.8,0.7,1.2,1.7,1.2,2.7v4.7c0,0.8,0.1,1.5,0.4,2.2v0.2H799.9z M797.9,883c0.4,0,0.7-0.1,1-0.3
		c0.2-0.1,0.4-0.4,0.6-0.6v-1.7h-1c-1.1,0-1.7,0.5-1.7,1.5c0,0.3,0.1,0.5,0.3,0.7C797.3,882.9,797.6,883,797.9,883L797.9,883z
		 M804.2,879.8c-0.1-1.4,0.3-2.8,1.1-4c0.7-1,1.8-1.5,3-1.4c0.9,0,1.8,0.4,2.4,1.1v-5.4h3.3v15h-3l-0.2-1.1
		c-0.6,0.8-1.6,1.3-2.6,1.3c-1.2,0-2.3-0.5-3-1.4C804.5,882.7,804.1,881.3,804.2,879.8z M807.5,880c0,1.9,0.5,2.8,1.6,2.8
		c0.7,0,1.3-0.3,1.6-0.9v-4c-0.3-0.6-0.9-1-1.5-0.9c-1,0-1.6,0.8-1.7,2.5L807.5,880z M815.4,879.8c0-1,0.2-1.9,0.6-2.8
		c0.4-0.8,1-1.5,1.8-1.9c0.8-0.5,1.8-0.7,2.7-0.7c1.4-0.1,2.8,0.5,3.7,1.5c1,1.1,1.4,2.5,1.4,4v0.1c0.1,1.4-0.4,2.8-1.4,3.9
		c-1,1-2.3,1.5-3.7,1.5c-1.3,0.1-2.7-0.4-3.6-1.4c-0.9-1-1.5-2.3-1.5-3.7L815.4,879.8z M818.7,880c-0.1,0.7,0.1,1.5,0.5,2.1
		c0.3,0.5,0.8,0.7,1.4,0.7c1.2,0,1.8-0.9,1.8-2.7v-0.3c0-1.9-0.6-2.8-1.8-2.8c-1.1,0-1.7,0.8-1.8,2.5L818.7,880z M835,876.7h1.6
		c0.9,0.1,1.7-0.5,1.8-1.3c0-0.2,0-0.3,0-0.5c0-0.4-0.1-0.8-0.4-1.1c-0.3-0.3-0.8-0.5-1.2-0.4c-0.4,0-0.8,0.1-1.1,0.4
		c-0.3,0.2-0.5,0.6-0.5,0.9h-3.3c0-0.7,0.2-1.4,0.6-2c0.4-0.6,1-1.1,1.7-1.4c0.8-0.3,1.6-0.5,2.4-0.5c1.3-0.1,2.6,0.3,3.7,1.1
		c0.9,0.7,1.4,1.8,1.4,3c0,0.6-0.2,1.2-0.6,1.7c-0.4,0.6-1,1-1.6,1.3c0.7,0.2,1.3,0.7,1.8,1.2c0.4,0.6,0.7,1.3,0.6,2.1
		c0,1.2-0.5,2.3-1.5,3c-1.1,0.8-2.5,1.2-3.8,1.1c-0.9,0-1.8-0.2-2.6-0.5c-0.7-0.3-1.4-0.8-1.8-1.5c-0.4-0.6-0.6-1.4-0.6-2.1h3.3
		c0,0.4,0.2,0.9,0.5,1.1c0.4,0.3,0.8,0.5,1.3,0.5c0.5,0,1-0.1,1.4-0.5c0.3-0.3,0.5-0.8,0.5-1.2c0.1-0.6-0.1-1.1-0.5-1.5
		c-0.4-0.3-1-0.5-1.5-0.4H835L835,876.7z M843.8,885.2v-14.2h4.6c1.2,0,2.4,0.3,3.4,0.9c1,0.6,1.8,1.4,2.3,2.4
		c0.6,1.1,0.9,2.3,0.9,3.5v0.7c0,1.2-0.3,2.4-0.8,3.5c-0.5,1-1.3,1.9-2.3,2.4c-1,0.6-2.2,0.9-3.3,0.9L843.8,885.2z M847.2,873.6v8.9
		h1.2c0.9,0,1.7-0.3,2.3-1c0.6-0.9,0.9-2,0.8-3.1v-0.6c0.1-1.1-0.2-2.2-0.8-3.1c-0.5-0.7-1.4-1.1-2.3-1L847.2,873.6z M749.7,910.8
		c0.4,0,0.8-0.1,1.1-0.4c0.3-0.3,0.4-0.7,0.4-1h3.1c0,1.1-0.4,2.1-1.2,2.9c-0.9,0.8-2,1.2-3.2,1.1c-1.4,0.1-2.7-0.5-3.6-1.5
		c-0.9-1.1-1.4-2.5-1.3-4v-0.1c0-1,0.2-1.9,0.6-2.8c0.4-0.8,1-1.4,1.7-1.9c0.8-0.5,1.7-0.7,2.6-0.7c1.2-0.1,2.4,0.3,3.3,1.1
		c0.8,0.8,1.3,1.9,1.2,3.1h-3.1c0-0.5-0.1-0.9-0.4-1.3c-0.3-0.3-0.7-0.5-1.1-0.4c-0.9,0-1.4,0.5-1.5,1.6c-0.1,0.5-0.1,0.9-0.1,1.4
		c-0.1,0.8,0.1,1.5,0.4,2.2C748.8,910.6,749.2,910.9,749.7,910.8z M755.2,907.8c0-1,0.2-1.9,0.6-2.8c0.4-0.8,1-1.5,1.8-1.9
		c0.8-0.5,1.8-0.7,2.7-0.7c1.4-0.1,2.8,0.5,3.7,1.5c1,1.1,1.4,2.5,1.4,4v0.1c0.1,1.4-0.4,2.8-1.4,3.9c-1,1-2.3,1.5-3.7,1.5
		c-1.3,0.1-2.7-0.4-3.6-1.4c-0.9-1-1.5-2.3-1.5-3.7L755.2,907.8z M758.5,908c-0.1,0.7,0.1,1.5,0.5,2.1c0.3,0.5,0.8,0.7,1.4,0.7
		c1.2,0,1.8-0.9,1.8-2.7v-0.3c0-1.9-0.6-2.8-1.8-2.8c-1.1,0-1.7,0.8-1.8,2.5L758.5,908z M769.9,902.6l0.1,1.2c0.7-0.9,1.8-1.5,3-1.4
		c0.9-0.1,1.8,0.3,2.5,1c0.6,0.9,0.9,1.9,0.8,3v6.8H773v-6.7c0-0.4-0.1-0.8-0.3-1.2c-0.3-0.3-0.7-0.4-1.2-0.4
		c-0.6,0-1.1,0.3-1.4,0.8v7.5h-3.3v-10.6L769.9,902.6z M795.2,913.2h-3.4l-5-8.8v8.8h-3.4v-14.2h3.4l5,8.8v-8.8h3.4V913.2z
		 M808.5,898.9v9.3c0,1-0.2,1.9-0.7,2.7c-0.4,0.8-1.1,1.4-1.9,1.8c-0.9,0.4-2,0.6-3,0.6c-1.5,0.1-2.9-0.4-4.1-1.3
		c-1-1-1.6-2.3-1.5-3.7v-9.4h3.4v9.4c0,1.6,0.8,2.3,2.2,2.3c0.6,0,1.2-0.2,1.6-0.6c0.4-0.5,0.6-1.2,0.5-1.9v-9.3H808.5z
		 M815.9,908.1H814v5h-3.4v-14.2h5.6c1.4-0.1,2.8,0.3,4,1.1c1,0.8,1.5,1.9,1.4,3.2c0,0.9-0.2,1.7-0.6,2.5c-0.5,0.7-1.1,1.2-1.9,1.6
		l3,5.7v0.2h-3.7L815.9,908.1z M814,905.5h2.2c0.5,0,1.1-0.1,1.5-0.5c0.3-0.4,0.5-0.9,0.5-1.4c0-0.5-0.1-1-0.5-1.4
		c-0.4-0.4-0.9-0.6-1.5-0.5H814L814,905.5z M823.7,913.2v-14.2h5.1c1.5-0.1,2.9,0.3,4.2,1c0.9,0.7,1.5,1.8,1.4,2.9
		c0,0.7-0.2,1.3-0.5,1.9c-0.4,0.5-0.9,0.9-1.5,1.2c0.7,0.2,1.3,0.5,1.7,1.1c0.4,0.6,0.6,1.3,0.6,2c0.1,1.2-0.4,2.4-1.3,3.1
		c-1.2,0.8-2.5,1.2-3.9,1.1H823.7z M827.1,907.1v3.4h2.2c0.5,0,1-0.1,1.4-0.4c0.3-0.3,0.5-0.7,0.5-1.2c0.1-0.9-0.5-1.7-1.3-1.8
		c-0.1,0-0.3,0-0.4,0L827.1,907.1z M827.1,904.9h1.8c0.6,0,1.1-0.1,1.6-0.4c0.3-0.3,0.5-0.7,0.5-1.2c0-0.5-0.1-1-0.5-1.3
		c-0.5-0.3-1.1-0.4-1.7-0.4h-1.7L827.1,904.9z M843.9,909.4c0-0.5-0.2-0.9-0.5-1.2c-0.6-0.4-1.2-0.7-1.9-0.9
		c-0.7-0.2-1.5-0.5-2.2-0.9c-1.8-0.9-2.8-2.1-2.8-3.7c0-0.8,0.2-1.5,0.7-2.1c0.5-0.6,1.2-1.1,1.9-1.4c0.9-0.3,1.9-0.5,2.8-0.5
		c0.9,0,1.9,0.2,2.7,0.5c0.8,0.3,1.4,0.9,1.9,1.6c0.5,0.7,0.7,1.5,0.7,2.3h-3.4c0-0.5-0.2-1-0.5-1.3c-0.4-0.3-0.9-0.5-1.4-0.5
		c-0.5,0-1,0.1-1.5,0.4c-0.5,0.4-0.7,1.1-0.3,1.7c0.1,0.2,0.2,0.3,0.4,0.4c0.6,0.4,1.3,0.7,2.1,0.9c0.8,0.3,1.7,0.6,2.4,1
		c1.4,0.7,2.3,2.1,2.3,3.7c0,1.1-0.5,2.2-1.4,2.9c-1.1,0.8-2.5,1.1-3.9,1.1c-1.1,0-2.1-0.2-3.1-0.6c-0.9-0.3-1.6-0.9-2.1-1.7
		c-0.5-0.7-0.7-1.6-0.7-2.5h3.4c-0.1,0.6,0.2,1.2,0.6,1.7c0.6,0.4,1.2,0.6,1.9,0.5c0.5,0,0.9-0.1,1.3-0.4
		C843.7,910.2,843.9,909.8,843.9,909.4L843.9,909.4z"/>
	<path id="Trazado_195284" class="st21" d="M1091.4,873.6h-4.3v11.6h-3.4v-11.6h-4.2v-2.6h11.9V873.6z M1096.9,885.4
		c-1.5,0.1-2.9-0.5-3.9-1.5c-1-1-1.6-2.4-1.5-3.8v-0.3c0-1,0.2-2,0.6-2.9c0.4-0.8,1-1.5,1.8-1.9c0.8-0.5,1.8-0.7,2.7-0.7
		c1.3-0.1,2.6,0.4,3.5,1.4c0.9,1.1,1.4,2.5,1.3,3.9v1.3h-6.5c0.1,0.5,0.4,1,0.8,1.4c0.4,0.4,1,0.5,1.5,0.5c0.9,0,1.8-0.4,2.4-1.1
		l1.5,1.8c-0.5,0.6-1.1,1.1-1.7,1.4C1098.6,885.2,1097.7,885.4,1096.9,885.4z M1096.5,876.9c-1,0-1.5,0.6-1.7,1.9h3.3v-0.3
		c0-0.4-0.1-0.9-0.4-1.2C1097.4,877.1,1097,876.9,1096.5,876.9L1096.5,876.9z M1107,877.5l1.5-2.9h3.4l-2.8,5.1l2.9,5.4h-3.4
		l-1.7-3.1l-1.6,3.1h-3.5l2.9-5.4l-2.8-5.1h3.5L1107,877.5z M1116.8,872v2.6h1.7v2.3h-1.7v4.8c0,0.3,0,0.6,0.2,0.8
		c0.2,0.2,0.5,0.3,0.8,0.2c0.3,0,0.5,0,0.8-0.1v2.4c-0.6,0.2-1.2,0.3-1.9,0.3c-0.9,0.1-1.8-0.2-2.5-0.8c-0.6-0.7-0.9-1.5-0.8-2.4
		v-5.2h-1.3v-2.3h1.3V872L1116.8,872z M1119.1,879.8c0-1,0.2-1.9,0.6-2.8c0.4-0.8,1-1.5,1.8-1.9c0.8-0.5,1.8-0.7,2.7-0.7
		c1.4-0.1,2.8,0.5,3.7,1.5c1,1.1,1.4,2.5,1.4,4v0.1c0.1,1.4-0.4,2.8-1.4,3.9c-1,1-2.3,1.5-3.7,1.4c-1.3,0.1-2.7-0.4-3.6-1.4
		c-0.9-1-1.5-2.3-1.5-3.7L1119.1,879.8z M1122.4,880c-0.1,0.7,0.1,1.5,0.5,2.1c0.3,0.5,0.8,0.7,1.4,0.7c1.2,0,1.8-0.9,1.8-2.7v-0.3
		c0-1.9-0.6-2.8-1.8-2.8c-1.1,0-1.7,0.8-1.8,2.5L1122.4,880z M1138.7,876.7h1.6c0.9,0.1,1.7-0.5,1.8-1.3c0-0.2,0-0.3,0-0.5
		c0-0.4-0.1-0.8-0.4-1.1c-0.3-0.3-0.8-0.5-1.2-0.4c-0.4,0-0.8,0.1-1.1,0.4c-0.3,0.2-0.5,0.6-0.5,0.9h-3.3c0-0.7,0.2-1.4,0.6-2
		c0.4-0.6,1-1.1,1.7-1.4c0.8-0.3,1.6-0.5,2.4-0.5c1.3-0.1,2.6,0.3,3.7,1.1c0.9,0.7,1.4,1.8,1.4,3c0,0.6-0.2,1.2-0.6,1.7
		c-0.4,0.6-1,1-1.6,1.3c0.7,0.2,1.3,0.7,1.8,1.2c0.4,0.6,0.7,1.3,0.6,2.1c0,1.2-0.5,2.3-1.5,3c-1.1,0.8-2.5,1.2-3.8,1.1
		c-0.9,0-1.8-0.2-2.6-0.5c-0.7-0.3-1.4-0.8-1.8-1.5c-0.4-0.6-0.6-1.4-0.6-2.1h3.3c0,0.4,0.2,0.9,0.5,1.1c0.4,0.3,0.8,0.5,1.3,0.5
		c0.5,0,1-0.1,1.4-0.5c0.3-0.3,0.5-0.8,0.5-1.2c0.1-0.6-0.1-1.1-0.5-1.5c-0.4-0.3-1-0.5-1.5-0.4h-1.6L1138.7,876.7z M1147.5,885.2
		v-14.2h4.6c1.2,0,2.4,0.3,3.4,0.9c1,0.6,1.8,1.4,2.3,2.4c0.6,1.1,0.9,2.3,0.9,3.5v0.7c0,1.2-0.3,2.4-0.8,3.5
		c-0.5,1-1.3,1.9-2.3,2.4c-1,0.6-2.2,0.9-3.3,0.9H1147.5z M1150.9,873.6v8.9h1.2c0.9,0,1.7-0.3,2.3-1c0.6-0.9,0.9-2,0.8-3.1v-0.6
		c0.1-1.1-0.2-2.2-0.8-3.1c-0.5-0.7-1.4-1.1-2.3-1H1150.9z M1169.7,882.8c0.4,0,0.8-0.1,1.1-0.4c0.3-0.3,0.4-0.7,0.4-1h3.1
		c0,1.1-0.4,2.1-1.2,2.9c-0.9,0.8-2,1.2-3.2,1.1c-1.4,0.1-2.7-0.5-3.6-1.4c-0.9-1.1-1.4-2.5-1.3-4v-0.1c0-1,0.2-1.9,0.6-2.8
		c0.4-0.8,1-1.4,1.7-1.9c0.8-0.5,1.7-0.7,2.6-0.7c1.2-0.1,2.4,0.3,3.3,1.1c0.8,0.8,1.3,1.9,1.2,3.1h-3.1c0-0.5-0.1-0.9-0.4-1.3
		c-0.3-0.3-0.7-0.5-1.1-0.4c-0.9,0-1.4,0.5-1.5,1.6c-0.1,0.5-0.1,0.9-0.1,1.4c-0.1,0.8,0.1,1.5,0.4,2.2
		C1168.8,882.6,1169.2,882.9,1169.7,882.8L1169.7,882.8z M1175.2,879.8c0-1,0.2-1.9,0.6-2.8c0.4-0.8,1-1.5,1.8-1.9
		c0.8-0.5,1.8-0.7,2.7-0.7c1.4-0.1,2.8,0.5,3.7,1.5c1,1.1,1.4,2.5,1.4,4v0.1c0.1,1.4-0.4,2.8-1.4,3.9c-1,1-2.3,1.5-3.7,1.5
		c-1.3,0.1-2.7-0.4-3.6-1.4c-0.9-1-1.5-2.3-1.5-3.7L1175.2,879.8z M1178.5,880c-0.1,0.7,0.1,1.5,0.5,2.1c0.3,0.5,0.8,0.7,1.4,0.7
		c1.2,0,1.8-0.9,1.8-2.7v-0.3c0-1.9-0.6-2.8-1.8-2.8c-1.1,0-1.7,0.8-1.8,2.5L1178.5,880z M1189.9,874.6l0.1,1.2
		c0.7-0.9,1.8-1.5,3-1.4c0.9-0.1,1.8,0.3,2.5,1c0.6,0.9,0.9,1.9,0.8,3v6.8h-3.3v-6.7c0-0.4-0.1-0.8-0.3-1.2
		c-0.3-0.3-0.7-0.4-1.2-0.4c-0.6,0-1.1,0.3-1.4,0.8v7.5h-3.3v-10.6H1189.9z M1091.1,913.4c-1.5,0.1-2.9-0.5-3.9-1.5
		c-1-1-1.6-2.4-1.5-3.8v-0.3c0-1,0.2-2,0.6-2.9c0.4-0.8,1-1.5,1.7-1.9c0.8-0.5,1.8-0.7,2.7-0.7c1.3-0.1,2.6,0.4,3.5,1.4
		c0.9,1.1,1.4,2.5,1.3,3.9v1.3h-6.5c0.1,0.5,0.4,1,0.8,1.4c0.4,0.4,1,0.5,1.5,0.5c0.9,0,1.8-0.4,2.4-1.1l1.5,1.8
		c-0.5,0.6-1.1,1.1-1.7,1.4C1092.7,913.2,1091.9,913.4,1091.1,913.4z M1090.7,904.9c-1,0-1.5,0.6-1.7,1.9h3.3v-0.3
		c0-0.4-0.1-0.9-0.4-1.2C1091.6,905.1,1091.1,904.9,1090.7,904.9L1090.7,904.9z M1101.1,905.5l1.5-2.9h3.4l-2.8,5.1l2.9,5.4h-3.4
		l-1.7-3.1l-1.6,3.1h-3.5l2.9-5.4l-2.8-5.1h3.5L1101.1,905.5z M1111,900v2.6h1.7v2.3h-1.7v4.8c0,0.3,0,0.6,0.2,0.8
		c0.2,0.2,0.5,0.3,0.8,0.2c0.3,0,0.5,0,0.8-0.1v2.4c-0.6,0.2-1.2,0.3-1.9,0.3c-0.9,0.1-1.8-0.2-2.5-0.8c-0.6-0.7-0.9-1.5-0.8-2.4
		v-5.2h-1.3v-2.3h1.3V900L1111,900z M1120.4,905.6l-1.1-0.1c-0.8-0.1-1.6,0.3-2,1v6.7h-3.3v-10.6h3.1l0.1,1.4
		c0.4-0.9,1.3-1.5,2.3-1.6c0.3,0,0.6,0,0.9,0.1L1120.4,905.6z M1127.9,912c-0.7,0.9-1.7,1.4-2.8,1.3c-1,0.1-1.9-0.3-2.6-1
		c-0.6-0.8-1-1.9-0.9-2.9v-6.8h3.3v6.9c-0.1,0.6,0.3,1.3,1,1.4c0.1,0,0.2,0,0.3,0c0.6,0.1,1.3-0.3,1.6-0.8v-7.4h3.3v10.6h-3.1
		L1127.9,912z M1138.4,910.2c0-0.3-0.2-0.6-0.4-0.7c-0.5-0.2-1.1-0.4-1.7-0.5c-0.7-0.1-1.4-0.4-2-0.7c-0.5-0.3-0.9-0.6-1.2-1.1
		c-0.3-0.4-0.4-0.9-0.4-1.5c0-0.9,0.4-1.8,1.2-2.4c0.9-0.7,2-1,3.1-0.9c1.2-0.1,2.4,0.3,3.4,0.9c0.8,0.6,1.3,1.5,1.3,2.5h-3.3
		c0-0.8-0.4-1.3-1.3-1.3c-0.3,0-0.6,0.1-0.9,0.3c-0.2,0.2-0.4,0.4-0.4,0.7c0,0.3,0.2,0.6,0.4,0.7c0.4,0.2,0.9,0.4,1.4,0.4
		c0.6,0.1,1.1,0.2,1.7,0.4c1.4,0.3,2.4,1.5,2.4,2.9c0,1-0.5,1.8-1.3,2.4c-1,0.6-2.1,1-3.3,0.9c-0.8,0-1.7-0.2-2.4-0.5
		c-0.7-0.3-1.2-0.7-1.7-1.3c-0.4-0.5-0.6-1.1-0.6-1.8h3.1c0,0.4,0.2,0.8,0.5,1.1c0.4,0.2,0.8,0.4,1.2,0.3c0.4,0,0.7-0.1,1-0.3
		C1138.3,910.7,1138.4,910.5,1138.4,910.2L1138.4,910.2z M1146.6,913.2h-3.3v-10.6h3.3V913.2z M1143.1,899.9c0-0.4,0.2-0.9,0.5-1.2
		c0.8-0.6,1.9-0.6,2.6,0c0.6,0.6,0.7,1.6,0.1,2.2c0,0-0.1,0.1-0.1,0.1c-0.8,0.6-1.9,0.6-2.6,0
		C1143.2,900.7,1143.1,900.3,1143.1,899.9z M1148.2,907.8c0-1,0.2-1.9,0.6-2.8c0.4-0.8,1-1.5,1.8-1.9c0.8-0.5,1.8-0.7,2.7-0.7
		c1.4-0.1,2.8,0.5,3.7,1.5c1,1.1,1.4,2.5,1.4,4v0.1c0.1,1.4-0.4,2.8-1.4,3.9c-1,1-2.3,1.5-3.7,1.5c-1.3,0.1-2.7-0.4-3.6-1.4
		c-0.9-1-1.5-2.3-1.5-3.7L1148.2,907.8z M1151.5,908c-0.1,0.7,0.1,1.5,0.5,2.1c0.3,0.5,0.8,0.7,1.4,0.7c1.2,0,1.8-0.9,1.8-2.7v-0.3
		c0-1.9-0.6-2.8-1.8-2.8c-1.1,0-1.7,0.8-1.8,2.5L1151.5,908z M1162.8,902.6l0.1,1.2c0.7-0.9,1.8-1.5,3-1.4c0.9-0.1,1.8,0.3,2.5,1
		c0.6,0.9,0.9,1.9,0.8,3v6.8h-3.3v-6.7c0-0.4-0.1-0.8-0.3-1.2c-0.3-0.3-0.7-0.4-1.2-0.4c-0.6,0-1.1,0.3-1.4,0.8v7.5h-3.3v-10.6
		H1162.8z M1176.2,913.4c-1.5,0.1-2.9-0.5-3.9-1.5c-1-1-1.6-2.4-1.5-3.8v-0.3c0-1,0.2-2,0.6-2.9c0.4-0.8,1-1.5,1.8-1.9
		c0.8-0.5,1.8-0.7,2.7-0.7c1.3-0.1,2.6,0.4,3.5,1.4c0.9,1.1,1.4,2.4,1.3,3.9v1.3h-6.5c0.1,0.5,0.4,1,0.8,1.4c0.4,0.4,1,0.5,1.5,0.5
		c0.9,0,1.8-0.4,2.4-1.1l1.5,1.8c-0.5,0.6-1.1,1.1-1.7,1.4C1177.9,913.2,1177,913.4,1176.2,913.4z M1175.8,904.9
		c-1,0-1.5,0.6-1.7,1.9h3.3v-0.3c0-0.4-0.1-0.9-0.4-1.2C1176.7,905.1,1176.3,904.9,1175.8,904.9L1175.8,904.9z M1187.5,910.2
		c0-0.3-0.2-0.6-0.4-0.7c-0.5-0.2-1.1-0.4-1.7-0.5c-0.7-0.1-1.4-0.4-2-0.7c-0.5-0.3-0.9-0.6-1.2-1.1c-0.3-0.4-0.4-0.9-0.4-1.5
		c0-0.9,0.4-1.8,1.2-2.4c0.9-0.7,2-1,3.1-0.9c1.2-0.1,2.4,0.3,3.4,0.9c0.8,0.6,1.3,1.5,1.3,2.5h-3.3c0-0.8-0.4-1.3-1.3-1.3
		c-0.3,0-0.6,0.1-0.9,0.3c-0.2,0.2-0.4,0.4-0.4,0.7c0,0.3,0.2,0.6,0.4,0.7c0.4,0.2,0.9,0.4,1.4,0.4c0.6,0.1,1.1,0.2,1.7,0.4
		c1.4,0.3,2.4,1.5,2.4,2.9c0,1-0.5,1.8-1.3,2.4c-1,0.6-2.1,1-3.3,0.9c-0.8,0-1.7-0.2-2.4-0.5c-0.7-0.3-1.2-0.7-1.7-1.3
		c-0.4-0.5-0.6-1.1-0.6-1.8h3.1c0,0.4,0.2,0.8,0.5,1.1c0.4,0.2,0.8,0.4,1.2,0.3c0.4,0,0.7-0.1,1-0.3
		C1187.4,910.7,1187.5,910.5,1187.5,910.2L1187.5,910.2z"/>
	
		<linearGradient id="Trazado_195286_00000104672026437541458900000012358836645508038825_" gradientUnits="userSpaceOnUse" x1="262.27" y1="1326.379" x2="298.27" y2="1326.379">
		<stop  offset="0" style="stop-color:#D2CCD0"/>
		<stop  offset="1" style="stop-color:#F1F1F1"/>
	</linearGradient>
	<path id="Trazado_195286" style="fill:url(#Trazado_195286_00000104672026437541458900000012358836645508038825_);" d="
		M262.3,1326.4c0-9.9,8.1-18,18-18s18,8.1,18,18s-8.1,18-18,18S262.3,1336.3,262.3,1326.4z"/>
	
		<linearGradient id="Trazado_195288_00000062876542435988933980000011304941728135875761_" gradientUnits="userSpaceOnUse" x1="605.269" y1="1326.379" x2="641.269" y2="1326.379">
		<stop  offset="0" style="stop-color:#D2CCD0"/>
		<stop  offset="1" style="stop-color:#F1F1F1"/>
	</linearGradient>
	<path id="Trazado_195288" style="fill:url(#Trazado_195288_00000062876542435988933980000011304941728135875761_);" d="
		M605.3,1326.4c0-9.9,8.1-18,18-18s18,8.1,18,18s-8.1,18-18,18S605.3,1336.3,605.3,1326.4z"/>
	
		<linearGradient id="Trazado_195290_00000097469121366342922010000012379581451140649361_" gradientUnits="userSpaceOnUse" x1="949.15" y1="1326.379" x2="985.15" y2="1326.379">
		<stop  offset="0" style="stop-color:#D2CCD0"/>
		<stop  offset="1" style="stop-color:#F1F1F1"/>
	</linearGradient>
	<path id="Trazado_195290" style="fill:url(#Trazado_195290_00000097469121366342922010000012379581451140649361_);" d="
		M949.2,1326.4c0-9.9,8.1-18,18-18s18,8.1,18,18s-8.1,18-18,18S949.2,1336.3,949.2,1326.4z"/>
	
		<linearGradient id="Trazado_195292_00000174572339167953364780000000969143890169510022_" gradientUnits="userSpaceOnUse" x1="1292.1479" y1="1326.379" x2="1328.1479" y2="1326.379">
		<stop  offset="0" style="stop-color:#D2CCD0"/>
		<stop  offset="1" style="stop-color:#F1F1F1"/>
	</linearGradient>
	<path id="Trazado_195292" style="fill:url(#Trazado_195292_00000174572339167953364780000000969143890169510022_);" d="
		M1292.1,1326.4c0-9.9,8.1-18,18-18s18,8.1,18,18s-8.1,18-18,18S1292.1,1336.3,1292.1,1326.4z"/>
	
		<linearGradient id="Trazado_195294_00000129201885622300783060000006767730116577060229_" gradientUnits="userSpaceOnUse" x1="1120.27" y1="836.219" x2="1156.27" y2="836.219">
		<stop  offset="0" style="stop-color:#D2CCD0"/>
		<stop  offset="1" style="stop-color:#F1F1F1"/>
	</linearGradient>
	<path id="Trazado_195294" style="fill:url(#Trazado_195294_00000129201885622300783060000006767730116577060229_);" d="
		M1120.3,836.2c0-9.9,8.1-18,18-18s18,8.1,18,18s-8.1,18-18,18S1120.3,846.2,1120.3,836.2z"/>
	
		<linearGradient id="Trazado_195296_00000045579991332414651160000014686397280735399305_" gradientUnits="userSpaceOnUse" x1="777.269" y1="836.219" x2="813.269" y2="836.219">
		<stop  offset="0" style="stop-color:#D2CCD0"/>
		<stop  offset="1" style="stop-color:#F1F1F1"/>
	</linearGradient>
	<path id="Trazado_195296" style="fill:url(#Trazado_195296_00000045579991332414651160000014686397280735399305_);" d="
		M777.3,836.2c0-9.9,8.1-18,18-18s18,8.1,18,18s-8.1,18-18,18S777.3,846.2,777.3,836.2z"/>
	
		<linearGradient id="Trazado_195298_00000100356135290010197890000016346241480097679524_" gradientUnits="userSpaceOnUse" x1="434.27" y1="836.219" x2="470.27" y2="836.219">
		<stop  offset="0" style="stop-color:#D2CCD0"/>
		<stop  offset="1" style="stop-color:#F1F1F1"/>
	</linearGradient>
	<path id="Trazado_195298" style="fill:url(#Trazado_195298_00000100356135290010197890000016346241480097679524_);" d="
		M434.3,836.2c0-9.9,8.1-18,18-18s18,8.1,18,18s-8.1,18-18,18S434.3,846.2,434.3,836.2z"/>
</g>
</svg>
