<svg xmlns="http://www.w3.org/2000/svg" width="187" height="187" viewBox="0 0 187 187">
  <g id="Grupo_132741" data-name="Grupo 132741" transform="translate(-357.57 -5936.027)">
    <g id="Grupo_128142" data-name="Grupo 128142" transform="translate(367.49 5945.758)">
      <g id="Trazado_187974" data-name="Trazado 187974" transform="translate(0.08 0.269)" fill="#fff">
        <path d="M 83.5 172 C 77.49864959716797 172 71.49960327148438 171.3950958251953 65.66944885253906 170.2020721435547 C 59.98495101928711 169.0388488769531 54.39345169067383 167.3031463623047 49.05027389526367 165.0431823730469 C 43.80519866943359 162.82470703125 38.74672317504883 160.0791015625 34.01532363891602 156.8826293945312 C 29.33017539978027 153.7174072265625 24.92462539672852 150.08251953125 20.92104911804199 146.0789489746094 C 16.9174747467041 142.0753784179688 13.28260040283203 137.6698303222656 10.11737537384033 132.9846801757812 C 6.920899868011475 128.2532806396484 4.175300121307373 123.1948013305664 1.956825017929077 117.9497222900391 C -0.3031499981880188 112.6065521240234 -2.038850069046021 107.0150527954102 -3.202075004577637 101.3305511474609 C -4.395100116729736 95.50039672851562 -5 89.50135040283203 -5 83.5 C -5 77.49864959716797 -4.395100116729736 71.49960327148438 -3.202075004577637 65.66944885253906 C -2.038850069046021 59.98495101928711 -0.3031499981880188 54.39345169067383 1.956825017929077 49.05027389526367 C 4.175300121307373 43.80519866943359 6.920899868011475 38.74672317504883 10.11737537384033 34.01532363891602 C 13.28260040283203 29.33017539978027 16.9174747467041 24.92462539672852 20.92104911804199 20.92104911804199 C 24.92462539672852 16.9174747467041 29.33017539978027 13.28260040283203 34.01532363891602 10.11737537384033 C 38.74672317504883 6.920899868011475 43.80519866943359 4.175300121307373 49.05027389526367 1.956825017929077 C 54.39345169067383 -0.3031499981880188 59.98495101928711 -2.038850069046021 65.66944885253906 -3.202075004577637 C 71.49960327148438 -4.395100116729736 77.49864959716797 -5 83.5 -5 C 89.50135040283203 -5 95.50039672851562 -4.395100116729736 101.3305511474609 -3.202075004577637 C 107.0150527954102 -2.038850069046021 112.6065521240234 -0.3031499981880188 117.9497222900391 1.956825017929077 C 123.1948013305664 4.175300121307373 128.2532806396484 6.920899868011475 132.9846801757812 10.11737537384033 C 137.6698303222656 13.28260040283203 142.0753784179688 16.9174747467041 146.0789489746094 20.92104911804199 C 150.08251953125 24.92462539672852 153.7174072265625 29.33017539978027 156.8826293945312 34.01532363891602 C 160.0791015625 38.74672317504883 162.82470703125 43.80519866943359 165.0431823730469 49.05027389526367 C 167.3031463623047 54.39345169067383 169.0388488769531 59.98495101928711 170.2020721435547 65.66944885253906 C 171.3950958251953 71.49960327148438 172 77.49864959716797 172 83.5 C 172 89.50135040283203 171.3950958251953 95.50039672851562 170.2020721435547 101.3305511474609 C 169.0388488769531 107.0150527954102 167.3031463623047 112.6065521240234 165.0431823730469 117.9497222900391 C 162.82470703125 123.1948013305664 160.0791015625 128.2532806396484 156.8826293945312 132.9846801757812 C 153.7174072265625 137.6698303222656 150.08251953125 142.0753784179688 146.0789489746094 146.0789489746094 C 142.0753784179688 150.08251953125 137.6698303222656 153.7174072265625 132.9846801757812 156.8826293945312 C 128.2532806396484 160.0791015625 123.1948013305664 162.82470703125 117.9497222900391 165.0431823730469 C 112.6065521240234 167.3031463623047 107.0150527954102 169.0388488769531 101.3305511474609 170.2020721435547 C 95.50039672851562 171.3950958251953 89.50135040283203 172 83.5 172 Z" stroke="none"/>
        <path d="M 83.5 0 C 37.38421630859375 0 0 37.38421630859375 0 83.5 C 0 129.6157836914062 37.38421630859375 167 83.5 167 C 129.6157836914062 167 167 129.6157836914062 167 83.5 C 167 37.38421630859375 129.6157836914062 0 83.5 0 M 83.5 -10 C 135.0560607910156 -10 177 31.94393920898438 177 83.5 C 177 135.0560607910156 135.0560607910156 177 83.5 177 C 31.94393920898438 177 -10 135.0560607910156 -10 83.5 C -10 31.94393920898438 31.94393920898438 -10 83.5 -10 Z" stroke="none" fill="#ff9500"/>
      </g>
    </g>
    <g id="Grupo_131921" data-name="Grupo 131921" transform="translate(57.54 315.588)">
      <g id="Grupo_131920" data-name="Grupo 131920" transform="translate(339.03 5664.709)">
        <path id="Trazado_194587" data-name="Trazado 194587" d="M8521.083,496.671V454.815h-12.129a15.935,15.935,0,0,1-4.657-.568c-1.961-.6-3.6-1.593-4.176-3.748a5.111,5.111,0,0,1,2.935-6.29,10.781,10.781,0,0,1,4.388-.922c5.366-.027,10.73-.078,16.1-.105,2.989-.015,5.979,0,8.969,0,1.194,0,1.7.471,1.787,1.677.025.334.037.67.037,1.005q.006,3.565.007,7.129c0,4.669.062,9.339-.021,14.006a2.324,2.324,0,0,0,1.152,2.151c2.822,2.077,5.611,4.2,8.413,6.3a1.653,1.653,0,0,1,.688,1.415q-.012,14.827,0,29.654a1.581,1.581,0,0,1-1.742,1.753c-.895,0-1.789-.02-2.685-.026-.219,0-.44.021-.721.036v16.805c0,4.818-.028,9.635.026,14.452a1.781,1.781,0,0,1-1.6,1.667c-2.593,0-5.187.027-7.777-.016a1.494,1.494,0,0,1-1.623-1.664c.042-2.958.014-5.917.014-8.876q0-10.835,0-21.67c0-.719,0-.72-.743-.719-3.32.008-6.64.022-9.96.022-.633,0-1.266-.086-1.9-.084-2.327.007-4.655.052-6.982.047a14.624,14.624,0,0,1-5.171-.722,5.243,5.243,0,0,1-.445-9.943,9.387,9.387,0,0,1,3.575-.793c4.509-.053,9.017-.081,13.524-.118C8520.572,496.669,8520.79,496.671,8521.083,496.671Zm10.178,8.491V446.318h-7.166v58.844Zm10.179-.012v-3.173q0-11.979.008-23.957a.968.968,0,0,0-.459-.912c-1.141-.813-2.236-1.69-3.355-2.534-1.056-.8-2.118-1.58-3.266-2.435V505.15Zm-5.053,3.157c-1.455,0-2.851.025-4.244-.012-.543-.015-.682.152-.681.685q.023,14.231.012,28.462v.614h4.913Zm-15.318-3.131c0-1.618,0-3.183,0-4.748,0-.735,0-.742-.743-.736-4.428.035-8.855.054-13.283.125a6.1,6.1,0,0,0-3.083.879,2.123,2.123,0,0,0-.935,2.22,2.09,2.09,0,0,0,1.592,1.646,12.016,12.016,0,0,0,3.225.588c4.19.066,8.382.027,12.573.027Zm-.028-58.835a2.327,2.327,0,0,0-.245-.028c-4.531,0-9.062-.041-13.593.03a9.265,9.265,0,0,0-2.871.69,2.007,2.007,0,0,0-1.384,1.94,1.95,1.95,0,0,0,1.3,1.95,9.338,9.338,0,0,0,2.969.728c4.4.085,8.8.049,13.2.056h.625Z" transform="translate(-8436.673 -443.174)"/>
        <path id="Trazado_194588" data-name="Trazado 194588" d="M8226.756,856.8c1.986,0,3.945,0,5.9,0a1.575,1.575,0,0,1,1.764,1.783q0,7.1,0,14.209a1.619,1.619,0,0,1-1.779,1.794q-9.9.006-19.8,0h-55.714c-1.46,0-2.921-.018-4.381,0a1.736,1.736,0,0,1-1.931-1.933q.056-7.048,0-14.1a1.72,1.72,0,0,1,1.766-1.785c1.905.064,3.815.006,5.723.029a.58.58,0,0,0,.666-.477c.554-1.646,1.139-3.281,1.723-4.917a1.471,1.471,0,0,1,1.534-1.1q9.369,0,18.739.01,7.572,0,15.141-.011,11.244,0,22.488,0c1.518,0,3.037.036,4.555-.015a1.743,1.743,0,0,1,1.732,1.19C8225.514,853.233,8226.121,854.994,8226.756,856.8Zm4.533,3.077h-77.3v11.583h77.3Zm-9.021-6.548h-2.117q-28,0-56-.02c-.7,0-1.016.185-1.2.845-.229.838-.562,1.648-.87,2.527h61.382C8223.047,855.513,8222.662,854.433,8222.268,853.325Z" transform="translate(-8150.81 -776.555)"/>
        <path id="Trazado_194589" data-name="Trazado 194589" d="M8312.755,497.28c0,3.8,0,7.6-.007,11.406a1.642,1.642,0,0,1-.729,1.416q-3.016,2.074-6.028,4.155-5.435,3.752-10.867,7.5a1.73,1.73,0,0,1-2.53,0c-2.25-1.551-4.511-3.086-6.76-4.637q-5.1-3.517-10.185-7.053a1.333,1.333,0,0,1-.6-1.179q.018-11.7,0-23.4a1.5,1.5,0,0,1,.71-1.323q5.1-3.49,10.194-6.994,3.521-2.421,7.036-4.853a1.53,1.53,0,0,1,1.859.034q4.928,3.385,9.837,6.794c2.4,1.662,4.8,3.343,7.225,4.971a1.95,1.95,0,0,1,.83,1.807c.018,3.784.009,7.569.009,11.353Zm-3.117-8.823c-.151.087-.212.118-.267.156q-2.985,2.067-5.97,4.134c-2.572,1.772-5.151,3.535-7.719,5.313a.641.641,0,0,0-.249.436c-.037,2.006-.068,4.012-.072,6.017,0,1.4.048,2.79.058,4.186a1.623,1.623,0,0,1-.985,1.523,1.576,1.576,0,0,1-2.139-1.614c0-3.3-.006-6.6.015-9.9a.84.84,0,0,0-.435-.795q-2.143-1.443-4.266-2.914c-.578-.4-1.128-.838-1.705-1.235-1.57-1.077-3.147-2.141-4.722-3.211-1.007-.685-2.011-1.373-3.067-2.093-.019.16-.035.23-.035.3q0,9.427.013,18.854a.888.888,0,0,0,.351.612q3.268,2.306,6.564,4.572,4.251,2.94,8.517,5.859a.7.7,0,0,0,.627.031c3.21-2.2,6.4-4.431,9.6-6.644q2.72-1.879,5.466-3.721a.834.834,0,0,0,.425-.794q-.021-9.232-.009-18.463Zm-15.779-13.042-14.611,10.079,14.607,10.092,14.63-10.092Z" transform="translate(-8252.547 -466.797)"/>
        <path id="Trazado_194590" data-name="Trazado 194590" d="M8275.427,763.558c-.247-.716.326-1.43,1.253-1.548a3.551,3.551,0,0,1,.448-.006h20.3q2.833,0,5.667,0a1.53,1.53,0,0,1,1.63,1.126,1.482,1.482,0,0,1-.813,1.766,1.712,1.712,0,0,1-.79.177q-12.844.01-25.685,0c-.222,0-.444-.042-.666-.063Z" transform="translate(-8252.81 -704.254)"/>
        <path id="Trazado_194591" data-name="Trazado 194591" d="M8179.775,469.813c-2.247,0-4.5-.009-6.742,0-3.28.016-6.562.05-9.842.07a1.614,1.614,0,0,1-1.614-1.023,1.4,1.4,0,0,1,.435-1.679,2.2,2.2,0,0,1,1.117-.388c1.714-.038,3.428-.017,5.143-.01,2.614.011,5.229.038,7.845.04,3.36,0,6.721-.015,10.082-.02a1.486,1.486,0,0,1,1.6,1.085,1.382,1.382,0,0,1-.531,1.616,2.281,2.281,0,0,1-1.176.362c-2.105.035-4.21.016-6.316.016Z" transform="translate(-8159.54 -462.499)"/>
        <path id="Trazado_194592" data-name="Trazado 194592" d="M8158.486,765.116c-1.893,0-3.786.026-5.679-.011a1.667,1.667,0,0,1-1.785-1.076,1.549,1.549,0,0,1,1.425-2.023c4.053-.023,8.105-.015,12.158,0a1.616,1.616,0,0,1,1.531,1.284,1.5,1.5,0,0,1-.869,1.626,3.129,3.129,0,0,1-1.187.186c-1.864.018-3.729.008-5.594.008Z" transform="translate(-8150.915 -704.249)"/>
        <path id="Trazado_194593" data-name="Trazado 194593" d="M8168.11,615.515c1.694,0,3.391.015,5.086-.006a1.461,1.461,0,0,1,1.553,1.505,1.543,1.543,0,0,1-1.57,1.519q-5.086.005-10.172,0a1.576,1.576,0,0,1-1.562-1.538,1.539,1.539,0,0,1,1.58-1.5C8164.717,615.555,8166.415,615.515,8168.11,615.515Z" transform="translate(-8159.518 -584.288)"/>
        <path id="Trazado_194594" data-name="Trazado 194594" d="M8165.016,690.262c2.728,0,5.456.025,8.183-.015a1.516,1.516,0,1,1,.009,3.032c-3.4,0-6.8-.014-10.2.012a1.632,1.632,0,0,1-1.569-1.588,1.569,1.569,0,0,1,1.563-1.455A19.894,19.894,0,0,0,8165.016,690.262Z" transform="translate(-8159.515 -645.494)"/>
        <path id="Trazado_194595" data-name="Trazado 194595" d="M8523.343,540.748c1.694,0,3.392.037,5.084-.016a1.6,1.6,0,0,1,1.555,1.488,1.543,1.543,0,0,1-1.545,1.546q-5.086,0-10.172,0a1.474,1.474,0,0,1-1.576-1.537,1.442,1.442,0,0,1,1.569-1.48Q8520.8,540.746,8523.343,540.748Z" transform="translate(-8450.422 -523.062)"/>
        <path id="Trazado_194596" data-name="Trazado 194596" d="M8168.036,543.836c-1.7,0-3.391,0-5.086,0a1.538,1.538,0,0,1-1.469-1.251,1.392,1.392,0,0,1,.67-1.509,2.179,2.179,0,0,1,.984-.246c3.373-.017,6.744-.013,10.116-.009a1.464,1.464,0,0,1,1.5,1.5,1.571,1.571,0,0,1-1.518,1.516C8171.5,543.841,8169.77,543.836,8168.036,543.836Z" transform="translate(-8159.517 -523.13)"/>
        <path id="Trazado_194597" data-name="Trazado 194597" d="M8523.13,615.632c1.8,0,3.607-.026,5.409.012a1.343,1.343,0,0,1,1.294,1.5,1.47,1.47,0,0,1-1.433,1.457c-1.573.01-3.147,0-4.722,0-1.845,0-3.687,0-5.531,0a1.51,1.51,0,0,1-.583-2.929,1.505,1.505,0,0,1,.534-.085c1.677-.006,3.354,0,5.031,0Z" transform="translate(-8450.318 -584.359)"/>
        <path id="Trazado_194598" data-name="Trazado 194598" d="M8523.349,690.346q2.569,0,5.139,0a1.5,1.5,0,0,1,1.468,1.423,1.522,1.522,0,0,1-1.432,1.591q-5.168.016-10.335,0a1.48,1.48,0,0,1-1.5-1.546,1.434,1.434,0,0,1,1.521-1.468Q8520.78,690.343,8523.349,690.346Z" transform="translate(-8450.421 -645.578)"/>
        <path id="Trazado_194599" data-name="Trazado 194599" d="M8424.41,466.871c1.26,0,2.523-.064,3.779.022a1.385,1.385,0,0,1,1.334,1.528,1.461,1.461,0,0,1-1.5,1.476c-1.641.063-3.289,0-4.934,0-.77,0-1.541.029-2.312.02a1.553,1.553,0,0,1-1.533-1.044,1.366,1.366,0,0,1,.461-1.67,2.835,2.835,0,0,1,1.293-.362c1.133-.049,2.271-.016,3.408-.016Z" transform="translate(-8370.548 -462.529)"/>
        <path id="Trazado_194600" data-name="Trazado 194600" d="M8275.432,770.606l1.344,1.449C8275.854,772.088,8275.168,771.348,8275.432,770.606Z" transform="translate(-8252.814 -711.302)"/>
      </g>
    </g>
  </g>
</svg>
