<svg xmlns="http://www.w3.org/2000/svg" width="187" height="187" viewBox="0 0 187 187">
  <g id="Grupo_132744" data-name="Grupo 132744" transform="translate(9422 5747.231)">
    <g id="Grupo_131913" data-name="Grupo 131913" transform="translate(-9412.08 -5737.5)">
      <g id="Trazado_187974" data-name="Trazado 187974" transform="translate(0.08 0.269)" fill="#f3f9ff">
        <path d="M 83.5 172 C 77.49864959716797 172 71.49960327148438 171.3950958251953 65.66944885253906 170.2020721435547 C 59.98495101928711 169.0388488769531 54.39345169067383 167.3031463623047 49.05027389526367 165.0431823730469 C 43.80519866943359 162.82470703125 38.74672317504883 160.0791015625 34.01532363891602 156.8826293945312 C 29.33017539978027 153.7174072265625 24.92462539672852 150.08251953125 20.92104911804199 146.0789489746094 C 16.9174747467041 142.0753784179688 13.28260040283203 137.6698303222656 10.11737537384033 132.9846801757812 C 6.920899868011475 128.2532806396484 4.175300121307373 123.1948013305664 1.956825017929077 117.9497222900391 C -0.3031499981880188 112.6065521240234 -2.038850069046021 107.0150527954102 -3.202075004577637 101.3305511474609 C -4.395100116729736 95.50039672851562 -5 89.50135040283203 -5 83.5 C -5 77.49864959716797 -4.395100116729736 71.49960327148438 -3.202075004577637 65.66944885253906 C -2.038850069046021 59.98495101928711 -0.3031499981880188 54.39345169067383 1.956825017929077 49.05027389526367 C 4.175300121307373 43.80519866943359 6.920899868011475 38.74672317504883 10.11737537384033 34.01532363891602 C 13.28260040283203 29.33017539978027 16.9174747467041 24.92462539672852 20.92104911804199 20.92104911804199 C 24.92462539672852 16.9174747467041 29.33017539978027 13.28260040283203 34.01532363891602 10.11737537384033 C 38.74672317504883 6.920899868011475 43.80519866943359 4.175300121307373 49.05027389526367 1.956825017929077 C 54.39345169067383 -0.3031499981880188 59.98495101928711 -2.038850069046021 65.66944885253906 -3.202075004577637 C 71.49960327148438 -4.395100116729736 77.49864959716797 -5 83.5 -5 C 89.50135040283203 -5 95.50039672851562 -4.395100116729736 101.3305511474609 -3.202075004577637 C 107.0150527954102 -2.038850069046021 112.6065521240234 -0.3031499981880188 117.9497222900391 1.956825017929077 C 123.1948013305664 4.175300121307373 128.2532806396484 6.920899868011475 132.9846801757812 10.11737537384033 C 137.6698303222656 13.28260040283203 142.0753784179688 16.9174747467041 146.0789489746094 20.92104911804199 C 150.08251953125 24.92462539672852 153.7174072265625 29.33017539978027 156.8826293945312 34.01532363891602 C 160.0791015625 38.74672317504883 162.82470703125 43.80519866943359 165.0431823730469 49.05027389526367 C 167.3031463623047 54.39345169067383 169.0388488769531 59.98495101928711 170.2020721435547 65.66944885253906 C 171.3950958251953 71.49960327148438 172 77.49864959716797 172 83.5 C 172 89.50135040283203 171.3950958251953 95.50039672851562 170.2020721435547 101.3305511474609 C 169.0388488769531 107.0150527954102 167.3031463623047 112.6065521240234 165.0431823730469 117.9497222900391 C 162.82470703125 123.1948013305664 160.0791015625 128.2532806396484 156.8826293945312 132.9846801757812 C 153.7174072265625 137.6698303222656 150.08251953125 142.0753784179688 146.0789489746094 146.0789489746094 C 142.0753784179688 150.08251953125 137.6698303222656 153.7174072265625 132.9846801757812 156.8826293945312 C 128.2532806396484 160.0791015625 123.1948013305664 162.82470703125 117.9497222900391 165.0431823730469 C 112.6065521240234 167.3031463623047 107.0150527954102 169.0388488769531 101.3305511474609 170.2020721435547 C 95.50039672851562 171.3950958251953 89.50135040283203 172 83.5 172 Z" stroke="none"/>
        <path d="M 83.5 0 C 37.38421630859375 0 0 37.38421630859375 0 83.5 C 0 129.6157836914062 37.38421630859375 167 83.5 167 C 129.6157836914062 167 167 129.6157836914062 167 83.5 C 167 37.38421630859375 129.6157836914062 0 83.5 0 M 83.5 -10 C 135.0560607910156 -10 177 31.94393920898438 177 83.5 C 177 135.0560607910156 135.0560607910156 177 83.5 177 C 31.94393920898438 177 -10 135.0560607910156 -10 83.5 C -10 31.94393920898438 31.94393920898438 -10 83.5 -10 Z" stroke="none" fill="#ff9500"/>
      </g>
    </g>
    <g id="Grupo_131924" data-name="Grupo 131924" transform="translate(-18047.561 -6960.345)">
      <path id="Trazado_194642" data-name="Trazado 194642" d="M8734.315,1464.789c6.381,1.046,12.533,2.33,18.29,5.065a2.891,2.891,0,0,0,1.192.191c3.017.015,6.033.031,9.049-.005.84-.01,1.181.129,1.359,1.117.554,3.063,1.337,6.085,2.014,9.127,1.031,4.628,2.045,9.26,3.069,13.889a29.09,29.09,0,0,0,1.066,4.539c1.113,2.778.29,5.614.538,8.409.1,1.154.017,2.324.017,3.573h-3.082c0-2.363-.039-4.718.021-7.07.022-.858-.223-1.1-1.08-1.1q-48.073.031-96.146.017h-.884v8.152h-3.1c0-1.165.058-2.323-.012-3.474a39.652,39.652,0,0,1,1.25-12.13c1.058-4.2,1.927-8.451,2.879-12.679l2.778-12.356c2.435,0,4.863-.031,7.291.01a13.561,13.561,0,0,0,6.04-1.024,58.52,58.52,0,0,1,15.4-4.073c.922-.14,1.008-.488,1-1.234-.025-3.325.011-6.651-.019-9.976a1.782,1.782,0,0,1,1.21-1.81c4.319-1.927,8.638-3.855,12.941-5.817a2.872,2.872,0,0,1,2.55-.074c4.3,1.959,8.605,3.918,12.929,5.834a2.11,2.11,0,0,1,1.438,2.2c-.042,3.256-.006,6.513,0,9.77Zm32.944,34.62a5.192,5.192,0,0,0-.044-.83q-1.354-6.151-2.728-12.3c-.931-4.165-1.86-8.33-2.821-12.489-.06-.253-.373-.621-.586-.634-1.08-.065-2.165-.03-3.316-.03,0,3.193-.043,6.241.019,9.285a4.241,4.241,0,0,1-1.787,3.6,28.975,28.975,0,0,1-11.266,4.973c-3.843.944-7.745,1.677-11.651,2.312a72.726,72.726,0,0,1-9.133.978,92.169,92.169,0,0,1-18.412-.793c-4.042-.675-8.087-1.382-12.081-2.3a34.848,34.848,0,0,1-10.49-4.094c-2.168-1.323-3.665-2.994-3.357-5.789a32.98,32.98,0,0,0,.021-3.6v-4.581c-1.069,0-2.023.031-2.973-.011-.576-.026-.748.221-.854.747-.278,1.394-.632,2.772-.945,4.159-.956,4.23-1.92,8.458-2.857,12.692-.638,2.874-1.239,5.755-1.872,8.7Zm-64-31.493a14.507,14.507,0,0,0-1.773.2c-3.689.9-7.422,1.667-11.041,2.8a38.093,38.093,0,0,0-6.637,3.059c-1.294.7-1.2,1.175.05,2.037.112.078.239.133.354.205a34.339,34.339,0,0,0,8.354,3.465,84.109,84.109,0,0,0,16.607,3.093,120.364,120.364,0,0,0,16.928.194,57.225,57.225,0,0,0,6.312-.643c2.747-.435,5.471-1.024,8.2-1.572a44.587,44.587,0,0,0,11.624-3.936,23.3,23.3,0,0,0,2.535-1.734c-.021-.166-.042-.331-.064-.5-6.1-4.139-13.17-5.423-20.393-6.775,0,.724-.037,1.2.007,1.668a2.254,2.254,0,0,1-1.634,2.489c-4.357,1.909-8.669,3.919-13.024,5.831a2.4,2.4,0,0,1-1.722.035c-4.521-1.955-9.015-3.977-13.509-5.994a1.69,1.69,0,0,1-1.186-1.824C8703.309,1469.375,8703.256,1468.725,8703.256,1467.916Zm-20.452,11.3c0,.994.053,2.053-.017,3.1a1.688,1.688,0,0,0,.953,1.763,46.034,46.034,0,0,0,4.372,2.2,56.262,56.262,0,0,0,13.38,3.535c4.123.544,8.255,1.15,12.4,1.362a100.52,100.52,0,0,0,11.8-.183,113.2,113.2,0,0,0,11.467-1.368,61.965,61.965,0,0,0,8.982-2.238,66.422,66.422,0,0,0,7.353-3.222,2.063,2.063,0,0,0,1.131-1.221,32.666,32.666,0,0,0,.054-3.918c-1.513.7-2.839,1.381-4.217,1.941a70.367,70.367,0,0,1-15.054,3.94,103.7,103.7,0,0,1-15.613,1.355,89.04,89.04,0,0,1-17.163-1.28c-4.072-.738-8.12-1.688-12.105-2.805C8687.934,1481.449,8685.469,1480.253,8682.8,1479.212Zm37.508-5.146a2.682,2.682,0,0,0,.5-.1c3.217-1.452,6.425-2.927,9.653-4.352a1.118,1.118,0,0,0,.785-1.221c-.034-3.909-.018-7.819-.022-11.728,0-.221-.041-.443-.062-.653-.141-.012-.219-.043-.271-.02-3.333,1.484-6.673,2.953-9.98,4.491a1.442,1.442,0,0,0-.581,1.11c-.043,3.669-.025,7.338-.025,11.008Zm-13.86-18.124a1.991,1.991,0,0,0-.135.414c-.013,4.149-.034,8.3,0,12.448,0,.256.348.618.62.745,2.369,1.108,4.756,2.179,7.142,3.25,1,.449,2.013.871,3.177,1.373,0-4.474.011-8.689-.028-12.9,0-.256-.36-.615-.638-.746-1.937-.915-3.9-1.786-5.85-2.665C8709.318,1457.219,8707.9,1456.588,8706.451,1455.942Zm22.383-2.362a3.864,3.864,0,0,0-.491-.35c-3.082-1.4-6.165-2.807-9.26-4.181a1.162,1.162,0,0,0-.838.038q-3.624,1.591-7.225,3.236c-.765.348-1.507.743-2.459,1.215,3.422,1.54,6.565,2.959,9.717,4.36a1.026,1.026,0,0,0,.735.054C8722.261,1456.525,8725.5,1455.072,8728.834,1453.58Z" transform="translate(0 -151.952)"/>
      <path id="Trazado_194643" data-name="Trazado 194643" d="M8793.33,1295.2a2.441,2.441,0,0,0,.391.146c.556.082,1.528.031,1.594.252a7.31,7.31,0,0,1,.13,2.431c-.01.172-.417.429-.666.462a4.867,4.867,0,0,1-1.638,0c-1-.215-1.285.336-1.59,1.115-1.56,3.988-3.162,7.958-4.754,11.933a2.238,2.238,0,0,1-.216.341l-2.736-1.123,15.976-39.962c-.835-.1-1.517-.138-2.18-.274a4.591,4.591,0,0,1-3.49-4.377c0-2.263.111-4.534-.03-6.788a4.828,4.828,0,0,1,4.682-4.825q13.062-.1,26.124,0a4.95,4.95,0,0,1,4.816,4.971c-.047,1.919-.111,3.848.019,5.759a5.037,5.037,0,0,1-5.167,5.458c-.167,0-.333.035-.628.068,5.342,13.36,10.656,26.654,15.985,39.984l-2.815,1.113c-.612-1.536-1.221-3.071-1.839-4.6-1.081-2.679-2.185-5.349-3.242-8.037-.233-.593-.486-.856-1.187-.758a18.634,18.634,0,0,1-2.5.026V1295.4l2.1-.124-3.264-8.215h-7.724c.219,1.555.43,3.049.649,4.608l-2.962.377c-.277-1.673-.548-3.306-.835-5.032-2.81,0-5.614-.013-8.419.027-.205,0-.545.364-.586.6-.255,1.441-.44,2.895-.659,4.417l-3.018-.386c.217-1.528.43-3.025.663-4.657-2.51,0-4.9-.017-7.286.028-.218,0-.522.366-.631.626C8795.364,1290.142,8794.366,1292.635,8793.33,1295.2Zm18.507-37.608q-6.271,0-12.543,0c-1.478,0-2.136.658-2.143,2.117-.008,1.782,0,3.565,0,5.348,0,2.107.479,2.6,2.576,2.6h20.459c1.439,0,2.879.022,4.317-.007,1.562-.031,2.153-.659,2.153-2.2q0-2.777,0-5.553c0-1.622-.665-2.3-2.277-2.3Q8818.109,1257.586,8811.837,1257.589Zm4.012,26.31c-.323-2.2-.618-4.278-.954-6.354-.023-.143-.342-.337-.525-.34-1.77-.026-3.539-.015-5.391-.015-.365,2.265-.717,4.454-1.08,6.709Zm-11.037-.007c.348-2.252.679-4.389,1.035-6.693a16.837,16.837,0,0,1-2.473-.02c-2.007-.309-3.324.215-3.844,2.4a35.023,35.023,0,0,1-1.622,4.314Zm21.112.012c-.88-2.191-1.718-4.292-2.578-6.384a.616.616,0,0,0-.444-.324c-1.6-.024-3.194-.015-4.977-.015.379,2.361.733,4.564,1.08,6.724Zm-16.443-9.851h4.892c-.194-1.165-.37-2.222-.553-3.313-1.134,0-2.2-.032-3.253.024a.915.915,0,0,0-.688.508C8809.69,1272.159,8809.61,1273.069,8809.48,1274.053Zm-7.718.078c1.481,0,2.772.025,4.061-.025a.837.837,0,0,0,.589-.541c.17-.915.25-1.846.369-2.821-1.119,0-2.11-.026-3.1.019a.94.94,0,0,0-.7.4C8802.567,1272.046,8802.229,1272.968,8801.763,1274.13Zm15.16-3.386c.2,1.159.383,2.212.572,3.317h4.516c-.437-1.056-.809-2-1.225-2.921a.721.721,0,0,0-.506-.378C8819.194,1270.727,8818.105,1270.744,8816.923,1270.744Z" transform="translate(-93.159 0)"/>
      <path id="Trazado_194644" data-name="Trazado 194644" d="M8738.3,1454.079v2.9h-8.084v-2.9Z" transform="translate(-50.558 -158.536)"/>
      <path id="Trazado_194645" data-name="Trazado 194645" d="M9071.215,1456.9v-2.977h8.088v2.977Z" transform="translate(-321.416 -158.415)"/>
      <path id="Trazado_194646" data-name="Trazado 194646" d="M8755.588,1362.718c.631-.883,1.162-1.624,1.755-2.453l6.621,4.771-1.734,2.471Z" transform="translate(-70.714 -84.02)"/>
      <path id="Trazado_194647" data-name="Trazado 194647" d="M9050.617,1360.162l1.756,2.467-6.561,4.773c-.6-.8-1.166-1.537-1.828-2.411C9046.205,1363.373,9048.375,1361.795,9050.617,1360.162Z" transform="translate(-299.787 -83.938)"/>
      <path id="Trazado_194648" data-name="Trazado 194648" d="M9065.421,1409.479c-.307-.909-.6-1.793-.965-2.863l7.561-2.4.925,2.9Z" transform="translate(-316.048 -118.933)"/>
      <path id="Trazado_194649" data-name="Trazado 194649" d="M8734.637,1407.7a8.1,8.1,0,0,0,.6-1.773c.084-1.06.581-1.1,1.417-.819,2.135.722,4.285,1.4,6.468,2.109l-.925,2.853Z" transform="translate(-54.073 -119.52)"/>
      <path id="Trazado_194650" data-name="Trazado 194650" d="M8944.624,1286.845h3.007v2.992h-3.007Z" transform="translate(-220.865 -25.703)"/>
      <path id="Trazado_194651" data-name="Trazado 194651" d="M8881.229,1289.817v-2.939h2.954v2.939Z" transform="translate(-170.51 -25.728)"/>
      <path id="Trazado_194652" data-name="Trazado 194652" d="M8913.18,1289.9v-2.936h2.966v2.936Z" transform="translate(-195.889 -25.797)"/>
    </g>
  </g>
</svg>
