<svg xmlns="http://www.w3.org/2000/svg" width="187" height="187" viewBox="0 0 187 187">
  <g id="Grupo_132746" data-name="Grupo 132746" transform="translate(10124 5747.231)">
    <g id="Grupo_131917" data-name="Grupo 131917" transform="translate(-10114.08 -5737.5)">
      <g id="Trazado_187974" data-name="Trazado 187974" transform="translate(0.08 0.269)" fill="#f3f9ff">
        <path d="M 83.5 172 C 77.49864959716797 172 71.49960327148438 171.3950958251953 65.66944885253906 170.2020721435547 C 59.98495101928711 169.0388488769531 54.39345169067383 167.3031463623047 49.05027389526367 165.0431823730469 C 43.80519866943359 162.82470703125 38.74672317504883 160.0791015625 34.01532363891602 156.8826293945312 C 29.33017539978027 153.7174072265625 24.92462539672852 150.08251953125 20.92104911804199 146.0789489746094 C 16.9174747467041 142.0753784179688 13.28260040283203 137.6698303222656 10.11737537384033 132.9846801757812 C 6.920899868011475 128.2532806396484 4.175300121307373 123.1948013305664 1.956825017929077 117.9497222900391 C -0.3031499981880188 112.6065521240234 -2.038850069046021 107.0150527954102 -3.202075004577637 101.3305511474609 C -4.395100116729736 95.50039672851562 -5 89.50135040283203 -5 83.5 C -5 77.49864959716797 -4.395100116729736 71.49960327148438 -3.202075004577637 65.66944885253906 C -2.038850069046021 59.98495101928711 -0.3031499981880188 54.39345169067383 1.956825017929077 49.05027389526367 C 4.175300121307373 43.80519866943359 6.920899868011475 38.74672317504883 10.11737537384033 34.01532363891602 C 13.28260040283203 29.33017539978027 16.9174747467041 24.92462539672852 20.92104911804199 20.92104911804199 C 24.92462539672852 16.9174747467041 29.33017539978027 13.28260040283203 34.01532363891602 10.11737537384033 C 38.74672317504883 6.920899868011475 43.80519866943359 4.175300121307373 49.05027389526367 1.956825017929077 C 54.39345169067383 -0.3031499981880188 59.98495101928711 -2.038850069046021 65.66944885253906 -3.202075004577637 C 71.49960327148438 -4.395100116729736 77.49864959716797 -5 83.5 -5 C 89.50135040283203 -5 95.50039672851562 -4.395100116729736 101.3305511474609 -3.202075004577637 C 107.0150527954102 -2.038850069046021 112.6065521240234 -0.3031499981880188 117.9497222900391 1.956825017929077 C 123.1948013305664 4.175300121307373 128.2532806396484 6.920899868011475 132.9846801757812 10.11737537384033 C 137.6698303222656 13.28260040283203 142.0753784179688 16.9174747467041 146.0789489746094 20.92104911804199 C 150.08251953125 24.92462539672852 153.7174072265625 29.33017539978027 156.8826293945312 34.01532363891602 C 160.0791015625 38.74672317504883 162.82470703125 43.80519866943359 165.0431823730469 49.05027389526367 C 167.3031463623047 54.39345169067383 169.0388488769531 59.98495101928711 170.2020721435547 65.66944885253906 C 171.3950958251953 71.49960327148438 172 77.49864959716797 172 83.5 C 172 89.50135040283203 171.3950958251953 95.50039672851562 170.2020721435547 101.3305511474609 C 169.0388488769531 107.0150527954102 167.3031463623047 112.6065521240234 165.0431823730469 117.9497222900391 C 162.82470703125 123.1948013305664 160.0791015625 128.2532806396484 156.8826293945312 132.9846801757812 C 153.7174072265625 137.6698303222656 150.08251953125 142.0753784179688 146.0789489746094 146.0789489746094 C 142.0753784179688 150.08251953125 137.6698303222656 153.7174072265625 132.9846801757812 156.8826293945312 C 128.2532806396484 160.0791015625 123.1948013305664 162.82470703125 117.9497222900391 165.0431823730469 C 112.6065521240234 167.3031463623047 107.0150527954102 169.0388488769531 101.3305511474609 170.2020721435547 C 95.50039672851562 171.3950958251953 89.50135040283203 172 83.5 172 Z" stroke="none"/>
        <path d="M 83.5 0 C 37.38421630859375 0 0 37.38421630859375 0 83.5 C 0 129.6157836914062 37.38421630859375 167 83.5 167 C 129.6157836914062 167 167 129.6157836914062 167 83.5 C 167 37.38421630859375 129.6157836914062 0 83.5 0 M 83.5 -10 C 135.0560607910156 -10 177 31.94393920898438 177 83.5 C 177 135.0560607910156 135.0560607910156 177 83.5 177 C 31.94393920898438 177 -10 135.0560607910156 -10 83.5 C -10 31.94393920898438 31.94393920898438 -10 83.5 -10 Z" stroke="none" fill="#ff9500"/>
      </g>
    </g>
    <g id="Grupo_131926" data-name="Grupo 131926" transform="translate(-18135.012 -6965.927)">
      <path id="Trazado_194613" data-name="Trazado 194613" d="M8055.011,1263.795h97.545v97.558h-97.545Zm21.342,94.516h73.136v-73.119h-73.136Zm-3.135-79.248h-15.343c-.014.312-.034.536-.034.758q0,35.776-.019,71.551c0,.822.262,1.024,1.043,1.018,4.525-.032,9.051-.015,13.576-.018.247,0,.493-.032.776-.052Zm64.149-12.215h-79.34v8.992h79.34Zm-12.219,12.193h-33.56V1282h33.56Zm15.359-12.223v9.019h9.014v-9.019Zm-12.321,15.191h21.337v-2.987h-21.337Zm-54.986,73.256h-13.211c-2.164,0-2.129,0-2.168,2.182-.015.831.218,1.112,1.079,1.1,3.847-.042,7.693-.018,11.541-.018C8073.457,1358.531,8073.457,1358.531,8073.2,1355.265Zm15.271-76.23h-12.086V1282h12.086Z" transform="translate(0 0)"/>
      <path id="Trazado_194614" data-name="Trazado 194614" d="M8248.922,1451.931h-18.2v4.4H8182v-65.388h66.922Zm-2.907-15.44c.031-.428.064-.674.064-.92q0-20.418.018-40.837c0-.766-.219-.987-.983-.985q-13.578.036-27.156.018c-.308,0-.614.039-1.01.065V1404.5h-3.064v-10.685c-.349-.02-.569-.043-.791-.043-9.053,0-18.1.017-27.156-.013-.9,0-1.117.271-1.115,1.144q.032,21.285.009,42.57a2.87,2.87,0,0,0,.1.5,3.35,3.35,0,0,0,.593-.129c3.271-1.4,6.558-2.768,9.792-4.251.919-.422,1.3-.333,1.547.633a11.276,11.276,0,0,0,.667,1.578,2.825,2.825,0,0,1-.409.268c-3.825,1.637-7.647,3.285-11.489,4.884a1.087,1.087,0,0,0-.806,1.189c.029,3.435.038,6.87-.009,10.3-.012.873.292,1.069,1.11,1.057,3.209-.043,6.42-.018,9.63-.018,10.368,0,20.737-.011,31.1.021.9,0,1.185-.259,1.137-1.137-.064-1.141-.017-2.288-.017-3.536h18.3c0-2.9.018-5.685-.027-8.474a1.2,1.2,0,0,0-.606-.812c-1.5-.79-3.025-1.514-4.537-2.272-.99-.5-1.971-1.011-3-1.537.477-.942.9-1.769,1.322-2.61Z" transform="translate(-102.527 -102.655)"/>
      <path id="Trazado_194615" data-name="Trazado 194615" d="M8453.967,1726.521h-2.95v-2.865h2.95Z" transform="translate(-319.723 -371.278)"/>
      <path id="Trazado_194616" data-name="Trazado 194616" d="M8482.881,1726.137v-2.928c.887,0,1.738-.024,2.584.022a.65.65,0,0,1,.42.472c.045.789.021,1.582.021,2.433Z" transform="translate(-345.45 -370.913)"/>
      <path id="Trazado_194617" data-name="Trazado 194617" d="M8517.438,1723.479v2.864h-2.9v-2.864Z" transform="translate(-371.009 -371.136)"/>
      <path id="Trazado_194618" data-name="Trazado 194618" d="M8096.363,1370.788H8093.3v-3.03c-.974,0-1.829-.037-2.675.029-.186.015-.472.387-.49.613-.062.761-.022,1.531-.022,2.366h-2.694c0-2.8-.173-5.608.058-8.386a4.457,4.457,0,0,1,4.323-3.648,4.375,4.375,0,0,1,4.2,3.806A78.97,78.97,0,0,1,8096.363,1370.788Zm-3.092-5.976a7.781,7.781,0,0,0-.13-1.735c-.19-.623-.5-1.248-1.317-1.329-.856-.085-1.231.52-1.461,1.125a9.339,9.339,0,0,0-.309,1.939Z" transform="translate(-26.112 -76.643)"/>
      <path id="Trazado_194619" data-name="Trazado 194619" d="M8120.389,1472.792c-.245.025-.4.051-.557.056-2.541.081-2.9-.388-2.239-3h2.8Z" transform="translate(-50.294 -166.362)"/>
      <path id="Trazado_194620" data-name="Trazado 194620" d="M8120.965,1567.779c-.849,0-1.646.026-2.438-.021a.666.666,0,0,1-.48-.432c-.05-.823-.023-1.65-.023-2.511h2.942Z" transform="translate(-50.868 -243.036)"/>
      <path id="Trazado_194621" data-name="Trazado 194621" d="M8120.625,1659.788v3.022a10.139,10.139,0,0,1-2.45-.039c-1.028-.264-.373-1.232-.481-1.874-.067-.39-.286-1.061.5-1.1S8119.783,1659.788,8120.625,1659.788Z" transform="translate(-50.522 -319.704)"/>
      <path id="Trazado_194622" data-name="Trazado 194622" d="M8118.022,1691.823h2.921v2.969c-.807,0-1.631.026-2.45-.022a.665.665,0,0,1-.45-.463C8118,1693.516,8118.022,1692.719,8118.022,1691.823Z" transform="translate(-50.867 -345.577)"/>
      <path id="Trazado_194623" data-name="Trazado 194623" d="M8118.263,1536.663v-2.76h2.913v2.76Z" transform="translate(-51.067 -218.078)"/>
      <path id="Trazado_194624" data-name="Trazado 194624" d="M8086.856,1567.773v-2.865h2.8v2.865Z" transform="translate(-25.711 -243.11)"/>
      <path id="Trazado_194625" data-name="Trazado 194625" d="M8086.838,1472.947v-2.918h2.787v2.918Z" transform="translate(-25.696 -166.507)"/>
      <path id="Trazado_194626" data-name="Trazado 194626" d="M8121.259,1628.91v2.765h-2.9v-2.765Z" transform="translate(-51.149 -294.783)"/>
      <path id="Trazado_194627" data-name="Trazado 194627" d="M8086.933,1660.11h2.766v2.908h-2.766Z" transform="translate(-25.772 -319.973)"/>
      <path id="Trazado_194628" data-name="Trazado 194628" d="M8121.321,1501.927v2.752H8118.4v-2.752Z" transform="translate(-51.182 -192.261)"/>
      <path id="Trazado_194629" data-name="Trazado 194629" d="M8118.347,1438.7h2.874v2.8h-2.874Z" transform="translate(-51.136 -141.216)"/>
      <path id="Trazado_194630" data-name="Trazado 194630" d="M8118.64,1596.9h2.84v2.765h-2.84Z" transform="translate(-51.372 -268.938)"/>
      <path id="Trazado_194631" data-name="Trazado 194631" d="M8086.9,1694.9v-2.876h2.78v2.876Z" transform="translate(-25.742 -345.739)"/>
      <path id="Trazado_194632" data-name="Trazado 194632" d="M8089.748,1438.743v2.791h-2.79v-2.791Z" transform="translate(-25.793 -141.248)"/>
      <path id="Trazado_194633" data-name="Trazado 194633" d="M8087.073,1501.717h2.735v2.8h-2.735Z" transform="translate(-25.886 -192.091)"/>
      <path id="Trazado_194634" data-name="Trazado 194634" d="M8086.907,1533.822h2.776v2.793h-2.776Z" transform="translate(-25.751 -218.012)"/>
      <path id="Trazado_194635" data-name="Trazado 194635" d="M8086.879,1599.759v-2.768h2.786v2.768Z" transform="translate(-25.729 -269.013)"/>
      <path id="Trazado_194636" data-name="Trazado 194636" d="M8086.747,1631.782v-2.753h2.8v2.753Z" transform="translate(-25.623 -294.879)"/>
      <path id="Trazado_194637" data-name="Trazado 194637" d="M8118.022,1298.646v-2.793h2.95v2.793Z" transform="translate(-50.873 -25.883)"/>
      <path id="Trazado_194638" data-name="Trazado 194638" d="M8152.949,1298.653h-2.932v-2.8h2.932Z" transform="translate(-76.705 -25.885)"/>
      <path id="Trazado_194639" data-name="Trazado 194639" d="M8086.859,1298.711v-2.785h2.8v2.785Z" transform="translate(-25.713 -25.942)"/>
      <path id="Trazado_194640" data-name="Trazado 194640" d="M8307.63,1497.062h-3.016v-8.642c-1.152.515-2.181.958-3.2,1.431-2.395,1.115-4.791,2.227-7.162,3.389a1.267,1.267,0,0,0-.645.885c-.041,4.366-.027,8.732-.024,13.1a2.468,2.468,0,0,0,.093.4l4.7-2.171c.423.895.823,1.738,1.268,2.675-1.9.894-3.782,1.67-5.554,2.641a3.914,3.914,0,0,1-4.013-.009c-4.07-2.019-8.216-3.888-12.336-5.805a1.723,1.723,0,0,1-1.121-1.71q.021-8.524,0-17.047a1.508,1.508,0,0,1,.915-1.522c4.5-2.1,8.993-4.189,13.466-6.333a2.5,2.5,0,0,1,2.341.055q6.593,3.107,13.2,6.179a1.714,1.714,0,0,1,1.067,1.662C8307.641,1489.8,8307.63,1493.359,8307.63,1497.062Zm-17.072,10.588a4.963,4.963,0,0,0,.12-.732c0-4.237.013-8.474-.03-12.711a1.248,1.248,0,0,0-.586-.922c-2.478-1.216-4.982-2.377-7.484-3.545-.96-.448-1.933-.872-2.937-1.323a2.716,2.716,0,0,0-.1.43c0,4.333-.013,8.667.026,13a1.28,1.28,0,0,0,.594.919c1.175.627,2.4,1.168,3.6,1.731C8286,1505.54,8288.24,1506.575,8290.558,1507.65Zm11.952-21.569a4.527,4.527,0,0,0-.479-.323c-3.129-1.47-6.252-2.954-9.4-4.378a1.741,1.741,0,0,0-1.255.1c-2.231.992-4.444,2.031-6.655,3.069-.979.46-1.943.955-3.067,1.51,3.451,1.613,6.689,3.138,9.944,4.624a1.443,1.443,0,0,0,1.049,0c1.365-.589,2.7-1.246,4.054-1.878Z" transform="translate(-178.924 -173.003)"/>
      <path id="Trazado_194641" data-name="Trazado 194641" d="M8414.4,1596.413c-.658.676-1.3,1.338-2.034,2.087-.646-.681-1.283-1.3-1.855-1.968a1.118,1.118,0,0,0-1.479-.4,2.372,2.372,0,0,1-.986.326c-.295-.01-.774-.2-.843-.421-.728-2.321-1.392-4.662-2.125-7.176l7.5,2.386c.042.169.089.247.067.283-.976,1.612-.5,2.881.895,3.966A8.2,8.2,0,0,1,8414.4,1596.413Z" transform="translate(-282.631 -262.452)"/>
    </g>
  </g>
</svg>
