<svg xmlns="http://www.w3.org/2000/svg" width="190.001" height="172.605" viewBox="0 0 190.001 172.605">
  <g id="Grupo_132726" data-name="Grupo 132726" transform="translate(-179.999 -1052.449)">
    <g id="Grupo_132593" data-name="Grupo 132593" transform="translate(-8331.949 -952.948)">
      <g id="Grupo_81392" data-name="Grupo 81392" transform="translate(8511.948 2005.397)">
        <ellipse id="Elipse_4859" data-name="Elipse 4859" cx="42.612" cy="43.034" rx="42.612" ry="43.034" transform="translate(0 86.537)" fill="#afe1ed" opacity="0.5" style="isolation: isolate"/>
        <ellipse id="Elipse_4860" data-name="Elipse 4860" cx="24.201" cy="23.651" rx="24.201" ry="23.651" transform="translate(141.598)" fill="#ec490e" opacity="0.26" style="isolation: isolate"/>
      </g>
    </g>
    <g id="Grupo_132657" data-name="Grupo 132657" transform="translate(-2711.322 2568.109)">
      <rect id="Rectángulo_294881" data-name="Rectángulo 294881" width="128.214" height="17.374" transform="translate(2925.658 -1380.841)" fill="#6c6c6c"/>
      <g id="Grupo_132656" data-name="Grupo 132656" transform="translate(2908.738 -1512.592)">
        <g id="Grupo_132655" data-name="Grupo 132655" transform="translate(0 0)">
          <g id="Grupo_132654" data-name="Grupo 132654">
            <path id="Trazado_195207" data-name="Trazado 195207" d="M3128.055-1373.751c1.991,1.907,2.065,4.124-.045,5.883a20.218,20.218,0,0,1-6.31,3.714c-8.64,2.886-17.229,2.706-25.53-1.374a12.085,12.085,0,0,1-3.106-2.269c-1.962-1.949-2.043-4.031-.062-5.938a17.293,17.293,0,0,1,4.361-2.964,27.877,27.877,0,0,1,11.107-2.634c6.681-.032,11.178.692,15.367,2.689A16.283,16.283,0,0,1,3128.055-1373.751Z" transform="translate(-3032.46 1422.409)" fill="#95d3e8"/>
            <path id="Trazado_195208" data-name="Trazado 195208" d="M3129.486-1306.585a5.918,5.918,0,0,1-2.612,5.227,20.5,20.5,0,0,1-8.391,3.575,35.038,35.038,0,0,1-19.556-1.057,21.9,21.9,0,0,1-3.9-1.9,6.555,6.555,0,0,1-3.514-6.377c.2-4.942.055-9.9.055-14.947,12.709,6.184,25.193,6.232,37.88-.01v3.536C3129.443-1314.549,3129.333-1310.56,3129.486-1306.585Z" transform="translate(-3032.423 1383.655)" fill="#3777bc"/>
            <path id="Trazado_195209" data-name="Trazado 195209" d="M3311.927-1449.615v89.228a19.255,19.255,0,0,1-4.671-.433c-.869-.288-1.536-1.5-2.046-2.437a4.667,4.667,0,0,1-.152-2.069q-.01-39.749,0-79.5a12.4,12.4,0,0,1,.094-1.933,3.2,3.2,0,0,1,3.045-2.838C3309.367-1449.683,3310.55-1449.615,3311.927-1449.615Z" transform="translate(-3176.926 1469.989)" fill="#9e9e9f"/>
            <path id="Trazado_195210" data-name="Trazado 195210" d="M2978.008-1444.909q.015,39.919.007,79.834c0,2.773-.776,4.228-2.68,4.516a28.658,28.658,0,0,1-4.189.039v-89a36.333,36.333,0,0,1,4.079.032,2.97,2.97,0,0,1,2.631,2.5A9.557,9.557,0,0,1,2978.008-1444.909Z" transform="translate(-2950.972 1469.941)" fill="#9e9e9f"/>
            <path id="Trazado_195211" data-name="Trazado 195211" d="M2935.608-1493.121v142.831H2928v-142.831Z" transform="translate(-2921.77 1499.415)" fill="#6c6c6c"/>
            <path id="Trazado_195212" data-name="Trazado 195212" d="M3353.571-1493.121v142.831h-7.616v-142.831Z" transform="translate(-3204.629 1499.415)" fill="#6c6c6c"/>
            <path id="Trazado_195213" data-name="Trazado 195213" d="M3063.906-1374.458q0,6.71,0,13.421c-.006,2.638-1.1,3.737-3.72,3.737q-73.864,0-147.728,0c-2.625,0-3.717-1.1-3.717-3.737q-.005-72.923,0-145.847c0-3.478,2.172-5.627,5.659-5.64,2.961-.01,5.925-.016,8.889,0a5.219,5.219,0,0,1,5.518,5.447c.029,2.841.007,5.679.007,8.714,7.793-.578,12.794,2.2,13.143,10.706,2.709,0,5.333-.006,7.955,0,2.311.01,3.666,1.07,3.73,2.9.068,1.868-1.39,3.158-3.669,3.181-2.635.029-5.266.007-8.017.007v12.37c2.67,0,5.292-.006,7.913,0,2.36.007,3.779,1.16,3.772,3.042s-1.458,3.068-3.775,3.081c-2.583.016-5.166,0-7.887,0v12.335h5.266c.863,0,1.726,0,2.586,0,2.366.016,3.785,1.144,3.811,3.022s-1.425,3.083-3.74,3.1c-2.1.01-4.2,0-6.3,0h-1.658v12.377h6.859c.646,0,1.3-.032,1.94.029a3.062,3.062,0,0,1,2.9,3.1,2.991,2.991,0,0,1-3.045,2.938c-2.26.065-4.522.023-6.788.023-.582,0-1.164,0-1.975,0,0,2.66-.029,5.175.013,7.693.026,1.539-.382,3.572.423,4.461.7.773,2.832.272,4.328.3,1.131.026,2.262-.007,3.394.01,2.272.032,3.636,1.16,3.649,2.993s-1.371,3.013-3.6,3.032c-2.318.016-4.635.032-6.95-.01-.873-.013-1.2.252-1.286,1.173-.6,6.365-4.086,9.49-10.515,9.51-.747,0-1.49,0-2.35,0v16.5c.563.029,1.086.081,1.613.084,6.733,0,13.469-.032,20.2.032a2.112,2.112,0,0,0,2.275-1.5c1.38-3.155,2.89-6.255,4.312-9.393a3.516,3.516,0,0,1,3.559-2.237q25.372.039,50.752,0a3.7,3.7,0,0,1,3.756,2.44c1.426,3.2,2.887,6.381,4.438,9.513a2.247,2.247,0,0,0,1.623,1.1c7.056.074,14.116.052,21.172.045.313,0,.63-.058,1.06-.1v-16.508c-1.273,0-2.5.039-3.717-.006a9.205,9.205,0,0,1-9.093-8.912c-.068-1.445-.527-1.826-1.9-1.755-2.2.11-4.419.052-6.627.02-2.017-.029-3.329-1.2-3.368-2.938-.039-1.8,1.293-3.038,3.4-3.071,2.369-.039,4.742.036,7.108-.058.446-.016,1.235-.585,1.244-.912.087-3.759.055-7.522.055-11.507-2.508,0-4.858,0-7.205,0-.591,0-1.189.032-1.778-.026a3.026,3.026,0,0,1-2.822-2.993,3,3,0,0,1,2.958-3.029c2.314-.094,4.632-.032,6.949-.039h1.81v-12.377c-2.473,0-4.923,0-7.373,0-2.832,0-4.29-1-4.344-2.977-.055-2.049,1.451-3.142,4.332-3.145h7.366v-12.335h-6.979c-.592,0-1.19.032-1.778-.026a3.129,3.129,0,0,1-2.938-3.242,3.037,3.037,0,0,1,3.142-2.845c2.8-.042,5.6-.01,8.53-.01v-12.374c-1.6,0-3.194.006-4.784,0-1.345-.007-2.7.061-4.037-.058a3.034,3.034,0,0,1-2.854-3.135,2.972,2.972,0,0,1,3.087-2.874c2.314-.045,4.632-.016,6.949-.016h1.642c.368-8.491,5.346-11.3,13.146-10.7,0-2.67.152-5.143-.032-7.593-.349-4.722,2.9-6.914,6.536-6.62,2.518.2,5.063.039,7.593.042,3.918,0,5.986,2.059,5.986,5.964Zm-6.225,10.99V-1506.3h-7.616v142.831Zm-13.941-39.522v-89.228c-1.377,0-2.56-.068-3.734.016a3.2,3.2,0,0,0-3.045,2.838,12.4,12.4,0,0,0-.094,1.933q-.005,39.749,0,79.5a4.663,4.663,0,0,0,.152,2.069c.51.934,1.177,2.149,2.046,2.437A19.257,19.257,0,0,0,3043.739-1402.99Zm-.023,39.49v-10.845h-2q-20.2,0-40.4,0a12.031,12.031,0,0,1-1.933-.084,2.875,2.875,0,0,1-2.431-2.806c-.074-1.9,1.125-3.116,3.274-3.142,3.824-.048,7.648-.016,11.472-.026.556,0,1.112-.058,1.862-.1-1.018-2.211-1.872-4.189-2.857-6.1a1.783,1.783,0,0,0-1.357-.737q-23.031-.058-46.059-.013c-.414,0-1.054.184-1.2.475-1.031,2.04-1.959,4.128-3.051,6.481.979,0,1.61,0,2.24,0,3.824.006,7.648-.032,11.472.042a2.819,2.819,0,0,1,2.945,2.97,2.946,2.946,0,0,1-2.929,3.022c-.536.042-1.076.02-1.616.02q-20.117,0-40.237.006c-.672,0-1.344.065-2.049.1v10.735Zm-107.937-44.226q.005-39.919-.006-79.834a9.543,9.543,0,0,0-.152-2.088,2.969,2.969,0,0,0-2.631-2.5,36.332,36.332,0,0,0-4.079-.032v89a28.627,28.627,0,0,0,4.189-.039C2935-1403.5,2935.779-1404.952,2935.779-1407.726Zm-13.2,44.258V-1506.3h-7.612v142.831Z" transform="translate(-2908.738 1512.592)"/>
            <path id="Trazado_195214" data-name="Trazado 195214" d="M3122.839-1358.2c.159,4.283-1.694,7.457-4.919,10a26.818,26.818,0,0,1-11.792,4.959c-8.576,1.665-16.951,1.057-24.919-2.712-4-1.9-7.292-4.622-8.317-9.264a11.047,11.047,0,0,1-.207-2.4c-.013-8.349.065-16.7-.042-25.051a11.538,11.538,0,0,1,4.8-9.733,28.572,28.572,0,0,1,13.819-5.421c7.942-1.141,15.732-.569,22.982,3.119a26.426,26.426,0,0,1,6.193,4.784,8.676,8.676,0,0,1,2.379,6.507c-.035,4.364-.01,8.727-.01,13.091C3122.807-1366.281,3122.687-1362.238,3122.839-1358.2Zm-8.728,5.22a5.917,5.917,0,0,0,2.612-5.227c-.152-3.976-.042-7.965-.042-11.95v-3.536c-12.687,6.242-25.171,6.193-37.881.01,0,5.049.145,10-.055,14.947a6.555,6.555,0,0,0,3.513,6.378,21.894,21.894,0,0,0,3.905,1.9,35.039,35.039,0,0,0,19.556,1.057A20.5,20.5,0,0,0,3114.112-1352.98Zm1.1-27.757c2.111-1.758,2.036-3.976.045-5.883a16.287,16.287,0,0,0-4.218-2.893c-4.189-2-8.686-2.722-15.367-2.689a27.875,27.875,0,0,0-11.107,2.635,17.291,17.291,0,0,0-4.361,2.964c-1.982,1.907-1.9,3.989.062,5.938a12.082,12.082,0,0,0,3.106,2.269c8.3,4.079,16.889,4.26,25.53,1.374A20.217,20.217,0,0,0,3115.211-1380.737Z" transform="translate(-3019.661 1435.278)"/>
            <path id="Trazado_195215" data-name="Trazado 195215" d="M3180.446-1203.7a3,3,0,0,1-3.226,3.074c-1.939.039-3.879.007-5.815.007-1.833,0-3.662.029-5.5-.007-2.014-.039-3.261-1.225-3.255-3.016s1.238-2.971,3.281-2.99q5.654-.058,11.31,0A2.977,2.977,0,0,1,3180.446-1203.7Z" transform="translate(-3080.579 1305.552)"/>
            <path id="Trazado_195216" data-name="Trazado 195216" d="M3180.437-1432.553a2.99,2.99,0,0,1-3.006,3.135q-5.877.126-11.756,0a2.96,2.96,0,0,1-3.022-3.258c.1-1.677,1.354-2.757,3.3-2.78,1.878-.026,3.756-.006,5.638-.006s3.759-.023,5.637.006A2.983,2.983,0,0,1,3180.437-1432.553Z" transform="translate(-3080.572 1460.397)"/>
            <path id="Trazado_195217" data-name="Trazado 195217" d="M3145.485-1100.664a2.966,2.966,0,0,1-2.948,3.139,2.966,2.966,0,0,1-3.042-3.045,2.893,2.893,0,0,1,2.948-2.951A2.9,2.9,0,0,1,3145.485-1100.664Z" transform="translate(-3064.905 1235.75)"/>
            <path id="Trazado_195218" data-name="Trazado 195218" d="M3094.412-1206.617a2.933,2.933,0,0,1,3.174,3.093,2.934,2.934,0,0,1-3.2,2.906q-5.654.053-11.307,0a3.012,3.012,0,0,1-3.281-3.019c.01-1.749,1.3-2.948,3.307-2.99,1.885-.039,3.769-.01,5.657-.006S3092.527-1206.669,3094.412-1206.617Z" transform="translate(-3024.502 1305.539)"/>
            <path id="Trazado_195219" data-name="Trazado 195219" d="M3097.592-1432.545a2.932,2.932,0,0,1-2.993,3.126c-3.918.087-7.839.081-11.756,0a3,3,0,0,1-3.038-3.106,2.981,2.981,0,0,1,3.174-2.929c1.933-.036,3.866-.01,5.8-.01,1.878,0,3.759-.023,5.638.01A2.944,2.944,0,0,1,3097.592-1432.545Z" transform="translate(-3024.508 1460.398)"/>
          </g>
        </g>
      </g>
    </g>
  </g>
</svg>
