<svg xmlns="http://www.w3.org/2000/svg" width="154.85" height="154.935" viewBox="0 0 154.85 154.935">
  <g id="Grupo_132768" data-name="Grupo 132768" transform="translate(4425.006 11175)">
    <path id="Trazado_195136" data-name="Trazado 195136" d="M2407.836-174.739c0-.716,0-1.217,0-1.719q0-48.623,0-97.246a12.3,12.3,0,0,0-12.605-12.685q-62.452-.008-124.9,0a12.3,12.3,0,0,0-12.585,12.552q0,48.623,0,97.246v1.867h-2.372v43.264h154.85v-43.279Z" transform="translate(-6680.377 -10888.605)" fill="#fff"/>
    <path id="Trazado_195137" data-name="Trazado 195137" d="M2407.836-174.739h2.385v43.279h-154.85v-43.264h2.372v-1.867q0-48.623,0-97.246a12.3,12.3,0,0,1,12.585-12.552q62.452-.009,124.9,0a12.3,12.3,0,0,1,12.605,12.685q0,48.623,0,97.246C2407.836-175.957,2407.836-175.455,2407.836-174.739Zm-31.564-.021a35.068,35.068,0,0,1,3.544.024c1.391.149,1.691-.4,1.688-1.716-.041-15.9-.023-31.8-.026-47.706,0-.537-.052-1.074-.081-1.623l-2.2-.182c-.207-2.365-.207-2.361-2.438-2.36q-10.4,0-20.792,0c-.493,0-.985.044-1.626.075,0,1.882-.1,3.661.025,5.423.181,2.467-2.717,5.768-4.852,6.123-1.522.253-3.073.338-4.738.511v9.6h-4.814v4.781h-4.6v-4.827h-4.892v-9.743c-.845,0-1.545,0-2.245,0-3.875-.007-6.456-1.971-7.177-5.77a53.21,53.21,0,0,1-.472-6.1H2296.3c-.056.813-.107,1.55-.16,2.3l-2.348.172v1.732q0,23.7,0,47.4c0,.306-.1.667.026.9.2.369.537.907.848.929,1.4.1,2.81.044,4.372.044v-9.761h41.708c11.314,0,22.627.019,33.941-.024,1.26,0,1.665.329,1.611,1.627C2376.2-180.282,2376.272-177.635,2376.272-174.761Zm-116.311,4.654c-.028.584-.069,1.033-.069,1.482,0,10.3.023,20.593-.033,30.888-.007,1.408.381,1.806,1.8,1.805q71.1-.054,142.191,0c1.493,0,1.877-.437,1.869-1.894-.058-10.245-.03-20.49-.033-30.735,0-.493-.045-.986-.072-1.549Zm135.744-4.654c2.073,0,3.964-.093,5.839.03,1.421.093,1.78-.375,1.779-1.779q-.064-48.626-.038-97.253a7.659,7.659,0,0,0-7.991-8.058q-62.457-.017-124.914,0c-4.852,0-8.087,3.288-8.087,8.12q0,48.549-.005,97.1c0,.306-.1.671.027.9.2.36.562.894.859.9,5.4.054,10.791.039,16.322.039v-51.015l-2.276-.189-.257-2.435h-9.342V-242.7h9.363c.093-.876.171-1.61.248-2.337l2.354-.161v-31.3h116.1v31.344l2.293.124v19.05l-2.271.206Zm-69.891-87.457-.153.374a18.669,18.669,0,0,0,2.406,1.461c2.737,1.158,5.523,2.2,8.271,3.336,3.456,1.426,6.727,3.093,8.148,7.075h9.856c0,2.01.079,3.886-.027,5.751-.075,1.312.412,1.617,1.651,1.607,6.979-.053,13.959-.025,20.938-.026,2.079,0,2.077,0,2.232-2.114.006-.084.1-.161.177-.277l2.046-.157v-17.03Zm-5.5.076h-26.4v16.954l2.242.174.163,2.251h24.462v-7.277h18.161a5.271,5.271,0,0,0-2.126-1.785c-2.779-1.18-5.6-2.255-8.4-3.4C2324.932-256.645,2321.694-258.378,2320.315-262.142Zm70.676-9.829h-106.8a32.311,32.311,0,0,1-.023,3.369c-.156,1.47.463,1.765,1.825,1.764q51.661-.051,103.323-.03c.541,0,1.081-.054,1.672-.086Zm-87.367,97.21h64.567c3.546,0,3.49,0,3.55-3.507.022-1.311-.315-1.738-1.7-1.735q-32.462.067-64.925.034c-.486,0-.971.049-1.495.076Zm21.666-60.806c0,4.1-.043,8.014.021,11.929a2.481,2.481,0,0,0,2.336,2.693q9.93.035,19.859,0a2.126,2.126,0,0,0,2.263-2.3c.023-3.769.015-7.537.009-11.306a9.376,9.376,0,0,0-.108-1.018Zm-36.1,60.749v-50.948h-4.963v50.948Zm96.921-50.99v50.958h4.855v-50.958Zm-19.539-7.058h8.857c3.687,0,3.639,0,3.666-3.7.009-1.2-.333-1.559-1.554-1.548-6.464.06-12.929.029-19.393.03-3.874,0-3.839,0-3.821,3.827,0,1.06.328,1.428,1.4,1.412C2359.346-232.9,2362.96-232.87,2366.574-232.866Zm-16.828-12.563H2328.84c-3.578,0-3.523,0-3.584,3.622-.021,1.274.361,1.634,1.627,1.624,7.219-.056,14.44-.025,21.66-.031.388,0,.776-.063,1.2-.1Zm-29.085,7.34h-20.8c-3.646,0-3.6,0-3.638,3.689-.014,1.228.378,1.567,1.58,1.558,7.18-.049,14.362-.023,21.542-.029.438,0,.874-.061,1.321-.095Zm-29.035-2.349h-9.694v9.847h9.694Zm92-.019c0,3.116-.031,6.062.042,9a1.355,1.355,0,0,0,.919.954c2.64.079,5.283.073,7.923.007.336-.009.938-.51.944-.794.07-3.032.043-6.067.043-9.171Zm-94.4-21.692h-5.01V-245.2h5.01Zm101.732,17.01v-17.009h-4.815v17.009Zm-55.8,33.847c5.024.6,5.289.391,5.086-3.8,0-.1.039-.238-.011-.3-.251-.306-.512-.828-.8-.846-1.4-.087-2.814-.04-4.279-.04Zm-63.08-26.722c0,1.487-.045,2.852.033,4.211.018.321.435.868.7.885,1.389.089,2.788.042,4.191.042v-5.137Z" transform="translate(-6680.377 -10888.605)"/>
    <path id="Trazado_195138" data-name="Trazado 195138" d="M2463.417-42.941c0-2.874-.077-5.521.032-8.161.053-1.3-.351-1.631-1.611-1.627-11.313.043-22.626.024-33.94.024h-41.708v9.761c-1.563,0-2.974.057-4.373-.044-.311-.022-.648-.561-.847-.929-.129-.237-.027-.6-.027-.9q0-23.7,0-47.4v-1.732l2.347-.172c.052-.755.1-1.491.16-2.3h24.269a53.376,53.376,0,0,0,.472,6.1c.721,3.8,3.3,5.763,7.177,5.77.7,0,1.4,0,2.244,0v9.743h4.893v4.827h4.6v-4.781h4.814v-9.6c1.664-.173,3.215-.258,4.737-.511,2.137-.356,5.034-3.656,4.853-6.123-.13-1.762-.025-3.541-.025-5.423.641-.031,1.133-.075,1.625-.075q10.4-.005,20.793,0c2.229,0,2.229,0,2.437,2.36l2.2.182c.029.549.08,1.086.081,1.623q0,23.853.026,47.706c0,1.316-.3,1.865-1.688,1.716A35.056,35.056,0,0,0,2463.417-42.941Z" transform="translate(-6767.521 -11020.426)" fill="#95d3e8"/>
    <path id="Trazado_195139" data-name="Trazado 195139" d="M2270.151,93.873H2415.8c.027.563.071,1.056.071,1.549,0,10.245-.024,20.491.034,30.735.009,1.457-.375,1.895-1.868,1.894q-71.1-.057-142.191,0c-1.419,0-1.808-.4-1.8-1.805.055-10.3.029-20.592.032-30.889C2270.082,94.906,2270.122,94.457,2270.151,93.873Zm97.234,28.864h43.2V98.883h-43.2ZM2343.132,98.78c-5.955,0-11.91.029-17.865-.025-1.2-.011-1.584.352-1.563,1.557q.1,5.725,0,11.453c-.019,1.147.362,1.479,1.488,1.476q17.788-.05,35.578,0c1.132,0,1.5-.334,1.481-1.476q-.09-5.725,0-11.453c.021-1.2-.357-1.57-1.562-1.558C2354.838,98.81,2348.985,98.78,2343.132,98.78Zm-34.3.127h-33.484v4.509h33.484Zm-33.474,9.677v4.54h11.709v-4.54Z" transform="translate(-6690.567 -11152.585)" fill="#6c6c6c"/>
    <path id="Trazado_195140" data-name="Trazado 195140" d="M2411.318-164.4V-215.4l2.27-.206v-19.05l-2.292-.124v-31.344H2295.2v31.3l-2.354.161c-.078.727-.155,1.461-.248,2.337h-9.363v14.292h9.342l.257,2.435,2.276.189V-164.4c-5.531,0-10.927.015-16.322-.039-.3,0-.658-.538-.86-.9-.13-.233-.027-.6-.027-.9q0-48.55.005-97.1c0-4.832,3.235-8.118,8.086-8.12q62.458-.014,124.914,0a7.66,7.66,0,0,1,7.992,8.058q0,48.626.037,97.253c0,1.4-.356,1.872-1.778,1.779C2415.282-164.491,2413.392-164.4,2411.318-164.4Z" transform="translate(-6695.99 -10898.968)" fill="#95d3e8"/>
    <path id="Trazado_195141" data-name="Trazado 195141" d="M2485.379-207.336h55.545v17.03l-2.046.157c-.077.116-.171.193-.177.277-.154,2.113-.153,2.114-2.232,2.114-6.979,0-13.959-.027-20.938.026-1.239.01-1.726-.3-1.651-1.607.106-1.865.027-3.741.027-5.751h-9.857c-1.421-3.982-4.692-5.649-8.147-7.075-2.748-1.135-5.534-2.178-8.271-3.336a18.676,18.676,0,0,1-2.406-1.461Z" transform="translate(-6839.941 -10943.487)" fill="#95d3e8"/>
    <path id="Trazado_195142" data-name="Trazado 195142" d="M2407.818-207.089c1.379,3.764,4.616,5.5,8.105,6.922,2.8,1.141,5.62,2.216,8.4,3.4a5.263,5.263,0,0,1,2.125,1.785h-18.16v7.277h-24.462l-.164-2.251-2.242-.174v-16.954Z" transform="translate(-6767.88 -10943.659)" fill="#95d3e8"/>
    <path id="Trazado_195143" data-name="Trazado 195143" d="M2456.316-239.23v5.017c-.591.031-1.131.086-1.672.086q-51.661.006-103.323.03c-1.361,0-1.98-.294-1.824-1.764a32.379,32.379,0,0,0,.023-3.369Z" transform="translate(-6745.703 -10921.347)" fill="#9e9e9f"/>
    <path id="Trazado_195144" data-name="Trazado 195144" d="M2413.161,66.753V61.622c.524-.028,1.009-.076,1.495-.076q32.462-.006,64.925-.034c1.382,0,1.719.424,1.7,1.735-.06,3.506,0,3.507-3.55,3.507h-64.567Z" transform="translate(-6789.914 -11130.119)" fill="#9e9e9f"/>
    <path id="Trazado_195145" data-name="Trazado 195145" d="M2483.974-120.186h24.38a9.374,9.374,0,0,1,.108,1.018c.006,3.768.014,7.537-.009,11.306a2.126,2.126,0,0,1-2.263,2.3q-9.929.037-19.859,0a2.48,2.48,0,0,1-2.336-2.693C2483.931-112.172,2483.974-116.088,2483.974-120.186Zm19.474,9.622v-4.389h-4.388v4.389Zm-9.832-.017v-4.383h-4.323v4.383Z" transform="translate(-6839.063 -11003.986)" fill="#f37d07" opacity="0.5"/>
    <path id="Trazado_195146" data-name="Trazado 195146" d="M2354.7-37.189h-4.964V-88.137h4.964Z" transform="translate(-6745.886 -11026.234)" fill="#95d3e8"/>
    <path id="Trazado_195147" data-name="Trazado 195147" d="M2682.906-88.273h4.855v50.958h-4.855Z" transform="translate(-6977.169 -11026.141)" fill="#95d3e8"/>
    <path id="Trazado_195148" data-name="Trazado 195148" d="M2591.209-123.281c-3.614,0-7.229-.034-10.842.018-1.076.016-1.4-.352-1.4-1.412-.018-3.827-.052-3.827,3.821-3.827,6.464,0,12.929.031,19.393-.03,1.221-.011,1.563.343,1.554,1.548-.027,3.7.021,3.7-3.666,3.7Q2595.637-123.279,2591.209-123.281Z" transform="translate(-6905.012 -10998.193)" fill="#95d3e8"/>
    <path id="Trazado_195149" data-name="Trazado 195149" d="M2508.386-152.434v5.115c-.428.037-.816.1-1.2.1-7.22.006-14.441-.025-21.661.031-1.266.009-1.648-.35-1.626-1.624.061-3.62.006-3.622,3.583-3.622Z" transform="translate(-6839.017 -10981.601)" fill="#f37d07" opacity="0.5"/>
    <path id="Trazado_195150" data-name="Trazado 195150" d="M2413.387-128.433v5.124c-.446.033-.883.094-1.321.095-7.181.006-14.362-.02-21.542.029-1.2.008-1.594-.331-1.579-1.558.042-3.689-.008-3.689,3.638-3.689Z" transform="translate(-6773.104 -10998.262)" fill="#95d3e8"/>
    <path id="Trazado_195151" data-name="Trazado 195151" d="M2351.92-136.114v9.847h-9.694v-9.847Z" transform="translate(-6740.672 -10992.93)" fill="#6c6c6c"/>
    <path id="Trazado_195152" data-name="Trazado 195152" d="M2674.755-136.176h9.871c0,3.1.026,6.139-.043,9.171-.007.284-.609.786-.944.795-2.64.066-5.283.072-7.923-.007a1.356,1.356,0,0,1-.919-.954C2674.723-130.114,2674.755-133.06,2674.755-136.176Z" transform="translate(-6971.507 -10992.887)" fill="#6c6c6c"/>
    <path id="Trazado_195153" data-name="Trazado 195153" d="M2354.718-207.111v16.953h-5.01v-16.953Z" transform="translate(-6745.866 -10943.644)" fill="#95d3e8"/>
    <path id="Trazado_195154" data-name="Trazado 195154" d="M2687.829-190.1h-4.815v-17.009h4.815Z" transform="translate(-6977.245 -10943.646)" fill="#95d3e8"/>
    <path id="Trazado_195155" data-name="Trazado 195155" d="M2516.275-52.149v-4.984c1.465,0,2.876-.048,4.279.04.284.018.545.54.8.846.051.061.007.2.012.3C2521.564-51.758,2521.3-51.551,2516.275-52.149Z" transform="translate(-6861.496 -11047.749)" fill="#fff"/>
    <path id="Trazado_195156" data-name="Trazado 195156" d="M2309.972-128.189h4.92v5.137c-1.4,0-2.8.047-4.191-.042-.261-.017-.678-.564-.7-.885C2309.926-125.337,2309.972-126.7,2309.972-128.189Z" transform="translate(-6718.271 -10998.431)" fill="#f37d07" opacity="0.5"/>
    <path id="Trazado_195157" data-name="Trazado 195157" d="M2588.343,134.11V110.256h43.2V134.11Zm38.705-19.12a6.55,6.55,0,0,0-.753-.1q-16.127-.025-32.256-.056c-1.054,0-1.251.469-1.241,1.4.041,3.924.081,7.85-.013,11.772-.033,1.388.418,1.688,1.735,1.681,10.344-.053,20.689-.028,31.034-.032.489,0,.977-.045,1.494-.071Z" transform="translate(-6911.525 -11163.958)"/>
    <path id="Trazado_195158" data-name="Trazado 195158" d="M2464.929,109.863c5.854,0,11.707.03,17.56-.025,1.206-.011,1.583.355,1.563,1.558q-.1,5.725,0,11.453c.018,1.142-.348,1.479-1.481,1.476q-17.788-.052-35.577,0c-1.126,0-1.506-.329-1.488-1.476q.091-5.725,0-11.453c-.021-1.205.359-1.568,1.563-1.557C2453.019,109.893,2458.974,109.863,2464.929,109.863Zm14.316,4.783h-28.939v4.879h28.939Z" transform="translate(-6812.364 -11163.668)"/>
    <path id="Trazado_195159" data-name="Trazado 195159" d="M2320.874,110.334v4.509H2287.39v-4.509Z" transform="translate(-6702.604 -11164.013)"/>
    <path id="Trazado_195160" data-name="Trazado 195160" d="M2287.42,141.978h11.709v4.54H2287.42Z" transform="translate(-6702.626 -11185.979)"/>
    <path id="Trazado_195161" data-name="Trazado 195161" d="M2537.726-98.684h-4.388v-4.389h4.388Z" transform="translate(-6873.341 -11015.866)"/>
    <path id="Trazado_195162" data-name="Trazado 195162" d="M2505.723-98.724H2501.4v-4.383h4.322Z" transform="translate(-6851.17 -11015.843)"/>
    <path id="Trazado_195163" data-name="Trazado 195163" d="M2637.129,125.369V139.96c-.516.026-1,.071-1.493.071-10.345,0-20.689-.02-31.034.032-1.317.007-1.769-.293-1.735-1.681.093-3.922.053-7.848.012-11.772-.009-.932.188-1.406,1.241-1.4q16.129.053,32.257.056A6.544,6.544,0,0,1,2637.129,125.369Zm-28.9,4.937v4.455h4.321v-4.455Zm14.063,4.49v-4.44h-4.316v4.44Zm5.2-.1c4.355.71,5.037.059,4.429-4.089-.006-.044-.051-.082-.078-.123-3.979-.94-4.584-.481-4.436,3.376C2627.423,134.109,2627.463,134.357,2627.5,134.7Z" transform="translate(-6921.606 -11174.338)" fill="#3777bc"/>
    <path id="Trazado_195164" data-name="Trazado 195164" d="M2490.152,125.562v4.878h-28.94v-4.878Z" transform="translate(-6823.271 -11174.583)" fill="#f37d07" opacity="0.5"/>
    <path id="Trazado_195165" data-name="Trazado 195165" d="M2620.413,141.878h4.321v4.455h-4.321Z" transform="translate(-6933.787 -11185.91)"/>
    <path id="Trazado_195166" data-name="Trazado 195166" d="M2656.6,146.482h-4.315v-4.44h4.315Z" transform="translate(-6955.915 -11186.023)"/>
    <path id="Trazado_195167" data-name="Trazado 195167" d="M2683.178,145.727c-.036-.339-.075-.587-.085-.836-.148-3.857.457-4.316,4.436-3.376.027.041.072.079.079.123C2688.215,145.786,2687.533,146.437,2683.178,145.727Z" transform="translate(-6977.286 -11185.369)"/>
  </g>
</svg>
