<svg xmlns="http://www.w3.org/2000/svg" xmlns:xlink="http://www.w3.org/1999/xlink" width="390.803" height="303.516" viewBox="0 0 390.803 303.516">
  <defs>
    <clipPath id="clip-path">
      <path id="Trazado_194669" data-name="Trazado 194669" d="M1415.981,7579.215h-91.395l-6.888-40.531h102.786Z" transform="translate(-1317.699 -7538.684)" fill="none"/>
    </clipPath>
  </defs>
  <g id="Grupo_132756" data-name="Grupo 132756" transform="translate(-250.094 -8812.912)">
    <path id="Trazado_195232" data-name="Trazado 195232" d="M10.07-5.32A7.037,7.037,0,0,1,9.508-2.4,4.261,4.261,0,0,1,7.914-.5,4.385,4.385,0,0,1,5.508.156,4.347,4.347,0,0,1,3.125-.5,4.363,4.363,0,0,1,1.512-2.387a6.752,6.752,0,0,1-.59-2.832v-.82a6.953,6.953,0,0,1,.57-2.9,4.347,4.347,0,0,1,1.613-1.926,4.329,4.329,0,0,1,2.387-.668,4.41,4.41,0,0,1,2.41.66A4.253,4.253,0,0,1,9.508-8.957a7.071,7.071,0,0,1,.563,2.918ZM8.578-6.055A5.1,5.1,0,0,0,7.766-9.16a2.68,2.68,0,0,0-2.273-1.082A2.651,2.651,0,0,0,3.254-9.16a5,5,0,0,0-.84,3v.836a5.107,5.107,0,0,0,.824,3.082,2.662,2.662,0,0,0,2.27,1.121,2.652,2.652,0,0,0,2.25-1.059,5.079,5.079,0,0,0,.82-3.035ZM12.32,0V-11.375h3.719a4.317,4.317,0,0,1,2.785.766,2.759,2.759,0,0,1,.934,2.266,2.31,2.31,0,0,1-.453,1.41,2.937,2.937,0,0,1-1.234.949A2.638,2.638,0,0,1,19.527-5a2.814,2.814,0,0,1,.535,1.723A3.042,3.042,0,0,1,19.07-.875a4.1,4.1,0,0,1-2.8.875Zm1.5-5.32v4.094H16.3a2.385,2.385,0,0,0,1.652-.543,1.907,1.907,0,0,0,.605-1.5q0-2.055-2.234-2.055Zm0-1.2h2.266a2.375,2.375,0,0,0,1.574-.493,1.654,1.654,0,0,0,.59-1.339A1.626,1.626,0,0,0,17.7-9.722a2.686,2.686,0,0,0-1.664-.427H13.82Zm13.227-4.852h1.508V-3.32a3.336,3.336,0,0,1-.98,2.555,3.66,3.66,0,0,1-2.613.922A3.762,3.762,0,0,1,22.32-.711a3.132,3.132,0,0,1-.945-2.43h1.5a2.086,2.086,0,0,0,.535,1.523,2.073,2.073,0,0,0,1.551.547,2.012,2.012,0,0,0,1.5-.586A2.27,2.27,0,0,0,27.047-3.3ZM37.539-5.258h-4.93v4.031h5.727V0H31.109V-11.375h7.148v1.227H32.609v3.664h4.93Zm10.68-4.891H44.563V0H43.07V-10.148H39.422v-1.227h8.8ZM58.438-5.32A7.037,7.037,0,0,1,57.875-2.4,4.261,4.261,0,0,1,56.281-.5a4.385,4.385,0,0,1-2.406.656A4.347,4.347,0,0,1,51.492-.5a4.363,4.363,0,0,1-1.613-1.883,6.752,6.752,0,0,1-.59-2.832v-.82a6.953,6.953,0,0,1,.57-2.9,4.347,4.347,0,0,1,1.613-1.926,4.329,4.329,0,0,1,2.387-.668,4.41,4.41,0,0,1,2.41.66,4.253,4.253,0,0,1,1.605,1.914,7.071,7.071,0,0,1,.563,2.918Zm-1.492-.734a5.1,5.1,0,0,0-.812-3.105,2.68,2.68,0,0,0-2.273-1.082A2.651,2.651,0,0,0,51.621-9.16a5,5,0,0,0-.84,3v.836a5.107,5.107,0,0,0,.824,3.082,2.662,2.662,0,0,0,2.27,1.121,2.652,2.652,0,0,0,2.25-1.059,5.079,5.079,0,0,0,.82-3.035Zm9.43-.336h1.086A2.387,2.387,0,0,0,69.07-6.93a1.8,1.8,0,0,0,.586-1.414,1.764,1.764,0,0,0-1.992-2,2.072,2.072,0,0,0-1.5.535,1.873,1.873,0,0,0-.559,1.418H64.164a2.9,2.9,0,0,1,.988-2.246,3.6,3.6,0,0,1,2.512-.895,3.558,3.558,0,0,1,2.523.852A3.076,3.076,0,0,1,71.1-8.312a2.5,2.5,0,0,1-.48,1.438,2.9,2.9,0,0,1-1.309,1.039,2.8,2.8,0,0,1,1.449.984,2.734,2.734,0,0,1,.512,1.68,3.1,3.1,0,0,1-1,2.43,3.745,3.745,0,0,1-2.6.9,3.844,3.844,0,0,1-2.605-.867,2.877,2.877,0,0,1-1-2.289h1.453A1.859,1.859,0,0,0,66.1-1.562a2.229,2.229,0,0,0,1.57.539,2.187,2.187,0,0,0,1.6-.547,2.108,2.108,0,0,0,.555-1.57,1.912,1.912,0,0,0-.609-1.523,2.655,2.655,0,0,0-1.758-.547H66.375ZM73.633,0V-11.375h3.211a5.169,5.169,0,0,1,2.625.656A4.438,4.438,0,0,1,81.23-8.852a6.078,6.078,0,0,1,.629,2.781v.727a6.1,6.1,0,0,1-.621,2.82A4.369,4.369,0,0,1,79.465-.664,5.5,5.5,0,0,1,76.781,0Zm1.5-10.148v8.922h1.578a3.434,3.434,0,0,0,2.7-1.079,4.458,4.458,0,0,0,.965-3.073v-.665a4.529,4.529,0,0,0-.91-3.014,3.239,3.239,0,0,0-2.582-1.091Z" transform="translate(401.424 8824.443)"/>
    <path id="Trazado_195233" data-name="Trazado 195233" d="M2.828-1.227H8.219V0H1.32V-11.375H2.828ZM11.539,0h-1.5V-11.375h1.5Zm-.047-14.516h1.75l-2.094,2.3-1.164,0ZM23.023,0H21.516L15.789-8.766V0H14.281V-11.375h1.508l5.742,8.8v-8.8h1.492Zm9.094-5.258h-4.93v4.031h5.727V0H25.688V-11.375h7.148v1.227H27.188v3.664h4.93Zm8.945,2.281H36.3L35.227,0H33.68l4.344-11.375h1.313L43.688,0H42.148ZM36.75-4.2h3.867L38.68-9.523ZM49.18,0V-11.375h3.211a5.169,5.169,0,0,1,2.625.656,4.438,4.438,0,0,1,1.762,1.867,6.078,6.078,0,0,1,.629,2.781v.727a6.1,6.1,0,0,1-.621,2.82A4.369,4.369,0,0,1,55.012-.664,5.5,5.5,0,0,1,52.328,0Zm1.5-10.148v8.922h1.578a3.434,3.434,0,0,0,2.7-1.079,4.458,4.458,0,0,0,.965-3.073v-.665a4.529,4.529,0,0,0-.91-3.014,3.239,3.239,0,0,0-2.582-1.091ZM66.1-5.258h-4.93v4.031H66.9V0H59.672V-11.375H66.82v1.227H61.172v3.664H66.1ZM76.492-1.992l3.25-9.383h1.641L77.164,0H75.836L71.625-11.375h1.633ZM84.516,0h-1.5V-11.375h1.5Zm6.094-5.07A7.053,7.053,0,0,1,87.8-6.434a2.6,2.6,0,0,1-.879-2A2.751,2.751,0,0,1,88-10.652a4.269,4.269,0,0,1,2.793-.879,4.66,4.66,0,0,1,2.09.453A3.436,3.436,0,0,1,94.3-9.828a3.2,3.2,0,0,1,.5,1.742H93.3a2.08,2.08,0,0,0-.656-1.627,2.669,2.669,0,0,0-1.852-.592,2.732,2.732,0,0,0-1.73.489,1.632,1.632,0,0,0-.621,1.358,1.468,1.468,0,0,0,.59,1.178,5.785,5.785,0,0,0,2.008.88,9.316,9.316,0,0,1,2.219.88A3.367,3.367,0,0,1,94.441-4.4a2.861,2.861,0,0,1,.387,1.508A2.658,2.658,0,0,1,93.75-.676a4.6,4.6,0,0,1-2.883.832A5.347,5.347,0,0,1,88.68-.293a3.681,3.681,0,0,1-1.566-1.23A3,3,0,0,1,86.563-3.3H88.07a1.959,1.959,0,0,0,.762,1.629,3.207,3.207,0,0,0,2.035.6,2.948,2.948,0,0,0,1.82-.484,1.573,1.573,0,0,0,.633-1.32,1.545,1.545,0,0,0-.586-1.293A6.755,6.755,0,0,0,90.609-5.07ZM98.359,0h-1.5V-11.375h1.5Zm11.492-5.32a7.037,7.037,0,0,1-.562,2.918A4.261,4.261,0,0,1,107.7-.5a4.385,4.385,0,0,1-2.406.656,4.347,4.347,0,0,1-2.383-.66,4.363,4.363,0,0,1-1.613-1.883,6.752,6.752,0,0,1-.59-2.832v-.82a6.953,6.953,0,0,1,.57-2.9,4.347,4.347,0,0,1,1.613-1.926,4.329,4.329,0,0,1,2.387-.668,4.41,4.41,0,0,1,2.41.66,4.253,4.253,0,0,1,1.605,1.914,7.071,7.071,0,0,1,.563,2.918Zm-1.492-.734a5.1,5.1,0,0,0-.812-3.105,2.68,2.68,0,0,0-2.273-1.082,2.651,2.651,0,0,0-2.238,1.082,5,5,0,0,0-.84,3v.836a5.107,5.107,0,0,0,.824,3.082,2.662,2.662,0,0,0,2.27,1.121,2.652,2.652,0,0,0,2.25-1.059,5.079,5.079,0,0,0,.82-3.035Zm-2.352-8.383h1.75l-2.094,2.3-1.164,0ZM120.844,0h-1.508l-5.727-8.766V0H112.1V-11.375h1.508l5.742,8.8v-8.8h1.492Z" transform="matrix(0.653, 0.757, -0.757, 0.653, 487.453, 8875.439)"/>
    <path id="Trazado_195237" data-name="Trazado 195237" d="M-78.164-2.977H-82.93L-84,0h-1.547L-81.2-11.375h1.313L-75.539,0h-1.539ZM-82.477-4.2h3.867l-1.937-5.32ZM-79.8-14.422h1.75l-2.094,2.3-1.164,0ZM-65.266,0h-1.508L-72.5-8.766V0h-1.508V-11.375H-72.5l5.742,8.8v-8.8h1.492ZM-54.2-1.492A3.465,3.465,0,0,1-55.816-.254a6.517,6.517,0,0,1-2.41.41A4.674,4.674,0,0,1-60.7-.5a4.346,4.346,0,0,1-1.668-1.855,6.408,6.408,0,0,1-.605-2.789v-.992a5.982,5.982,0,0,1,1.2-3.984A4.179,4.179,0,0,1-58.4-11.531a4.316,4.316,0,0,1,2.867.91A3.965,3.965,0,0,1-54.2-8.039h-1.5A2.48,2.48,0,0,0-58.391-10.3a2.655,2.655,0,0,0-2.285,1.06,5.173,5.173,0,0,0-.785,3.069v.93A4.848,4.848,0,0,0-60.586-2.2a2.836,2.836,0,0,0,2.367,1.13,5.228,5.228,0,0,0,1.477-.187A2.283,2.283,0,0,0-55.7-1.889V-4.437h-2.633V-5.664H-54.2ZM-43.7-11.375v7.734a3.628,3.628,0,0,1-1.012,2.633A4.077,4.077,0,0,1-47.43.141l-.4.016A4.258,4.258,0,0,1-50.8-.852,3.6,3.6,0,0,1-51.93-3.625v-7.75h1.484v7.7a2.6,2.6,0,0,0,.68,1.918,2.612,2.612,0,0,0,1.938.684,2.63,2.63,0,0,0,1.949-.68A2.6,2.6,0,0,0-45.2-3.664v-7.711ZM-39.82-1.227h5.391V0h-6.9V-11.375h1.508ZM-24.477-5.32A7.037,7.037,0,0,1-25.039-2.4,4.261,4.261,0,0,1-26.633-.5a4.385,4.385,0,0,1-2.406.656A4.347,4.347,0,0,1-31.422-.5a4.363,4.363,0,0,1-1.613-1.883,6.752,6.752,0,0,1-.59-2.832v-.82a6.953,6.953,0,0,1,.57-2.9,4.347,4.347,0,0,1,1.613-1.926,4.329,4.329,0,0,1,2.387-.668,4.41,4.41,0,0,1,2.41.66,4.253,4.253,0,0,1,1.605,1.914,7.071,7.071,0,0,1,.563,2.918Zm-1.492-.734a5.1,5.1,0,0,0-.812-3.105,2.68,2.68,0,0,0-2.273-1.082A2.651,2.651,0,0,0-31.293-9.16a5,5,0,0,0-.84,3v.836a5.107,5.107,0,0,0,.824,3.082,2.662,2.662,0,0,0,2.27,1.121,2.652,2.652,0,0,0,2.25-1.059,5.079,5.079,0,0,0,.82-3.035ZM-18.266,0V-11.375h3.211a5.169,5.169,0,0,1,2.625.656,4.438,4.438,0,0,1,1.762,1.867,6.078,6.078,0,0,1,.629,2.781v.727a6.1,6.1,0,0,1-.621,2.82A4.369,4.369,0,0,1-12.434-.664,5.5,5.5,0,0,1-15.117,0Zm1.5-10.148v8.922h1.578a3.434,3.434,0,0,0,2.7-1.079,4.458,4.458,0,0,0,.965-3.073v-.665a4.529,4.529,0,0,0-.91-3.014,3.239,3.239,0,0,0-2.582-1.091ZM-1.344-5.258h-4.93v4.031H-.547V0H-7.773V-11.375H-.625v1.227H-6.273v3.664h4.93ZM-114.109,10.852h-3.656V21h-1.492V10.852h-3.648V9.625h8.8Zm5.859,5.547h-2.672V21h-1.508V9.625h3.766a4.457,4.457,0,0,1,2.957.875,3.148,3.148,0,0,1,1.035,2.547,3.062,3.062,0,0,1-.574,1.852,3.428,3.428,0,0,1-1.6,1.18l2.672,4.828V21h-1.609Zm-2.672-1.227h2.3a2.6,2.6,0,0,0,1.777-.579,1.959,1.959,0,0,0,.66-1.55,2.062,2.062,0,0,0-.629-1.62,2.663,2.663,0,0,0-1.816-.571h-2.3ZM-100.961,21h-1.5V9.625h1.5Zm9.164-2.977h-4.766L-97.633,21H-99.18l4.344-11.375h1.313L-89.172,21h-1.539ZM-96.109,16.8h3.867l-1.937-5.32ZM-78.9,21h-1.508l-5.727-8.766V21h-1.508V9.625h1.508l5.742,8.8v-8.8H-78.9Zm11.063-1.492a3.465,3.465,0,0,1-1.613,1.238,6.517,6.517,0,0,1-2.41.41,4.674,4.674,0,0,1-2.469-.652A4.346,4.346,0,0,1-76,18.648a6.408,6.408,0,0,1-.605-2.789v-.992a5.982,5.982,0,0,1,1.2-3.984,4.179,4.179,0,0,1,3.371-1.414,4.316,4.316,0,0,1,2.867.91,3.965,3.965,0,0,1,1.328,2.582h-1.5A2.48,2.48,0,0,0-72.023,10.7a2.655,2.655,0,0,0-2.285,1.06,5.173,5.173,0,0,0-.785,3.069v.93a4.848,4.848,0,0,0,.875,3.046,2.836,2.836,0,0,0,2.367,1.13,5.228,5.228,0,0,0,1.477-.187,2.283,2.283,0,0,0,1.047-.631V16.563h-2.633V15.336h4.125Zm10.508-9.883v7.734a3.628,3.628,0,0,1-1.012,2.633,4.077,4.077,0,0,1-2.723,1.148l-.4.016a4.258,4.258,0,0,1-2.977-1.008,3.6,3.6,0,0,1-1.125-2.773V9.625h1.484v7.7a2.6,2.6,0,0,0,.68,1.918,2.612,2.612,0,0,0,1.938.684,2.63,2.63,0,0,0,1.949-.68,2.6,2.6,0,0,0,.676-1.914V9.625Zm3.875,10.148h5.391V21h-6.9V9.625h1.508Zm13.531-1.75h-4.766L-45.758,21H-47.3l4.344-11.375h1.313L-37.3,21h-1.539ZM-44.234,16.8h3.867l-1.937-5.32Zm16.75.594a4.185,4.185,0,0,1-1.332,2.785,4.365,4.365,0,0,1-2.98.98,4.008,4.008,0,0,1-3.23-1.445,5.815,5.815,0,0,1-1.215-3.867V14.75a6.481,6.481,0,0,1,.566-2.789,4.231,4.231,0,0,1,1.605-1.848,4.47,4.47,0,0,1,2.406-.645,4.11,4.11,0,0,1,2.906,1.012,4.235,4.235,0,0,1,1.273,2.8h-1.508a3.268,3.268,0,0,0-.848-1.975,2.565,2.565,0,0,0-1.824-.611,2.684,2.684,0,0,0-2.254,1.063,4.882,4.882,0,0,0-.816,3.026v1.1a5.018,5.018,0,0,0,.773,2.948A2.5,2.5,0,0,0-31.8,19.93a2.887,2.887,0,0,0,1.918-.566,3.143,3.143,0,0,0,.887-1.973ZM-23.828,21h-1.5V9.625h1.5Zm11.492-5.32A7.037,7.037,0,0,1-12.9,18.6a4.261,4.261,0,0,1-1.594,1.9,4.385,4.385,0,0,1-2.406.656,4.348,4.348,0,0,1-2.383-.66,4.363,4.363,0,0,1-1.613-1.883,6.752,6.752,0,0,1-.59-2.832v-.82a6.953,6.953,0,0,1,.57-2.9A4.347,4.347,0,0,1-19.3,10.137a4.329,4.329,0,0,1,2.387-.668,4.41,4.41,0,0,1,2.41.66A4.253,4.253,0,0,1-12.9,12.043a7.071,7.071,0,0,1,.563,2.918Zm-1.492-.734a5.1,5.1,0,0,0-.812-3.105,2.68,2.68,0,0,0-2.273-1.082,2.651,2.651,0,0,0-2.238,1.082,5,5,0,0,0-.84,3v.836a5.107,5.107,0,0,0,.824,3.082,2.662,2.662,0,0,0,2.27,1.121,2.652,2.652,0,0,0,2.25-1.059,5.079,5.079,0,0,0,.82-3.035ZM-16.18,6.563h1.75l-2.094,2.3-1.164,0ZM-1.344,21H-2.852l-5.727-8.766V21h-1.508V9.625h1.508l5.742,8.8v-8.8h1.492Z" transform="translate(373 8895.003)"/>
    <path id="Trazado_195236" data-name="Trazado 195236" d="M9.688-3.609A4.185,4.185,0,0,1,8.355-.824a4.365,4.365,0,0,1-2.98.98,4.008,4.008,0,0,1-3.23-1.445A5.815,5.815,0,0,1,.93-5.156V-6.25A6.481,6.481,0,0,1,1.5-9.039,4.231,4.231,0,0,1,3.1-10.887a4.47,4.47,0,0,1,2.406-.645A4.11,4.11,0,0,1,8.414-10.52a4.235,4.235,0,0,1,1.273,2.8H8.18a3.268,3.268,0,0,0-.848-1.975A2.565,2.565,0,0,0,5.508-10.3,2.684,2.684,0,0,0,3.254-9.241a4.882,4.882,0,0,0-.816,3.026v1.1a5.018,5.018,0,0,0,.773,2.948A2.5,2.5,0,0,0,5.375-1.07a2.887,2.887,0,0,0,1.918-.566A3.143,3.143,0,0,0,8.18-3.609Zm8.328.633H13.25L12.18,0H10.633l4.344-11.375h1.313L20.641,0H19.1ZM13.7-4.2H17.57l-1.937-5.32Zm2.672-10.219h1.75l-2.094,2.3-1.164,0Zm7.734,3.047,3.719,9.281,3.719-9.281h1.945V0h-1.5V-4.43l.141-4.781L28.4,0H27.25L23.523-9.187l.148,4.758V0h-1.5V-11.375Zm18.453,8.4H37.8L36.727,0H35.18l4.344-11.375h1.313L45.188,0H43.648ZM38.25-4.2h3.867L40.18-9.523Zm12.641-.4H48.219V0H46.711V-11.375h3.766a4.457,4.457,0,0,1,2.957.875,3.148,3.148,0,0,1,1.035,2.547A3.062,3.062,0,0,1,53.895-6.1a3.428,3.428,0,0,1-1.6,1.18L54.969-.094V0H53.359ZM48.219-5.828h2.3A2.6,2.6,0,0,0,52.3-6.407a1.959,1.959,0,0,0,.66-1.55,2.062,2.062,0,0,0-.629-1.62,2.663,2.663,0,0,0-1.816-.571h-2.3ZM62.852-2.977H58.086L57.016,0H55.469l4.344-11.375h1.313L65.477,0H63.938ZM58.539-4.2h3.867l-1.937-5.32ZM75.344,0H73.891V-9.633l-2.914,1.07V-9.875l4.141-1.555h.227Z" transform="translate(255.387 9089.936)"/>
    <path id="Trazado_195234" data-name="Trazado 195234" d="M9.688-3.609A4.185,4.185,0,0,1,8.355-.824a4.365,4.365,0,0,1-2.98.98,4.008,4.008,0,0,1-3.23-1.445A5.815,5.815,0,0,1,.93-5.156V-6.25A6.481,6.481,0,0,1,1.5-9.039,4.231,4.231,0,0,1,3.1-10.887a4.47,4.47,0,0,1,2.406-.645A4.11,4.11,0,0,1,8.414-10.52a4.235,4.235,0,0,1,1.273,2.8H8.18a3.268,3.268,0,0,0-.848-1.975A2.565,2.565,0,0,0,5.508-10.3,2.684,2.684,0,0,0,3.254-9.241a4.882,4.882,0,0,0-.816,3.026v1.1a5.018,5.018,0,0,0,.773,2.948A2.5,2.5,0,0,0,5.375-1.07a2.887,2.887,0,0,0,1.918-.566A3.143,3.143,0,0,0,8.18-3.609Zm8.328.633H13.25L12.18,0H10.633l4.344-11.375h1.313L20.641,0H19.1ZM13.7-4.2H17.57l-1.937-5.32Zm2.672-10.219h1.75l-2.094,2.3-1.164,0Zm7.734,3.047,3.719,9.281,3.719-9.281h1.945V0h-1.5V-4.43l.141-4.781L28.4,0H27.25L23.523-9.187l.148,4.758V0h-1.5V-11.375Zm18.453,8.4H37.8L36.727,0H35.18l4.344-11.375h1.313L45.188,0H43.648ZM38.25-4.2h3.867L40.18-9.523Zm12.641-.4H48.219V0H46.711V-11.375h3.766a4.457,4.457,0,0,1,2.957.875,3.148,3.148,0,0,1,1.035,2.547A3.062,3.062,0,0,1,53.895-6.1a3.428,3.428,0,0,1-1.6,1.18L54.969-.094V0H53.359ZM48.219-5.828h2.3A2.6,2.6,0,0,0,52.3-6.407a1.959,1.959,0,0,0,.66-1.55,2.062,2.062,0,0,0-.629-1.62,2.663,2.663,0,0,0-1.816-.571h-2.3ZM62.852-2.977H58.086L57.016,0H55.469l4.344-11.375h1.313L65.477,0H63.938ZM58.539-4.2h3.867l-1.937-5.32ZM78.047,0H70.594V-1.039l3.938-4.375a9.354,9.354,0,0,0,1.207-1.613,2.693,2.693,0,0,0,.332-1.285,2.041,2.041,0,0,0-.539-1.461,1.885,1.885,0,0,0-1.437-.57,2.232,2.232,0,0,0-1.676.613,2.343,2.343,0,0,0-.6,1.707H70.375a3.355,3.355,0,0,1,1.012-2.539,3.751,3.751,0,0,1,2.707-.969A3.6,3.6,0,0,1,76.6-10.7a2.838,2.838,0,0,1,.922,2.215q0,1.68-2.141,4l-3.047,3.3h5.711Z" transform="translate(562.85 9089.937)"/>
    <path id="Trazado_195235" data-name="Trazado 195235" d="M2.82-4.453V0H1.32V-11.375h4.2a4.215,4.215,0,0,1,2.926.953A3.231,3.231,0,0,1,9.5-7.9,3.189,3.189,0,0,1,8.465-5.348,4.4,4.4,0,0,1,5.5-4.453Zm0-1.227h2.7a2.7,2.7,0,0,0,1.844-.567A2.075,2.075,0,0,0,8-7.887a2.143,2.143,0,0,0-.641-1.628A2.525,2.525,0,0,0,5.6-10.148H2.82ZM15.586-4.6H12.914V0H11.406V-11.375h3.766a4.457,4.457,0,0,1,2.957.875,3.148,3.148,0,0,1,1.035,2.547A3.062,3.062,0,0,1,18.59-6.1a3.428,3.428,0,0,1-1.6,1.18L19.664-.094V0H18.055ZM12.914-5.828h2.3A2.6,2.6,0,0,0,17-6.407a1.959,1.959,0,0,0,.66-1.55,2.062,2.062,0,0,0-.629-1.62,2.663,2.663,0,0,0-1.816-.571h-2.3Zm17.1.508A7.037,7.037,0,0,1,29.453-2.4,4.261,4.261,0,0,1,27.859-.5a4.385,4.385,0,0,1-2.406.656A4.347,4.347,0,0,1,23.07-.5a4.363,4.363,0,0,1-1.613-1.883,6.752,6.752,0,0,1-.59-2.832v-.82a6.953,6.953,0,0,1,.57-2.9,4.347,4.347,0,0,1,1.613-1.926,4.329,4.329,0,0,1,2.387-.668,4.41,4.41,0,0,1,2.41.66,4.253,4.253,0,0,1,1.605,1.914,7.071,7.071,0,0,1,.563,2.918Zm-1.492-.734a5.1,5.1,0,0,0-.812-3.105,2.68,2.68,0,0,0-2.273-1.082A2.651,2.651,0,0,0,23.2-9.16a5,5,0,0,0-.84,3v.836a5.107,5.107,0,0,0,.824,3.082,2.662,2.662,0,0,0,2.27,1.121A2.652,2.652,0,0,0,27.7-2.176a5.079,5.079,0,0,0,.82-3.035Zm6.875.391,2.969-5.711h1.7L36.148-4.242V0h-1.5V-4.242l-3.922-7.133h1.719Zm12.57.406h-4.93v4.031h5.727V0H41.539V-11.375h7.148v1.227H43.039v3.664h4.93ZM59-3.609A4.185,4.185,0,0,1,57.668-.824a4.365,4.365,0,0,1-2.98.98,4.008,4.008,0,0,1-3.23-1.445,5.815,5.815,0,0,1-1.215-3.867V-6.25a6.481,6.481,0,0,1,.566-2.789,4.231,4.231,0,0,1,1.605-1.848,4.47,4.47,0,0,1,2.406-.645,4.11,4.11,0,0,1,2.906,1.012A4.235,4.235,0,0,1,59-7.719H57.492a3.268,3.268,0,0,0-.848-1.975A2.565,2.565,0,0,0,54.82-10.3a2.684,2.684,0,0,0-2.254,1.063,4.882,4.882,0,0,0-.816,3.026v1.1a5.018,5.018,0,0,0,.773,2.948A2.5,2.5,0,0,0,54.688-1.07a2.887,2.887,0,0,0,1.918-.566,3.143,3.143,0,0,0,.887-1.973Zm9.68-6.539H65.023V0H63.531V-10.148H59.883v-1.227h8.8ZM78.9-5.32A7.037,7.037,0,0,1,78.336-2.4,4.261,4.261,0,0,1,76.742-.5a4.385,4.385,0,0,1-2.406.656A4.347,4.347,0,0,1,71.953-.5,4.363,4.363,0,0,1,70.34-2.387a6.752,6.752,0,0,1-.59-2.832v-.82a6.953,6.953,0,0,1,.57-2.9,4.347,4.347,0,0,1,1.613-1.926,4.329,4.329,0,0,1,2.387-.668,4.41,4.41,0,0,1,2.41.66,4.253,4.253,0,0,1,1.605,1.914A7.071,7.071,0,0,1,78.9-6.039Zm-1.492-.734a5.1,5.1,0,0,0-.812-3.105,2.68,2.68,0,0,0-2.273-1.082A2.651,2.651,0,0,0,72.082-9.16a5,5,0,0,0-.84,3v.836a5.107,5.107,0,0,0,.824,3.082,2.662,2.662,0,0,0,2.27,1.121,2.652,2.652,0,0,0,2.25-1.059,5.079,5.079,0,0,0,.82-3.035ZM85.32-4.6H82.648V0H81.141V-11.375h3.766a4.457,4.457,0,0,1,2.957.875A3.148,3.148,0,0,1,88.9-7.953,3.062,3.062,0,0,1,88.324-6.1a3.428,3.428,0,0,1-1.6,1.18L89.4-.094V0H87.789ZM82.648-5.828h2.3a2.6,2.6,0,0,0,1.777-.579,1.959,1.959,0,0,0,.66-1.55,2.062,2.062,0,0,0-.629-1.62,2.663,2.663,0,0,0-1.816-.571h-2.3Zm15.664.758A7.053,7.053,0,0,1,95.5-6.434a2.6,2.6,0,0,1-.879-2A2.751,2.751,0,0,1,95.7-10.652a4.269,4.269,0,0,1,2.793-.879,4.66,4.66,0,0,1,2.09.453A3.436,3.436,0,0,1,102-9.828a3.2,3.2,0,0,1,.5,1.742H101a2.08,2.08,0,0,0-.656-1.627,2.669,2.669,0,0,0-1.852-.592,2.732,2.732,0,0,0-1.73.489,1.632,1.632,0,0,0-.621,1.358,1.468,1.468,0,0,0,.59,1.178,5.785,5.785,0,0,0,2.008.88,9.316,9.316,0,0,1,2.219.88A3.367,3.367,0,0,1,102.145-4.4a2.861,2.861,0,0,1,.387,1.508,2.658,2.658,0,0,1-1.078,2.215A4.6,4.6,0,0,1,98.57.156a5.347,5.347,0,0,1-2.187-.449,3.681,3.681,0,0,1-1.566-1.23A3,3,0,0,1,94.266-3.3h1.508a1.959,1.959,0,0,0,.762,1.629,3.207,3.207,0,0,0,2.035.6,2.948,2.948,0,0,0,1.82-.484,1.573,1.573,0,0,0,.633-1.32,1.545,1.545,0,0,0-.586-1.293A6.755,6.755,0,0,0,98.313-5.07Zm14-5.078h-3.656V0h-1.492V-10.148h-3.648v-1.227h8.8Zm9.672,0h-3.656V0h-1.492V-10.148h-3.648v-1.227h8.8ZM127.844-4.6h-2.672V0h-1.508V-11.375h3.766a4.457,4.457,0,0,1,2.957.875,3.148,3.148,0,0,1,1.035,2.547,3.062,3.062,0,0,1-.574,1.852,3.428,3.428,0,0,1-1.6,1.18l2.672,4.828V0h-1.609Zm-2.672-1.227h2.3a2.6,2.6,0,0,0,1.777-.579,1.959,1.959,0,0,0,.66-1.55,2.062,2.062,0,0,0-.629-1.62,2.663,2.663,0,0,0-1.816-.571h-2.3ZM135.133,0h-1.5V-11.375h1.5Zm4.242-4.453V0h-1.5V-11.375h4.2a4.215,4.215,0,0,1,2.926.953A3.231,3.231,0,0,1,146.055-7.9a3.188,3.188,0,0,1-1.035,2.551,4.4,4.4,0,0,1-2.965.895Zm0-1.227h2.7a2.7,2.7,0,0,0,1.844-.567,2.075,2.075,0,0,0,.641-1.64,2.143,2.143,0,0,0-.641-1.628,2.525,2.525,0,0,0-1.758-.634h-2.781Zm15.023.422h-4.93v4.031H155.2V0h-7.227V-11.375h7.148v1.227h-5.648v3.664h4.93Z" transform="translate(370 9116.271)"/>
    <path id="Trazado_194653" data-name="Trazado 194653" d="M1415.981,7579.215h-91.395l-6.888-40.531h102.786Z" transform="translate(-919.873 1459.106)" fill="#b4b8c4"/>
    <path id="Trazado_194654" data-name="Trazado 194654" d="M1552.858,7536.044l-72.649,29.58v-37.75l76.958-30.612Z" transform="translate(-955.921 1468.295)" fill="#b4b8c4"/>
    <line id="Línea_333" data-name="Línea 333" y1="30.944" x2="74.666" transform="translate(524.288 8986.185)" fill="none" stroke="#1d1d1b" stroke-linecap="round" stroke-linejoin="round" stroke-width="1"/>
    <path id="Trazado_194655" data-name="Trazado 194655" d="M1534.156,7544.266l-147.351-148.811v111.458" transform="translate(-935.202 1490.877)" fill="none" stroke="#ff9500" stroke-miterlimit="10" stroke-width="3"/>
    <path id="Trazado_194656" data-name="Trazado 194656" d="M1489.189,7557.362,1329.682,7433l-117.856,124.362" transform="translate(-896.388 1482.549)" fill="none" stroke="#0ca4ca" stroke-miterlimit="10" stroke-width="2" opacity="0.95" style="isolation: isolate"/>
    <path id="Trazado_194657" data-name="Trazado 194657" d="M1197.869,7526.226l139.571-191.795,161.1,191.795" transform="translate(-893.292 1504.414)" fill="none" stroke="#0ca4ca" stroke-miterlimit="10" stroke-width="2" opacity="0.95" style="isolation: isolate"/>
    <path id="Trazado_194658" data-name="Trazado 194658" d="M1358.507,7329.152s-14.747,13.924-11.436,27.038,15.051,20.911,12,32.568-12.408,18.941-12.408,18.941" transform="translate(-926.28 1505.585)" fill="none" stroke="#1d1d1b" stroke-linecap="round" stroke-linejoin="round" stroke-width="3"/>
    <path id="Trazado_194659" data-name="Trazado 194659" d="M1365.481,7331.791s-14.748,13.925-11.436,27.038,15.05,20.912,12,32.568-12.408,18.942-12.408,18.942" transform="translate(-927.827 1505)" fill="none" stroke="#1d1d1b" stroke-linecap="round" stroke-linejoin="round" stroke-width="3"/>
    <path id="Trazado_194660" data-name="Trazado 194660" d="M1372.454,7334.43s-14.747,13.925-11.436,27.038,15.05,20.912,12,32.567-12.408,18.942-12.408,18.942" transform="translate(-929.374 1504.414)" fill="none" stroke="#1d1d1b" stroke-linecap="round" stroke-linejoin="round" stroke-width="3"/>
    <path id="Trazado_194661" data-name="Trazado 194661" d="M1379.428,7337.07s-14.748,13.924-11.437,27.038,15.051,20.912,12,32.567-12.408,18.941-12.408,18.941" transform="translate(-930.921 1503.828)" fill="none" stroke="#1d1d1b" stroke-linecap="round" stroke-linejoin="round" stroke-width="3"/>
    <path id="Trazado_194662" data-name="Trazado 194662" d="M1386.4,7339.709s-14.747,13.924-11.436,27.037,15.05,20.912,12,32.568-12.407,18.941-12.407,18.941" transform="translate(-932.468 1503.243)" fill="none" stroke="#1d1d1b" stroke-linecap="round" stroke-linejoin="round" stroke-width="3"/>
    <path id="Trazado_194663" data-name="Trazado 194663" d="M1393.374,7342.348s-14.747,13.924-11.436,27.038,15.051,20.911,12,32.567-12.408,18.941-12.408,18.941" transform="translate(-934.015 1502.658)" fill="none" stroke="#1d1d1b" stroke-linecap="round" stroke-linejoin="round" stroke-width="3"/>
    <path id="Trazado_194664" data-name="Trazado 194664" d="M1400.348,7344.987s-14.748,13.925-11.436,27.039,15.05,20.911,12,32.567-12.408,18.941-12.408,18.941" transform="translate(-935.562 1502.072)" fill="none" stroke="#1d1d1b" stroke-linecap="round" stroke-linejoin="round" stroke-width="3"/>
    <path id="Trazado_194665" data-name="Trazado 194665" d="M1407.321,7347.626s-14.747,13.925-11.436,27.038,15.05,20.912,12,32.568-12.408,18.941-12.408,18.941" transform="translate(-937.108 1501.486)" fill="none" stroke="#1d1d1b" stroke-linecap="round" stroke-linejoin="round" stroke-width="3"/>
    <path id="Trazado_194666" data-name="Trazado 194666" d="M1531.631,7522.088a11.1,11.1,0,0,0-5.166,9.14c0,6.16,4.7,7.22,4.7,13.445s-4.7,8.08-4.7,8.08" transform="translate(-966.182 1462.787)" fill="none" stroke="#1d1d1b" stroke-linecap="round" stroke-linejoin="round" stroke-width="1"/>
    <path id="Trazado_194667" data-name="Trazado 194667" d="M1193.2,7536.044l72.648,29.58v-37.75l-76.958-30.612Z" transform="translate(-891.3 1468.295)" fill="#b4b8c4"/>
    <line id="Línea_334" data-name="Línea 334" x1="74.666" y1="30.944" transform="translate(299.881 8986.185)" fill="none" stroke="#1d1d1b" stroke-linecap="round" stroke-linejoin="round" stroke-width="1"/>
    <path id="Trazado_194668" data-name="Trazado 194668" d="M1234.89,7522.088a11.1,11.1,0,0,1,5.165,9.14c0,6.16-4.7,7.22-4.7,13.445s4.7,8.08,4.7,8.08" transform="translate(-901.504 1462.787)" fill="none" stroke="#1d1d1b" stroke-linecap="round" stroke-linejoin="round" stroke-width="1"/>
    <g id="Grupo_131940" data-name="Grupo 131940" transform="translate(397.826 8997.79)" clip-path="url(#clip-path)">
      <g id="Grupo_131939" data-name="Grupo 131939" transform="translate(42.89 -1.89)">
        <line id="Línea_335" data-name="Línea 335" y2="44.312" transform="translate(10.887)" fill="none" stroke="#1d1d1b" stroke-linecap="round" stroke-linejoin="round" stroke-width="3.137"/>
        <line id="Línea_336" data-name="Línea 336" y2="44.312" fill="none" stroke="#1d1d1b" stroke-linecap="round" stroke-linejoin="round" stroke-width="3.137"/>
        <line id="Línea_337" data-name="Línea 337" y2="44.312" transform="translate(5.166)" fill="none" stroke="#1d1d1b" stroke-linecap="round" stroke-linejoin="round" stroke-width="3.137"/>
        <line id="Línea_338" data-name="Línea 338" y2="44.312" transform="translate(16.093)" fill="none" stroke="#1d1d1b" stroke-linecap="round" stroke-linejoin="round" stroke-width="3.137"/>
        <line id="Línea_339" data-name="Línea 339" y2="44.312" transform="translate(21.16)" fill="none" stroke="#1d1d1b" stroke-linecap="round" stroke-linejoin="round" stroke-width="3.137"/>
      </g>
    </g>
    <path id="Trazado_194670" data-name="Trazado 194670" d="M1393.939,7617.837v-4.9h-2.176v4.9h-2.89v-4.9H1386.7v4.9h-3.03v-4.9h-2.176v4.9h-3.545v-4.9h-2.177v4.9h-2.989v-4.9H1370.6v4.9h-2.853V7654.4h29.273v-36.558Z" transform="translate(-930.976 1442.636)" fill="#1d1d1b"/>
    <path id="Trazado_194671" data-name="Trazado 194671" d="M1198.807,7601.889l-14.059-14.059-1.934,10.229-3.146-3.145-14.239,14.238,12.055,12.056,14.239-14.238-3.146-3.146Z" transform="translate(-886.097 1448.205)" fill="#1d1d1b"/>
    <path id="Trazado_194672" data-name="Trazado 194672" d="M1573.43,7601.889l14.059-14.059,1.934,10.229,3.145-3.145,14.239,14.238-12.055,12.056-14.239-14.238,3.146-3.146Z" transform="translate(-976.6 1448.205)" fill="#1d1d1b"/>
    <path id="Trazado_194673" data-name="Trazado 194673" d="M1438.976,7463.147a35.149,35.149,0,0,1-52.127,15.729" transform="translate(-935.212 1475.861)" fill="none" stroke="#ff9500" stroke-miterlimit="10" stroke-width="3"/>
    <path id="Trazado_194674" data-name="Trazado 194674" d="M1382.982,7479.186H1242.748a4.412,4.412,0,0,1-4.412-4.412v-31.49" transform="translate(-902.269 1480.268)" fill="none" stroke="#000" stroke-miterlimit="10" stroke-width="1"/>
  </g>
</svg>
