<svg xmlns="http://www.w3.org/2000/svg" width="154.682" height="154.701" viewBox="0 0 154.682 154.701">
  <g id="Grupo_132769" data-name="Grupo 132769" transform="translate(4424.682 10687.852)">
    <path id="Trazado_195102" data-name="Trazado 195102" d="M2987.934-151.489H3087.4v90.546h-29.407v8.619H2985.4v-99.165Z" transform="translate(-7369.297 -10495.038)" fill="#f37d07" opacity="0.5"/>
    <path id="Trazado_195103" data-name="Trazado 195103" d="M2954.645-180.358v122.2h118.6v-122.2Zm111.389,99.364h-29.407v8.619h-72.586v-99.165h101.993Z" transform="translate(-7347.935 -10474.988)" fill="#6c6c6c"/>
    <rect id="Rect치ngulo_294852" data-name="Rect치ngulo 294852" width="131.032" height="18.719" transform="translate(-4422.657 -10685.629)" fill="#3777bc"/>
    <rect id="Rect치ngulo_294853" data-name="Rect치ngulo 294853" width="18.719" height="18.719" transform="translate(-4289.989 -10685.629)" fill="#f37d07" opacity="0.5"/>
    <path id="Trazado_195104" data-name="Trazado 195104" d="M3080.892-28.511l21.952,9.983V7.123l-21.952-8.39Z" transform="translate(-7435.616 -10580.449)" fill="#95d3e8"/>
    <path id="Trazado_195105" data-name="Trazado 195105" d="M3160.041-20.5l20.188-8.01v16.659l-11.2,15.2-8.985,3.774Z" transform="translate(-7490.587 -10580.449)" fill="#3777bc"/>
    <path id="Trazado_195106" data-name="Trazado 195106" d="M3088.728-56.164l19.962-9.588,19.6,9.613-19.6,9.756Z" transform="translate(-7441.059 -10554.584)" fill="#fff"/>
    <g id="Grupo_132570" data-name="Grupo 132570" transform="translate(-4424.682 -10687.852)">
      <path id="Trazado_195107" data-name="Trazado 195107" d="M2851.88-132.066v-154.7h154.682v154.7Zm149.917-120.8H2885.783v116.02H3001.8Zm-145.287-9.813c-.035.554-.082.95-.082,1.347q-.005,56.741-.026,113.481c0,1.184.292,1.58,1.535,1.57,7.228-.058,14.456-.027,21.685-.033.388,0,.776-.067,1.135-.1V-262.676Zm126-19.35H2856.647v14.4h125.861Zm-19.348,19.4h-53.2v4.7h53.2Zm38.67-4.969v-14.462h-14.34v14.462Zm.036,4.972h-33.861v4.735h33.861ZM2880.8-141.732h-20.927c-3.482,0-3.428,0-3.475,3.557-.017,1.279.394,1.641,1.651,1.632,7.168-.052,14.336-.023,21.5-.029.39,0,.781-.067,1.247-.109Zm24.176-116.147V-262.6h-19.221v4.724Z" transform="translate(-2851.88 286.767)"/>
      <path id="Trazado_195108" data-name="Trazado 195108" d="M3056.115-63.074V-56h-77.188V-159.746h106.18v96.672Zm-52.525-25.39c-6.367,2.721-12.634,5.416-18.919,8.063a1.644,1.644,0,0,0-1.229,1.771q.077,8.248,0,16.5c-.015,1.267.356,1.63,1.63,1.628q32.457-.055,64.914,0c1.216,0,1.617-.34,1.561-1.551-.087-1.906-.022-3.818-.022-5.852h29.052c0-4.65.026-9.169-.046-13.687-.007-.386-.6-.891-1.031-1.121-1.882-1-3.81-1.905-5.715-2.858-2.026-1.014-4.047-2.041-6.149-3.1l2.091-4.131,10.742,5.319c.051-.726.109-1.165.109-1.6q.005-32.309.028-64.619c0-1.242-.378-1.545-1.56-1.542q-21.537.051-43.073.026c-.49,0-.98.053-1.625.091v16.876h-4.822v-16.888c-.508-.03-.855-.068-1.2-.068-14.459,0-28.918.019-43.378-.023-1.287,0-1.5.471-1.494,1.6q.034,33.684.013,67.368a8.585,8.585,0,0,0,.163,1.169,7.068,7.068,0,0,0,.883-.236c5.336-2.306,10.677-4.6,16-6.947.933-.411,1.47-.392,1.814.688C3002.636-90.588,3003.107-89.632,3003.591-88.464Z" transform="translate(-2940.118 198.548)"/>
      <path id="Trazado_195109" data-name="Trazado 195109" d="M3252.677,177.562h-4.66v-4.535h4.66Z" transform="translate(-3127.007 -32.57)"/>
      <path id="Trazado_195110" data-name="Trazado 195110" d="M3280.035,172.975h4.636v4.534h-4.636Z" transform="translate(-3149.244 -32.534)"/>
      <path id="Trazado_195111" data-name="Trazado 195111" d="M3311.568,177.561v-4.534h4.535v4.534Z" transform="translate(-3171.144 -32.57)"/>
      <path id="Trazado_195112" data-name="Trazado 195112" d="M2898.349-172.582h-4.7V-177.4c-1.53,0-2.848-.07-4.149.048a1.4,1.4,0,0,0-.884,1.007c-.114,1.2-.043,2.423-.043,3.732H2884.3c0-4.411-.411-8.81.107-13.1a6.679,6.679,0,0,1,10.146-4.908,8.539,8.539,0,0,1,3.733,6.658,24.2,24.2,0,0,1,.056,2.593C2898.353-178.482,2898.349-175.592,2898.349-172.582Zm-4.573-9.448a14.881,14.881,0,0,0-.712-3.463,2.653,2.653,0,0,0-1.916-1.367,2.647,2.647,0,0,0-1.9,1.355,16.235,16.235,0,0,0-.853,3.475Z" transform="translate(-2874.291 220.701)"/>
      <path id="Trazado_195113" data-name="Trazado 195113" d="M2888.407-80.636v4.547h-4.394v-4.547Z" transform="translate(-2874.198 143.604)"/>
      <path id="Trazado_195114" data-name="Trazado 195114" d="M2884.053,109.645h4.343V114.2h-4.343Z" transform="translate(-2874.225 11.45)"/>
      <path id="Trazado_195115" data-name="Trazado 195115" d="M2915.226-80.7h4.559v4.673c-1.295,0-2.6.033-3.9-.031a.936.936,0,0,1-.627-.662C2915.194-78.016,2915.226-79.321,2915.226-80.7Z" transform="translate(-2895.87 143.647)"/>
      <path id="Trazado_195116" data-name="Trazado 195116" d="M2919.548,109.305v4.707c-1.369,0-2.879.391-4.007-.1-1.434-.621-.425-2.317-.6-3.523a1.349,1.349,0,0,1,.833-1.036A36.623,36.623,0,0,1,2919.548,109.305Z" transform="translate(-2895.55 11.702)"/>
      <path id="Trazado_195117" data-name="Trazado 195117" d="M2888.348,145.958h-4.4v-4.527h4.4Z" transform="translate(-2874.152 -10.626)"/>
      <path id="Trazado_195118" data-name="Trazado 195118" d="M2915.531,141.278h4.486v4.569h-4.486Z" transform="translate(-2896.087 -10.52)"/>
      <path id="Trazado_195119" data-name="Trazado 195119" d="M2883.974-112.083h4.364v4.473h-4.364Z" transform="translate(-2874.17 165.445)"/>
      <path id="Trazado_195120" data-name="Trazado 195120" d="M2883.906-44.354v-4.394h4.384v4.394Z" transform="translate(-2874.123 121.457)"/>
      <path id="Trazado_195121" data-name="Trazado 195121" d="M2883.894-12.269v-4.389h4.408v4.389Z" transform="translate(-2874.114 99.17)"/>
      <path id="Trazado_195122" data-name="Trazado 195122" d="M2915.632-16.852h4.456v4.431h-4.456Z" transform="translate(-2896.157 99.305)"/>
      <path id="Trazado_195123" data-name="Trazado 195123" d="M2888.4,18.868h-4.335V14.29h4.335Z" transform="translate(-2874.229 77.676)"/>
      <path id="Trazado_195124" data-name="Trazado 195124" d="M2920.117,18.848h-4.471V14.289h4.471Z" transform="translate(-2896.167 77.677)"/>
      <path id="Trazado_195125" data-name="Trazado 195125" d="M2888.4,46.354v4.374h-4.394V46.354Z" transform="translate(-2874.193 55.407)"/>
      <path id="Trazado_195126" data-name="Trazado 195126" d="M2915.488,50.786V46.43h4.484v4.356Z" transform="translate(-2896.057 55.354)"/>
      <path id="Trazado_195127" data-name="Trazado 195127" d="M2915.448-107.455v-4.429h4.522v4.429Z" transform="translate(-2896.029 165.307)"/>
      <path id="Trazado_195128" data-name="Trazado 195128" d="M2888.423,78.35v4.4h-4.384v-4.4Z" transform="translate(-2874.215 33.185)"/>
      <path id="Trazado_195129" data-name="Trazado 195129" d="M2920.069,82.745h-4.477V78.312h4.477Z" transform="translate(-2896.13 33.211)"/>
      <path id="Trazado_195130" data-name="Trazado 195130" d="M2915.474-44.319v-4.414H2920v4.414Z" transform="translate(-2896.047 121.447)"/>
      <path id="Trazado_195131" data-name="Trazado 195131" d="M2919.811-254.663v4.409h-4.656v-4.409Z" transform="translate(-2895.826 264.47)"/>
      <path id="Trazado_195132" data-name="Trazado 195132" d="M2951.718-254.72v4.388h-4.595v-4.388Z" transform="translate(-2918.028 264.51)"/>
      <path id="Trazado_195133" data-name="Trazado 195133" d="M2888.44-250.216h-4.4v-4.476h4.4Z" transform="translate(-2874.213 264.49)"/>
      <path id="Trazado_195134" data-name="Trazado 195134" d="M3122.777-42.413h-4.721V-56.155c-1.864.838-3.506,1.555-5.129,2.311-3.766,1.754-7.537,3.5-11.265,5.329a2.145,2.145,0,0,0-1.084,1.5c-.074,6.872-.054,13.745-.051,20.617a5.449,5.449,0,0,0,.133.762l7.476-3.455,1.988,4.21a62.641,62.641,0,0,0-6.843,3.29c-3.449,2.183-6.5,2.015-10.11.07-5.821-3.134-11.962-5.675-17.957-8.488a2.6,2.6,0,0,1-1.569-2.553c.016-9.011-.028-18.022.07-27.031a3.174,3.174,0,0,1,1.388-2.382c7.094-3.451,14.277-6.718,21.388-10.137a3.966,3.966,0,0,1,3.727.137c6.909,3.249,13.813,6.511,20.739,9.724a2.648,2.648,0,0,1,1.795,2.412C3122.8-54.092,3122.777-48.347,3122.777-42.413Zm-44.334-13.762a4.848,4.848,0,0,0-.165.726c0,6.873.02,13.746-.025,20.618-.007.983.515,1.315,1.235,1.651,3.164,1.475,6.316,2.975,9.481,4.45,2.22,1.035,4.453,2.044,6.716,3.081a2.632,2.632,0,0,0,.205-.6c.01-6.974.03-13.949-.029-20.923a1.883,1.883,0,0,0-.969-1.295c-2.624-1.3-5.293-2.514-7.949-3.752C3084.159-53.519,3081.375-54.812,3078.443-56.175Zm36.268-3.638a6.257,6.257,0,0,0-.74-.524c-4.977-2.341-9.944-4.7-14.955-6.97a2.76,2.76,0,0,0-1.991.163c-3.548,1.583-7.062,3.243-10.579,4.9-1.548.727-3.074,1.5-4.853,2.366,4.561,2.156,8.8,4.052,12.934,6.153,2.424,1.233,4.49,1.583,7.1.118C3105.784-55.938,3110.237-57.727,3114.711-59.813Z" transform="translate(-3005.902 137.963)"/>
      <path id="Trazado_195135" data-name="Trazado 195135" d="M3202.043,38.289l12.061,3.834c-.312,1.019-.572,1.962-.895,2.884a1.509,1.509,0,0,0,.44,1.846c1.11,1.035,2.09,2.209,3.106,3.3l-3.291,3.36c-.866-.952-1.8-1.868-2.6-2.888a2.244,2.244,0,0,0-2.882-.769c-2.246.8-2.263.746-2.951-1.562C3204.077,45.078,3203.111,41.859,3202.043,38.289Z" transform="translate(-3095.077 61.008)"/>
    </g>
  </g>
</svg>
